<?xml version="1.0" encoding="UTF-8" standalone="no"?><svg xmlns="http://www.w3.org/2000/svg" xmlns:xlink="http://www.w3.org/1999/xlink" contentStyleType="text/css" height="966.7451px" preserveAspectRatio="none" style="width:750px;height:966px;background:#FFFFFF;" version="1.1" viewBox="0 0 750 966" width="750.4414px" zoomAndPan="magnify"><defs/><g><rect height="23.2168" style="stroke:#00000000;stroke-width:0.8828722778104767;fill:none;" width="262.2131" x="238.1548" y="4.4144"/><text fill="#000000" font-family="sans-serif" font-size="12.3602" font-weight="bold" lengthAdjust="spacing" textLength="253.3843" x="242.5692" y="20.3018">Исходный файл: "DMStatUnit.cpp"</text><!--MD5=[fc6c7e32048834de1093700e997bcb35]
cluster TDMStat--><g id="cluster_TDMStat"><path d="M303.7081,38.2256 L368.1577,38.2256 A3.3108,3.3108 0 0 1 370.3649,40.4328 L376.545,57.9109 L412.3014,57.9109 A2.2072,2.2072 0 0 1 414.5085,60.1181 L414.5085,123.4228 A2.2072,2.2072 0 0 1 412.3014,125.63 L303.7081,125.63 A2.2072,2.2072 0 0 1 301.5009,123.4228 L301.5009,40.4328 A2.2072,2.2072 0 0 1 303.7081,38.2256 " style="stroke:#000000;stroke-width:1.324308416715715;fill:none;"/><line style="stroke:#000000;stroke-width:1.324308416715715;fill:none;" x1="301.5009" x2="376.545" y1="57.9109" y2="57.9109"/><text fill="#000000" font-family="sans-serif" font-size="12.3602" font-weight="bold" lengthAdjust="spacing" textLength="63.5668" x="305.0324" y="51.4644">TDMStat</text></g><!--MD5=[1f707476d3de827c997aa866f443be39]
class TDMStat--><g id="elem_TDMStat"><rect codeLine="92" fill="#F1F1F1" height="42.3779" id="TDMStat" rx="2.2072" ry="2.2072" style="stroke:#181818;stroke-width:0.44143613890523836;" width="83.8729" x="316.0683" y="69.1261"/><ellipse cx="329.3114" cy="83.2521" fill="#ADD1B2" rx="9.7116" ry="9.7116" style="stroke:#181818;stroke-width:0.8828722778104767;"/><path d="M331.3806,79.4309 C330.5529,79.0447 330.0287,78.9205 329.2562,78.9205 C326.9386,78.9205 325.1729,80.7552 325.1729,83.1555 L325.1729,84.1488 C325.1729,86.4249 327.0352,88.0941 329.5873,88.0941 C330.6633,88.0941 331.6841,87.832 332.3462,87.3492 C332.8566,86.9905 333.1463,86.5905 333.1463,86.2456 C333.1463,85.8455 332.8015,85.5007 332.3876,85.5007 C332.1945,85.5007 332.0152,85.5696 331.8496,85.7352 C331.4496,86.1628 331.4496,86.1628 331.284,86.2456 C330.9116,86.4801 330.3046,86.5905 329.6286,86.5905 C327.8215,86.5905 326.6765,85.6248 326.6765,84.1212 L326.6765,83.1555 C326.6765,81.5829 327.7801,80.4241 329.3114,80.4241 C329.8218,80.4241 330.3598,80.5621 330.7736,80.7828 C331.2013,81.0311 331.353,81.2242 331.4358,81.5829 C331.491,81.9416 331.5185,82.0519 331.6427,82.1623 C331.7668,82.2865 331.9738,82.383 332.1669,82.383 C332.4014,82.383 332.6359,82.2589 332.7877,82.0657 C332.8842,81.9278 332.9118,81.7622 332.9118,81.3898 L332.9118,80.1345 C332.9118,79.7482 332.898,79.6378 332.8153,79.4999 C332.6773,79.2654 332.429,79.1412 332.1669,79.1412 C331.9048,79.1412 331.7255,79.224 331.5323,79.4999 L331.3806,79.4309 Z " fill="#000000"/><text fill="#000000" font-family="sans-serif" font-size="12.3602" lengthAdjust="spacing" textLength="55.621" x="341.6716" y="87.5311">TDMStat</text><line style="stroke:#181818;stroke-width:0.44143613890523836;" x1="316.9511" x2="399.0583" y1="97.3781" y2="97.3781"/><line style="stroke:#181818;stroke-width:0.44143613890523836;" x1="316.9511" x2="399.0583" y1="104.441" y2="104.441"/></g><!--MD5=[83a073ca38e015128aa93d82f3a03a54]
class <b>TDMStat</b>--><g id="elem_&lt;b&gt;TDMStat&lt;/b&gt;"><rect codeLine="10" fill="#F1F1F1" height="796.8336" id="&lt;b&gt;TDMStat&lt;/b&gt;" rx="2.2072" ry="2.2072" style="stroke:#181818;stroke-width:0.44143613890523836;" width="433.4903" x="6.1801" y="164.4763"/><ellipse cx="187.3896" cy="178.6023" fill="#ADD1B2" rx="9.7116" ry="9.7116" style="stroke:#181818;stroke-width:0.8828722778104767;"/><path d="M189.4589,174.7811 C188.6312,174.3949 188.107,174.2707 187.3345,174.2707 C185.0169,174.2707 183.2512,176.1054 183.2512,178.5057 L183.2512,179.499 C183.2512,181.7751 185.1135,183.4443 187.6655,183.4443 C188.7415,183.4443 189.7624,183.1822 190.4245,182.6994 C190.9349,182.3407 191.2246,181.9407 191.2246,181.5958 C191.2246,181.1957 190.8797,180.8509 190.4659,180.8509 C190.2728,180.8509 190.0934,180.9198 189.9279,181.0854 C189.5278,181.513 189.5278,181.513 189.3623,181.5958 C188.9898,181.8303 188.3829,181.9407 187.7069,181.9407 C185.8998,181.9407 184.7548,180.975 184.7548,179.4714 L184.7548,178.5057 C184.7548,176.9331 185.8584,175.7744 187.3896,175.7744 C187.9001,175.7744 188.4381,175.9123 188.8519,176.133 C189.2795,176.3813 189.4313,176.5745 189.5141,176.9331 C189.5692,177.2918 189.5968,177.4021 189.721,177.5125 C189.8451,177.6367 190.0521,177.7332 190.2452,177.7332 C190.4797,177.7332 190.7142,177.6091 190.866,177.4159 C190.9625,177.278 190.9901,177.1125 190.9901,176.74 L190.9901,175.4847 C190.9901,175.0984 190.9763,174.988 190.8935,174.8501 C190.7556,174.6156 190.5073,174.4914 190.2452,174.4914 C189.9831,174.4914 189.8037,174.5742 189.6106,174.8501 L189.4589,174.7811 Z " fill="#000000"/><text fill="#000000" font-family="sans-serif" font-size="12.3602" font-weight="bold" lengthAdjust="spacing" textLength="63.5668" x="205.4885" y="182.8813">TDMStat</text><line style="stroke:#181818;stroke-width:0.44143613890523836;" x1="7.063" x2="438.7875" y1="192.7283" y2="192.7283"/><text fill="#000000" font-family="sans-serif" font-size="12.3602" font-weight="bold" lengthAdjust="spacing" textLength="165.98" x="11.4773" y="207.7328">SHOWS ONLY METHODS</text><line style="stroke:#181818;stroke-width:0.8828722778104767;" x1="7.063" x2="438.7875" y1="214.1793" y2="214.1793"/><ellipse cx="15.8917" cy="223.8909" fill="none" rx="2.6486" ry="2.6486" style="stroke:#038048;stroke-width:0.8828722778104767;"/><text fill="#000000" font-family="sans-serif" font-size="12.3602" lengthAdjust="spacing" textLength="141.2596" x="23.8376" y="229.1838">DSCount_Ball_Examen</text><text fill="#000000" font-family="sans-serif" font-size="12.3602" lengthAdjust="spacing" textLength="4.4144" x="334.6086" y="229.1838">:</text><text fill="#000000" font-family="sans-serif" font-size="12.3602" font-style="italic" lengthAdjust="spacing" textLength="91.8187" x="342.5544" y="229.1838">TDataSource *</text><ellipse cx="15.8917" cy="238.279" fill="none" rx="2.6486" ry="2.6486" style="stroke:#038048;stroke-width:0.8828722778104767;"/><text fill="#000000" font-family="sans-serif" font-size="12.3602" lengthAdjust="spacing" textLength="79.4585" x="23.8376" y="243.5719">DSCount_CK</text><text fill="#000000" font-family="sans-serif" font-size="12.3602" lengthAdjust="spacing" textLength="4.4144" x="334.6086" y="243.5719">:</text><text fill="#000000" font-family="sans-serif" font-size="12.3602" font-style="italic" lengthAdjust="spacing" textLength="91.8187" x="342.5544" y="243.5719">TDataSource *</text><text fill="#000000" font-family="sans-serif" font-size="12.3602" lengthAdjust="spacing" textLength="16.7746" x="23.8376" y="257.9599">.. (</text><text fill="#000000" font-family="sans-serif" font-size="12.3602" font-style="italic" lengthAdjust="spacing" textLength="338.1401" x="40.6121" y="257.9599">and etc. For all fields, see: class_DMStatUnit_All_Fields</text><text fill="#000000" font-family="sans-serif" font-size="12.3602" lengthAdjust="spacing" textLength="16.7746" x="378.7522" y="257.9599">) ..</text><line style="stroke:#181818;stroke-width:0.8828722778104767;" x1="7.063" x2="438.7875" y1="264.4065" y2="264.4065"/><text fill="#000000" font-family="sans-serif" font-size="12.3602" lengthAdjust="spacing" textLength="3.5315" x="23.8376" y="279.411"> </text><ellipse cx="15.8917" cy="288.5061" fill="#84BE84" rx="2.6486" ry="2.6486" style="stroke:#038048;stroke-width:0.8828722778104767;"/><text fill="#000000" font-family="sans-serif" font-size="12.3602" font-weight="bold" lengthAdjust="spacing" textLength="118.3049" x="23.8376" y="293.799">TDMStat (Owner</text><text fill="#000000" font-family="sans-serif" font-size="12.3602" font-weight="bold" lengthAdjust="spacing" textLength="5.2972" x="165.0971" y="293.799">:</text><text fill="#000000" font-family="sans-serif" font-size="12.3602" font-style="italic" font-weight="bold" lengthAdjust="spacing" textLength="100.6474" x="174.8087" y="293.799">TComponent *</text><text fill="#000000" font-family="sans-serif" font-size="12.3602" font-weight="bold" lengthAdjust="spacing" textLength="6.1801" x="275.4562" y="293.799">)</text><text fill="#000000" font-family="sans-serif" font-size="12.3602" lengthAdjust="spacing" textLength="3.5315" x="23.8376" y="308.1871"> </text><ellipse cx="15.8917" cy="317.2822" fill="#84BE84" rx="2.6486" ry="2.6486" style="stroke:#038048;stroke-width:0.8828722778104767;"/><text fill="#000000" font-family="sans-serif" font-size="12.3602" lengthAdjust="spacing" textLength="20.3061" x="23.8376" y="322.5751">FIO</text><text fill="#000000" font-family="sans-serif" font-size="12.3602" lengthAdjust="spacing" textLength="4.4144" x="136.8452" y="322.5751">(</text><text fill="#000000" font-family="sans-serif" font-size="12.3602" lengthAdjust="spacing" textLength="27.369" x="80.3414" y="336.9632">text</text><text fill="#000000" font-family="sans-serif" font-size="12.3602" lengthAdjust="spacing" textLength="4.4144" x="193.349" y="336.9632">:</text><text fill="#000000" font-family="sans-serif" font-size="12.3602" font-style="italic" lengthAdjust="spacing" textLength="63.5668" x="201.2949" y="336.9632">AnsiString</text><text fill="#000000" font-family="sans-serif" font-size="12.3602" lengthAdjust="spacing" textLength="3.5315" x="264.8617" y="336.9632">,</text><text fill="#000000" font-family="sans-serif" font-size="12.3602" lengthAdjust="spacing" textLength="7.9459" x="80.3414" y="351.3513">q</text><text fill="#000000" font-family="sans-serif" font-size="12.3602" lengthAdjust="spacing" textLength="4.4144" x="193.349" y="351.3513">:</text><text fill="#000000" font-family="sans-serif" font-size="12.3602" font-style="italic" lengthAdjust="spacing" textLength="72.3955" x="201.2949" y="351.3513">TFDQuery *</text><text fill="#000000" font-family="sans-serif" font-size="12.3602" lengthAdjust="spacing" textLength="3.5315" x="273.6904" y="351.3513">,</text><text fill="#000000" font-family="sans-serif" font-size="12.3602" lengthAdjust="spacing" textLength="28.2519" x="80.3414" y="365.7393">pole</text><text fill="#000000" font-family="sans-serif" font-size="12.3602" lengthAdjust="spacing" textLength="4.4144" x="193.349" y="365.7393">:</text><text fill="#000000" font-family="sans-serif" font-size="12.3602" font-style="italic" lengthAdjust="spacing" textLength="63.5668" x="201.2949" y="365.7393">AnsiString</text><text fill="#000000" font-family="sans-serif" font-size="12.3602" lengthAdjust="spacing" textLength="12.3602" x="52.0895" y="380.1274">) :</text><text fill="#000000" font-family="sans-serif" font-size="12.3602" font-style="italic" lengthAdjust="spacing" textLength="26.4862" x="67.9812" y="380.1274">void</text><line style="stroke:#181818;stroke-width:0.8828722778104767;stroke-dasharray:1.0,2.0;" x1="7.063" x2="438.7875" y1="386.5739" y2="386.5739"/><ellipse cx="15.8917" cy="396.2855" fill="#84BE84" rx="2.6486" ry="2.6486" style="stroke:#038048;stroke-width:0.8828722778104767;"/><text fill="#000000" font-family="sans-serif" font-size="12.3602" lengthAdjust="spacing" textLength="74.1613" x="23.8376" y="401.5784">Prohod_Ball</text><text fill="#000000" font-family="sans-serif" font-size="12.3602" lengthAdjust="spacing" textLength="4.4144" x="136.8452" y="401.5784">(</text><text fill="#000000" font-family="sans-serif" font-size="12.3602" lengthAdjust="spacing" textLength="37.0806" x="80.3414" y="415.9665">gorod</text><text fill="#000000" font-family="sans-serif" font-size="12.3602" lengthAdjust="spacing" textLength="4.4144" x="193.349" y="415.9665">:</text><text fill="#000000" font-family="sans-serif" font-size="12.3602" font-style="italic" lengthAdjust="spacing" textLength="28.2519" x="201.2949" y="415.9665">float</text><text fill="#000000" font-family="sans-serif" font-size="12.3602" lengthAdjust="spacing" textLength="3.5315" x="229.5468" y="415.9665">,</text><text fill="#000000" font-family="sans-serif" font-size="12.3602" lengthAdjust="spacing" textLength="25.6033" x="80.3414" y="430.3545">selo</text><text fill="#000000" font-family="sans-serif" font-size="12.3602" lengthAdjust="spacing" textLength="4.4144" x="193.349" y="430.3545">:</text><text fill="#000000" font-family="sans-serif" font-size="12.3602" font-style="italic" lengthAdjust="spacing" textLength="28.2519" x="201.2949" y="430.3545">float</text><text fill="#000000" font-family="sans-serif" font-size="12.3602" lengthAdjust="spacing" textLength="3.5315" x="229.5468" y="430.3545">,</text><text fill="#000000" font-family="sans-serif" font-size="12.3602" lengthAdjust="spacing" textLength="40.6121" x="80.3414" y="444.7426">stroka</text><text fill="#000000" font-family="sans-serif" font-size="12.3602" lengthAdjust="spacing" textLength="4.4144" x="193.349" y="444.7426">:</text><text fill="#000000" font-family="sans-serif" font-size="12.3602" font-style="italic" lengthAdjust="spacing" textLength="15.8917" x="201.2949" y="444.7426">int</text><text fill="#000000" font-family="sans-serif" font-size="12.3602" lengthAdjust="spacing" textLength="3.5315" x="217.1866" y="444.7426">,</text><text fill="#000000" font-family="sans-serif" font-size="12.3602" lengthAdjust="spacing" textLength="89.1701" x="80.3414" y="459.1307">price_twokurs</text><text fill="#000000" font-family="sans-serif" font-size="12.3602" lengthAdjust="spacing" textLength="4.4144" x="193.349" y="459.1307">:</text><text fill="#000000" font-family="sans-serif" font-size="12.3602" font-style="italic" lengthAdjust="spacing" textLength="15.8917" x="201.2949" y="459.1307">int</text><text fill="#000000" font-family="sans-serif" font-size="12.3602" lengthAdjust="spacing" textLength="12.3602" x="52.0895" y="473.5187">) :</text><text fill="#000000" font-family="sans-serif" font-size="12.3602" font-style="italic" lengthAdjust="spacing" textLength="26.4862" x="67.9812" y="473.5187">void</text><line style="stroke:#181818;stroke-width:0.8828722778104767;stroke-dasharray:1.0,2.0;" x1="7.063" x2="438.7875" y1="479.9652" y2="479.9652"/><ellipse cx="15.8917" cy="489.6768" fill="#84BE84" rx="2.6486" ry="2.6486" style="stroke:#038048;stroke-width:0.8828722778104767;"/><text fill="#000000" font-family="sans-serif" font-size="12.3602" lengthAdjust="spacing" textLength="61.8011" x="23.8376" y="494.9698">SQL_Build</text><text fill="#000000" font-family="sans-serif" font-size="12.3602" lengthAdjust="spacing" textLength="4.4144" x="136.8452" y="494.9698">(</text><text fill="#000000" font-family="sans-serif" font-size="12.3602" lengthAdjust="spacing" textLength="30.9005" x="80.3414" y="509.3578">form</text><text fill="#000000" font-family="sans-serif" font-size="12.3602" lengthAdjust="spacing" textLength="4.4144" x="193.349" y="509.3578">:</text><text fill="#000000" font-family="sans-serif" font-size="12.3602" font-style="italic" lengthAdjust="spacing" textLength="15.8917" x="201.2949" y="509.3578">int</text><text fill="#000000" font-family="sans-serif" font-size="12.3602" lengthAdjust="spacing" textLength="3.5315" x="217.1866" y="509.3578">,</text><text fill="#000000" font-family="sans-serif" font-size="12.3602" lengthAdjust="spacing" textLength="18.5403" x="80.3414" y="523.7459">vid</text><text fill="#000000" font-family="sans-serif" font-size="12.3602" lengthAdjust="spacing" textLength="4.4144" x="193.349" y="523.7459">:</text><text fill="#000000" font-family="sans-serif" font-size="12.3602" font-style="italic" lengthAdjust="spacing" textLength="15.8917" x="201.2949" y="523.7459">int</text><text fill="#000000" font-family="sans-serif" font-size="12.3602" lengthAdjust="spacing" textLength="3.5315" x="217.1866" y="523.7459">,</text><text fill="#000000" font-family="sans-serif" font-size="12.3602" lengthAdjust="spacing" textLength="40.6121" x="80.3414" y="538.1339">param</text><text fill="#000000" font-family="sans-serif" font-size="12.3602" lengthAdjust="spacing" textLength="4.4144" x="193.349" y="538.1339">:</text><text fill="#000000" font-family="sans-serif" font-size="12.3602" font-style="italic" lengthAdjust="spacing" textLength="15.8917" x="201.2949" y="538.1339">int</text><text fill="#000000" font-family="sans-serif" font-size="12.3602" lengthAdjust="spacing" textLength="12.3602" x="52.0895" y="552.522">) :</text><text fill="#000000" font-family="sans-serif" font-size="12.3602" font-style="italic" lengthAdjust="spacing" textLength="26.4862" x="67.9812" y="552.522">void</text><line style="stroke:#181818;stroke-width:0.8828722778104767;stroke-dasharray:1.0,2.0;" x1="7.063" x2="438.7875" y1="558.9685" y2="558.9685"/><ellipse cx="15.8917" cy="568.6801" fill="#84BE84" rx="2.6486" ry="2.6486" style="stroke:#038048;stroke-width:0.8828722778104767;"/><text fill="#000000" font-family="sans-serif" font-size="12.3602" lengthAdjust="spacing" textLength="96.2331" x="23.8376" y="573.973">SQL_BuildCycle</text><text fill="#000000" font-family="sans-serif" font-size="12.3602" lengthAdjust="spacing" textLength="4.4144" x="136.8452" y="573.973">(</text><text fill="#000000" font-family="sans-serif" font-size="12.3602" lengthAdjust="spacing" textLength="30.9005" x="80.3414" y="588.3611">form</text><text fill="#000000" font-family="sans-serif" font-size="12.3602" lengthAdjust="spacing" textLength="4.4144" x="193.349" y="588.3611">:</text><text fill="#000000" font-family="sans-serif" font-size="12.3602" font-style="italic" lengthAdjust="spacing" textLength="15.8917" x="201.2949" y="588.3611">int</text><text fill="#000000" font-family="sans-serif" font-size="12.3602" lengthAdjust="spacing" textLength="3.5315" x="217.1866" y="588.3611">,</text><text fill="#000000" font-family="sans-serif" font-size="12.3602" lengthAdjust="spacing" textLength="18.5403" x="80.3414" y="602.7491">vid</text><text fill="#000000" font-family="sans-serif" font-size="12.3602" lengthAdjust="spacing" textLength="4.4144" x="193.349" y="602.7491">:</text><text fill="#000000" font-family="sans-serif" font-size="12.3602" font-style="italic" lengthAdjust="spacing" textLength="15.8917" x="201.2949" y="602.7491">int</text><text fill="#000000" font-family="sans-serif" font-size="12.3602" lengthAdjust="spacing" textLength="3.5315" x="217.1866" y="602.7491">,</text><text fill="#000000" font-family="sans-serif" font-size="12.3602" lengthAdjust="spacing" textLength="56.5038" x="80.3414" y="617.1372">rec_spec</text><text fill="#000000" font-family="sans-serif" font-size="12.3602" lengthAdjust="spacing" textLength="4.4144" x="193.349" y="617.1372">:</text><text fill="#000000" font-family="sans-serif" font-size="12.3602" font-style="italic" lengthAdjust="spacing" textLength="15.8917" x="201.2949" y="617.1372">int</text><text fill="#000000" font-family="sans-serif" font-size="12.3602" lengthAdjust="spacing" textLength="3.5315" x="217.1866" y="617.1372">,</text><text fill="#000000" font-family="sans-serif" font-size="12.3602" lengthAdjust="spacing" textLength="40.6121" x="80.3414" y="631.5253">param</text><text fill="#000000" font-family="sans-serif" font-size="12.3602" lengthAdjust="spacing" textLength="4.4144" x="193.349" y="631.5253">:</text><text fill="#000000" font-family="sans-serif" font-size="12.3602" font-style="italic" lengthAdjust="spacing" textLength="15.8917" x="201.2949" y="631.5253">int</text><text fill="#000000" font-family="sans-serif" font-size="12.3602" lengthAdjust="spacing" textLength="12.3602" x="52.0895" y="645.9133">) :</text><text fill="#000000" font-family="sans-serif" font-size="12.3602" font-style="italic" lengthAdjust="spacing" textLength="26.4862" x="67.9812" y="645.9133">void</text><line style="stroke:#181818;stroke-width:0.8828722778104767;stroke-dasharray:1.0,2.0;" x1="7.063" x2="438.7875" y1="652.3598" y2="652.3598"/><ellipse cx="15.8917" cy="662.0714" fill="#84BE84" rx="2.6486" ry="2.6486" style="stroke:#038048;stroke-width:0.8828722778104767;"/><text fill="#000000" font-family="sans-serif" font-size="12.3602" lengthAdjust="spacing" textLength="82.1071" x="23.8376" y="667.3644">SQL_Min_Ball</text><text fill="#000000" font-family="sans-serif" font-size="12.3602" lengthAdjust="spacing" textLength="4.4144" x="136.8452" y="667.3644">(</text><text fill="#000000" font-family="sans-serif" font-size="12.3602" lengthAdjust="spacing" textLength="54.7381" x="80.3414" y="681.7524">vid_educ</text><text fill="#000000" font-family="sans-serif" font-size="12.3602" lengthAdjust="spacing" textLength="4.4144" x="193.349" y="681.7524">:</text><text fill="#000000" font-family="sans-serif" font-size="12.3602" font-style="italic" lengthAdjust="spacing" textLength="15.8917" x="201.2949" y="681.7524">int</text><text fill="#000000" font-family="sans-serif" font-size="12.3602" lengthAdjust="spacing" textLength="3.5315" x="217.1866" y="681.7524">,</text><text fill="#000000" font-family="sans-serif" font-size="12.3602" lengthAdjust="spacing" textLength="15.0088" x="80.3414" y="696.1405">sp</text><text fill="#000000" font-family="sans-serif" font-size="12.3602" lengthAdjust="spacing" textLength="4.4144" x="193.349" y="696.1405">:</text><text fill="#000000" font-family="sans-serif" font-size="12.3602" font-style="italic" lengthAdjust="spacing" textLength="15.8917" x="201.2949" y="696.1405">int</text><text fill="#000000" font-family="sans-serif" font-size="12.3602" lengthAdjust="spacing" textLength="3.5315" x="217.1866" y="696.1405">,</text><text fill="#000000" font-family="sans-serif" font-size="12.3602" lengthAdjust="spacing" textLength="32.6663" x="80.3414" y="710.5285">price</text><text fill="#000000" font-family="sans-serif" font-size="12.3602" lengthAdjust="spacing" textLength="4.4144" x="193.349" y="710.5285">:</text><text fill="#000000" font-family="sans-serif" font-size="12.3602" font-style="italic" lengthAdjust="spacing" textLength="15.8917" x="201.2949" y="710.5285">int</text><text fill="#000000" font-family="sans-serif" font-size="12.3602" lengthAdjust="spacing" textLength="3.5315" x="217.1866" y="710.5285">,</text><text fill="#000000" font-family="sans-serif" font-size="12.3602" lengthAdjust="spacing" textLength="50.3237" x="80.3414" y="724.9166">konkurs</text><text fill="#000000" font-family="sans-serif" font-size="12.3602" lengthAdjust="spacing" textLength="4.4144" x="193.349" y="724.9166">:</text><text fill="#000000" font-family="sans-serif" font-size="12.3602" font-style="italic" lengthAdjust="spacing" textLength="15.8917" x="201.2949" y="724.9166">int</text><text fill="#000000" font-family="sans-serif" font-size="12.3602" lengthAdjust="spacing" textLength="12.3602" x="52.0895" y="739.3047">) :</text><text fill="#000000" font-family="sans-serif" font-size="12.3602" font-style="italic" lengthAdjust="spacing" textLength="28.2519" x="67.9812" y="739.3047">float</text><line style="stroke:#181818;stroke-width:0.8828722778104767;stroke-dasharray:1.0,2.0;" x1="7.063" x2="438.7875" y1="745.7512" y2="745.7512"/><ellipse cx="15.8917" cy="755.4628" fill="#84BE84" rx="2.6486" ry="2.6486" style="stroke:#038048;stroke-width:0.8828722778104767;"/><text fill="#000000" font-family="sans-serif" font-size="12.3602" lengthAdjust="spacing" textLength="54.7381" x="23.8376" y="760.7557">SQL_Run</text><text fill="#000000" font-family="sans-serif" font-size="12.3602" lengthAdjust="spacing" textLength="4.4144" x="136.8452" y="760.7557">(</text><text fill="#000000" font-family="sans-serif" font-size="12.3602" lengthAdjust="spacing" textLength="7.9459" x="80.3414" y="775.1438">q</text><text fill="#000000" font-family="sans-serif" font-size="12.3602" lengthAdjust="spacing" textLength="4.4144" x="193.349" y="775.1438">:</text><text fill="#000000" font-family="sans-serif" font-size="12.3602" font-style="italic" lengthAdjust="spacing" textLength="72.3955" x="201.2949" y="775.1438">TFDQuery *</text><text fill="#000000" font-family="sans-serif" font-size="12.3602" lengthAdjust="spacing" textLength="3.5315" x="273.6904" y="775.1438">,</text><text fill="#000000" font-family="sans-serif" font-size="12.3602" lengthAdjust="spacing" textLength="17.6574" x="80.3414" y="789.5318">sql</text><text fill="#000000" font-family="sans-serif" font-size="12.3602" lengthAdjust="spacing" textLength="4.4144" x="193.349" y="789.5318">:</text><text fill="#000000" font-family="sans-serif" font-size="12.3602" font-style="italic" lengthAdjust="spacing" textLength="63.5668" x="201.2949" y="789.5318">AnsiString</text><text fill="#000000" font-family="sans-serif" font-size="12.3602" lengthAdjust="spacing" textLength="3.5315" x="264.8617" y="789.5318">,</text><text fill="#000000" font-family="sans-serif" font-size="12.3602" lengthAdjust="spacing" textLength="54.7381" x="80.3414" y="803.9199">vid_educ</text><text fill="#000000" font-family="sans-serif" font-size="12.3602" lengthAdjust="spacing" textLength="4.4144" x="193.349" y="803.9199">:</text><text fill="#000000" font-family="sans-serif" font-size="12.3602" font-style="italic" lengthAdjust="spacing" textLength="15.8917" x="201.2949" y="803.9199">int</text><text fill="#000000" font-family="sans-serif" font-size="12.3602" lengthAdjust="spacing" textLength="3.5315" x="217.1866" y="803.9199">,</text><text fill="#000000" font-family="sans-serif" font-size="12.3602" lengthAdjust="spacing" textLength="21.1889" x="80.3414" y="818.3079">stb</text><text fill="#000000" font-family="sans-serif" font-size="12.3602" lengthAdjust="spacing" textLength="4.4144" x="193.349" y="818.3079">:</text><text fill="#000000" font-family="sans-serif" font-size="12.3602" font-style="italic" lengthAdjust="spacing" textLength="15.8917" x="201.2949" y="818.3079">int</text><text fill="#000000" font-family="sans-serif" font-size="12.3602" lengthAdjust="spacing" textLength="3.5315" x="217.1866" y="818.3079">,</text><text fill="#000000" font-family="sans-serif" font-size="12.3602" lengthAdjust="spacing" textLength="17.6574" x="80.3414" y="832.696">str</text><text fill="#000000" font-family="sans-serif" font-size="12.3602" lengthAdjust="spacing" textLength="4.4144" x="193.349" y="832.696">:</text><text fill="#000000" font-family="sans-serif" font-size="12.3602" font-style="italic" lengthAdjust="spacing" textLength="15.8917" x="201.2949" y="832.696">int</text><text fill="#000000" font-family="sans-serif" font-size="12.3602" lengthAdjust="spacing" textLength="12.3602" x="52.0895" y="847.084">) :</text><text fill="#000000" font-family="sans-serif" font-size="12.3602" font-style="italic" lengthAdjust="spacing" textLength="26.4862" x="67.9812" y="847.084">void</text><line style="stroke:#181818;stroke-width:0.8828722778104767;stroke-dasharray:1.0,2.0;" x1="7.063" x2="438.7875" y1="853.5306" y2="853.5306"/><ellipse cx="15.8917" cy="863.2422" fill="#84BE84" rx="2.6486" ry="2.6486" style="stroke:#038048;stroke-width:0.8828722778104767;"/><text fill="#000000" font-family="sans-serif" font-size="12.3602" lengthAdjust="spacing" textLength="89.1701" x="23.8376" y="868.5351">SQL_RunCycle</text><text fill="#000000" font-family="sans-serif" font-size="12.3602" lengthAdjust="spacing" textLength="4.4144" x="136.8452" y="868.5351">(</text><text fill="#000000" font-family="sans-serif" font-size="12.3602" lengthAdjust="spacing" textLength="7.9459" x="80.3414" y="882.9231">q</text><text fill="#000000" font-family="sans-serif" font-size="12.3602" lengthAdjust="spacing" textLength="4.4144" x="193.349" y="882.9231">:</text><text fill="#000000" font-family="sans-serif" font-size="12.3602" font-style="italic" lengthAdjust="spacing" textLength="72.3955" x="201.2949" y="882.9231">TFDQuery *</text><text fill="#000000" font-family="sans-serif" font-size="12.3602" lengthAdjust="spacing" textLength="3.5315" x="273.6904" y="882.9231">,</text><text fill="#000000" font-family="sans-serif" font-size="12.3602" lengthAdjust="spacing" textLength="17.6574" x="80.3414" y="897.3112">sql</text><text fill="#000000" font-family="sans-serif" font-size="12.3602" lengthAdjust="spacing" textLength="4.4144" x="193.349" y="897.3112">:</text><text fill="#000000" font-family="sans-serif" font-size="12.3602" font-style="italic" lengthAdjust="spacing" textLength="63.5668" x="201.2949" y="897.3112">AnsiString</text><text fill="#000000" font-family="sans-serif" font-size="12.3602" lengthAdjust="spacing" textLength="3.5315" x="264.8617" y="897.3112">,</text><text fill="#000000" font-family="sans-serif" font-size="12.3602" lengthAdjust="spacing" textLength="54.7381" x="80.3414" y="911.6993">vid_educ</text><text fill="#000000" font-family="sans-serif" font-size="12.3602" lengthAdjust="spacing" textLength="4.4144" x="193.349" y="911.6993">:</text><text fill="#000000" font-family="sans-serif" font-size="12.3602" font-style="italic" lengthAdjust="spacing" textLength="15.8917" x="201.2949" y="911.6993">int</text><text fill="#000000" font-family="sans-serif" font-size="12.3602" lengthAdjust="spacing" textLength="3.5315" x="217.1866" y="911.6993">,</text><text fill="#000000" font-family="sans-serif" font-size="12.3602" lengthAdjust="spacing" textLength="56.5038" x="80.3414" y="926.0873">rec_spec</text><text fill="#000000" font-family="sans-serif" font-size="12.3602" lengthAdjust="spacing" textLength="4.4144" x="193.349" y="926.0873">:</text><text fill="#000000" font-family="sans-serif" font-size="12.3602" font-style="italic" lengthAdjust="spacing" textLength="15.8917" x="201.2949" y="926.0873">int</text><text fill="#000000" font-family="sans-serif" font-size="12.3602" lengthAdjust="spacing" textLength="3.5315" x="217.1866" y="926.0873">,</text><text fill="#000000" font-family="sans-serif" font-size="12.3602" lengthAdjust="spacing" textLength="21.1889" x="80.3414" y="940.4754">stb</text><text fill="#000000" font-family="sans-serif" font-size="12.3602" lengthAdjust="spacing" textLength="4.4144" x="193.349" y="940.4754">:</text><text fill="#000000" font-family="sans-serif" font-size="12.3602" font-style="italic" lengthAdjust="spacing" textLength="15.8917" x="201.2949" y="940.4754">int</text><text fill="#000000" font-family="sans-serif" font-size="12.3602" lengthAdjust="spacing" textLength="12.3602" x="52.0895" y="954.8634">) :</text><text fill="#000000" font-family="sans-serif" font-size="12.3602" font-style="italic" lengthAdjust="spacing" textLength="26.4862" x="67.9812" y="954.8634">void</text></g><!--MD5=[01adc6aa29996a254c7316aad8d4f935]
class <b>TDataModule</b>--><g id="elem_&lt;b&gt;TDataModule&lt;/b&gt;"><rect fill="#F1F1F1" height="28.2519" id="&lt;b&gt;TDataModule&lt;/b&gt;" rx="2.2072" ry="2.2072" style="stroke:#181818;stroke-width:0.44143613890523836;" width="123.6021" x="161.1242" y="76.1891"/><ellipse cx="174.3673" cy="90.3151" fill="#ADD1B2" rx="9.7116" ry="9.7116" style="stroke:#181818;stroke-width:0.8828722778104767;"/><path d="M176.4365,86.4939 C175.6088,86.1076 175.0846,85.9835 174.3121,85.9835 C171.9946,85.9835 170.2288,87.8182 170.2288,90.2185 L170.2288,91.2117 C170.2288,93.4879 172.0911,95.1571 174.6432,95.1571 C175.7192,95.1571 176.74,94.895 177.4021,94.4122 C177.9126,94.0535 178.2023,93.6534 178.2023,93.3086 C178.2023,92.9085 177.8574,92.5636 177.4435,92.5636 C177.2504,92.5636 177.0711,92.6326 176.9055,92.7982 C176.5055,93.2258 176.5055,93.2258 176.3399,93.3086 C175.9675,93.5431 175.3605,93.6534 174.6846,93.6534 C172.8774,93.6534 171.7325,92.6878 171.7325,91.1842 L171.7325,90.2185 C171.7325,88.6459 172.836,87.4871 174.3673,87.4871 C174.8777,87.4871 175.4157,87.6251 175.8295,87.8458 C176.2572,88.0941 176.4089,88.2872 176.4917,88.6459 C176.5469,89.0046 176.5745,89.1149 176.6986,89.2253 C176.8228,89.3494 177.0297,89.446 177.2228,89.446 C177.4573,89.446 177.6918,89.3218 177.8436,89.1287 C177.9401,88.9908 177.9677,88.8252 177.9677,88.4528 L177.9677,87.1974 C177.9677,86.8112 177.9539,86.7008 177.8712,86.5629 C177.7332,86.3284 177.4849,86.2042 177.2228,86.2042 C176.9607,86.2042 176.7814,86.287 176.5883,86.5629 L176.4365,86.4939 Z " fill="#000000"/><text fill="#000000" font-family="sans-serif" font-size="12.3602" font-weight="bold" lengthAdjust="spacing" textLength="95.3502" x="186.7275" y="94.5941">TDataModule</text></g><path d="M471.0124,472.1573 L471.0124,486.4005 L141.2596,318.2961 L471.0124,493.4635 L471.0124,507.7067 A0,0 0 0 0 471.0124,507.7067 L676.7216,507.7067 A0,0 0 0 0 676.7216,507.7067 L676.7216,480.9861 L667.8929,472.1573 L471.0124,472.1573 A0,0 0 0 0 471.0124,472.1573 " fill="#FEFFDD" style="stroke:#181818;stroke-width:0.44143613890523836;"/><path d="M667.8929,472.1573 L667.8929,480.9861 L676.7216,480.9861 L667.8929,472.1573 " fill="#FEFFDD" style="stroke:#181818;stroke-width:0.44143613890523836;"/><text fill="#000000" font-family="sans-serif" font-size="11.4773" lengthAdjust="spacing" textLength="187.1689" x="476.3096" y="487.2252">Обработка ФИО с приведением</text><text fill="#000000" font-family="sans-serif" font-size="11.4773" lengthAdjust="spacing" textLength="128.8994" x="476.3096" y="500.5856">его в нужный формат</text><path d="M471.0124,516.5355 L471.0124,530.7787 L141.2596,397.2994 L471.0124,537.8417 L471.0124,552.0849 A0,0 0 0 0 471.0124,552.0849 L691.7304,552.0849 A0,0 0 0 0 691.7304,552.0849 L691.7304,525.3642 L682.9017,516.5355 L471.0124,516.5355 A0,0 0 0 0 471.0124,516.5355 " fill="#FEFFDD" style="stroke:#181818;stroke-width:0.44143613890523836;"/><path d="M682.9017,516.5355 L682.9017,525.3642 L691.7304,525.3642 L682.9017,516.5355 " fill="#FEFFDD" style="stroke:#181818;stroke-width:0.44143613890523836;"/><text fill="#000000" font-family="sans-serif" font-size="11.4773" lengthAdjust="spacing" textLength="194.2319" x="476.3096" y="531.6034">определить какой балл занести</text><text fill="#000000" font-family="sans-serif" font-size="11.4773" lengthAdjust="spacing" textLength="202.1778" x="476.3096" y="544.9637">(общий или раздельный конкурс)</text><path d="M471.0124,560.9136 L471.0124,568.4766 L141.2596,569.694 L471.0124,575.5396 L471.0124,583.1027 A0,0 0 0 0 471.0124,583.1027 L575.1913,583.1027 A0,0 0 0 0 575.1913,583.1027 L575.1913,569.7423 L566.3626,560.9136 L471.0124,560.9136 A0,0 0 0 0 471.0124,560.9136 " fill="#FEFFDD" style="stroke:#181818;stroke-width:0.44143613890523836;"/><path d="M566.3626,560.9136 L566.3626,569.7423 L575.1913,569.7423 L566.3626,560.9136 " fill="#FEFFDD" style="stroke:#181818;stroke-width:0.44143613890523836;"/><text fill="#000000" font-family="sans-serif" font-size="11.4773" lengthAdjust="spacing" textLength="85.6386" x="476.3096" y="575.9815">создать Query</text><path d="M471.0124,591.9314 L471.0124,599.4944 L141.2596,663.0854 L471.0124,606.5574 L471.0124,614.1204 A0,0 0 0 0 471.0124,614.1204 L635.2266,614.1204 A0,0 0 0 0 635.2266,614.1204 L635.2266,600.7601 L626.3979,591.9314 L471.0124,591.9314 A0,0 0 0 0 471.0124,591.9314 " fill="#FEFFDD" style="stroke:#181818;stroke-width:0.44143613890523836;"/><path d="M626.3979,591.9314 L626.3979,600.7601 L635.2266,600.7601 L626.3979,591.9314 " fill="#FEFFDD" style="stroke:#181818;stroke-width:0.44143613890523836;"/><text fill="#000000" font-family="sans-serif" font-size="11.4773" lengthAdjust="spacing" textLength="145.6739" x="476.3096" y="606.9993">выдать проходной балл</text><path d="M471.0124,622.9492 L471.0124,630.5122 L141.2596,864.2561 L471.0124,637.5752 L471.0124,645.1382 A0,0 0 0 0 471.0124,645.1382 L744.7028,645.1382 A0,0 0 0 0 744.7028,645.1382 L744.7028,631.7779 L735.874,622.9492 L471.0124,622.9492 A0,0 0 0 0 471.0124,622.9492 " fill="#FEFFDD" style="stroke:#181818;stroke-width:0.44143613890523836;"/><path d="M735.874,622.9492 L735.874,631.7779 L744.7028,631.7779 L735.874,622.9492 " fill="#FEFFDD" style="stroke:#181818;stroke-width:0.44143613890523836;"/><text fill="#000000" font-family="sans-serif" font-size="11.4773" lengthAdjust="spacing" textLength="255.1501" x="476.3096" y="638.017">выполнить Query и занести данные в Excel</text><!--MD5=[5a017af6f6693ac60f8490f251b2638e]
reverse link <b>TDataModule</b> to <b>TDMStat</b>--><g id="link_&lt;b&gt;TDataModule&lt;/b&gt;_&lt;b&gt;TDMStat&lt;/b&gt;"><path codeLine="6" d="M222.9253,122.5355 C222.9253,133.9828 222.9253,148.1379 222.9253,164.2777 " fill="none" id="&lt;b&gt;TDataModule&lt;/b&gt;-backto-&lt;b&gt;TDMStat&lt;/b&gt;" style="stroke:#181818;stroke-width:0.8828722778104767;"/><polygon fill="none" points="216.7451,122.1929,222.9253,104.5355,229.1054,122.1929,216.7451,122.1929" style="stroke:#181818;stroke-width:0.8828722778104767;"/></g><!--MD5=[4f5d08241fe2e46f873f108894a6b0e2]
@startuml
title Исходный файл: "DMStatUnit.cpp"

scale 750 width
' left to right direction

"<b>TDMStat</b>" -up-|> "<b>TDataModule</b>"

hide "<b>TDataModule</b>" members

class "<b>TDMStat</b>"
{
    <b>SHOWS ONLY METHODS</b>
    - -
    + DSCount_Ball_Examen \t\t\t\t\t\t: <i>TDataSource *</i>
    + DSCount_CK \t\t\t\t\t\t\t\t\t: <i>TDataSource *</i>
     .. (<i>and etc. For all fields, see: class_DMStatUnit_All_Fields</i>) ..
    - -
        
    + <b>TDMStat (Owner \t: <i>TComponent *</i>)</b>

    + FIO \t\t\t\t(
            \t\ttext \t\t\t: <i>AnsiString</i>,
            \t\tq \t\t\t\t: <i>TFDQuery *</i>,
            \t\tpole \t\t\t: <i>AnsiString</i> 
        \t) : <i>void</i>
    ..
    + Prohod_Ball \t\t(
            \t\tgorod \t\t\t: <i>float</i>,
            \t\tselo \t\t\t: <i>float</i>,
            \t\tstroka \t\t\t: <i>int</i>,
            \t\tprice_twokurs \t: <i>int</i> 
        \t) : <i>void</i>
    ..
    + SQL_Build \t\t(
            \t\tform \t\t\t: <i>int</i>,
            \t\tvid \t\t\t\t: <i>int</i>,
            \t\tparam \t\t\t: <i>int</i> 
        \t) : <i>void</i>
    ..
    + SQL_BuildCycle \t(
            \t\tform \t\t\t: <i>int</i>,
            \t\tvid \t\t\t\t: <i>int</i>,
            \t\trec_spec \t\t: <i>int</i>,
            \t\tparam \t\t\t: <i>int</i> 
        \t) : <i>void</i>
    ..
    + SQL_Min_Ball \t(
            \t\tvid_educ \t\t: <i>int</i>,
            \t\tsp \t\t\t\t: <i>int</i>,
            \t\tprice \t\t\t: <i>int</i>,
            \t\tkonkurs \t\t\t: <i>int</i> 
        \t) : <i>float</i>
    ..
    + SQL_Run \t\t(
            \t\tq \t\t\t\t: <i>TFDQuery *</i>,
            \t\tsql \t\t\t\t: <i>AnsiString</i>,
            \t\tvid_educ \t\t: <i>int</i>,
            \t\tstb \t\t\t\t: <i>int</i>,
            \t\tstr \t\t\t\t: <i>int</i> 
        \t) : <i>void</i>
    ..
    + SQL_RunCycle \t(
            \t\tq \t\t\t\t: <i>TFDQuery *</i>,
            \t\tsql \t\t\t\t: <i>AnsiString</i>,
            \t\tvid_educ \t\t: <i>int</i>,
            \t\trec_spec \t\t: <i>int</i>,
            \t\tstb \t\t\t\t: <i>int</i> 
        \t) : <i>void</i>
}

note right of "<b>TDMStat</b>"::FIO
Обработка ФИО с приведением
его в нужный формат
end note
note right of "<b>TDMStat</b>"::Prohod_Ball
определить какой балл занести
(общий или раздельный конкурс)
end note
note right of "<b>TDMStat</b>"::SQL_BuildCycle
создать Query
end note
note right of "<b>TDMStat</b>"::SQL_Min_Ball
выдать проходной балл
end note
note right of "<b>TDMStat</b>"::SQL_RunCycle
выполнить Query и занести данные в Excel
end note


package TDMStat <<Folder>>
{
    class TDMStat
    hide  members
}
@enduml

@startuml
title Исходный файл: "DMStatUnit.cpp"

scale 750 width

"<b>TDMStat</b>" -up-|> "<b>TDataModule</b>"

hide "<b>TDataModule</b>" members

class "<b>TDMStat</b>"
{
    <b>SHOWS ONLY METHODS</b>
    - -
    + DSCount_Ball_Examen \t\t\t\t\t\t: <i>TDataSource *</i>
    + DSCount_CK \t\t\t\t\t\t\t\t\t: <i>TDataSource *</i>
     .. (<i>and etc. For all fields, see: class_DMStatUnit_All_Fields</i>) ..
    - -
        
    + <b>TDMStat (Owner \t: <i>TComponent *</i>)</b>

    + FIO \t\t\t\t(
            \t\ttext \t\t\t: <i>AnsiString</i>,
            \t\tq \t\t\t\t: <i>TFDQuery *</i>,
            \t\tpole \t\t\t: <i>AnsiString</i> 
        \t) : <i>void</i>
    ..
    + Prohod_Ball \t\t(
            \t\tgorod \t\t\t: <i>float</i>,
            \t\tselo \t\t\t: <i>float</i>,
            \t\tstroka \t\t\t: <i>int</i>,
            \t\tprice_twokurs \t: <i>int</i> 
        \t) : <i>void</i>
    ..
    + SQL_Build \t\t(
            \t\tform \t\t\t: <i>int</i>,
            \t\tvid \t\t\t\t: <i>int</i>,
            \t\tparam \t\t\t: <i>int</i> 
        \t) : <i>void</i>
    ..
    + SQL_BuildCycle \t(
            \t\tform \t\t\t: <i>int</i>,
            \t\tvid \t\t\t\t: <i>int</i>,
            \t\trec_spec \t\t: <i>int</i>,
            \t\tparam \t\t\t: <i>int</i> 
        \t) : <i>void</i>
    ..
    + SQL_Min_Ball \t(
            \t\tvid_educ \t\t: <i>int</i>,
            \t\tsp \t\t\t\t: <i>int</i>,
            \t\tprice \t\t\t: <i>int</i>,
            \t\tkonkurs \t\t\t: <i>int</i> 
        \t) : <i>float</i>
    ..
    + SQL_Run \t\t(
            \t\tq \t\t\t\t: <i>TFDQuery *</i>,
            \t\tsql \t\t\t\t: <i>AnsiString</i>,
            \t\tvid_educ \t\t: <i>int</i>,
            \t\tstb \t\t\t\t: <i>int</i>,
            \t\tstr \t\t\t\t: <i>int</i> 
        \t) : <i>void</i>
    ..
    + SQL_RunCycle \t(
            \t\tq \t\t\t\t: <i>TFDQuery *</i>,
            \t\tsql \t\t\t\t: <i>AnsiString</i>,
            \t\tvid_educ \t\t: <i>int</i>,
            \t\trec_spec \t\t: <i>int</i>,
            \t\tstb \t\t\t\t: <i>int</i> 
        \t) : <i>void</i>
}

note right of "<b>TDMStat</b>"::FIO
Обработка ФИО с приведением
его в нужный формат
end note
note right of "<b>TDMStat</b>"::Prohod_Ball
определить какой балл занести
(общий или раздельный конкурс)
end note
note right of "<b>TDMStat</b>"::SQL_BuildCycle
создать Query
end note
note right of "<b>TDMStat</b>"::SQL_Min_Ball
выдать проходной балл
end note
note right of "<b>TDMStat</b>"::SQL_RunCycle
выполнить Query и занести данные в Excel
end note


package TDMStat <<Folder>>
{
    class TDMStat
    hide  members
}
@enduml

PlantUML version 1.2022.5(Sat Apr 30 10:55:52 UTC 2022)
(GPL source distribution)
Java Runtime: Java(TM) SE Runtime Environment
JVM: Java HotSpot(TM) 64-Bit Server VM
Default Encoding: UTF-8
Language: en
Country: US
--></g></svg>