<?xml version="1.0" encoding="UTF-8" standalone="no"?><svg xmlns="http://www.w3.org/2000/svg" xmlns:xlink="http://www.w3.org/1999/xlink" contentStyleType="text/css" height="467.5702px" preserveAspectRatio="none" style="width:750px;height:467px;background:#FFFFFF;" version="1.1" viewBox="0 0 750 467" width="750.726px" zoomAndPan="magnify"><defs/><g><rect height="38.1852" style="stroke:#00000000;stroke-width:1.452081316553727;fill:none;" width="500.9681" x="115.0774" y="7.2604"/><text fill="#000000" font-family="sans-serif" font-size="20.3291" font-weight="bold" lengthAdjust="spacing" textLength="486.4472" x="122.3379" y="33.3908">Исходный файл: "Exam_List_AllUnit.cpp"</text><!--MD5=[ad73dff555d86379de11c7b270b1d9c6]
cluster TExam_List_AllForm--><g id="cluster_TExam_List_AllForm"><path d="M442.8848,62.8706 L678.122,62.8706 A5.4453,5.4453 0 0 1 681.7522,66.5008 L691.9167,95.2475 L737.6573,95.2475 A3.6302,3.6302 0 0 1 741.2875,98.8777 L741.2875,202.9964 A3.6302,3.6302 0 0 1 737.6573,206.6266 L442.8848,206.6266 A3.6302,3.6302 0 0 1 439.2546,202.9964 L439.2546,66.5008 A3.6302,3.6302 0 0 1 442.8848,62.8706 " style="stroke:#000000;stroke-width:2.1781219748305904;fill:none;"/><line style="stroke:#000000;stroke-width:2.1781219748305904;fill:none;" x1="439.2546" x2="691.9167" y1="95.2475" y2="95.2475"/><text fill="#000000" font-family="sans-serif" font-size="20.3291" font-weight="bold" lengthAdjust="spacing" textLength="233.7851" x="445.0629" y="84.6447">TExam_List_AllForm</text></g><!--MD5=[4778684edb264389d3282eee5e6125cd]
class TExam_List_AllForm--><g id="elem_TExam_List_AllForm"><rect codeLine="22" fill="#F1F1F1" height="69.6999" id="TExam_List_AllForm" rx="3.6302" ry="3.6302" style="stroke:#181818;stroke-width:0.7260406582768635;" width="254.1142" x="463.2139" y="113.6934"/><ellipse cx="484.9952" cy="136.9267" fill="#ADD1B2" rx="15.9729" ry="15.9729" style="stroke:#181818;stroke-width:1.452081316553727;"/><path d="M488.3985,130.6419 C487.0371,130.0067 486.175,129.8025 484.9044,129.8025 C481.0927,129.8025 478.1885,132.8201 478.1885,136.7679 L478.1885,138.4015 C478.1885,142.1451 481.2515,144.8905 485.4489,144.8905 C487.2187,144.8905 488.8976,144.4594 489.9867,143.6653 C490.8262,143.0754 491.3026,142.4174 491.3026,141.8502 C491.3026,141.1922 490.7354,140.625 490.0548,140.625 C489.7371,140.625 489.4422,140.7384 489.1699,141.0107 C488.5119,141.7141 488.5119,141.7141 488.2397,141.8502 C487.6271,142.2359 486.6288,142.4174 485.517,142.4174 C482.5448,142.4174 480.6616,140.8292 480.6616,138.3561 L480.6616,136.7679 C480.6616,134.1814 482.4767,132.2755 484.9952,132.2755 C485.8346,132.2755 486.7195,132.5024 487.4002,132.8654 C488.1035,133.2738 488.3531,133.5915 488.4892,134.1814 C488.58,134.7713 488.6254,134.9528 488.8296,135.1343 C489.0338,135.3385 489.3741,135.4973 489.6917,135.4973 C490.0774,135.4973 490.4632,135.2931 490.7127,134.9755 C490.8716,134.7486 490.9169,134.4763 490.9169,133.8637 L490.9169,131.7991 C490.9169,131.1638 490.8942,130.9823 490.7581,130.7554 C490.5312,130.3697 490.1228,130.1655 489.6917,130.1655 C489.2606,130.1655 488.9657,130.3016 488.6481,130.7554 L488.3985,130.6419 Z " fill="#000000"/><text fill="#000000" font-family="sans-serif" font-size="20.3291" lengthAdjust="spacing" textLength="207.6476" x="505.3243" y="143.9645">TExam_List_AllForm</text><line style="stroke:#181818;stroke-width:0.7260406582768635;" x1="464.666" x2="715.8761" y1="160.16" y2="160.16"/><line style="stroke:#181818;stroke-width:0.7260406582768635;" x1="464.666" x2="715.8761" y1="171.7767" y2="171.7767"/></g><!--MD5=[e2e81765cbe365c4fd871d061fbb0d2d]
class <b>TExam_List_AllForm</b>--><g id="elem_&lt;b&gt;TExam_List_AllForm&lt;/b&gt;"><rect codeLine="9" fill="#F1F1F1" height="188.0218" id="&lt;b&gt;TExam_List_AllForm&lt;/b&gt;" rx="3.6302" ry="3.6302" style="stroke:#181818;stroke-width:0.7260406582768635;" width="681.0261" x="10.1646" y="270.5182"/><ellipse cx="227.6137" cy="293.7515" fill="#ADD1B2" rx="15.9729" ry="15.9729" style="stroke:#181818;stroke-width:1.452081316553727;"/><path d="M231.0171,287.4667 C229.6557,286.8314 228.7936,286.6272 227.523,286.6272 C223.7113,286.6272 220.8071,289.6448 220.8071,293.5927 L220.8071,295.2263 C220.8071,298.9699 223.8701,301.7153 228.0675,301.7153 C229.8372,301.7153 231.5162,301.2842 232.6053,300.4901 C233.4448,299.9002 233.9212,299.2422 233.9212,298.675 C233.9212,298.017 233.354,297.4498 232.6733,297.4498 C232.3557,297.4498 232.0607,297.5632 231.7885,297.8355 C231.1305,298.5388 231.1305,298.5388 230.8582,298.675 C230.2456,299.0607 229.2473,299.2422 228.1356,299.2422 C225.1634,299.2422 223.2802,297.654 223.2802,295.1809 L223.2802,293.5927 C223.2802,291.0062 225.0953,289.1003 227.6137,289.1003 C228.4532,289.1003 229.3381,289.3272 230.0188,289.6902 C230.7221,290.0986 230.9717,290.4163 231.1078,291.0062 C231.1986,291.5961 231.2439,291.7776 231.4481,291.9591 C231.6523,292.1633 231.9927,292.3221 232.3103,292.3221 C232.696,292.3221 233.0817,292.1179 233.3313,291.8003 C233.4901,291.5734 233.5355,291.3011 233.5355,290.6885 L233.5355,288.6239 C233.5355,287.9886 233.5128,287.8071 233.3767,287.5802 C233.1498,287.1945 232.7414,286.9903 232.3103,286.9903 C231.8792,286.9903 231.5843,287.1264 231.2666,287.5802 L231.0171,287.4667 Z " fill="#000000"/><text fill="#000000" font-family="sans-serif" font-size="20.3291" font-weight="bold" lengthAdjust="spacing" textLength="233.7851" x="257.3814" y="300.7893">TExam_List_AllForm</text><line style="stroke:#181818;stroke-width:0.7260406582768635;" x1="11.6167" x2="689.7386" y1="316.9848" y2="316.9848"/><ellipse cx="26.1375" cy="332.9577" fill="none" rx="4.3562" ry="4.3562" style="stroke:#038048;stroke-width:1.452081316553727;"/><text fill="#000000" font-family="sans-serif" font-size="20.3291" lengthAdjust="spacing" textLength="232.333" x="39.2062" y="341.6631">QRCompositeReport1</text><text fill="#000000" font-family="sans-serif" font-size="20.3291" lengthAdjust="spacing" textLength="7.2604" x="318.0058" y="341.6631">:</text><text fill="#000000" font-family="sans-serif" font-size="20.3291" font-style="italic" lengthAdjust="spacing" textLength="239.5934" x="331.0745" y="341.6631">TQRCompositeReport *</text><line style="stroke:#181818;stroke-width:1.452081316553727;" x1="11.6167" x2="689.7386" y1="352.2659" y2="352.2659"/><text fill="#000000" font-family="sans-serif" font-size="20.3291" lengthAdjust="spacing" textLength="5.8083" x="39.2062" y="376.9441"> </text><ellipse cx="26.1375" cy="391.9031" fill="#84BE84" rx="4.3562" ry="4.3562" style="stroke:#038048;stroke-width:1.452081316553727;"/><text fill="#000000" font-family="sans-serif" font-size="20.3291" font-weight="bold" lengthAdjust="spacing" textLength="323.8141" x="39.2062" y="400.6085">TExam_List_AllForm (Owner</text><text fill="#000000" font-family="sans-serif" font-size="20.3291" font-weight="bold" lengthAdjust="spacing" textLength="8.7125" x="387.7057" y="400.6085">:</text><text fill="#000000" font-family="sans-serif" font-size="20.3291" font-style="italic" font-weight="bold" lengthAdjust="spacing" textLength="165.5373" x="403.6786" y="400.6085">TComponent *</text><text fill="#000000" font-family="sans-serif" font-size="20.3291" font-weight="bold" lengthAdjust="spacing" textLength="10.1646" x="569.2159" y="400.6085">)</text><text fill="#000000" font-family="sans-serif" font-size="20.3291" lengthAdjust="spacing" textLength="5.8083" x="39.2062" y="424.2729"> </text><ellipse cx="26.1375" cy="439.2319" fill="#84BE84" rx="4.3562" ry="4.3562" style="stroke:#038048;stroke-width:1.452081316553727;"/><text fill="#000000" font-family="sans-serif" font-size="20.3291" lengthAdjust="spacing" textLength="357.212" x="39.2062" y="447.9373">QRCompositeReport1AddReports</text><text fill="#000000" font-family="sans-serif" font-size="20.3291" lengthAdjust="spacing" textLength="81.3166" x="410.939" y="447.9373">(Sender</text><text fill="#000000" font-family="sans-serif" font-size="20.3291" lengthAdjust="spacing" textLength="7.2604" x="503.8722" y="447.9373">:</text><text fill="#000000" font-family="sans-serif" font-size="20.3291" font-style="italic" lengthAdjust="spacing" textLength="95.8374" x="516.9409" y="447.9373">TObject *</text><text fill="#000000" font-family="sans-serif" font-size="20.3291" lengthAdjust="spacing" textLength="20.3291" x="612.7783" y="447.9373">) :</text><text fill="#000000" font-family="sans-serif" font-size="20.3291" font-style="italic" lengthAdjust="spacing" textLength="43.5624" x="638.9158" y="447.9373">void</text></g><!--MD5=[dd0bf217da5c5e97452bc452f42aff32]
class <b>TForm</b>--><g id="elem_&lt;b&gt;TForm&lt;/b&gt;"><rect fill="#F1F1F1" height="46.4666" id="&lt;b&gt;TForm&lt;/b&gt;" rx="3.6302" ry="3.6302" style="stroke:#181818;stroke-width:0.7260406582768635;" width="121.9748" x="289.6902" y="125.3101"/><ellipse cx="311.4714" cy="148.5434" fill="#ADD1B2" rx="15.9729" ry="15.9729" style="stroke:#181818;stroke-width:1.452081316553727;"/><path d="M314.8748,142.2586 C313.5134,141.6233 312.6513,141.4191 311.3807,141.4191 C307.569,141.4191 304.6648,144.4367 304.6648,148.3846 L304.6648,150.0182 C304.6648,153.7618 307.7278,156.5071 311.9252,156.5071 C313.6949,156.5071 315.3739,156.0761 316.463,155.2819 C317.3025,154.692 317.7789,154.0341 317.7789,153.4668 C317.7789,152.8089 317.2117,152.2417 316.531,152.2417 C316.2134,152.2417 315.9184,152.3551 315.6462,152.6274 C314.9882,153.3307 314.9882,153.3307 314.7159,153.4668 C314.1033,153.8526 313.105,154.0341 311.9933,154.0341 C309.0211,154.0341 307.1379,152.4458 307.1379,149.9728 L307.1379,148.3846 C307.1379,145.798 308.953,143.8922 311.4714,143.8922 C312.3109,143.8922 313.1958,144.1191 313.8765,144.4821 C314.5798,144.8905 314.8294,145.2081 314.9655,145.798 C315.0563,146.3879 315.1016,146.5695 315.3058,146.751 C315.51,146.9552 315.8504,147.114 316.168,147.114 C316.5537,147.114 316.9394,146.9098 317.189,146.5921 C317.3478,146.3653 317.3932,146.093 317.3932,145.4804 L317.3932,143.4157 C317.3932,142.7804 317.3705,142.5989 317.2344,142.372 C317.0075,141.9863 316.5991,141.7821 316.168,141.7821 C315.7369,141.7821 315.442,141.9183 315.1243,142.372 L314.8748,142.2586 Z " fill="#000000"/><text fill="#000000" font-family="sans-serif" font-size="20.3291" font-weight="bold" lengthAdjust="spacing" textLength="75.5082" x="331.8006" y="155.5812">TForm</text></g><!--MD5=[f4eac39779d31d46a65cfe1b3afa8e8c]
reverse link <b>TForm</b> to <b>TExam_List_AllForm</b>--><g id="link_&lt;b&gt;TForm&lt;/b&gt;_&lt;b&gt;TExam_List_AllForm&lt;/b&gt;"><path codeLine="5" d="M350.6776,201.084 C350.6776,221.8241 350.6776,246.4485 350.6776,270.1436 " fill="none" id="&lt;b&gt;TForm&lt;/b&gt;-backto-&lt;b&gt;TExam_List_AllForm&lt;/b&gt;" style="stroke:#181818;stroke-width:1.452081316553727;"/><polygon fill="none" points="340.5131,201.0013,350.6776,171.9596,360.8422,201.0013,340.5131,201.0013" style="stroke:#181818;stroke-width:1.452081316553727;"/></g><!--MD5=[eb7d9115dc1ff14540b757200733a01f]
@startuml
title Исходный файл: "Exam_List_AllUnit.cpp"

scale 750 width

"<b>TExam_List_AllForm</b>" -up-|> "<b>TForm</b>"

hide "<b>TForm</b>" members

class "<b>TExam_List_AllForm</b>"
{
    + QRCompositeReport1 \t: <i>TQRCompositeReport *</i>
    - -
    
    + <b>TExam_List_AllForm (Owner \t: <i>TComponent *</i>)</b>

    + QRCompositeReport1AddReports \t(Sender \t: <i>TObject *</i>) : <i>void</i>
}


package TExam_List_AllForm <<Folder>>
{
    class TExam_List_AllForm
    hide  members
}
@enduml

PlantUML version 1.2022.5(Sat Apr 30 10:55:52 UTC 2022)
(GPL source distribution)
Java Runtime: Java(TM) SE Runtime Environment
JVM: Java HotSpot(TM) 64-Bit Server VM
Default Encoding: UTF-8
Language: en
Country: US
--></g></svg>