<?xml version="1.0" encoding="UTF-8" standalone="no"?><svg xmlns="http://www.w3.org/2000/svg" xmlns:xlink="http://www.w3.org/1999/xlink" contentStyleType="text/css" height="931.5789px" preserveAspectRatio="none" style="width:751px;height:931px;background:#FFFFFF;" version="1.1" viewBox="0 0 751 931" width="751.5789px" zoomAndPan="magnify"><defs/><g><rect height="41.5214" style="stroke:#00000000;stroke-width:1.5789473684210524;fill:none;" width="541.5789" x="93.9474" y="7.8947"/><text fill="#000000" font-family="sans-serif" font-size="22.1053" font-weight="bold" lengthAdjust="spacing" textLength="525.7895" x="101.8421" y="36.3081">Исходный файл: "Resuilt_ExamUnit.cpp"</text><!--MD5=[d78c1a5dcc68860303161e7f45a5605b]
cluster TResult_ExamForm--><g id="cluster_TResult_ExamForm"><path d="M425.5263,68.3635 L670.2632,68.3635 A5.9211,5.9211 0 0 1 674.2105,72.3109 L685.2632,103.5691 L736.5789,103.5691 A3.9474,3.9474 0 0 1 740.5263,107.5164 L740.5263,220.7319 A3.9474,3.9474 0 0 1 736.5789,224.6793 L425.5263,224.6793 A3.9474,3.9474 0 0 1 421.5789,220.7319 L421.5789,72.3109 A3.9474,3.9474 0 0 1 425.5263,68.3635 " style="stroke:#000000;stroke-width:2.3684210526315788;fill:none;"/><line style="stroke:#000000;stroke-width:2.3684210526315788;fill:none;" x1="421.5789" x2="685.2632" y1="103.5691" y2="103.5691"/><text fill="#000000" font-family="sans-serif" font-size="22.1053" font-weight="bold" lengthAdjust="spacing" textLength="243.1579" x="427.8947" y="92.04">TResult_ExamForm</text></g><!--MD5=[e7b10b2dab0bc3aa4244c7cbccc9a6eb]
class TResult_ExamForm--><g id="elem_TResult_ExamForm"><rect codeLine="41" fill="#F1F1F1" height="75.7895" id="TResult_ExamForm" rx="3.9474" ry="3.9474" style="stroke:#181818;stroke-width:0.7894736842105262;" width="266.8421" x="447.6316" y="123.6266"/><ellipse cx="471.3158" cy="148.8898" fill="#ADD1B2" rx="17.3684" ry="17.3684" style="stroke:#181818;stroke-width:1.5789473684210524;"/><path d="M475.0164,142.0559 C473.5362,141.3651 472.5987,141.1431 471.2171,141.1431 C467.0724,141.1431 463.9145,144.4243 463.9145,148.7171 L463.9145,150.4934 C463.9145,154.5641 467.2451,157.5493 471.8092,157.5493 C473.7336,157.5493 475.5592,157.0806 476.7434,156.2171 C477.6562,155.5757 478.1743,154.8602 478.1743,154.2434 C478.1743,153.528 477.5576,152.9112 476.8174,152.9112 C476.472,152.9112 476.1513,153.0345 475.8553,153.3306 C475.1398,154.0954 475.1398,154.0954 474.8437,154.2434 C474.1776,154.6628 473.0921,154.8602 471.8832,154.8602 C468.6513,154.8602 466.6036,153.1332 466.6036,150.4441 L466.6036,148.7171 C466.6036,145.9046 468.5773,143.8322 471.3158,143.8322 C472.2286,143.8322 473.1908,144.0789 473.9309,144.4737 C474.6957,144.9178 474.9671,145.2632 475.1151,145.9046 C475.2138,146.5461 475.2632,146.7434 475.4852,146.9408 C475.7072,147.1628 476.0773,147.3355 476.4227,147.3355 C476.8421,147.3355 477.2615,147.1135 477.5329,146.7681 C477.7056,146.5214 477.7549,146.2253 477.7549,145.5592 L477.7549,143.3141 C477.7549,142.6234 477.7303,142.426 477.5822,142.1793 C477.3355,141.7599 476.8914,141.5378 476.4227,141.5378 C475.9539,141.5378 475.6332,141.6859 475.2878,142.1793 L475.0164,142.0559 Z " fill="#000000"/><text fill="#000000" font-family="sans-serif" font-size="22.1053" lengthAdjust="spacing" textLength="216.3158" x="493.4211" y="156.5425">TResult_ExamForm</text><line style="stroke:#181818;stroke-width:0.7894736842105262;" x1="449.2105" x2="712.8947" y1="174.153" y2="174.153"/><line style="stroke:#181818;stroke-width:0.7894736842105262;" x1="449.2105" x2="712.8947" y1="186.7845" y2="186.7845"/></g><!--MD5=[5479a0fe0e13648c3dee9bb5c25d62d0]
class <b>TResult_ExamForm</b>--><g id="elem_&lt;b&gt;TResult_ExamForm&lt;/b&gt;"><rect codeLine="9" fill="#F1F1F1" height="627.8536" id="&lt;b&gt;TResult_ExamForm&lt;/b&gt;" rx="3.9474" ry="3.9474" style="stroke:#181818;stroke-width:0.7894736842105262;" width="628.4211" x="11.0526" y="294.153"/><ellipse cx="196.9737" cy="319.4161" fill="#ADD1B2" rx="17.3684" ry="17.3684" style="stroke:#181818;stroke-width:1.5789473684210524;"/><path d="M200.6743,312.5822 C199.1941,311.8914 198.2566,311.6694 196.875,311.6694 C192.7303,311.6694 189.5724,314.9507 189.5724,319.2434 L189.5724,321.0197 C189.5724,325.0905 192.903,328.0757 197.4671,328.0757 C199.3914,328.0757 201.2171,327.6069 202.4013,326.7434 C203.3141,326.102 203.8322,325.3865 203.8322,324.7697 C203.8322,324.0543 203.2155,323.4375 202.4753,323.4375 C202.1299,323.4375 201.8092,323.5609 201.5132,323.8569 C200.7977,324.6217 200.7977,324.6217 200.5016,324.7697 C199.8355,325.1891 198.75,325.3865 197.5411,325.3865 C194.3092,325.3865 192.2615,323.6595 192.2615,320.9704 L192.2615,319.2434 C192.2615,316.4309 194.2352,314.3586 196.9737,314.3586 C197.8865,314.3586 198.8487,314.6053 199.5888,315 C200.3536,315.4441 200.625,315.7895 200.773,316.4309 C200.8717,317.0724 200.9211,317.2697 201.1431,317.4671 C201.3651,317.6891 201.7352,317.8618 202.0806,317.8618 C202.5,317.8618 202.9194,317.6398 203.1908,317.2944 C203.3635,317.0477 203.4128,316.7516 203.4128,316.0855 L203.4128,313.8405 C203.4128,313.1497 203.3882,312.9523 203.2401,312.7056 C202.9934,312.2862 202.5493,312.0641 202.0806,312.0641 C201.6118,312.0641 201.2911,312.2122 200.9457,312.7056 L200.6743,312.5822 Z " fill="#000000"/><text fill="#000000" font-family="sans-serif" font-size="22.1053" font-weight="bold" lengthAdjust="spacing" textLength="243.1579" x="229.3421" y="327.0688">TResult_ExamForm</text><line style="stroke:#181818;stroke-width:0.7894736842105262;" x1="12.6316" x2="637.8947" y1="344.6793" y2="344.6793"/><ellipse cx="28.4211" cy="362.0477" fill="none" rx="4.7368" ry="4.7368" style="stroke:#038048;stroke-width:1.5789473684210524;"/><text fill="#000000" font-family="sans-serif" font-size="22.1053" lengthAdjust="spacing" textLength="93.1579" x="42.6316" y="371.5137">Button1</text><text fill="#000000" font-family="sans-serif" font-size="22.1053" lengthAdjust="spacing" textLength="7.8947" x="345.7895" y="371.5137">:</text><text fill="#000000" font-family="sans-serif" font-size="22.1053" font-style="italic" lengthAdjust="spacing" textLength="105.7895" x="360" y="371.5137">TButton *</text><line style="stroke:#181818;stroke-width:1.5789473684210524;stroke-dasharray:1.0,2.0;" x1="12.6316" x2="637.8947" y1="383.0428" y2="383.0428"/><ellipse cx="28.4211" cy="400.4112" fill="none" rx="4.7368" ry="4.7368" style="stroke:#038048;stroke-width:1.5789473684210524;"/><text fill="#000000" font-family="sans-serif" font-size="22.1053" lengthAdjust="spacing" textLength="94.7368" x="42.6316" y="409.8772">DBGrid1</text><text fill="#000000" font-family="sans-serif" font-size="22.1053" lengthAdjust="spacing" textLength="7.8947" x="345.7895" y="409.8772">:</text><text fill="#000000" font-family="sans-serif" font-size="22.1053" font-style="italic" lengthAdjust="spacing" textLength="112.1053" x="360" y="409.8772">TDBGrid *</text><ellipse cx="28.4211" cy="426.1431" fill="none" rx="4.7368" ry="4.7368" style="stroke:#038048;stroke-width:1.5789473684210524;"/><text fill="#000000" font-family="sans-serif" font-size="22.1053" lengthAdjust="spacing" textLength="93.1579" x="42.6316" y="435.6091">DBGrid2</text><text fill="#000000" font-family="sans-serif" font-size="22.1053" lengthAdjust="spacing" textLength="7.8947" x="345.7895" y="435.6091">:</text><text fill="#000000" font-family="sans-serif" font-size="22.1053" font-style="italic" lengthAdjust="spacing" textLength="112.1053" x="360" y="435.6091">TDBGrid *</text><line style="stroke:#181818;stroke-width:1.5789473684210524;stroke-dasharray:1.0,2.0;" x1="12.6316" x2="637.8947" y1="447.1382" y2="447.1382"/><ellipse cx="28.4211" cy="464.5066" fill="none" rx="4.7368" ry="4.7368" style="stroke:#038048;stroke-width:1.5789473684210524;"/><text fill="#000000" font-family="sans-serif" font-size="22.1053" lengthAdjust="spacing" textLength="255.7895" x="42.6316" y="473.9726">DBLookupComboBox1</text><text fill="#000000" font-family="sans-serif" font-size="22.1053" lengthAdjust="spacing" textLength="7.8947" x="345.7895" y="473.9726">:</text><text fill="#000000" font-family="sans-serif" font-size="22.1053" font-style="italic" lengthAdjust="spacing" textLength="270" x="360" y="473.9726">TDBLookupComboBox *</text><line style="stroke:#181818;stroke-width:1.5789473684210524;stroke-dasharray:1.0,2.0;" x1="12.6316" x2="637.8947" y1="485.5016" y2="485.5016"/><ellipse cx="28.4211" cy="502.8701" fill="none" rx="4.7368" ry="4.7368" style="stroke:#038048;stroke-width:1.5789473684210524;"/><text fill="#000000" font-family="sans-serif" font-size="22.1053" lengthAdjust="spacing" textLength="60" x="42.6316" y="512.336">Edit1</text><text fill="#000000" font-family="sans-serif" font-size="22.1053" lengthAdjust="spacing" textLength="7.8947" x="345.7895" y="512.336">:</text><text fill="#000000" font-family="sans-serif" font-size="22.1053" font-style="italic" lengthAdjust="spacing" textLength="74.2105" x="360" y="512.336">TEdit *</text><line style="stroke:#181818;stroke-width:1.5789473684210524;stroke-dasharray:1.0,2.0;" x1="12.6316" x2="637.8947" y1="523.8651" y2="523.8651"/><ellipse cx="28.4211" cy="541.2336" fill="none" rx="4.7368" ry="4.7368" style="stroke:#038048;stroke-width:1.5789473684210524;"/><text fill="#000000" font-family="sans-serif" font-size="22.1053" lengthAdjust="spacing" textLength="75.7895" x="42.6316" y="550.6995">Label1</text><text fill="#000000" font-family="sans-serif" font-size="22.1053" lengthAdjust="spacing" textLength="7.8947" x="345.7895" y="550.6995">:</text><text fill="#000000" font-family="sans-serif" font-size="22.1053" font-style="italic" lengthAdjust="spacing" textLength="93.1579" x="360" y="550.6995">TPanel *</text><ellipse cx="28.4211" cy="566.9655" fill="none" rx="4.7368" ry="4.7368" style="stroke:#038048;stroke-width:1.5789473684210524;"/><text fill="#000000" font-family="sans-serif" font-size="22.1053" lengthAdjust="spacing" textLength="74.2105" x="42.6316" y="576.4314">Label2</text><text fill="#000000" font-family="sans-serif" font-size="22.1053" lengthAdjust="spacing" textLength="7.8947" x="345.7895" y="576.4314">:</text><text fill="#000000" font-family="sans-serif" font-size="22.1053" font-style="italic" lengthAdjust="spacing" textLength="93.1579" x="360" y="576.4314">TPanel *</text><ellipse cx="28.4211" cy="592.6974" fill="none" rx="4.7368" ry="4.7368" style="stroke:#038048;stroke-width:1.5789473684210524;"/><text fill="#000000" font-family="sans-serif" font-size="22.1053" lengthAdjust="spacing" textLength="75.7895" x="42.6316" y="602.1633">Panel1</text><text fill="#000000" font-family="sans-serif" font-size="22.1053" lengthAdjust="spacing" textLength="7.8947" x="345.7895" y="602.1633">:</text><text fill="#000000" font-family="sans-serif" font-size="22.1053" font-style="italic" lengthAdjust="spacing" textLength="93.1579" x="360" y="602.1633">TPanel *</text><ellipse cx="28.4211" cy="618.4293" fill="none" rx="4.7368" ry="4.7368" style="stroke:#038048;stroke-width:1.5789473684210524;"/><text fill="#000000" font-family="sans-serif" font-size="22.1053" lengthAdjust="spacing" textLength="74.2105" x="42.6316" y="627.8953">Panel2</text><text fill="#000000" font-family="sans-serif" font-size="22.1053" lengthAdjust="spacing" textLength="7.8947" x="345.7895" y="627.8953">:</text><text fill="#000000" font-family="sans-serif" font-size="22.1053" font-style="italic" lengthAdjust="spacing" textLength="93.1579" x="360" y="627.8953">TPanel *</text><line style="stroke:#181818;stroke-width:1.5789473684210524;" x1="12.6316" x2="637.8947" y1="639.4243" y2="639.4243"/><text fill="#000000" font-family="sans-serif" font-size="22.1053" lengthAdjust="spacing" textLength="6.3158" x="42.6316" y="666.2587"> </text><ellipse cx="28.4211" cy="682.5247" fill="#84BE84" rx="4.7368" ry="4.7368" style="stroke:#038048;stroke-width:1.5789473684210524;"/><text fill="#000000" font-family="sans-serif" font-size="22.1053" font-weight="bold" lengthAdjust="spacing" textLength="243.1579" x="42.6316" y="691.9906">TResult_ExamForm</text><text fill="#000000" font-family="sans-serif" font-size="22.1053" font-weight="bold" lengthAdjust="spacing" textLength="90" x="295.2632" y="691.9906">(Owner</text><text fill="#000000" font-family="sans-serif" font-size="22.1053" font-weight="bold" lengthAdjust="spacing" textLength="9.4737" x="421.5789" y="691.9906">:</text><text fill="#000000" font-family="sans-serif" font-size="22.1053" font-style="italic" font-weight="bold" lengthAdjust="spacing" textLength="180" x="438.9474" y="691.9906">TComponent *</text><text fill="#000000" font-family="sans-serif" font-size="22.1053" font-weight="bold" lengthAdjust="spacing" textLength="11.0526" x="618.9474" y="691.9906">)</text><text fill="#000000" font-family="sans-serif" font-size="22.1053" lengthAdjust="spacing" textLength="6.3158" x="42.6316" y="717.7226"> </text><ellipse cx="28.4211" cy="733.9885" fill="#84BE84" rx="4.7368" ry="4.7368" style="stroke:#038048;stroke-width:1.5789473684210524;"/><text fill="#000000" font-family="sans-serif" font-size="22.1053" lengthAdjust="spacing" textLength="148.4211" x="42.6316" y="743.4545">Button1Click</text><text fill="#000000" font-family="sans-serif" font-size="22.1053" lengthAdjust="spacing" textLength="88.4211" x="244.7368" y="743.4545">(Sender</text><text fill="#000000" font-family="sans-serif" font-size="22.1053" lengthAdjust="spacing" textLength="7.8947" x="345.7895" y="743.4545">:</text><text fill="#000000" font-family="sans-serif" font-size="22.1053" font-style="italic" lengthAdjust="spacing" textLength="104.2105" x="360" y="743.4545">TObject *</text><text fill="#000000" font-family="sans-serif" font-size="22.1053" lengthAdjust="spacing" textLength="22.1053" x="464.2105" y="743.4545">) :</text><text fill="#000000" font-family="sans-serif" font-size="22.1053" font-style="italic" lengthAdjust="spacing" textLength="47.3684" x="492.6316" y="743.4545">void</text><ellipse cx="28.4211" cy="759.7204" fill="#84BE84" rx="4.7368" ry="4.7368" style="stroke:#038048;stroke-width:1.5789473684210524;"/><text fill="#000000" font-family="sans-serif" font-size="22.1053" lengthAdjust="spacing" textLength="189.4737" x="42.6316" y="769.1864">DBGrid1DblClick</text><text fill="#000000" font-family="sans-serif" font-size="22.1053" lengthAdjust="spacing" textLength="88.4211" x="244.7368" y="769.1864">(Sender</text><text fill="#000000" font-family="sans-serif" font-size="22.1053" lengthAdjust="spacing" textLength="7.8947" x="345.7895" y="769.1864">:</text><text fill="#000000" font-family="sans-serif" font-size="22.1053" font-style="italic" lengthAdjust="spacing" textLength="104.2105" x="360" y="769.1864">TObject *</text><text fill="#000000" font-family="sans-serif" font-size="22.1053" lengthAdjust="spacing" textLength="22.1053" x="464.2105" y="769.1864">) :</text><text fill="#000000" font-family="sans-serif" font-size="22.1053" font-style="italic" lengthAdjust="spacing" textLength="47.3684" x="492.6316" y="769.1864">void</text><ellipse cx="28.4211" cy="785.4523" fill="#84BE84" rx="4.7368" ry="4.7368" style="stroke:#038048;stroke-width:1.5789473684210524;"/><text fill="#000000" font-family="sans-serif" font-size="22.1053" lengthAdjust="spacing" textLength="154.7368" x="42.6316" y="794.9183">FormActivate</text><text fill="#000000" font-family="sans-serif" font-size="22.1053" lengthAdjust="spacing" textLength="88.4211" x="244.7368" y="794.9183">(Sender</text><text fill="#000000" font-family="sans-serif" font-size="22.1053" lengthAdjust="spacing" textLength="7.8947" x="345.7895" y="794.9183">:</text><text fill="#000000" font-family="sans-serif" font-size="22.1053" font-style="italic" lengthAdjust="spacing" textLength="104.2105" x="360" y="794.9183">TObject *</text><text fill="#000000" font-family="sans-serif" font-size="22.1053" lengthAdjust="spacing" textLength="22.1053" x="464.2105" y="794.9183">) :</text><text fill="#000000" font-family="sans-serif" font-size="22.1053" font-style="italic" lengthAdjust="spacing" textLength="47.3684" x="492.6316" y="794.9183">void</text><line style="stroke:#181818;stroke-width:1.5789473684210524;stroke-dasharray:1.0,2.0;" x1="12.6316" x2="637.8947" y1="806.4474" y2="806.4474"/><ellipse cx="28.4211" cy="823.8158" fill="#84BE84" rx="4.7368" ry="4.7368" style="stroke:#038048;stroke-width:1.5789473684210524;"/><text fill="#000000" font-family="sans-serif" font-size="22.1053" lengthAdjust="spacing" textLength="120" x="42.6316" y="833.2818">FormClose</text><text fill="#000000" font-family="sans-serif" font-size="22.1053" lengthAdjust="spacing" textLength="7.8947" x="244.7368" y="833.2818">(</text><text fill="#000000" font-family="sans-serif" font-size="22.1053" lengthAdjust="spacing" textLength="80.5263" x="143.6842" y="859.0137">Sender</text><text fill="#000000" font-family="sans-serif" font-size="22.1053" lengthAdjust="spacing" textLength="7.8947" x="244.7368" y="859.0137">:</text><text fill="#000000" font-family="sans-serif" font-size="22.1053" font-style="italic" lengthAdjust="spacing" textLength="104.2105" x="258.9474" y="859.0137">TObject *</text><text fill="#000000" font-family="sans-serif" font-size="22.1053" lengthAdjust="spacing" textLength="6.3158" x="363.1579" y="859.0137">,</text><text fill="#000000" font-family="sans-serif" font-size="22.1053" lengthAdjust="spacing" textLength="74.2105" x="143.6842" y="884.7456">Action</text><text fill="#000000" font-family="sans-serif" font-size="22.1053" lengthAdjust="spacing" textLength="7.8947" x="244.7368" y="884.7456">:</text><text fill="#000000" font-family="sans-serif" font-size="22.1053" font-style="italic" lengthAdjust="spacing" textLength="170.5263" x="258.9474" y="884.7456">TCloseAction &amp;</text><text fill="#000000" font-family="sans-serif" font-size="22.1053" lengthAdjust="spacing" textLength="22.1053" x="93.1579" y="910.4775">) :</text><text fill="#000000" font-family="sans-serif" font-size="22.1053" font-style="italic" lengthAdjust="spacing" textLength="47.3684" x="121.5789" y="910.4775">void</text></g><!--MD5=[dd0bf217da5c5e97452bc452f42aff32]
class <b>TForm</b>--><g id="elem_&lt;b&gt;TForm&lt;/b&gt;"><rect fill="#F1F1F1" height="50.5263" id="&lt;b&gt;TForm&lt;/b&gt;" rx="3.9474" ry="3.9474" style="stroke:#181818;stroke-width:0.7894736842105262;" width="132.6316" x="258.9474" y="136.2582"/><ellipse cx="282.6316" cy="161.5214" fill="#ADD1B2" rx="17.3684" ry="17.3684" style="stroke:#181818;stroke-width:1.5789473684210524;"/><path d="M286.3322,154.6875 C284.852,153.9967 283.9145,153.7747 282.5329,153.7747 C278.3882,153.7747 275.2303,157.0559 275.2303,161.3487 L275.2303,163.125 C275.2303,167.1957 278.5609,170.1809 283.125,170.1809 C285.0493,170.1809 286.875,169.7122 288.0592,168.8487 C288.972,168.2072 289.4901,167.4918 289.4901,166.875 C289.4901,166.1595 288.8734,165.5428 288.1332,165.5428 C287.7878,165.5428 287.4671,165.6661 287.1711,165.9622 C286.4556,166.727 286.4556,166.727 286.1595,166.875 C285.4934,167.2944 284.4079,167.4918 283.199,167.4918 C279.9671,167.4918 277.9194,165.7648 277.9194,163.0757 L277.9194,161.3487 C277.9194,158.5362 279.8931,156.4638 282.6316,156.4638 C283.5444,156.4638 284.5066,156.7105 285.2467,157.1053 C286.0115,157.5493 286.2829,157.8947 286.4309,158.5362 C286.5296,159.1776 286.5789,159.375 286.801,159.5724 C287.023,159.7944 287.3931,159.9671 287.7385,159.9671 C288.1579,159.9671 288.5773,159.7451 288.8487,159.3997 C289.0214,159.153 289.0707,158.8569 289.0707,158.1908 L289.0707,155.9457 C289.0707,155.2549 289.0461,155.0576 288.898,154.8109 C288.6513,154.3914 288.2072,154.1694 287.7385,154.1694 C287.2697,154.1694 286.949,154.3174 286.6036,154.8109 L286.3322,154.6875 Z " fill="#000000"/><text fill="#000000" font-family="sans-serif" font-size="22.1053" font-weight="bold" lengthAdjust="spacing" textLength="82.1053" x="304.7368" y="169.174">TForm</text></g><!--MD5=[622b7bc0993a7baee1afa680ee90afc3]
reverse link <b>TForm</b> to <b>TResult_ExamForm</b>--><g id="link_&lt;b&gt;TForm&lt;/b&gt;_&lt;b&gt;TResult_ExamForm&lt;/b&gt;"><path codeLine="5" d="M325.2632,218.5561 C325.2632,239.7361 325.2632,265.6703 325.2632,293.9982 " fill="none" id="&lt;b&gt;TForm&lt;/b&gt;-backto-&lt;b&gt;TResult_ExamForm&lt;/b&gt;" style="stroke:#181818;stroke-width:1.5789473684210524;"/><polygon fill="none" points="314.2105,218.534,325.2632,186.9551,336.3158,218.534,314.2105,218.534" style="stroke:#181818;stroke-width:1.5789473684210524;"/></g><!--MD5=[5446fd6d642ddbf285f8794a86a2bb46]
@startuml
title Исходный файл: "Resuilt_ExamUnit.cpp"

scale 750 width

"<b>TResult_ExamForm</b>" -up-|> "<b>TForm</b>"

hide "<b>TForm</b>" members

class "<b>TResult_ExamForm</b>"
{
    + Button1 \t\t\t\t\t: <i>TButton *</i>
    ..
    + DBGrid1 \t\t\t\t: <i>TDBGrid *</i>
    + DBGrid2 \t\t\t\t\t: <i>TDBGrid *</i>
    ..
    + DBLookupComboBox1 \t: <i>TDBLookupComboBox *</i>
    ..
    + Edit1 \t\t\t\t\t: <i>TEdit *</i>
    ..
    + Label1 \t\t\t\t\t: <i>TPanel *</i>
    + Label2 \t\t\t\t\t: <i>TPanel *</i>
    + Panel1 \t\t\t\t\t: <i>TPanel *</i>
    + Panel2 \t\t\t\t\t: <i>TPanel *</i>
    - -
    
    + <b>TResult_ExamForm \t(Owner \t: <i>TComponent *</i>)</b>

    + Button1Click \t(Sender \t: <i>TObject *</i>) : <i>void</i>
    + DBGrid1DblClick \t(Sender \t: <i>TObject *</i>) : <i>void</i>
    + FormActivate \t(Sender \t: <i>TObject *</i>) : <i>void</i>
    ..
    + FormClose \t\t(
            \t\tSender \t: <i>TObject *</i>,
            \t\tAction \t: <i>TCloseAction &</i>
        \t) : <i>void</i>
}


package TResult_ExamForm <<Folder>>
{
    class TResult_ExamForm
    hide  members
}


' note right of "<b>TResult_ExamForm</b>"::Save_Priv
' сохранение привелегий (сирота, Чаэс, инвалид)
' end note
@enduml

@startuml
title Исходный файл: "Resuilt_ExamUnit.cpp"

scale 750 width

"<b>TResult_ExamForm</b>" -up-|> "<b>TForm</b>"

hide "<b>TForm</b>" members

class "<b>TResult_ExamForm</b>"
{
    + Button1 \t\t\t\t\t: <i>TButton *</i>
    ..
    + DBGrid1 \t\t\t\t: <i>TDBGrid *</i>
    + DBGrid2 \t\t\t\t\t: <i>TDBGrid *</i>
    ..
    + DBLookupComboBox1 \t: <i>TDBLookupComboBox *</i>
    ..
    + Edit1 \t\t\t\t\t: <i>TEdit *</i>
    ..
    + Label1 \t\t\t\t\t: <i>TPanel *</i>
    + Label2 \t\t\t\t\t: <i>TPanel *</i>
    + Panel1 \t\t\t\t\t: <i>TPanel *</i>
    + Panel2 \t\t\t\t\t: <i>TPanel *</i>
    - -
    
    + <b>TResult_ExamForm \t(Owner \t: <i>TComponent *</i>)</b>

    + Button1Click \t(Sender \t: <i>TObject *</i>) : <i>void</i>
    + DBGrid1DblClick \t(Sender \t: <i>TObject *</i>) : <i>void</i>
    + FormActivate \t(Sender \t: <i>TObject *</i>) : <i>void</i>
    ..
    + FormClose \t\t(
            \t\tSender \t: <i>TObject *</i>,
            \t\tAction \t: <i>TCloseAction &</i>
        \t) : <i>void</i>
}


package TResult_ExamForm <<Folder>>
{
    class TResult_ExamForm
    hide  members
}


@enduml

PlantUML version 1.2022.5(Sat Apr 30 10:55:52 UTC 2022)
(GPL source distribution)
Java Runtime: Java(TM) SE Runtime Environment
JVM: Java HotSpot(TM) 64-Bit Server VM
Default Encoding: UTF-8
Language: en
Country: US
--></g></svg>