<?xml version="1.0" encoding="UTF-8" standalone="no"?><svg xmlns="http://www.w3.org/2000/svg" xmlns:xlink="http://www.w3.org/1999/xlink" contentStyleType="text/css" height="650.3497px" preserveAspectRatio="none" style="width:750px;height:650px;background:#FFFFFF;" version="1.1" viewBox="0 0 750 650" width="750.5828px" zoomAndPan="magnify"><defs/><g><rect height="30.649" style="stroke:#00000000;stroke-width:1.1655011655011656;fill:none;" width="326.3403" x="204.2541" y="5.8275"/><text fill="#000000" font-family="sans-serif" font-size="16.317" font-weight="bold" lengthAdjust="spacing" textLength="314.6853" x="210.0816" y="26.8008">Исходный файл: "BlockUnit.cpp"</text><!--MD5=[5725451837b5a9aa2525de44fa90a9ca]
cluster TBlockForm--><g id="cluster_TBlockForm"><path d="M299.5338,50.4626 L412.5874,50.4626 A4.3706,4.3706 0 0 1 415.5012,53.3763 L423.6597,76.4496 L468.5315,76.4496 A2.9138,2.9138 0 0 1 471.4452,79.3633 L471.4452,162.9334 A2.9138,2.9138 0 0 1 468.5315,165.8472 L299.5338,165.8472 A2.9138,2.9138 0 0 1 296.62,162.9334 L296.62,53.3763 A2.9138,2.9138 0 0 1 299.5338,50.4626 " style="stroke:#000000;stroke-width:1.7482517482517483;fill:none;"/><line style="stroke:#000000;stroke-width:1.7482517482517483;fill:none;" x1="296.62" x2="423.6597" y1="76.4496" y2="76.4496"/><text fill="#000000" font-family="sans-serif" font-size="16.317" font-weight="bold" lengthAdjust="spacing" textLength="111.8881" x="301.2821" y="67.9394">TBlockForm</text></g><!--MD5=[8c0d6732d36d6ef03afa99cf930dc299]
class TBlockForm--><g id="elem_TBlockForm"><rect codeLine="42" fill="#F1F1F1" height="55.9441" id="TBlockForm" rx="2.9138" ry="2.9138" style="stroke:#181818;stroke-width:0.5827505827505828;" width="137.5291" x="315.2681" y="91.2551"/><ellipse cx="332.7506" cy="109.9031" fill="#ADD1B2" rx="12.8205" ry="12.8205" style="stroke:#181818;stroke-width:1.1655011655011656;"/><path d="M335.4822,104.8587 C334.3896,104.3488 333.6976,104.1849 332.6777,104.1849 C329.6183,104.1849 327.2873,106.6069 327.2873,109.7756 L327.2873,111.0868 C327.2873,114.0916 329.7458,116.2952 333.1148,116.2952 C334.5353,116.2952 335.8829,115.9492 336.757,115.3118 C337.4308,114.8383 337.8132,114.3102 337.8132,113.8549 C337.8132,113.3268 337.358,112.8715 336.8116,112.8715 C336.5567,112.8715 336.3199,112.9626 336.1014,113.1811 C335.5733,113.7456 335.5733,113.7456 335.3547,113.8549 C334.8631,114.1645 334.0618,114.3102 333.1694,114.3102 C330.7838,114.3102 329.2723,113.0354 329.2723,111.0504 L329.2723,109.7756 C329.2723,107.6996 330.7292,106.1699 332.7506,106.1699 C333.4244,106.1699 334.1346,106.352 334.6809,106.6434 C335.2455,106.9712 335.4458,107.2261 335.5551,107.6996 C335.6279,108.1731 335.6643,108.3188 335.8282,108.4645 C335.9921,108.6284 336.2653,108.7558 336.5203,108.7558 C336.8298,108.7558 337.1394,108.5919 337.3397,108.337 C337.4672,108.1549 337.5036,107.9363 337.5036,107.4446 L337.5036,105.7874 C337.5036,105.2775 337.4854,105.1318 337.3762,104.9497 C337.1941,104.6402 336.8663,104.4763 336.5203,104.4763 C336.1742,104.4763 335.9375,104.5855 335.6825,104.9497 L335.4822,104.8587 Z " fill="#000000"/><text fill="#000000" font-family="sans-serif" font-size="16.317" lengthAdjust="spacing" textLength="100.2331" x="349.0676" y="115.5519">TBlockForm</text><line style="stroke:#181818;stroke-width:0.5827505827505828;" x1="316.4336" x2="451.6317" y1="128.5511" y2="128.5511"/><line style="stroke:#181818;stroke-width:0.5827505827505828;" x1="316.4336" x2="451.6317" y1="137.8751" y2="137.8751"/></g><!--MD5=[a699846851f86a46fa44801fcac79047]
class <b>TBlockForm</b>--><g id="elem_&lt;b&gt;TBlockForm&lt;/b&gt;"><rect codeLine="10" fill="#F1F1F1" height="426.1546" id="&lt;b&gt;TBlockForm&lt;/b&gt;" rx="2.9138" ry="2.9138" style="stroke:#181818;stroke-width:0.5827505827505828;" width="434.7319" x="8.1585" y="217.1292"/><ellipse cx="164.627" cy="235.7772" fill="#ADD1B2" rx="12.8205" ry="12.8205" style="stroke:#181818;stroke-width:1.1655011655011656;"/><path d="M167.3587,230.7328 C166.266,230.2229 165.574,230.059 164.5542,230.059 C161.4948,230.059 159.1638,232.4811 159.1638,235.6498 L159.1638,236.961 C159.1638,239.9658 161.6222,242.1693 164.9913,242.1693 C166.4117,242.1693 167.7593,241.8233 168.6334,241.1859 C169.3073,240.7124 169.6897,240.1843 169.6897,239.729 C169.6897,239.2009 169.2344,238.7456 168.6881,238.7456 C168.4331,238.7456 168.1964,238.8367 167.9779,239.0552 C167.4497,239.6198 167.4497,239.6198 167.2312,239.729 C166.7395,240.0386 165.9382,240.1843 165.0459,240.1843 C162.6603,240.1843 161.1487,238.9095 161.1487,236.9245 L161.1487,235.6498 C161.1487,233.5737 162.6056,232.044 164.627,232.044 C165.3008,232.044 166.0111,232.2261 166.5574,232.5175 C167.1219,232.8453 167.3223,233.1002 167.4315,233.5737 C167.5044,234.0472 167.5408,234.1929 167.7047,234.3386 C167.8686,234.5025 168.1418,234.63 168.3967,234.63 C168.7063,234.63 169.0159,234.4661 169.2162,234.2111 C169.3437,234.029 169.3801,233.8105 169.3801,233.3188 L169.3801,231.6616 C169.3801,231.1517 169.3619,231.006 169.2526,230.8239 C169.0705,230.5143 168.7427,230.3504 168.3967,230.3504 C168.0507,230.3504 167.814,230.4596 167.559,230.8239 L167.3587,230.7328 Z " fill="#000000"/><text fill="#000000" font-family="sans-serif" font-size="16.317" font-weight="bold" lengthAdjust="spacing" textLength="111.8881" x="188.5198" y="241.4261">TBlockForm</text><line style="stroke:#181818;stroke-width:0.5827505827505828;" x1="9.324" x2="441.7249" y1="254.4253" y2="254.4253"/><ellipse cx="20.979" cy="267.2458" fill="none" rx="3.4965" ry="3.4965" style="stroke:#038048;stroke-width:1.1655011655011656;"/><text fill="#000000" font-family="sans-serif" font-size="16.317" lengthAdjust="spacing" textLength="65.2681" x="31.4685" y="274.2331">BitBtn1</text><text fill="#000000" font-family="sans-serif" font-size="16.317" lengthAdjust="spacing" textLength="5.8275" x="180.6527" y="274.2331">:</text><text fill="#000000" font-family="sans-serif" font-size="16.317" font-style="italic" lengthAdjust="spacing" textLength="73.4266" x="191.1422" y="274.2331">TBitBtn *</text><ellipse cx="20.979" cy="286.2398" fill="none" rx="3.4965" ry="3.4965" style="stroke:#038048;stroke-width:1.1655011655011656;"/><text fill="#000000" font-family="sans-serif" font-size="16.317" lengthAdjust="spacing" textLength="64.1026" x="31.4685" y="293.2271">BitBtn2</text><text fill="#000000" font-family="sans-serif" font-size="16.317" lengthAdjust="spacing" textLength="5.8275" x="180.6527" y="293.2271">:</text><text fill="#000000" font-family="sans-serif" font-size="16.317" font-style="italic" lengthAdjust="spacing" textLength="73.4266" x="191.1422" y="293.2271">TBitBtn *</text><ellipse cx="20.979" cy="305.2338" fill="none" rx="3.4965" ry="3.4965" style="stroke:#038048;stroke-width:1.1655011655011656;"/><text fill="#000000" font-family="sans-serif" font-size="16.317" lengthAdjust="spacing" textLength="55.9441" x="31.4685" y="312.2211">Panel1</text><text fill="#000000" font-family="sans-serif" font-size="16.317" lengthAdjust="spacing" textLength="5.8275" x="180.6527" y="312.2211">:</text><text fill="#000000" font-family="sans-serif" font-size="16.317" font-style="italic" lengthAdjust="spacing" textLength="68.7646" x="191.1422" y="312.2211">TPanel *</text><ellipse cx="20.979" cy="324.2279" fill="none" rx="3.4965" ry="3.4965" style="stroke:#038048;stroke-width:1.1655011655011656;"/><text fill="#000000" font-family="sans-serif" font-size="16.317" lengthAdjust="spacing" textLength="54.7786" x="31.4685" y="331.2152">Panel2</text><text fill="#000000" font-family="sans-serif" font-size="16.317" lengthAdjust="spacing" textLength="5.8275" x="180.6527" y="331.2152">:</text><text fill="#000000" font-family="sans-serif" font-size="16.317" font-style="italic" lengthAdjust="spacing" textLength="68.7646" x="191.1422" y="331.2152">TPanel *</text><ellipse cx="20.979" cy="343.2219" fill="none" rx="3.4965" ry="3.4965" style="stroke:#038048;stroke-width:1.1655011655011656;"/><text fill="#000000" font-family="sans-serif" font-size="16.317" lengthAdjust="spacing" textLength="108.3916" x="31.4685" y="350.2092">RadioGroup1</text><text fill="#000000" font-family="sans-serif" font-size="16.317" lengthAdjust="spacing" textLength="5.8275" x="180.6527" y="350.2092">:</text><text fill="#000000" font-family="sans-serif" font-size="16.317" font-style="italic" lengthAdjust="spacing" textLength="122.3776" x="191.1422" y="350.2092">TRadioGroup *</text><ellipse cx="20.979" cy="362.2159" fill="none" rx="3.4965" ry="3.4965" style="stroke:#038048;stroke-width:1.1655011655011656;"/><text fill="#000000" font-family="sans-serif" font-size="16.317" lengthAdjust="spacing" textLength="114.2191" x="31.4685" y="369.2032">PageControl1</text><text fill="#000000" font-family="sans-serif" font-size="16.317" lengthAdjust="spacing" textLength="5.8275" x="180.6527" y="369.2032">:</text><text fill="#000000" font-family="sans-serif" font-size="16.317" font-style="italic" lengthAdjust="spacing" textLength="124.7086" x="191.1422" y="369.2032">TPageControl *</text><ellipse cx="20.979" cy="381.2099" fill="none" rx="3.4965" ry="3.4965" style="stroke:#038048;stroke-width:1.1655011655011656;"/><text fill="#000000" font-family="sans-serif" font-size="16.317" lengthAdjust="spacing" textLength="107.2261" x="31.4685" y="388.1973">RadioGroup2</text><text fill="#000000" font-family="sans-serif" font-size="16.317" lengthAdjust="spacing" textLength="5.8275" x="180.6527" y="388.1973">:</text><text fill="#000000" font-family="sans-serif" font-size="16.317" font-style="italic" lengthAdjust="spacing" textLength="122.3776" x="191.1422" y="388.1973">TRadioGroup *</text><ellipse cx="20.979" cy="400.204" fill="none" rx="3.4965" ry="3.4965" style="stroke:#038048;stroke-width:1.1655011655011656;"/><text fill="#000000" font-family="sans-serif" font-size="16.317" lengthAdjust="spacing" textLength="92.0746" x="31.4685" y="407.1913">TabSheet1</text><text fill="#000000" font-family="sans-serif" font-size="16.317" lengthAdjust="spacing" textLength="5.8275" x="180.6527" y="407.1913">:</text><text fill="#000000" font-family="sans-serif" font-size="16.317" font-style="italic" lengthAdjust="spacing" textLength="102.5641" x="191.1422" y="407.1913">TTabSheet *</text><ellipse cx="20.979" cy="419.198" fill="none" rx="3.4965" ry="3.4965" style="stroke:#038048;stroke-width:1.1655011655011656;"/><text fill="#000000" font-family="sans-serif" font-size="16.317" lengthAdjust="spacing" textLength="90.9091" x="31.4685" y="426.1853">TabSheet2</text><text fill="#000000" font-family="sans-serif" font-size="16.317" lengthAdjust="spacing" textLength="5.8275" x="180.6527" y="426.1853">:</text><text fill="#000000" font-family="sans-serif" font-size="16.317" font-style="italic" lengthAdjust="spacing" textLength="102.5641" x="191.1422" y="426.1853">TTabSheet *</text><line style="stroke:#181818;stroke-width:1.1655011655011656;" x1="9.324" x2="441.7249" y1="434.6955" y2="434.6955"/><text fill="#000000" font-family="sans-serif" font-size="16.317" lengthAdjust="spacing" textLength="4.662" x="31.4685" y="454.5033"> </text><ellipse cx="20.979" cy="466.5101" fill="#84BE84" rx="3.4965" ry="3.4965" style="stroke:#038048;stroke-width:1.1655011655011656;"/><text fill="#000000" font-family="sans-serif" font-size="16.317" font-weight="bold" lengthAdjust="spacing" textLength="196.9697" x="31.4685" y="473.4974">TBlockForm (Owner :</text><text fill="#000000" font-family="sans-serif" font-size="16.317" font-style="italic" font-weight="bold" lengthAdjust="spacing" textLength="132.8671" x="234.2657" y="473.4974">TComponent *</text><text fill="#000000" font-family="sans-serif" font-size="16.317" font-weight="bold" lengthAdjust="spacing" textLength="8.1585" x="367.1329" y="473.4974">)</text><text fill="#000000" font-family="sans-serif" font-size="16.317" lengthAdjust="spacing" textLength="4.662" x="31.4685" y="492.4914"> </text><ellipse cx="20.979" cy="504.4981" fill="#84BE84" rx="3.4965" ry="3.4965" style="stroke:#038048;stroke-width:1.1655011655011656;"/><text fill="#000000" font-family="sans-serif" font-size="16.317" lengthAdjust="spacing" textLength="106.0606" x="31.4685" y="511.4854">BitBtn1Click</text><text fill="#000000" font-family="sans-serif" font-size="16.317" lengthAdjust="spacing" textLength="65.2681" x="180.6527" y="511.4854">(Sender</text><text fill="#000000" font-family="sans-serif" font-size="16.317" lengthAdjust="spacing" textLength="5.8275" x="292.5408" y="511.4854">:</text><text fill="#000000" font-family="sans-serif" font-size="16.317" font-style="italic" lengthAdjust="spacing" textLength="76.9231" x="303.0303" y="511.4854">TObject *</text><text fill="#000000" font-family="sans-serif" font-size="16.317" lengthAdjust="spacing" textLength="16.317" x="379.9534" y="511.4854">) :</text><text fill="#000000" font-family="sans-serif" font-size="16.317" font-style="italic" lengthAdjust="spacing" textLength="34.965" x="400.9324" y="511.4854">void</text><ellipse cx="20.979" cy="523.4921" fill="#84BE84" rx="3.4965" ry="3.4965" style="stroke:#038048;stroke-width:1.1655011655011656;"/><text fill="#000000" font-family="sans-serif" font-size="16.317" lengthAdjust="spacing" textLength="104.8951" x="31.4685" y="530.4794">BitBtn2Click</text><text fill="#000000" font-family="sans-serif" font-size="16.317" lengthAdjust="spacing" textLength="65.2681" x="180.6527" y="530.4794">(Sender</text><text fill="#000000" font-family="sans-serif" font-size="16.317" lengthAdjust="spacing" textLength="5.8275" x="292.5408" y="530.4794">:</text><text fill="#000000" font-family="sans-serif" font-size="16.317" font-style="italic" lengthAdjust="spacing" textLength="76.9231" x="303.0303" y="530.4794">TObject *</text><text fill="#000000" font-family="sans-serif" font-size="16.317" lengthAdjust="spacing" textLength="16.317" x="379.9534" y="530.4794">) :</text><text fill="#000000" font-family="sans-serif" font-size="16.317" font-style="italic" lengthAdjust="spacing" textLength="34.965" x="400.9324" y="530.4794">void</text><ellipse cx="20.979" cy="542.4862" fill="#84BE84" rx="3.4965" ry="3.4965" style="stroke:#038048;stroke-width:1.1655011655011656;"/><text fill="#000000" font-family="sans-serif" font-size="16.317" lengthAdjust="spacing" textLength="74.5921" x="31.4685" y="549.4735">PressBtn</text><text fill="#000000" font-family="sans-serif" font-size="16.317" lengthAdjust="spacing" textLength="81.5851" x="180.6527" y="549.4735">(pressBtn</text><text fill="#000000" font-family="sans-serif" font-size="16.317" lengthAdjust="spacing" textLength="5.8275" x="292.5408" y="549.4735">:</text><text fill="#000000" font-family="sans-serif" font-size="16.317" font-style="italic" lengthAdjust="spacing" textLength="20.979" x="303.0303" y="549.4735">int</text><text fill="#000000" font-family="sans-serif" font-size="16.317" lengthAdjust="spacing" textLength="16.317" x="324.0093" y="549.4735">) :</text><text fill="#000000" font-family="sans-serif" font-size="16.317" font-style="italic" lengthAdjust="spacing" textLength="34.965" x="344.9883" y="549.4735">void</text><line style="stroke:#181818;stroke-width:1.1655011655011656;stroke-dasharray:1.0,2.0;" x1="9.324" x2="441.7249" y1="557.9837" y2="557.9837"/><ellipse cx="20.979" cy="570.8042" fill="#84BE84" rx="3.4965" ry="3.4965" style="stroke:#038048;stroke-width:1.1655011655011656;"/><text fill="#000000" font-family="sans-serif" font-size="16.317" lengthAdjust="spacing" textLength="88.5781" x="31.4685" y="577.7915">FormClose</text><text fill="#000000" font-family="sans-serif" font-size="16.317" lengthAdjust="spacing" textLength="5.8275" x="180.6527" y="577.7915">(</text><text fill="#000000" font-family="sans-serif" font-size="16.317" lengthAdjust="spacing" textLength="59.4406" x="106.0606" y="596.7855">Sender</text><text fill="#000000" font-family="sans-serif" font-size="16.317" lengthAdjust="spacing" textLength="5.8275" x="180.6527" y="596.7855">:</text><text fill="#000000" font-family="sans-serif" font-size="16.317" font-style="italic" lengthAdjust="spacing" textLength="76.9231" x="191.1422" y="596.7855">TObject *</text><text fill="#000000" font-family="sans-serif" font-size="16.317" lengthAdjust="spacing" textLength="4.662" x="268.0653" y="596.7855">,</text><text fill="#000000" font-family="sans-serif" font-size="16.317" lengthAdjust="spacing" textLength="54.7786" x="106.0606" y="615.7796">Action</text><text fill="#000000" font-family="sans-serif" font-size="16.317" lengthAdjust="spacing" textLength="5.8275" x="180.6527" y="615.7796">:</text><text fill="#000000" font-family="sans-serif" font-size="16.317" font-style="italic" lengthAdjust="spacing" textLength="125.8741" x="191.1422" y="615.7796">TCloseAction &amp;</text><text fill="#000000" font-family="sans-serif" font-size="16.317" lengthAdjust="spacing" textLength="16.317" x="68.7646" y="634.7736">) :</text><text fill="#000000" font-family="sans-serif" font-size="16.317" font-style="italic" lengthAdjust="spacing" textLength="34.965" x="89.7436" y="634.7736">void</text></g><!--MD5=[dd0bf217da5c5e97452bc452f42aff32]
class <b>TForm</b>--><g id="elem_&lt;b&gt;TForm&lt;/b&gt;"><rect fill="#F1F1F1" height="37.296" id="&lt;b&gt;TForm&lt;/b&gt;" rx="2.9138" ry="2.9138" style="stroke:#181818;stroke-width:0.5827505827505828;" width="97.9021" x="176.5734" y="100.5791"/><ellipse cx="194.0559" cy="119.2271" fill="#ADD1B2" rx="12.8205" ry="12.8205" style="stroke:#181818;stroke-width:1.1655011655011656;"/><path d="M196.7876,114.1827 C195.6949,113.6728 195.0029,113.5089 193.9831,113.5089 C190.9237,113.5089 188.5927,115.9309 188.5927,119.0997 L188.5927,120.4108 C188.5927,123.4156 191.0511,125.6192 194.4202,125.6192 C195.8406,125.6192 197.1882,125.2732 198.0624,124.6358 C198.7362,124.1623 199.1186,123.6342 199.1186,123.1789 C199.1186,122.6508 198.6633,122.1955 198.117,122.1955 C197.862,122.1955 197.6253,122.2866 197.4068,122.5051 C196.8786,123.0696 196.8786,123.0696 196.6601,123.1789 C196.1684,123.4885 195.3671,123.6342 194.4748,123.6342 C192.0892,123.6342 190.5777,122.3594 190.5777,120.3744 L190.5777,119.0997 C190.5777,117.0236 192.0345,115.4939 194.0559,115.4939 C194.7297,115.4939 195.44,115.676 195.9863,115.9674 C196.5508,116.2952 196.7512,116.5501 196.8604,117.0236 C196.9333,117.4971 196.9697,117.6428 197.1336,117.7885 C197.2975,117.9524 197.5707,118.0798 197.8256,118.0798 C198.1352,118.0798 198.4448,117.9159 198.6451,117.661 C198.7726,117.4789 198.809,117.2603 198.809,116.7686 L198.809,115.1115 C198.809,114.6015 198.7908,114.4559 198.6815,114.2737 C198.4994,113.9642 198.1716,113.8003 197.8256,113.8003 C197.4796,113.8003 197.2429,113.9095 196.9879,114.2737 L196.7876,114.1827 Z " fill="#000000"/><text fill="#000000" font-family="sans-serif" font-size="16.317" font-weight="bold" lengthAdjust="spacing" textLength="60.6061" x="210.373" y="124.8759">TForm</text></g><path d="M484.2657,401.2784 L484.2657,420.0812 L379.9534,543.8247 L484.2657,429.4052 L484.2657,448.208 A0,0 0 0 0 484.2657,448.208 L743.007,448.208 A0,0 0 0 0 743.007,448.208 L743.007,412.9334 L731.352,401.2784 L484.2657,401.2784 A0,0 0 0 0 484.2657,401.2784 " fill="#FEFFDD" style="stroke:#181818;stroke-width:0.5827505827505828;"/><path d="M731.352,401.2784 L731.352,412.9334 L743.007,412.9334 L731.352,401.2784 " fill="#FEFFDD" style="stroke:#181818;stroke-width:0.5827505827505828;"/><text fill="#000000" font-family="sans-serif" font-size="15.1515" lengthAdjust="spacing" textLength="227.2727" x="491.2587" y="421.1699">Разрешение нажатия кнопки</text><text fill="#000000" font-family="sans-serif" font-size="15.1515" lengthAdjust="spacing" textLength="234.2657" x="491.2587" y="438.8072">(0 - Разрешить, 1 - Запретить)</text><!--MD5=[81f22d72dd05c7ddda3d4f90f84995c0]
reverse link <b>TForm</b> to <b>TBlockForm</b>--><g id="link_&lt;b&gt;TForm&lt;/b&gt;_&lt;b&gt;TBlockForm&lt;/b&gt;"><path codeLine="6" d="M225.5245,161.3285 C225.5245,177.0337 225.5245,196.2353 225.5245,217.0768 " fill="none" id="&lt;b&gt;TForm&lt;/b&gt;-backto-&lt;b&gt;TBlockForm&lt;/b&gt;" style="stroke:#181818;stroke-width:1.1655011655011656;"/><polygon fill="none" points="217.366,161.1933,225.5245,137.8833,233.683,161.1933,217.366,161.1933" style="stroke:#181818;stroke-width:1.1655011655011656;"/></g><!--MD5=[f80bc3c2babe6369e95d9bfdf1d386d5]
@startuml
title Исходный файл: "BlockUnit.cpp"

scale 750 width
' left to right direction

"<b>TBlockForm</b>" -up-|> "<b>TForm</b>"

hide "<b>TForm</b>" members

class "<b>TBlockForm</b>"
{
    + BitBtn1 \t\t\t: <i>TBitBtn *</i>
    + BitBtn2 \t\t\t: <i>TBitBtn *</i>
    + Panel1 \t\t\t: <i>TPanel *</i>
    + Panel2 \t\t\t: <i>TPanel *</i>
    + RadioGroup1 \t: <i>TRadioGroup *</i>
    + PageControl1 \t: <i>TPageControl *</i>
    + RadioGroup2 \t: <i>TRadioGroup *</i>
    + TabSheet1 \t\t: <i>TTabSheet *</i>
    + TabSheet2 \t\t: <i>TTabSheet *</i>
    - -

    + <b>TBlockForm (Owner : <i>TComponent *</i>)</b>

    + BitBtn1Click \t\t(Sender \t\t: <i>TObject *</i>) : <i>void</i>
    + BitBtn2Click \t\t(Sender \t\t: <i>TObject *</i>) : <i>void</i>
    + PressBtn \t\t(pressBtn \t: <i>int</i>) : <i>void</i>
    ..
    + FormClose \t\t(
            \t\tSender \t: <i>TObject *</i>,
            \t\tAction \t: <i>TCloseAction &</i>
        \t) : <i>void</i>
}

note right of "<b>TBlockForm</b>"::PressBtn
Разрешение нажатия кнопки
(0 - Разрешить, 1 - Запретить)
end note

package TBlockForm <<Folder>>
{
    class TBlockForm
    hide  members
}
@enduml

@startuml
title Исходный файл: "BlockUnit.cpp"

scale 750 width

"<b>TBlockForm</b>" -up-|> "<b>TForm</b>"

hide "<b>TForm</b>" members

class "<b>TBlockForm</b>"
{
    + BitBtn1 \t\t\t: <i>TBitBtn *</i>
    + BitBtn2 \t\t\t: <i>TBitBtn *</i>
    + Panel1 \t\t\t: <i>TPanel *</i>
    + Panel2 \t\t\t: <i>TPanel *</i>
    + RadioGroup1 \t: <i>TRadioGroup *</i>
    + PageControl1 \t: <i>TPageControl *</i>
    + RadioGroup2 \t: <i>TRadioGroup *</i>
    + TabSheet1 \t\t: <i>TTabSheet *</i>
    + TabSheet2 \t\t: <i>TTabSheet *</i>
    - -

    + <b>TBlockForm (Owner : <i>TComponent *</i>)</b>

    + BitBtn1Click \t\t(Sender \t\t: <i>TObject *</i>) : <i>void</i>
    + BitBtn2Click \t\t(Sender \t\t: <i>TObject *</i>) : <i>void</i>
    + PressBtn \t\t(pressBtn \t: <i>int</i>) : <i>void</i>
    ..
    + FormClose \t\t(
            \t\tSender \t: <i>TObject *</i>,
            \t\tAction \t: <i>TCloseAction &</i>
        \t) : <i>void</i>
}

note right of "<b>TBlockForm</b>"::PressBtn
Разрешение нажатия кнопки
(0 - Разрешить, 1 - Запретить)
end note

package TBlockForm <<Folder>>
{
    class TBlockForm
    hide  members
}
@enduml

PlantUML version 1.2022.5(Sat Apr 30 10:55:52 UTC 2022)
(GPL source distribution)
Java Runtime: Java(TM) SE Runtime Environment
JVM: Java HotSpot(TM) 64-Bit Server VM
Default Encoding: UTF-8
Language: en
Country: US
--></g></svg>