<?xml version="1.0" encoding="UTF-8" standalone="no"?><svg xmlns="http://www.w3.org/2000/svg" xmlns:xlink="http://www.w3.org/1999/xlink" contentStyleType="text/css" height="1245.3416px" preserveAspectRatio="none" style="width:751px;height:1245px;background:#FFFFFF;" version="1.1" viewBox="0 0 751 1245" width="751.5528px" zoomAndPan="magnify"><defs/><g><rect height="40.8337" style="stroke:#00000000;stroke-width:1.5527950310559007;fill:none;" width="484.472" x="122.6708" y="7.764"/><text fill="#000000" font-family="sans-serif" font-size="21.7391" font-weight="bold" lengthAdjust="spacing" textLength="468.9441" x="130.4348" y="35.7067">Исходный файл: "DUALLISTDOC.cpp"</text><!--MD5=[162cff96dd2f5ad7b0be8a5847d7e529]
cluster TDualListDlgDoc--><g id="cluster_TDualListDlgDoc"><path d="M461.9565,67.2312 L671.5839,67.2312 A5.823,5.823 0 0 1 675.4658,71.1132 L686.3354,101.8536 L736.8012,101.8536 A3.882,3.882 0 0 1 740.6832,105.7356 L740.6832,217.0759 A3.882,3.882 0 0 1 736.8012,220.9579 L461.9565,220.9579 A3.882,3.882 0 0 1 458.0745,217.0759 L458.0745,71.1132 A3.882,3.882 0 0 1 461.9565,67.2312 " style="stroke:#000000;stroke-width:2.329192546583851;fill:none;"/><line style="stroke:#000000;stroke-width:2.329192546583851;fill:none;" x1="458.0745" x2="686.3354" y1="101.8536" y2="101.8536"/><text fill="#000000" font-family="sans-serif" font-size="21.7391" font-weight="bold" lengthAdjust="spacing" textLength="208.0745" x="464.2857" y="90.5155">TDualListDlgDoc</text></g><!--MD5=[79141ae2f7a6493142e81e1f98be542a]
class TDualListDlgDoc--><g id="elem_TDualListDlgDoc"><rect codeLine="55" fill="#F1F1F1" height="74.5342" id="TDualListDlgDoc" rx="3.882" ry="3.882" style="stroke:#181818;stroke-width:0.7763975155279503;" width="232.9193" x="482.9193" y="121.579"/><ellipse cx="506.2112" cy="146.4237" fill="#ADD1B2" rx="17.0807" ry="17.0807" style="stroke:#181818;stroke-width:1.5527950310559007;"/><path d="M509.8505,139.703 C508.3948,139.0237 507.4728,138.8053 506.1141,138.8053 C502.038,138.8053 498.9325,142.0322 498.9325,146.2539 L498.9325,148.0008 C498.9325,152.0041 502.2079,154.9398 506.6964,154.9398 C508.5889,154.9398 510.3843,154.4788 511.5489,153.6297 C512.4466,152.9988 512.9561,152.2952 512.9561,151.6887 C512.9561,150.9851 512.3496,150.3785 511.6217,150.3785 C511.282,150.3785 510.9666,150.4998 510.6755,150.791 C509.9719,151.5431 509.9719,151.5431 509.6807,151.6887 C509.0256,152.1011 507.9581,152.2952 506.7692,152.2952 C503.5908,152.2952 501.5771,150.5969 501.5771,147.9523 L501.5771,146.2539 C501.5771,143.488 503.5181,141.4499 506.2112,141.4499 C507.1089,141.4499 508.0551,141.6925 508.783,142.0807 C509.5351,142.5175 509.802,142.8571 509.9476,143.488 C510.0446,144.1188 510.0932,144.3129 510.3115,144.507 C510.5299,144.7253 510.8938,144.8952 511.2335,144.8952 C511.646,144.8952 512.0584,144.6768 512.3253,144.3372 C512.4951,144.0945 512.5437,143.8034 512.5437,143.1483 L512.5437,140.9404 C512.5437,140.2611 512.5194,140.067 512.3738,139.8243 C512.1312,139.4119 511.6945,139.1935 511.2335,139.1935 C510.7725,139.1935 510.4571,139.3391 510.1174,139.8243 L509.8505,139.703 Z " fill="#000000"/><text fill="#000000" font-family="sans-serif" font-size="21.7391" lengthAdjust="spacing" textLength="183.2298" x="527.9503" y="153.9496">TDualListDlgDoc</text><line style="stroke:#181818;stroke-width:0.7763975155279503;" x1="484.472" x2="714.2857" y1="171.2684" y2="171.2684"/><line style="stroke:#181818;stroke-width:0.7763975155279503;" x1="484.472" x2="714.2857" y1="183.6908" y2="183.6908"/></g><!--MD5=[bf921f212745ab20cc5d633ef90de2cb]
class <b>TDualListDlgDoc</b>--><g id="elem_&lt;b&gt;TDualListDlgDoc&lt;/b&gt;"><rect codeLine="9" fill="#F1F1F1" height="945.9676" id="&lt;b&gt;TDualListDlgDoc&lt;/b&gt;" rx="3.882" ry="3.882" style="stroke:#181818;stroke-width:0.7763975155279503;" width="704.9689" x="10.8696" y="289.2809"/><ellipse cx="252.7174" cy="314.1256" fill="#ADD1B2" rx="17.0807" ry="17.0807" style="stroke:#181818;stroke-width:1.5527950310559007;"/><path d="M256.3568,307.4049 C254.901,306.7255 253.979,306.5072 252.6203,306.5072 C248.5443,306.5072 245.4387,309.7341 245.4387,313.9557 L245.4387,315.7026 C245.4387,319.7059 248.7141,322.6417 253.2026,322.6417 C255.0951,322.6417 256.8905,322.1807 258.0551,321.3315 C258.9528,320.7007 259.4623,319.9971 259.4623,319.3905 C259.4623,318.6869 258.8558,318.0804 258.1279,318.0804 C257.7882,318.0804 257.4728,318.2017 257.1817,318.4928 C256.4781,319.245 256.4781,319.245 256.1869,319.3905 C255.5318,319.803 254.4643,319.9971 253.2754,319.9971 C250.097,319.9971 248.0833,318.2987 248.0833,315.6541 L248.0833,313.9557 C248.0833,311.1898 250.0243,309.1518 252.7174,309.1518 C253.6151,309.1518 254.5613,309.3944 255.2892,309.7826 C256.0413,310.2193 256.3082,310.559 256.4538,311.1898 C256.5509,311.8207 256.5994,312.0148 256.8177,312.2089 C257.0361,312.4272 257.4,312.597 257.7397,312.597 C258.1522,312.597 258.5646,312.3787 258.8315,312.039 C259.0014,311.7964 259.0499,311.5052 259.0499,310.8502 L259.0499,308.6423 C259.0499,307.9629 259.0256,307.7688 258.88,307.5262 C258.6374,307.1137 258.2007,306.8954 257.7397,306.8954 C257.2787,306.8954 256.9633,307.041 256.6236,307.5262 L256.3568,307.4049 Z " fill="#000000"/><text fill="#000000" font-family="sans-serif" font-size="21.7391" font-weight="bold" lengthAdjust="spacing" textLength="208.0745" x="284.5497" y="321.6515">TDualListDlgDoc</text><line style="stroke:#181818;stroke-width:0.7763975155279503;" x1="12.4224" x2="714.2857" y1="338.9703" y2="338.9703"/><ellipse cx="27.9503" cy="356.051" fill="none" rx="4.6584" ry="4.6584" style="stroke:#038048;stroke-width:1.5527950310559007;"/><text fill="#000000" font-family="sans-serif" font-size="21.7391" lengthAdjust="spacing" textLength="114.9068" x="41.9255" y="365.3602">CancelBtn</text><text fill="#000000" font-family="sans-serif" font-size="21.7391" lengthAdjust="spacing" textLength="7.764" x="190.9938" y="365.3602">:</text><text fill="#000000" font-family="sans-serif" font-size="21.7391" font-style="italic" lengthAdjust="spacing" textLength="104.0373" x="204.9689" y="365.3602">TButton *</text><ellipse cx="27.9503" cy="381.3568" fill="none" rx="4.6584" ry="4.6584" style="stroke:#038048;stroke-width:1.5527950310559007;"/><text fill="#000000" font-family="sans-serif" font-size="21.7391" lengthAdjust="spacing" textLength="91.6149" x="41.9255" y="390.6659">HelpBtn</text><text fill="#000000" font-family="sans-serif" font-size="21.7391" lengthAdjust="spacing" textLength="7.764" x="190.9938" y="390.6659">:</text><text fill="#000000" font-family="sans-serif" font-size="21.7391" font-style="italic" lengthAdjust="spacing" textLength="104.0373" x="204.9689" y="390.6659">TButton *</text><ellipse cx="27.9503" cy="406.6625" fill="none" rx="4.6584" ry="4.6584" style="stroke:#038048;stroke-width:1.5527950310559007;"/><text fill="#000000" font-family="sans-serif" font-size="21.7391" lengthAdjust="spacing" textLength="72.9814" x="41.9255" y="415.9716">OKBtn</text><text fill="#000000" font-family="sans-serif" font-size="21.7391" lengthAdjust="spacing" textLength="7.764" x="190.9938" y="415.9716">:</text><text fill="#000000" font-family="sans-serif" font-size="21.7391" font-style="italic" lengthAdjust="spacing" textLength="104.0373" x="204.9689" y="415.9716">TButton *</text><line style="stroke:#181818;stroke-width:1.5527950310559007;stroke-dasharray:1.0,2.0;" x1="12.4224" x2="714.2857" y1="427.3098" y2="427.3098"/><ellipse cx="27.9503" cy="444.3905" fill="none" rx="4.6584" ry="4.6584" style="stroke:#038048;stroke-width:1.5527950310559007;"/><text fill="#000000" font-family="sans-serif" font-size="21.7391" lengthAdjust="spacing" textLength="99.3789" x="41.9255" y="453.6997">DstLabel</text><text fill="#000000" font-family="sans-serif" font-size="21.7391" lengthAdjust="spacing" textLength="7.764" x="190.9938" y="453.6997">:</text><text fill="#000000" font-family="sans-serif" font-size="21.7391" font-style="italic" lengthAdjust="spacing" textLength="91.6149" x="204.9689" y="453.6997">TLabel *</text><ellipse cx="27.9503" cy="469.6962" fill="none" rx="4.6584" ry="4.6584" style="stroke:#038048;stroke-width:1.5527950310559007;"/><text fill="#000000" font-family="sans-serif" font-size="21.7391" lengthAdjust="spacing" textLength="96.2733" x="41.9255" y="479.0054">SrcLabel</text><text fill="#000000" font-family="sans-serif" font-size="21.7391" lengthAdjust="spacing" textLength="7.764" x="190.9938" y="479.0054">:</text><text fill="#000000" font-family="sans-serif" font-size="21.7391" font-style="italic" lengthAdjust="spacing" textLength="91.6149" x="204.9689" y="479.0054">TLabel *</text><line style="stroke:#181818;stroke-width:1.5527950310559007;stroke-dasharray:1.0,2.0;" x1="12.4224" x2="714.2857" y1="490.3436" y2="490.3436"/><ellipse cx="27.9503" cy="507.4243" fill="none" rx="4.6584" ry="4.6584" style="stroke:#038048;stroke-width:1.5527950310559007;"/><text fill="#000000" font-family="sans-serif" font-size="21.7391" lengthAdjust="spacing" textLength="79.1925" x="41.9255" y="516.7335">DstList</text><text fill="#000000" font-family="sans-serif" font-size="21.7391" lengthAdjust="spacing" textLength="7.764" x="190.9938" y="516.7335">:</text><text fill="#000000" font-family="sans-serif" font-size="21.7391" font-style="italic" lengthAdjust="spacing" textLength="110.2484" x="204.9689" y="516.7335">TListBox *</text><ellipse cx="27.9503" cy="532.73" fill="none" rx="4.6584" ry="4.6584" style="stroke:#038048;stroke-width:1.5527950310559007;"/><text fill="#000000" font-family="sans-serif" font-size="21.7391" lengthAdjust="spacing" textLength="76.087" x="41.9255" y="542.0392">SrcList</text><text fill="#000000" font-family="sans-serif" font-size="21.7391" lengthAdjust="spacing" textLength="7.764" x="190.9938" y="542.0392">:</text><text fill="#000000" font-family="sans-serif" font-size="21.7391" font-style="italic" lengthAdjust="spacing" textLength="110.2484" x="204.9689" y="542.0392">TListBox *</text><line style="stroke:#181818;stroke-width:1.5527950310559007;stroke-dasharray:1.0,2.0;" x1="12.4224" x2="714.2857" y1="553.3773" y2="553.3773"/><ellipse cx="27.9503" cy="570.4581" fill="none" rx="4.6584" ry="4.6584" style="stroke:#038048;stroke-width:1.5527950310559007;"/><text fill="#000000" font-family="sans-serif" font-size="21.7391" lengthAdjust="spacing" textLength="94.7205" x="41.9255" y="579.7673">ExAllBtn</text><text fill="#000000" font-family="sans-serif" font-size="21.7391" lengthAdjust="spacing" textLength="7.764" x="190.9938" y="579.7673">:</text><text fill="#000000" font-family="sans-serif" font-size="21.7391" font-style="italic" lengthAdjust="spacing" textLength="173.913" x="204.9689" y="579.7673">TSpeedButton *</text><ellipse cx="27.9503" cy="595.7638" fill="none" rx="4.6584" ry="4.6584" style="stroke:#038048;stroke-width:1.5527950310559007;"/><text fill="#000000" font-family="sans-serif" font-size="21.7391" lengthAdjust="spacing" textLength="125.7764" x="41.9255" y="605.073">ExcludeBtn</text><text fill="#000000" font-family="sans-serif" font-size="21.7391" lengthAdjust="spacing" textLength="7.764" x="190.9938" y="605.073">:</text><text fill="#000000" font-family="sans-serif" font-size="21.7391" font-style="italic" lengthAdjust="spacing" textLength="173.913" x="204.9689" y="605.073">TSpeedButton *</text><ellipse cx="27.9503" cy="621.0695" fill="none" rx="4.6584" ry="4.6584" style="stroke:#038048;stroke-width:1.5527950310559007;"/><text fill="#000000" font-family="sans-serif" font-size="21.7391" lengthAdjust="spacing" textLength="100.9317" x="41.9255" y="630.3787">IncAllBtn</text><text fill="#000000" font-family="sans-serif" font-size="21.7391" lengthAdjust="spacing" textLength="7.764" x="190.9938" y="630.3787">:</text><text fill="#000000" font-family="sans-serif" font-size="21.7391" font-style="italic" lengthAdjust="spacing" textLength="173.913" x="204.9689" y="630.3787">TSpeedButton *</text><ellipse cx="27.9503" cy="646.3752" fill="none" rx="4.6584" ry="4.6584" style="stroke:#038048;stroke-width:1.5527950310559007;"/><text fill="#000000" font-family="sans-serif" font-size="21.7391" lengthAdjust="spacing" textLength="119.5652" x="41.9255" y="655.6844">IncludeBtn</text><text fill="#000000" font-family="sans-serif" font-size="21.7391" lengthAdjust="spacing" textLength="7.764" x="190.9938" y="655.6844">:</text><text fill="#000000" font-family="sans-serif" font-size="21.7391" font-style="italic" lengthAdjust="spacing" textLength="173.913" x="204.9689" y="655.6844">TSpeedButton *</text><line style="stroke:#181818;stroke-width:1.5527950310559007;" x1="12.4224" x2="714.2857" y1="667.0225" y2="667.0225"/><text fill="#000000" font-family="sans-serif" font-size="21.7391" lengthAdjust="spacing" textLength="6.2112" x="41.9255" y="693.4124"> </text><ellipse cx="27.9503" cy="709.409" fill="#84BE84" rx="4.6584" ry="4.6584" style="stroke:#038048;stroke-width:1.5527950310559007;"/><text fill="#000000" font-family="sans-serif" font-size="21.7391" font-style="italic" font-weight="bold" lengthAdjust="spacing" textLength="319.8758" x="41.9255" y="718.7182">TDualListDlgDoc (AOwner</text><text fill="#000000" font-family="sans-serif" font-size="21.7391" font-style="italic" font-weight="bold" lengthAdjust="spacing" textLength="9.3168" x="414.5963" y="718.7182">:</text><text fill="#000000" font-family="sans-serif" font-size="21.7391" font-style="italic" font-weight="bold" lengthAdjust="spacing" textLength="177.0186" x="431.677" y="718.7182">TComponent *</text><text fill="#000000" font-family="sans-serif" font-size="21.7391" font-style="italic" font-weight="bold" lengthAdjust="spacing" textLength="97.8261" x="608.6957" y="718.7182">) virtual</text><text fill="#000000" font-family="sans-serif" font-size="21.7391" lengthAdjust="spacing" textLength="6.2112" x="41.9255" y="744.0239"> </text><ellipse cx="27.9503" cy="760.0204" fill="#84BE84" rx="4.6584" ry="4.6584" style="stroke:#038048;stroke-width:1.5527950310559007;"/><text fill="#000000" font-family="sans-serif" font-size="21.7391" lengthAdjust="spacing" textLength="172.3602" x="41.9255" y="769.3296">DstListDblClick</text><text fill="#000000" font-family="sans-serif" font-size="21.7391" lengthAdjust="spacing" textLength="86.9565" x="290.3727" y="769.3296">(Sender</text><text fill="#000000" font-family="sans-serif" font-size="21.7391" lengthAdjust="spacing" textLength="7.764" x="389.7516" y="769.3296">:</text><text fill="#000000" font-family="sans-serif" font-size="21.7391" font-style="italic" lengthAdjust="spacing" textLength="102.4845" x="403.7267" y="769.3296">TObject *</text><text fill="#000000" font-family="sans-serif" font-size="21.7391" lengthAdjust="spacing" textLength="21.7391" x="506.2112" y="769.3296">) :</text><text fill="#000000" font-family="sans-serif" font-size="21.7391" font-style="italic" lengthAdjust="spacing" textLength="46.5839" x="534.1615" y="769.3296">void</text><ellipse cx="27.9503" cy="785.3261" fill="#84BE84" rx="4.6584" ry="4.6584" style="stroke:#038048;stroke-width:1.5527950310559007;"/><text fill="#000000" font-family="sans-serif" font-size="21.7391" lengthAdjust="spacing" textLength="161.4907" x="41.9255" y="794.6353">ExcAllBtnClick</text><text fill="#000000" font-family="sans-serif" font-size="21.7391" lengthAdjust="spacing" textLength="86.9565" x="290.3727" y="794.6353">(Sender</text><text fill="#000000" font-family="sans-serif" font-size="21.7391" lengthAdjust="spacing" textLength="7.764" x="389.7516" y="794.6353">:</text><text fill="#000000" font-family="sans-serif" font-size="21.7391" font-style="italic" lengthAdjust="spacing" textLength="102.4845" x="403.7267" y="794.6353">TObject *</text><text fill="#000000" font-family="sans-serif" font-size="21.7391" lengthAdjust="spacing" textLength="21.7391" x="506.2112" y="794.6353">) :</text><text fill="#000000" font-family="sans-serif" font-size="21.7391" font-style="italic" lengthAdjust="spacing" textLength="46.5839" x="534.1615" y="794.6353">void</text><ellipse cx="27.9503" cy="810.6318" fill="#84BE84" rx="4.6584" ry="4.6584" style="stroke:#038048;stroke-width:1.5527950310559007;"/><text fill="#000000" font-family="sans-serif" font-size="21.7391" lengthAdjust="spacing" textLength="180.1242" x="41.9255" y="819.941">ExcludeBtnClick</text><text fill="#000000" font-family="sans-serif" font-size="21.7391" lengthAdjust="spacing" textLength="86.9565" x="290.3727" y="819.941">(Sender</text><text fill="#000000" font-family="sans-serif" font-size="21.7391" lengthAdjust="spacing" textLength="7.764" x="389.7516" y="819.941">:</text><text fill="#000000" font-family="sans-serif" font-size="21.7391" font-style="italic" lengthAdjust="spacing" textLength="102.4845" x="403.7267" y="819.941">TObject *</text><text fill="#000000" font-family="sans-serif" font-size="21.7391" lengthAdjust="spacing" textLength="21.7391" x="506.2112" y="819.941">) :</text><text fill="#000000" font-family="sans-serif" font-size="21.7391" font-style="italic" lengthAdjust="spacing" textLength="46.5839" x="534.1615" y="819.941">void</text><ellipse cx="27.9503" cy="835.9375" fill="#84BE84" rx="4.6584" ry="4.6584" style="stroke:#038048;stroke-width:1.5527950310559007;"/><text fill="#000000" font-family="sans-serif" font-size="21.7391" lengthAdjust="spacing" textLength="197.205" x="41.9255" y="845.2467">GetFirstSelection</text><text fill="#000000" font-family="sans-serif" font-size="21.7391" lengthAdjust="spacing" textLength="48.1366" x="290.3727" y="845.2467">(List</text><text fill="#000000" font-family="sans-serif" font-size="21.7391" lengthAdjust="spacing" textLength="7.764" x="389.7516" y="845.2467">:</text><text fill="#000000" font-family="sans-serif" font-size="21.7391" font-style="italic" lengthAdjust="spacing" textLength="194.0994" x="403.7267" y="845.2467">TCustomListBox *</text><text fill="#000000" font-family="sans-serif" font-size="21.7391" lengthAdjust="spacing" textLength="21.7391" x="597.8261" y="845.2467">) :</text><text fill="#000000" font-family="sans-serif" font-size="21.7391" font-style="italic" lengthAdjust="spacing" textLength="79.1925" x="625.7764" y="845.2467">Integer</text><ellipse cx="27.9503" cy="861.2432" fill="#84BE84" rx="4.6584" ry="4.6584" style="stroke:#038048;stroke-width:1.5527950310559007;"/><text fill="#000000" font-family="sans-serif" font-size="21.7391" lengthAdjust="spacing" textLength="155.2795" x="41.9255" y="870.5524">IncAllBtnClick</text><text fill="#000000" font-family="sans-serif" font-size="21.7391" lengthAdjust="spacing" textLength="86.9565" x="290.3727" y="870.5524">(Sender</text><text fill="#000000" font-family="sans-serif" font-size="21.7391" lengthAdjust="spacing" textLength="7.764" x="389.7516" y="870.5524">:</text><text fill="#000000" font-family="sans-serif" font-size="21.7391" font-style="italic" lengthAdjust="spacing" textLength="102.4845" x="403.7267" y="870.5524">TObject *</text><text fill="#000000" font-family="sans-serif" font-size="21.7391" lengthAdjust="spacing" textLength="21.7391" x="506.2112" y="870.5524">) :</text><text fill="#000000" font-family="sans-serif" font-size="21.7391" font-style="italic" lengthAdjust="spacing" textLength="46.5839" x="534.1615" y="870.5524">void</text><ellipse cx="27.9503" cy="886.5489" fill="#84BE84" rx="4.6584" ry="4.6584" style="stroke:#038048;stroke-width:1.5527950310559007;"/><text fill="#000000" font-family="sans-serif" font-size="21.7391" lengthAdjust="spacing" textLength="173.913" x="41.9255" y="895.8581">IncludeBtnClick</text><text fill="#000000" font-family="sans-serif" font-size="21.7391" lengthAdjust="spacing" textLength="86.9565" x="290.3727" y="895.8581">(Sender</text><text fill="#000000" font-family="sans-serif" font-size="21.7391" lengthAdjust="spacing" textLength="7.764" x="389.7516" y="895.8581">:</text><text fill="#000000" font-family="sans-serif" font-size="21.7391" font-style="italic" lengthAdjust="spacing" textLength="102.4845" x="403.7267" y="895.8581">TObject *</text><text fill="#000000" font-family="sans-serif" font-size="21.7391" lengthAdjust="spacing" textLength="21.7391" x="506.2112" y="895.8581">) :</text><text fill="#000000" font-family="sans-serif" font-size="21.7391" font-style="italic" lengthAdjust="spacing" textLength="46.5839" x="534.1615" y="895.8581">void</text><line style="stroke:#181818;stroke-width:1.5527950310559007;stroke-dasharray:1.0,2.0;" x1="12.4224" x2="714.2857" y1="907.1962" y2="907.1962"/><ellipse cx="27.9503" cy="924.277" fill="#84BE84" rx="4.6584" ry="4.6584" style="stroke:#038048;stroke-width:1.5527950310559007;"/><text fill="#000000" font-family="sans-serif" font-size="21.7391" lengthAdjust="spacing" textLength="158.3851" x="41.9255" y="933.5862">MoveSelected</text><text fill="#000000" font-family="sans-serif" font-size="21.7391" lengthAdjust="spacing" textLength="7.764" x="290.3727" y="933.5862">(</text><text fill="#000000" font-family="sans-serif" font-size="21.7391" lengthAdjust="spacing" textLength="40.3727" x="141.3043" y="958.8919">List</text><text fill="#000000" font-family="sans-serif" font-size="21.7391" lengthAdjust="spacing" textLength="7.764" x="240.6832" y="958.8919">:</text><text fill="#000000" font-family="sans-serif" font-size="21.7391" font-style="italic" lengthAdjust="spacing" textLength="194.0994" x="254.6584" y="958.8919">TCustomListBox *</text><text fill="#000000" font-family="sans-serif" font-size="21.7391" lengthAdjust="spacing" textLength="6.2112" x="448.7578" y="958.8919">,</text><text fill="#000000" font-family="sans-serif" font-size="21.7391" lengthAdjust="spacing" textLength="63.6646" x="141.3043" y="984.1976">Items</text><text fill="#000000" font-family="sans-serif" font-size="21.7391" lengthAdjust="spacing" textLength="7.764" x="240.6832" y="984.1976">:</text><text fill="#000000" font-family="sans-serif" font-size="21.7391" font-style="italic" lengthAdjust="spacing" textLength="107.1429" x="254.6584" y="984.1976">TStrings *</text><text fill="#000000" font-family="sans-serif" font-size="21.7391" lengthAdjust="spacing" textLength="21.7391" x="91.6149" y="1009.5033">) :</text><text fill="#000000" font-family="sans-serif" font-size="21.7391" font-style="italic" lengthAdjust="spacing" textLength="46.5839" x="119.5652" y="1009.5033">void</text><line style="stroke:#181818;stroke-width:1.5527950310559007;stroke-dasharray:1.0,2.0;" x1="12.4224" x2="714.2857" y1="1020.8414" y2="1020.8414"/><ellipse cx="27.9503" cy="1037.9222" fill="#84BE84" rx="4.6584" ry="4.6584" style="stroke:#038048;stroke-width:1.5527950310559007;"/><text fill="#000000" font-family="sans-serif" font-size="21.7391" lengthAdjust="spacing" textLength="127.3292" x="41.9255" y="1047.2314">OKBtnClick</text><text fill="#000000" font-family="sans-serif" font-size="21.7391" lengthAdjust="spacing" textLength="86.9565" x="290.3727" y="1047.2314">(Sender</text><text fill="#000000" font-family="sans-serif" font-size="21.7391" lengthAdjust="spacing" textLength="7.764" x="389.7516" y="1047.2314">:</text><text fill="#000000" font-family="sans-serif" font-size="21.7391" font-style="italic" lengthAdjust="spacing" textLength="102.4845" x="403.7267" y="1047.2314">TObject *</text><text fill="#000000" font-family="sans-serif" font-size="21.7391" lengthAdjust="spacing" textLength="21.7391" x="506.2112" y="1047.2314">) :</text><text fill="#000000" font-family="sans-serif" font-size="21.7391" font-style="italic" lengthAdjust="spacing" textLength="46.5839" x="534.1615" y="1047.2314">void</text><ellipse cx="27.9503" cy="1063.2279" fill="#84BE84" rx="4.6584" ry="4.6584" style="stroke:#038048;stroke-width:1.5527950310559007;"/><text fill="#000000" font-family="sans-serif" font-size="21.7391" lengthAdjust="spacing" textLength="127.3292" x="41.9255" y="1072.5371">SetButtons</text><text fill="#000000" font-family="sans-serif" font-size="21.7391" lengthAdjust="spacing" textLength="29.5031" x="290.3727" y="1072.5371">() :</text><text fill="#000000" font-family="sans-serif" font-size="21.7391" font-style="italic" lengthAdjust="spacing" textLength="46.5839" x="326.087" y="1072.5371">void</text><line style="stroke:#181818;stroke-width:1.5527950310559007;stroke-dasharray:1.0,2.0;" x1="12.4224" x2="714.2857" y1="1083.8752" y2="1083.8752"/><ellipse cx="27.9503" cy="1100.9559" fill="#84BE84" rx="4.6584" ry="4.6584" style="stroke:#038048;stroke-width:1.5527950310559007;"/><text fill="#000000" font-family="sans-serif" font-size="21.7391" lengthAdjust="spacing" textLength="91.6149" x="41.9255" y="1110.2651">SetItem</text><text fill="#000000" font-family="sans-serif" font-size="21.7391" lengthAdjust="spacing" textLength="7.764" x="290.3727" y="1110.2651">(</text><text fill="#000000" font-family="sans-serif" font-size="21.7391" lengthAdjust="spacing" textLength="40.3727" x="141.3043" y="1135.5708">List</text><text fill="#000000" font-family="sans-serif" font-size="21.7391" lengthAdjust="spacing" textLength="7.764" x="240.6832" y="1135.5708">:</text><text fill="#000000" font-family="sans-serif" font-size="21.7391" font-style="italic" lengthAdjust="spacing" textLength="110.2484" x="254.6584" y="1135.5708">TListBox *</text><text fill="#000000" font-family="sans-serif" font-size="21.7391" lengthAdjust="spacing" textLength="6.2112" x="364.9068" y="1135.5708">,</text><text fill="#000000" font-family="sans-serif" font-size="21.7391" lengthAdjust="spacing" textLength="60.559" x="141.3043" y="1160.8765">Index</text><text fill="#000000" font-family="sans-serif" font-size="21.7391" lengthAdjust="spacing" textLength="7.764" x="240.6832" y="1160.8765">:</text><text fill="#000000" font-family="sans-serif" font-size="21.7391" font-style="italic" lengthAdjust="spacing" textLength="27.9503" x="254.6584" y="1160.8765">int</text><text fill="#000000" font-family="sans-serif" font-size="21.7391" lengthAdjust="spacing" textLength="21.7391" x="91.6149" y="1186.1822">) :</text><text fill="#000000" font-family="sans-serif" font-size="21.7391" font-style="italic" lengthAdjust="spacing" textLength="46.5839" x="119.5652" y="1186.1822">void</text><line style="stroke:#181818;stroke-width:1.5527950310559007;stroke-dasharray:1.0,2.0;" x1="12.4224" x2="714.2857" y1="1197.5204" y2="1197.5204"/><ellipse cx="27.9503" cy="1214.6011" fill="#84BE84" rx="4.6584" ry="4.6584" style="stroke:#038048;stroke-width:1.5527950310559007;"/><text fill="#000000" font-family="sans-serif" font-size="21.7391" lengthAdjust="spacing" textLength="169.2547" x="41.9255" y="1223.9103">SrcListDblClick</text><text fill="#000000" font-family="sans-serif" font-size="21.7391" lengthAdjust="spacing" textLength="86.9565" x="290.3727" y="1223.9103">(Sender</text><text fill="#000000" font-family="sans-serif" font-size="21.7391" lengthAdjust="spacing" textLength="7.764" x="389.7516" y="1223.9103">:</text><text fill="#000000" font-family="sans-serif" font-size="21.7391" font-style="italic" lengthAdjust="spacing" textLength="102.4845" x="403.7267" y="1223.9103">TObject *</text><text fill="#000000" font-family="sans-serif" font-size="21.7391" lengthAdjust="spacing" textLength="21.7391" x="506.2112" y="1223.9103">) :</text><text fill="#000000" font-family="sans-serif" font-size="21.7391" font-style="italic" lengthAdjust="spacing" textLength="46.5839" x="534.1615" y="1223.9103">void</text></g><!--MD5=[dd0bf217da5c5e97452bc452f42aff32]
class <b>TForm</b>--><g id="elem_&lt;b&gt;TForm&lt;/b&gt;"><rect fill="#F1F1F1" height="49.6894" id="&lt;b&gt;TForm&lt;/b&gt;" rx="3.882" ry="3.882" style="stroke:#181818;stroke-width:0.7763975155279503;" width="130.4348" x="298.1366" y="134.0014"/><ellipse cx="321.4286" cy="158.8461" fill="#ADD1B2" rx="17.0807" ry="17.0807" style="stroke:#181818;stroke-width:1.5527950310559007;"/><path d="M325.0679,152.1254 C323.6122,151.446 322.6902,151.2277 321.3315,151.2277 C317.2554,151.2277 314.1498,154.4546 314.1498,158.6762 L314.1498,160.4231 C314.1498,164.4264 317.4253,167.3622 321.9138,167.3622 C323.8063,167.3622 325.6017,166.9012 326.7663,166.052 C327.664,165.4212 328.1735,164.7176 328.1735,164.111 C328.1735,163.4074 327.567,162.8009 326.8391,162.8009 C326.4994,162.8009 326.184,162.9222 325.8929,163.2133 C325.1892,163.9655 325.1892,163.9655 324.8981,164.111 C324.243,164.5235 323.1755,164.7176 321.9866,164.7176 C318.8082,164.7176 316.7944,163.0192 316.7944,160.3746 L316.7944,158.6762 C316.7944,155.9103 318.7354,153.8723 321.4286,153.8723 C322.3263,153.8723 323.2725,154.1149 324.0004,154.5031 C324.7525,154.9398 325.0194,155.2795 325.165,155.9103 C325.262,156.5411 325.3106,156.7352 325.5289,156.9293 C325.7473,157.1477 326.1112,157.3175 326.4509,157.3175 C326.8634,157.3175 327.2758,157.0992 327.5427,156.7595 C327.7125,156.5169 327.7611,156.2257 327.7611,155.5707 L327.7611,153.3628 C327.7611,152.6834 327.7368,152.4893 327.5912,152.2467 C327.3486,151.8342 326.9119,151.6159 326.4509,151.6159 C325.9899,151.6159 325.6745,151.7615 325.3348,152.2467 L325.0679,152.1254 Z " fill="#000000"/><text fill="#000000" font-family="sans-serif" font-size="21.7391" font-weight="bold" lengthAdjust="spacing" textLength="80.7453" x="343.1677" y="166.372">TForm</text></g><!--MD5=[6a0532c698fe61861ce6912aa5073ed8]
reverse link <b>TForm</b> to <b>TDualListDlgDoc</b>--><g id="link_&lt;b&gt;TForm&lt;/b&gt;_&lt;b&gt;TDualListDlgDoc&lt;/b&gt;"><path codeLine="5" d="M363.354,215.27 C363.354,235.7374 363.354,260.9548 363.354,289.2203 " fill="none" id="&lt;b&gt;TForm&lt;/b&gt;-backto-&lt;b&gt;TDualListDlgDoc&lt;/b&gt;" style="stroke:#181818;stroke-width:1.5527950310559007;"/><polygon fill="none" points="352.4845,214.9812,363.354,183.9253,374.2236,214.9812,352.4845,214.9812" style="stroke:#181818;stroke-width:1.5527950310559007;"/></g><!--MD5=[b9834ad8c2713c04f5621cb3b0cfd9c5]
@startuml
title Исходный файл: "DUALLISTDOC.cpp"

scale 750 width

"<b>TDualListDlgDoc</b>" -up-|> "<b>TForm</b>"

hide "<b>TForm</b>" members

class "<b>TDualListDlgDoc</b>"
{
    + CancelBtn \t: <i>TButton *</i>
    + HelpBtn \t\t: <i>TButton *</i>
    + OKBtn \t\t: <i>TButton *</i>
    ..
    + DstLabel \t: <i>TLabel *</i>
    + SrcLabel \t: <i>TLabel *</i>
    ..
    + DstList \t\t: <i>TListBox *</i>
    + SrcList \t\t: <i>TListBox *</i>
    ..
    + ExAllBtn \t: <i>TSpeedButton *</i>
    + ExcludeBtn \t: <i>TSpeedButton *</i>
    + IncAllBtn \t: <i>TSpeedButton *</i>
    + IncludeBtn \t: <i>TSpeedButton *</i>
    - -
    
    + <b>{abstract} TDualListDlgDoc (AOwner \t: <i>TComponent *</i>) virtual</b>

    + DstListDblClick \t\t(Sender \t: <i>TObject *</i>) : <i>void</i>
    + ExcAllBtnClick \t\t(Sender \t: <i>TObject *</i>) : <i>void</i>
    + ExcludeBtnClick \t\t(Sender \t: <i>TObject *</i>) : <i>void</i>
    + GetFirstSelection \t(List \t: <i>TCustomListBox *</i>) : <i>Integer</i>
    + IncAllBtnClick \t\t(Sender \t: <i>TObject *</i>) : <i>void</i>
    + IncludeBtnClick \t\t(Sender \t: <i>TObject *</i>) : <i>void</i>
    ..
    + MoveSelected \t\t(
            \t\tList \t\t: <i>TCustomListBox *</i>,
            \t\tItems \t: <i>TStrings *</i>
        \t) : <i>void</i>
    ..
    + OKBtnClick \t\t\t(Sender \t: <i>TObject *</i>) : <i>void</i>
    + SetButtons \t\t\t() : <i>void</i>
    ..
    + SetItem \t\t\t\t(
            \t\tList \t\t: <i>TListBox *</i>,
            \t\tIndex \t: <i>int</i>
        \t) : <i>void</i>
    ..
    + SrcListDblClick \t\t(Sender \t: <i>TObject *</i>) : <i>void</i>
}


package TDualListDlgDoc <<Folder>>
{
    class TDualListDlgDoc
    hide  members
}
@enduml

PlantUML version 1.2022.5(Sat Apr 30 10:55:52 UTC 2022)
(GPL source distribution)
Java Runtime: Java(TM) SE Runtime Environment
JVM: Java HotSpot(TM) 64-Bit Server VM
Default Encoding: UTF-8
Language: en
Country: US
--></g></svg>