<?xml version="1.0" encoding="UTF-8" standalone="no"?><svg xmlns="http://www.w3.org/2000/svg" xmlns:xlink="http://www.w3.org/1999/xlink" contentStyleType="text/css" height="623.8532px" preserveAspectRatio="none" style="width:750px;height:623px;background:#FFFFFF;" version="1.1" viewBox="0 0 750 623" width="750.4587px" zoomAndPan="magnify"><defs/><g><rect height="24.1256" style="stroke:#00000000;stroke-width:0.9174311926605506;fill:none;" width="349.5413" x="194.2661" y="4.5872"/><text fill="#000000" font-family="sans-serif" font-size="12.844" font-weight="bold" lengthAdjust="spacing" textLength="340.367" x="198.8532" y="21.0964">Исходный файл: "Stat_Result_examUnit.cpp"</text><!--MD5=[56ca27957679f50a457d6644d927aa70]
cluster TStat_Result_examForm--><g id="cluster_TStat_Result_examForm"><path d="M283.945,39.7219 L465.5963,39.7219 A3.4404,3.4404 0 0 1 467.8899,42.0155 L474.3119,60.1778 L499.5413,60.1778 A2.2936,2.2936 0 0 1 501.8349,62.4713 L501.8349,128.254 A2.2936,2.2936 0 0 1 499.5413,130.5476 L283.945,130.5476 A2.2936,2.2936 0 0 1 281.6514,128.254 L281.6514,42.0155 A2.2936,2.2936 0 0 1 283.945,39.7219 " style="stroke:#000000;stroke-width:1.3761467889908259;fill:none;"/><line style="stroke:#000000;stroke-width:1.3761467889908259;fill:none;" x1="281.6514" x2="474.3119" y1="60.1778" y2="60.1778"/><text fill="#000000" font-family="sans-serif" font-size="12.844" font-weight="bold" lengthAdjust="spacing" textLength="180.7339" x="285.3211" y="53.4789">TStat_Result_examForm</text></g><!--MD5=[7a7f431f45d4de015126f8af3e1b5d19]
class TStat_Result_examForm--><g id="elem_TStat_Result_examForm"><rect codeLine="55" fill="#F1F1F1" height="44.0367" id="TStat_Result_examForm" rx="2.2936" ry="2.2936" style="stroke:#181818;stroke-width:0.4587155963302753;" width="189.9083" x="296.789" y="71.832"/><ellipse cx="310.5505" cy="86.5109" fill="#ADD1B2" rx="10.0917" ry="10.0917" style="stroke:#181818;stroke-width:0.9174311926605506;"/><path d="M312.7007,82.5401 C311.8406,82.1388 311.2959,82.0097 310.4931,82.0097 C308.0849,82.0097 306.25,83.9163 306.25,86.4106 L306.25,87.4427 C306.25,89.8079 308.1852,91.5424 310.8372,91.5424 C311.9553,91.5424 313.0161,91.2701 313.7041,90.7683 C314.2345,90.3956 314.5356,89.9799 314.5356,89.6216 C314.5356,89.2058 314.1772,88.8475 313.7471,88.8475 C313.5464,88.8475 313.3601,88.9192 313.1881,89.0912 C312.7724,89.5356 312.7724,89.5356 312.6003,89.6216 C312.2133,89.8653 311.5826,89.9799 310.8802,89.9799 C309.0023,89.9799 307.8125,88.9765 307.8125,87.414 L307.8125,86.4106 C307.8125,84.7764 308.9593,83.5722 310.5505,83.5722 C311.0808,83.5722 311.6399,83.7156 312.07,83.945 C312.5143,84.203 312.672,84.4037 312.758,84.7764 C312.8154,85.1491 312.844,85.2638 312.9731,85.3784 C313.1021,85.5075 313.3171,85.6078 313.5178,85.6078 C313.7615,85.6078 314.0052,85.4788 314.1628,85.2781 C314.2632,85.1347 314.2919,84.9627 314.2919,84.5757 L314.2919,83.2712 C314.2919,82.8698 314.2775,82.7552 314.1915,82.6118 C314.0482,82.3681 313.7901,82.2391 313.5178,82.2391 C313.2454,82.2391 313.0591,82.3251 312.8584,82.6118 L312.7007,82.5401 Z " fill="#000000"/><text fill="#000000" font-family="sans-serif" font-size="12.844" lengthAdjust="spacing" textLength="160.5505" x="323.3945" y="90.9574">TStat_Result_examForm</text><line style="stroke:#181818;stroke-width:0.4587155963302753;" x1="297.7064" x2="485.7798" y1="101.1898" y2="101.1898"/><line style="stroke:#181818;stroke-width:0.4587155963302753;" x1="297.7064" x2="485.7798" y1="108.5292" y2="108.5292"/></g><!--MD5=[055db06508bb2a1f0786319edbfa02ff]
class <b>TStat_Result_examForm</b>--><g id="elem_&lt;b&gt;TStat_Result_examForm&lt;/b&gt;"><rect codeLine="9" fill="#F1F1F1" height="446.6313" id="&lt;b&gt;TStat_Result_examForm&lt;/b&gt;" rx="2.2936" ry="2.2936" style="stroke:#181818;stroke-width:0.4587155963302753;" width="438.5321" x="6.422" y="170.9146"/><ellipse cx="131.422" cy="185.5935" fill="#ADD1B2" rx="10.0917" ry="10.0917" style="stroke:#181818;stroke-width:0.9174311926605506;"/><path d="M133.5722,181.6227 C132.7122,181.2213 132.1674,181.0923 131.3647,181.0923 C128.9564,181.0923 127.1216,182.9989 127.1216,185.4931 L127.1216,186.5252 C127.1216,188.8905 129.0568,190.625 131.7087,190.625 C132.8268,190.625 133.8876,190.3526 134.5757,189.8509 C135.1061,189.4782 135.4071,189.0625 135.4071,188.7041 C135.4071,188.2884 135.0487,187.93 134.6187,187.93 C134.418,187.93 134.2317,188.0017 134.0596,188.1737 C133.6439,188.6181 133.6439,188.6181 133.4719,188.7041 C133.0849,188.9478 132.4541,189.0625 131.7517,189.0625 C129.8739,189.0625 128.6841,188.0591 128.6841,186.4966 L128.6841,185.4931 C128.6841,183.8589 129.8308,182.6548 131.422,182.6548 C131.9524,182.6548 132.5115,182.7982 132.9415,183.0275 C133.3859,183.2856 133.5436,183.4862 133.6296,183.8589 C133.6869,184.2317 133.7156,184.3463 133.8446,184.461 C133.9736,184.59 134.1886,184.6904 134.3893,184.6904 C134.633,184.6904 134.8767,184.5614 135.0344,184.3607 C135.1347,184.2173 135.1634,184.0453 135.1634,183.6583 L135.1634,182.3538 C135.1634,181.9524 135.1491,181.8377 135.0631,181.6944 C134.9197,181.4507 134.6617,181.3217 134.3893,181.3217 C134.117,181.3217 133.9306,181.4077 133.7299,181.6944 L133.5722,181.6227 Z " fill="#000000"/><text fill="#000000" font-family="sans-serif" font-size="12.844" font-weight="bold" lengthAdjust="spacing" textLength="180.7339" x="150.2294" y="190.04">TStat_Result_examForm</text><line style="stroke:#181818;stroke-width:0.4587155963302753;" x1="7.3394" x2="444.0367" y1="200.2724" y2="200.2724"/><ellipse cx="16.5138" cy="210.3641" fill="none" rx="2.7523" ry="2.7523" style="stroke:#038048;stroke-width:0.9174311926605506;"/><text fill="#000000" font-family="sans-serif" font-size="12.844" lengthAdjust="spacing" textLength="51.3761" x="24.7706" y="215.8642">BitBtn1</text><text fill="#000000" font-family="sans-serif" font-size="12.844" lengthAdjust="spacing" textLength="4.5872" x="142.2018" y="215.8642">:</text><text fill="#000000" font-family="sans-serif" font-size="12.844" font-style="italic" lengthAdjust="spacing" textLength="57.7982" x="150.4587" y="215.8642">TBitBtn *</text><ellipse cx="16.5138" cy="225.3154" fill="none" rx="2.7523" ry="2.7523" style="stroke:#038048;stroke-width:0.9174311926605506;"/><text fill="#000000" font-family="sans-serif" font-size="12.844" lengthAdjust="spacing" textLength="50.4587" x="24.7706" y="230.8155">BitBtn2</text><text fill="#000000" font-family="sans-serif" font-size="12.844" lengthAdjust="spacing" textLength="4.5872" x="142.2018" y="230.8155">:</text><text fill="#000000" font-family="sans-serif" font-size="12.844" font-style="italic" lengthAdjust="spacing" textLength="57.7982" x="150.4587" y="230.8155">TBitBtn *</text><line style="stroke:#181818;stroke-width:0.9174311926605506;stroke-dasharray:1.0,2.0;" x1="7.3394" x2="444.0367" y1="237.5143" y2="237.5143"/><ellipse cx="16.5138" cy="247.6061" fill="none" rx="2.7523" ry="2.7523" style="stroke:#038048;stroke-width:0.9174311926605506;"/><text fill="#000000" font-family="sans-serif" font-size="12.844" lengthAdjust="spacing" textLength="80.7339" x="24.7706" y="253.1062">ComboBox1</text><text fill="#000000" font-family="sans-serif" font-size="12.844" lengthAdjust="spacing" textLength="4.5872" x="142.2018" y="253.1062">:</text><text fill="#000000" font-family="sans-serif" font-size="12.844" font-style="italic" lengthAdjust="spacing" textLength="89.9083" x="150.4587" y="253.1062">TComboBox *</text><ellipse cx="16.5138" cy="262.5573" fill="none" rx="2.7523" ry="2.7523" style="stroke:#038048;stroke-width:0.9174311926605506;"/><text fill="#000000" font-family="sans-serif" font-size="12.844" lengthAdjust="spacing" textLength="51.3761" x="24.7706" y="268.0574">Vid_edu</text><text fill="#000000" font-family="sans-serif" font-size="12.844" lengthAdjust="spacing" textLength="4.5872" x="142.2018" y="268.0574">:</text><text fill="#000000" font-family="sans-serif" font-size="12.844" font-style="italic" lengthAdjust="spacing" textLength="89.9083" x="150.4587" y="268.0574">TComboBox *</text><line style="stroke:#181818;stroke-width:0.9174311926605506;stroke-dasharray:1.0,2.0;" x1="7.3394" x2="444.0367" y1="274.7563" y2="274.7563"/><ellipse cx="16.5138" cy="284.8481" fill="none" rx="2.7523" ry="2.7523" style="stroke:#038048;stroke-width:0.9174311926605506;"/><text fill="#000000" font-family="sans-serif" font-size="12.844" lengthAdjust="spacing" textLength="55.0459" x="24.7706" y="290.3482">DBGrid1</text><text fill="#000000" font-family="sans-serif" font-size="12.844" lengthAdjust="spacing" textLength="4.5872" x="142.2018" y="290.3482">:</text><text fill="#000000" font-family="sans-serif" font-size="12.844" font-style="italic" lengthAdjust="spacing" textLength="61.4679" x="154.1284" y="290.3482">TDBGrid*</text><line style="stroke:#181818;stroke-width:0.9174311926605506;stroke-dasharray:1.0,2.0;" x1="7.3394" x2="444.0367" y1="297.047" y2="297.047"/><ellipse cx="16.5138" cy="307.1388" fill="none" rx="2.7523" ry="2.7523" style="stroke:#038048;stroke-width:0.9174311926605506;"/><text fill="#000000" font-family="sans-serif" font-size="12.844" lengthAdjust="spacing" textLength="75.2294" x="24.7706" y="312.6389">LookPredm</text><text fill="#000000" font-family="sans-serif" font-size="12.844" lengthAdjust="spacing" textLength="4.5872" x="142.2018" y="312.6389">:</text><text fill="#000000" font-family="sans-serif" font-size="12.844" font-style="italic" lengthAdjust="spacing" textLength="156.8807" x="150.4587" y="312.6389">TDBLookupComboBox *</text><line style="stroke:#181818;stroke-width:0.9174311926605506;stroke-dasharray:1.0,2.0;" x1="7.3394" x2="444.0367" y1="319.3377" y2="319.3377"/><ellipse cx="16.5138" cy="329.4295" fill="none" rx="2.7523" ry="2.7523" style="stroke:#038048;stroke-width:0.9174311926605506;"/><text fill="#000000" font-family="sans-serif" font-size="12.844" lengthAdjust="spacing" textLength="44.0367" x="24.7706" y="334.9296">Label1</text><text fill="#000000" font-family="sans-serif" font-size="12.844" lengthAdjust="spacing" textLength="4.5872" x="142.2018" y="334.9296">:</text><text fill="#000000" font-family="sans-serif" font-size="12.844" font-style="italic" lengthAdjust="spacing" textLength="54.1284" x="150.4587" y="334.9296">TLabel *</text><ellipse cx="16.5138" cy="344.3807" fill="none" rx="2.7523" ry="2.7523" style="stroke:#038048;stroke-width:0.9174311926605506;"/><text fill="#000000" font-family="sans-serif" font-size="12.844" lengthAdjust="spacing" textLength="43.1193" x="24.7706" y="349.8808">Label2</text><text fill="#000000" font-family="sans-serif" font-size="12.844" lengthAdjust="spacing" textLength="4.5872" x="142.2018" y="349.8808">:</text><text fill="#000000" font-family="sans-serif" font-size="12.844" font-style="italic" lengthAdjust="spacing" textLength="54.1284" x="150.4587" y="349.8808">TLabel *</text><ellipse cx="16.5138" cy="359.332" fill="none" rx="2.7523" ry="2.7523" style="stroke:#038048;stroke-width:0.9174311926605506;"/><text fill="#000000" font-family="sans-serif" font-size="12.844" lengthAdjust="spacing" textLength="44.0367" x="24.7706" y="364.8321">Label3</text><text fill="#000000" font-family="sans-serif" font-size="12.844" lengthAdjust="spacing" textLength="4.5872" x="142.2018" y="364.8321">:</text><text fill="#000000" font-family="sans-serif" font-size="12.844" font-style="italic" lengthAdjust="spacing" textLength="54.1284" x="150.4587" y="364.8321">TLabel *</text><line style="stroke:#181818;stroke-width:0.9174311926605506;stroke-dasharray:1.0,2.0;" x1="7.3394" x2="444.0367" y1="371.531" y2="371.531"/><ellipse cx="16.5138" cy="381.6227" fill="none" rx="2.7523" ry="2.7523" style="stroke:#038048;stroke-width:0.9174311926605506;"/><text fill="#000000" font-family="sans-serif" font-size="12.844" lengthAdjust="spacing" textLength="44.0367" x="24.7706" y="387.1228">Panel1</text><text fill="#000000" font-family="sans-serif" font-size="12.844" lengthAdjust="spacing" textLength="4.5872" x="142.2018" y="387.1228">:</text><text fill="#000000" font-family="sans-serif" font-size="12.844" font-style="italic" lengthAdjust="spacing" textLength="54.1284" x="150.4587" y="387.1228">TPanel *</text><line style="stroke:#181818;stroke-width:0.9174311926605506;stroke-dasharray:1.0,2.0;" x1="7.3394" x2="444.0367" y1="393.8217" y2="393.8217"/><ellipse cx="16.5138" cy="403.9134" fill="none" rx="2.7523" ry="2.7523" style="stroke:#038048;stroke-width:0.9174311926605506;"/><text fill="#000000" font-family="sans-serif" font-size="12.844" lengthAdjust="spacing" textLength="85.3211" x="24.7706" y="409.4135">RadioGroup1</text><text fill="#000000" font-family="sans-serif" font-size="12.844" lengthAdjust="spacing" textLength="4.5872" x="142.2018" y="409.4135">:</text><text fill="#000000" font-family="sans-serif" font-size="12.844" font-style="italic" lengthAdjust="spacing" textLength="96.3303" x="150.4587" y="409.4135">TRadioGroup *</text><line style="stroke:#181818;stroke-width:0.9174311926605506;" x1="7.3394" x2="444.0367" y1="416.1124" y2="416.1124"/><text fill="#000000" font-family="sans-serif" font-size="12.844" lengthAdjust="spacing" textLength="3.6697" x="24.7706" y="431.7042"> </text><ellipse cx="16.5138" cy="441.1554" fill="#84BE84" rx="2.7523" ry="2.7523" style="stroke:#038048;stroke-width:0.9174311926605506;"/><text fill="#000000" font-family="sans-serif" font-size="12.844" font-weight="bold" lengthAdjust="spacing" textLength="180.7339" x="24.7706" y="446.6555">TStat_Result_examForm</text><text fill="#000000" font-family="sans-serif" font-size="12.844" font-weight="bold" lengthAdjust="spacing" textLength="52.2936" x="244.9541" y="446.6555">(Owner</text><text fill="#000000" font-family="sans-serif" font-size="12.844" font-weight="bold" lengthAdjust="spacing" textLength="5.5046" x="318.3486" y="446.6555">:</text><text fill="#000000" font-family="sans-serif" font-size="12.844" font-style="italic" font-weight="bold" lengthAdjust="spacing" textLength="104.5872" x="328.4404" y="446.6555">TComponent *</text><text fill="#000000" font-family="sans-serif" font-size="12.844" font-weight="bold" lengthAdjust="spacing" textLength="6.422" x="433.0275" y="446.6555">)</text><text fill="#000000" font-family="sans-serif" font-size="12.844" lengthAdjust="spacing" textLength="3.6697" x="24.7706" y="461.6068"> </text><ellipse cx="16.5138" cy="471.0579" fill="#84BE84" rx="2.7523" ry="2.7523" style="stroke:#038048;stroke-width:0.9174311926605506;"/><text fill="#000000" font-family="sans-serif" font-size="12.844" lengthAdjust="spacing" textLength="83.4862" x="24.7706" y="476.558">BitBtn1Click</text><text fill="#000000" font-family="sans-serif" font-size="12.844" lengthAdjust="spacing" textLength="51.3761" x="171.5596" y="476.558">(Sender</text><text fill="#000000" font-family="sans-serif" font-size="12.844" lengthAdjust="spacing" textLength="4.5872" x="230.2752" y="476.558">:</text><text fill="#000000" font-family="sans-serif" font-size="12.844" font-style="italic" lengthAdjust="spacing" textLength="60.5505" x="238.5321" y="476.558">TObject *</text><text fill="#000000" font-family="sans-serif" font-size="12.844" lengthAdjust="spacing" textLength="12.844" x="299.0826" y="476.558">) :</text><text fill="#000000" font-family="sans-serif" font-size="12.844" font-style="italic" lengthAdjust="spacing" textLength="27.5229" x="315.5963" y="476.558">void</text><ellipse cx="16.5138" cy="486.0092" fill="#84BE84" rx="2.7523" ry="2.7523" style="stroke:#038048;stroke-width:0.9174311926605506;"/><text fill="#000000" font-family="sans-serif" font-size="12.844" lengthAdjust="spacing" textLength="82.5688" x="24.7706" y="491.5093">BitBtn2Click</text><text fill="#000000" font-family="sans-serif" font-size="12.844" lengthAdjust="spacing" textLength="51.3761" x="171.5596" y="491.5093">(Sender</text><text fill="#000000" font-family="sans-serif" font-size="12.844" lengthAdjust="spacing" textLength="4.5872" x="230.2752" y="491.5093">:</text><text fill="#000000" font-family="sans-serif" font-size="12.844" font-style="italic" lengthAdjust="spacing" textLength="60.5505" x="238.5321" y="491.5093">TObject *</text><text fill="#000000" font-family="sans-serif" font-size="12.844" lengthAdjust="spacing" textLength="12.844" x="299.0826" y="491.5093">) :</text><text fill="#000000" font-family="sans-serif" font-size="12.844" font-style="italic" lengthAdjust="spacing" textLength="27.5229" x="315.5963" y="491.5093">void</text><line style="stroke:#181818;stroke-width:0.9174311926605506;stroke-dasharray:1.0,2.0;" x1="7.3394" x2="444.0367" y1="498.2081" y2="498.2081"/><ellipse cx="16.5138" cy="508.2999" fill="#84BE84" rx="2.7523" ry="2.7523" style="stroke:#038048;stroke-width:0.9174311926605506;"/><text fill="#000000" font-family="sans-serif" font-size="12.844" lengthAdjust="spacing" textLength="69.7248" x="24.7706" y="513.8">FormClose</text><text fill="#000000" font-family="sans-serif" font-size="12.844" lengthAdjust="spacing" textLength="4.5872" x="171.5596" y="513.8">(</text><text fill="#000000" font-family="sans-serif" font-size="12.844" lengthAdjust="spacing" textLength="46.789" x="83.4862" y="528.7513">Sender</text><text fill="#000000" font-family="sans-serif" font-size="12.844" lengthAdjust="spacing" textLength="4.5872" x="142.2018" y="528.7513">:</text><text fill="#000000" font-family="sans-serif" font-size="12.844" font-style="italic" lengthAdjust="spacing" textLength="60.5505" x="150.4587" y="528.7513">TObject *</text><text fill="#000000" font-family="sans-serif" font-size="12.844" lengthAdjust="spacing" textLength="3.6697" x="211.0092" y="528.7513">,</text><text fill="#000000" font-family="sans-serif" font-size="12.844" lengthAdjust="spacing" textLength="43.1193" x="83.4862" y="543.7025">Action</text><text fill="#000000" font-family="sans-serif" font-size="12.844" lengthAdjust="spacing" textLength="4.5872" x="142.2018" y="543.7025">:</text><text fill="#000000" font-family="sans-serif" font-size="12.844" font-style="italic" lengthAdjust="spacing" textLength="99.0826" x="150.4587" y="543.7025">TCloseAction &amp;</text><text fill="#000000" font-family="sans-serif" font-size="12.844" lengthAdjust="spacing" textLength="12.844" x="54.1284" y="558.6538">) :</text><text fill="#000000" font-family="sans-serif" font-size="12.844" font-style="italic" lengthAdjust="spacing" textLength="27.5229" x="70.6422" y="558.6538">void</text><line style="stroke:#181818;stroke-width:0.9174311926605506;stroke-dasharray:1.0,2.0;" x1="7.3394" x2="444.0367" y1="565.3526" y2="565.3526"/><ellipse cx="16.5138" cy="575.4444" fill="#84BE84" rx="2.7523" ry="2.7523" style="stroke:#038048;stroke-width:0.9174311926605506;"/><text fill="#000000" font-family="sans-serif" font-size="12.844" lengthAdjust="spacing" textLength="128.4404" x="24.7706" y="580.9445">LookPredmCloseUp</text><text fill="#000000" font-family="sans-serif" font-size="12.844" lengthAdjust="spacing" textLength="51.3761" x="171.5596" y="580.9445">(Sender</text><text fill="#000000" font-family="sans-serif" font-size="12.844" lengthAdjust="spacing" textLength="4.5872" x="230.2752" y="580.9445">:</text><text fill="#000000" font-family="sans-serif" font-size="12.844" font-style="italic" lengthAdjust="spacing" textLength="60.5505" x="238.5321" y="580.9445">TObject *</text><text fill="#000000" font-family="sans-serif" font-size="12.844" lengthAdjust="spacing" textLength="12.844" x="299.0826" y="580.9445">) :</text><text fill="#000000" font-family="sans-serif" font-size="12.844" font-style="italic" lengthAdjust="spacing" textLength="27.5229" x="315.5963" y="580.9445">void</text><ellipse cx="16.5138" cy="590.3956" fill="#84BE84" rx="2.7523" ry="2.7523" style="stroke:#038048;stroke-width:0.9174311926605506;"/><text fill="#000000" font-family="sans-serif" font-size="12.844" lengthAdjust="spacing" textLength="53.211" x="24.7706" y="595.8957">Set_ball</text><text fill="#000000" font-family="sans-serif" font-size="12.844" lengthAdjust="spacing" textLength="17.4312" x="171.5596" y="595.8957">() :</text><text fill="#000000" font-family="sans-serif" font-size="12.844" font-style="italic" lengthAdjust="spacing" textLength="27.5229" x="192.6606" y="595.8957">void</text><ellipse cx="16.5138" cy="605.3469" fill="#84BE84" rx="2.7523" ry="2.7523" style="stroke:#038048;stroke-width:0.9174311926605506;"/><text fill="#000000" font-family="sans-serif" font-size="12.844" lengthAdjust="spacing" textLength="100.9174" x="24.7706" y="610.847">Vid_eduChange</text><text fill="#000000" font-family="sans-serif" font-size="12.844" lengthAdjust="spacing" textLength="51.3761" x="171.5596" y="610.847">(Sender</text><text fill="#000000" font-family="sans-serif" font-size="12.844" lengthAdjust="spacing" textLength="4.5872" x="230.2752" y="610.847">:</text><text fill="#000000" font-family="sans-serif" font-size="12.844" font-style="italic" lengthAdjust="spacing" textLength="60.5505" x="238.5321" y="610.847">TObject *</text><text fill="#000000" font-family="sans-serif" font-size="12.844" lengthAdjust="spacing" textLength="12.844" x="299.0826" y="610.847">) :</text><text fill="#000000" font-family="sans-serif" font-size="12.844" font-style="italic" lengthAdjust="spacing" textLength="27.5229" x="315.5963" y="610.847">void</text></g><!--MD5=[dd0bf217da5c5e97452bc452f42aff32]
class <b>TForm</b>--><g id="elem_&lt;b&gt;TForm&lt;/b&gt;"><rect fill="#F1F1F1" height="29.3578" id="&lt;b&gt;TForm&lt;/b&gt;" rx="2.2936" ry="2.2936" style="stroke:#181818;stroke-width:0.4587155963302753;" width="77.0642" x="187.156" y="79.1714"/><ellipse cx="200.9174" cy="93.8503" fill="#ADD1B2" rx="10.0917" ry="10.0917" style="stroke:#181818;stroke-width:0.9174311926605506;"/><path d="M203.0677,89.8796 C202.2076,89.4782 201.6628,89.3492 200.8601,89.3492 C198.4518,89.3492 196.617,91.2557 196.617,93.75 L196.617,94.7821 C196.617,97.1474 198.5522,98.8819 201.2041,98.8819 C202.3222,98.8819 203.383,98.6095 204.0711,98.1078 C204.6015,97.7351 204.9025,97.3194 204.9025,96.961 C204.9025,96.5453 204.5442,96.1869 204.1141,96.1869 C203.9134,96.1869 203.7271,96.2586 203.555,96.4306 C203.1393,96.875 203.1393,96.875 202.9673,96.961 C202.5803,97.2047 201.9495,97.3194 201.2471,97.3194 C199.3693,97.3194 198.1795,96.3159 198.1795,94.7534 L198.1795,93.75 C198.1795,92.1158 199.3263,90.9117 200.9174,90.9117 C201.4478,90.9117 202.0069,91.055 202.4369,91.2844 C202.8813,91.5424 203.039,91.7431 203.125,92.1158 C203.1823,92.4885 203.211,92.6032 203.34,92.7179 C203.469,92.8469 203.6841,92.9472 203.8847,92.9472 C204.1284,92.9472 204.3721,92.8182 204.5298,92.6175 C204.6302,92.4742 204.6588,92.3022 204.6588,91.9151 L204.6588,90.6107 C204.6588,90.2093 204.6445,90.0946 204.5585,89.9513 C204.4151,89.7076 204.1571,89.5786 203.8847,89.5786 C203.6124,89.5786 203.426,89.6646 203.2253,89.9513 L203.0677,89.8796 Z " fill="#000000"/><text fill="#000000" font-family="sans-serif" font-size="12.844" font-weight="bold" lengthAdjust="spacing" textLength="47.7064" x="213.7615" y="98.2968">TForm</text></g><path d="M477.5229,364.4925 L477.5229,386.2349 L220.1835,591.4493 L477.5229,393.5744 L477.5229,415.3168 A0,0 0 0 0 477.5229,415.3168 L744.4954,415.3168 A0,0 0 0 0 744.4954,415.3168 L744.4954,373.6669 L735.3211,364.4925 L477.5229,364.4925 A0,0 0 0 0 477.5229,364.4925 " fill="#FEFFDD" style="stroke:#181818;stroke-width:0.4587155963302753;"/><path d="M735.3211,364.4925 L735.3211,373.6669 L744.4954,373.6669 L735.3211,364.4925 " fill="#FEFFDD" style="stroke:#181818;stroke-width:0.4587155963302753;"/><text fill="#000000" font-family="sans-serif" font-size="11.9266" lengthAdjust="spacing" textLength="247.7064" x="483.0275" y="380.1502">функция которая проставит количество</text><text fill="#000000" font-family="sans-serif" font-size="11.9266" lengthAdjust="spacing" textLength="208.2569" x="483.0275" y="394.0336">оценок в статистике результатов</text><text fill="#000000" font-family="sans-serif" font-size="11.9266" lengthAdjust="spacing" textLength="178.8991" x="483.0275" y="407.9169">(экзаменов, сертификатов)...</text><!--MD5=[5e8f44958a1051254be93f7620536241]
reverse link <b>TForm</b> to <b>TStat_Result_examForm</b>--><g id="link_&lt;b&gt;TForm&lt;/b&gt;_&lt;b&gt;TStat_Result_examForm&lt;/b&gt;"><path codeLine="5" d="M225.6881,127.3705 C225.6881,139.4678 225.6881,154.2769 225.6881,170.6558 " fill="none" id="&lt;b&gt;TForm&lt;/b&gt;-backto-&lt;b&gt;TStat_Result_examForm&lt;/b&gt;" style="stroke:#181818;stroke-width:0.9174311926605506;"/><polygon fill="none" points="219.2661,127.1192,225.6881,108.7705,232.1101,127.1192,219.2661,127.1192" style="stroke:#181818;stroke-width:0.9174311926605506;"/></g><!--MD5=[bf970daa2191d0608a55f7fc93404260]
@startuml
title Исходный файл: "Stat_Result_examUnit.cpp"

scale 750 width

"<b>TStat_Result_examForm</b>" -up-|> "<b>TForm</b>"

hide "<b>TForm</b>" members

class "<b>TStat_Result_examForm</b>"
{
    + BitBtn1 \t\t\t: <i>TBitBtn *</i>
    + BitBtn2 \t\t\t: <i>TBitBtn *</i>
    ..
    + ComboBox1 \t\t: <i>TComboBox *</i>
    + Vid_edu \t\t\t: <i>TComboBox *</i>
    ..
    + DBGrid1 \t\t: <i> TDBGrid*</i>
    ..
    + LookPredm \t\t: <i>TDBLookupComboBox *</i>
    ..
    + Label1 \t\t\t: <i>TLabel *</i>
    + Label2 \t\t\t: <i>TLabel *</i>
    + Label3 \t\t\t: <i>TLabel *</i>
    ..
    + Panel1 \t\t\t: <i>TPanel *</i>
    ..
    + RadioGroup1 \t: <i>TRadioGroup *</i>
    - -
    
    + <b>TStat_Result_examForm \t(Owner \t: <i>TComponent *</i>)</b>

    + BitBtn1Click \t\t\t(Sender \t: <i>TObject *</i>) : <i>void</i>
    + BitBtn2Click \t\t\t(Sender \t: <i>TObject *</i>) : <i>void</i>
    ..
    + FormClose \t\t\t(
            \t\tSender \t: <i>TObject *</i>,
            \t\tAction \t: <i>TCloseAction &</i>
        \t) : <i>void</i>
    ..
    + LookPredmCloseUp \t(Sender \t: <i>TObject *</i>) : <i>void</i>
    + Set_ball \t\t\t\t() : <i>void</i>
    + Vid_eduChange \t\t(Sender \t: <i>TObject *</i>) : <i>void</i>
}


note right of "<b>TStat_Result_examForm</b>"::Set_ball
функция которая проставит количество
оценок в статистике результатов
(экзаменов, сертификатов)...
end note


package TStat_Result_examForm <<Folder>>
{
    class TStat_Result_examForm
    hide  members
}
@enduml

PlantUML version 1.2022.5(Sat Apr 30 10:55:52 UTC 2022)
(GPL source distribution)
Java Runtime: Java(TM) SE Runtime Environment
JVM: Java HotSpot(TM) 64-Bit Server VM
Default Encoding: UTF-8
Language: en
Country: US
--></g></svg>