<?xml version="1.0" encoding="UTF-8" standalone="no"?><svg xmlns="http://www.w3.org/2000/svg" xmlns:xlink="http://www.w3.org/1999/xlink" contentStyleType="text/css" height="947.8022px" preserveAspectRatio="none" style="width:751px;height:947px;background:#FFFFFF;" version="1.1" viewBox="0 0 751 947" width="751.6484px" zoomAndPan="magnify"><defs/><g><rect height="43.3465" style="stroke:#00000000;stroke-width:1.6483516483516485;fill:none;" width="410.4396" x="159.0659" y="8.2418"/><text fill="#000000" font-family="sans-serif" font-size="23.0769" font-weight="bold" lengthAdjust="spacing" textLength="393.956" x="167.3077" y="37.904">Исходный файл: "Education"</text><!--MD5=[340e83b28bc954cb9798551366a57f49]
cluster TEducationForm--><g id="cluster_TEducationForm"><path d="M444.2308,71.3685 L665.1099,71.3685 A6.1813,6.1813 0 0 1 669.2308,75.4894 L680.7692,108.1216 L735.989,108.1216 A4.1209,4.1209 0 0 1 740.1099,112.2424 L740.1099,204.0608 A4.1209,4.1209 0 0 1 735.989,208.1817 L444.2308,208.1817 A4.1209,4.1209 0 0 1 440.1099,204.0608 L440.1099,75.4894 A4.1209,4.1209 0 0 1 444.2308,71.3685 " style="stroke:#000000;stroke-width:2.4725274725274726;fill:none;"/><line style="stroke:#000000;stroke-width:2.4725274725274726;fill:none;" x1="440.1099" x2="680.7692" y1="108.1216" y2="108.1216"/><text fill="#000000" font-family="sans-serif" font-size="23.0769" font-weight="bold" lengthAdjust="spacing" textLength="219.2308" x="446.7033" y="96.0857">TEducationForm</text></g><!--MD5=[f59928483c077b41cf01a496fe40923f]
class TEducationForm--><g id="elem_TEducationForm"><rect codeLine="41" fill="#F1F1F1" height="52.7473" id="TEducationForm" rx="4.1209" ry="4.1209" style="stroke:#181818;stroke-width:0.8241758241758242;" width="245.6044" x="467.3077" y="129.0608"/><ellipse cx="492.033" cy="155.4344" fill="#ADD1B2" rx="18.1319" ry="18.1319" style="stroke:#181818;stroke-width:1.6483516483516485;"/><path d="M495.8963,148.3001 C494.351,147.579 493.3723,147.3472 491.9299,147.3472 C487.603,147.3472 484.3063,150.7727 484.3063,155.2541 L484.3063,157.1085 C484.3063,161.3582 487.7833,164.4746 492.5481,164.4746 C494.557,164.4746 496.4629,163.9852 497.6992,163.0838 C498.6521,162.4141 499.193,161.6672 499.193,161.0234 C499.193,160.2764 498.5491,159.6326 497.7764,159.6326 C497.4159,159.6326 497.081,159.7613 496.772,160.0704 C496.0251,160.8688 496.0251,160.8688 495.716,161.0234 C495.0206,161.4612 493.8874,161.6672 492.6253,161.6672 C489.2514,161.6672 487.1137,159.8644 487.1137,157.057 L487.1137,155.2541 C487.1137,152.318 489.1741,150.1545 492.033,150.1545 C492.9859,150.1545 493.9904,150.4121 494.763,150.8242 C495.5615,151.2878 495.8448,151.6484 495.9993,152.318 C496.1023,152.9876 496.1538,153.1937 496.3856,153.3997 C496.6174,153.6315 497.0038,153.8118 497.3644,153.8118 C497.8022,153.8118 498.24,153.58 498.5234,153.2194 C498.7036,152.9619 498.7552,152.6528 498.7552,151.9574 L498.7552,149.6137 C498.7552,148.8925 498.7294,148.6865 498.5749,148.4289 C498.3173,147.9911 497.8537,147.7593 497.3644,147.7593 C496.875,147.7593 496.5402,147.9138 496.1796,148.4289 L495.8963,148.3001 Z " fill="#000000"/><text fill="#000000" font-family="sans-serif" font-size="23.0769" lengthAdjust="spacing" textLength="192.8571" x="515.1099" y="163.4234">TEducationForm</text></g><!--MD5=[d8482e038d50e6c0170a502b3c990e93]
class <b>TEducationForm</b>--><g id="elem_&lt;b&gt;TEducationForm&lt;/b&gt;"><rect codeLine="10" fill="#F1F1F1" height="655.9409" id="&lt;b&gt;TEducationForm&lt;/b&gt;" rx="4.1209" ry="4.1209" style="stroke:#181818;stroke-width:0.8241758241758242;" width="656.044" x="11.5385" y="280.7091"/><ellipse cx="222.9396" cy="307.0828" fill="#ADD1B2" rx="18.1319" ry="18.1319" style="stroke:#181818;stroke-width:1.6483516483516485;"/><path d="M226.8029,299.9485 C225.2576,299.2273 224.2788,298.9955 222.8365,298.9955 C218.5096,298.9955 215.2129,302.421 215.2129,306.9025 L215.2129,308.7569 C215.2129,313.0065 218.6899,316.1229 223.4547,316.1229 C225.4636,316.1229 227.3695,315.6336 228.6058,314.7321 C229.5587,314.0625 230.0996,313.3156 230.0996,312.6717 C230.0996,311.9248 229.4557,311.2809 228.683,311.2809 C228.3225,311.2809 227.9876,311.4097 227.6786,311.7188 C226.9317,312.5172 226.9317,312.5172 226.6226,312.6717 C225.9272,313.1095 224.794,313.3156 223.5319,313.3156 C220.158,313.3156 218.0203,311.5127 218.0203,308.7054 L218.0203,306.9025 C218.0203,303.9663 220.0807,301.8029 222.9396,301.8029 C223.8925,301.8029 224.897,302.0604 225.6696,302.4725 C226.4681,302.9361 226.7514,303.2967 226.9059,303.9663 C227.0089,304.636 227.0604,304.842 227.2922,305.0481 C227.524,305.2799 227.9104,305.4602 228.2709,305.4602 C228.7088,305.4602 229.1466,305.2284 229.4299,304.8678 C229.6102,304.6102 229.6617,304.3012 229.6617,303.6058 L229.6617,301.262 C229.6617,300.5409 229.636,300.3348 229.4815,300.0773 C229.2239,299.6394 228.7603,299.4076 228.2709,299.4076 C227.7816,299.4076 227.4468,299.5622 227.0862,300.0773 L226.8029,299.9485 Z " fill="#000000"/><text fill="#000000" font-family="sans-serif" font-size="23.0769" font-weight="bold" lengthAdjust="spacing" textLength="219.2308" x="256.7308" y="315.0718">TEducationForm</text><line style="stroke:#181818;stroke-width:0.8241758241758242;" x1="13.1868" x2="665.9341" y1="333.4564" y2="333.4564"/><ellipse cx="29.6703" cy="351.5883" fill="none" rx="4.9451" ry="4.9451" style="stroke:#038048;stroke-width:1.6483516483516485;"/><text fill="#000000" font-family="sans-serif" font-size="23.0769" lengthAdjust="spacing" textLength="92.3077" x="44.5055" y="361.4703">BitBtn1</text><text fill="#000000" font-family="sans-serif" font-size="23.0769" lengthAdjust="spacing" textLength="8.2418" x="360.989" y="361.4703">:</text><text fill="#000000" font-family="sans-serif" font-size="23.0769" font-style="italic" lengthAdjust="spacing" textLength="103.8462" x="375.8242" y="361.4703">TBitBtn *</text><ellipse cx="29.6703" cy="378.4512" fill="none" rx="4.9451" ry="4.9451" style="stroke:#038048;stroke-width:1.6483516483516485;"/><text fill="#000000" font-family="sans-serif" font-size="23.0769" lengthAdjust="spacing" textLength="90.6593" x="44.5055" y="388.3333">BitBtn2</text><text fill="#000000" font-family="sans-serif" font-size="23.0769" lengthAdjust="spacing" textLength="8.2418" x="360.989" y="388.3333">:</text><text fill="#000000" font-family="sans-serif" font-size="23.0769" font-style="italic" lengthAdjust="spacing" textLength="103.8462" x="375.8242" y="388.3333">TBitBtn *</text><ellipse cx="29.6703" cy="405.3142" fill="none" rx="4.9451" ry="4.9451" style="stroke:#038048;stroke-width:1.6483516483516485;"/><text fill="#000000" font-family="sans-serif" font-size="23.0769" lengthAdjust="spacing" textLength="92.3077" x="44.5055" y="415.1963">BitBtn3</text><text fill="#000000" font-family="sans-serif" font-size="23.0769" lengthAdjust="spacing" textLength="8.2418" x="360.989" y="415.1963">:</text><text fill="#000000" font-family="sans-serif" font-size="23.0769" font-style="italic" lengthAdjust="spacing" textLength="103.8462" x="375.8242" y="415.1963">TBitBtn *</text><line style="stroke:#181818;stroke-width:1.6483516483516485;stroke-dasharray:1.0,2.0;" x1="13.1868" x2="665.9341" y1="427.2321" y2="427.2321"/><ellipse cx="29.6703" cy="445.364" fill="none" rx="4.9451" ry="4.9451" style="stroke:#038048;stroke-width:1.6483516483516485;"/><text fill="#000000" font-family="sans-serif" font-size="23.0769" lengthAdjust="spacing" textLength="263.7363" x="44.5055" y="455.2461">NameEduMiddleDBEdt</text><text fill="#000000" font-family="sans-serif" font-size="23.0769" lengthAdjust="spacing" textLength="8.2418" x="360.989" y="455.2461">:</text><text fill="#000000" font-family="sans-serif" font-size="23.0769" font-style="italic" lengthAdjust="spacing" textLength="112.0879" x="375.8242" y="455.2461">TDBEdit *</text><ellipse cx="29.6703" cy="472.227" fill="none" rx="4.9451" ry="4.9451" style="stroke:#038048;stroke-width:1.6483516483516485;"/><text fill="#000000" font-family="sans-serif" font-size="23.0769" lengthAdjust="spacing" textLength="207.6923" x="44.5055" y="482.1091">NomAttestDBEdt</text><text fill="#000000" font-family="sans-serif" font-size="23.0769" lengthAdjust="spacing" textLength="8.2418" x="360.989" y="482.1091">:</text><text fill="#000000" font-family="sans-serif" font-size="23.0769" font-style="italic" lengthAdjust="spacing" textLength="112.0879" x="375.8242" y="482.1091">TDBEdit *</text><ellipse cx="29.6703" cy="499.09" fill="none" rx="4.9451" ry="4.9451" style="stroke:#038048;stroke-width:1.6483516483516485;"/><text fill="#000000" font-family="sans-serif" font-size="23.0769" lengthAdjust="spacing" textLength="263.7363" x="44.5055" y="508.972">WhenEduMiddleDBEdt</text><text fill="#000000" font-family="sans-serif" font-size="23.0769" lengthAdjust="spacing" textLength="8.2418" x="360.989" y="508.972">:</text><text fill="#000000" font-family="sans-serif" font-size="23.0769" font-style="italic" lengthAdjust="spacing" textLength="112.0879" x="375.8242" y="508.972">TDBEdit *</text><ellipse cx="29.6703" cy="525.953" fill="none" rx="4.9451" ry="4.9451" style="stroke:#038048;stroke-width:1.6483516483516485;"/><text fill="#000000" font-family="sans-serif" font-size="23.0769" lengthAdjust="spacing" textLength="273.6264" x="44.5055" y="535.835">WhereEduMiddleDBEdt</text><text fill="#000000" font-family="sans-serif" font-size="23.0769" lengthAdjust="spacing" textLength="8.2418" x="360.989" y="535.835">:</text><text fill="#000000" font-family="sans-serif" font-size="23.0769" font-style="italic" lengthAdjust="spacing" textLength="112.0879" x="375.8242" y="535.835">TDBEdit *</text><line style="stroke:#181818;stroke-width:1.6483516483516485;stroke-dasharray:1.0,2.0;" x1="13.1868" x2="665.9341" y1="547.8709" y2="547.8709"/><ellipse cx="29.6703" cy="566.0027" fill="none" rx="4.9451" ry="4.9451" style="stroke:#038048;stroke-width:1.6483516483516485;"/><text fill="#000000" font-family="sans-serif" font-size="23.0769" lengthAdjust="spacing" textLength="267.033" x="44.5055" y="575.8848">DBLookupComboBox1</text><text fill="#000000" font-family="sans-serif" font-size="23.0769" lengthAdjust="spacing" textLength="8.2418" x="360.989" y="575.8848">:</text><text fill="#000000" font-family="sans-serif" font-size="23.0769" font-style="italic" lengthAdjust="spacing" textLength="281.8681" x="375.8242" y="575.8848">TDBLookupComboBox *</text><line style="stroke:#181818;stroke-width:1.6483516483516485;stroke-dasharray:1.0,2.0;" x1="13.1868" x2="665.9341" y1="587.9207" y2="587.9207"/><ellipse cx="29.6703" cy="606.0525" fill="none" rx="4.9451" ry="4.9451" style="stroke:#038048;stroke-width:1.6483516483516485;"/><text fill="#000000" font-family="sans-serif" font-size="23.0769" lengthAdjust="spacing" textLength="79.1209" x="44.5055" y="615.9346">Label1</text><text fill="#000000" font-family="sans-serif" font-size="23.0769" lengthAdjust="spacing" textLength="8.2418" x="360.989" y="615.9346">:</text><text fill="#000000" font-family="sans-serif" font-size="23.0769" font-style="italic" lengthAdjust="spacing" textLength="97.2527" x="375.8242" y="615.9346">TLabel *</text><ellipse cx="29.6703" cy="632.9155" fill="none" rx="4.9451" ry="4.9451" style="stroke:#038048;stroke-width:1.6483516483516485;"/><text fill="#000000" font-family="sans-serif" font-size="23.0769" lengthAdjust="spacing" textLength="92.3077" x="44.5055" y="642.7976">Label14</text><text fill="#000000" font-family="sans-serif" font-size="23.0769" lengthAdjust="spacing" textLength="8.2418" x="360.989" y="642.7976">:</text><text fill="#000000" font-family="sans-serif" font-size="23.0769" font-style="italic" lengthAdjust="spacing" textLength="97.2527" x="375.8242" y="642.7976">TLabel *</text><ellipse cx="29.6703" cy="659.7785" fill="none" rx="4.9451" ry="4.9451" style="stroke:#038048;stroke-width:1.6483516483516485;"/><text fill="#000000" font-family="sans-serif" font-size="23.0769" lengthAdjust="spacing" textLength="92.3077" x="44.5055" y="669.6606">Label21</text><text fill="#000000" font-family="sans-serif" font-size="23.0769" lengthAdjust="spacing" textLength="8.2418" x="360.989" y="669.6606">:</text><text fill="#000000" font-family="sans-serif" font-size="23.0769" font-style="italic" lengthAdjust="spacing" textLength="97.2527" x="375.8242" y="669.6606">TLabel *</text><ellipse cx="29.6703" cy="686.6415" fill="none" rx="4.9451" ry="4.9451" style="stroke:#038048;stroke-width:1.6483516483516485;"/><text fill="#000000" font-family="sans-serif" font-size="23.0769" lengthAdjust="spacing" textLength="92.3077" x="44.5055" y="696.5235">Label23</text><text fill="#000000" font-family="sans-serif" font-size="23.0769" lengthAdjust="spacing" textLength="8.2418" x="360.989" y="696.5235">:</text><text fill="#000000" font-family="sans-serif" font-size="23.0769" font-style="italic" lengthAdjust="spacing" textLength="97.2527" x="375.8242" y="696.5235">TLabel *</text><ellipse cx="29.6703" cy="713.5045" fill="none" rx="4.9451" ry="4.9451" style="stroke:#038048;stroke-width:1.6483516483516485;"/><text fill="#000000" font-family="sans-serif" font-size="23.0769" lengthAdjust="spacing" textLength="92.3077" x="44.5055" y="723.3865">Label25</text><text fill="#000000" font-family="sans-serif" font-size="23.0769" lengthAdjust="spacing" textLength="8.2418" x="360.989" y="723.3865">:</text><text fill="#000000" font-family="sans-serif" font-size="23.0769" font-style="italic" lengthAdjust="spacing" textLength="97.2527" x="375.8242" y="723.3865">TLabel *</text><ellipse cx="29.6703" cy="740.3674" fill="none" rx="4.9451" ry="4.9451" style="stroke:#038048;stroke-width:1.6483516483516485;"/><text fill="#000000" font-family="sans-serif" font-size="23.0769" lengthAdjust="spacing" textLength="77.4725" x="44.5055" y="750.2495">Panel2</text><text fill="#000000" font-family="sans-serif" font-size="23.0769" lengthAdjust="spacing" textLength="8.2418" x="360.989" y="750.2495">:</text><text fill="#000000" font-family="sans-serif" font-size="23.0769" font-style="italic" lengthAdjust="spacing" textLength="97.2527" x="375.8242" y="750.2495">TLabel *</text><line style="stroke:#181818;stroke-width:1.6483516483516485;" x1="13.1868" x2="665.9341" y1="762.2854" y2="762.2854"/><text fill="#000000" font-family="sans-serif" font-size="23.0769" lengthAdjust="spacing" textLength="6.5934" x="44.5055" y="790.2993"> </text><ellipse cx="29.6703" cy="807.2802" fill="#84BE84" rx="4.9451" ry="4.9451" style="stroke:#038048;stroke-width:1.6483516483516485;"/><text fill="#000000" font-family="sans-serif" font-size="23.0769" font-weight="bold" lengthAdjust="spacing" textLength="321.4286" x="44.5055" y="817.1623">TEducationForm (Owner</text><text fill="#000000" font-family="sans-serif" font-size="23.0769" font-weight="bold" lengthAdjust="spacing" textLength="9.8901" x="440.1099" y="817.1623">:</text><text fill="#000000" font-family="sans-serif" font-size="23.0769" font-style="italic" font-weight="bold" lengthAdjust="spacing" textLength="187.9121" x="458.2418" y="817.1623">TComponent *</text><text fill="#000000" font-family="sans-serif" font-size="23.0769" font-weight="bold" lengthAdjust="spacing" textLength="11.5385" x="646.1538" y="817.1623">)</text><text fill="#000000" font-family="sans-serif" font-size="23.0769" lengthAdjust="spacing" textLength="6.5934" x="44.5055" y="844.0253"> </text><ellipse cx="29.6703" cy="861.0062" fill="#84BE84" rx="4.9451" ry="4.9451" style="stroke:#038048;stroke-width:1.6483516483516485;"/><text fill="#000000" font-family="sans-serif" font-size="23.0769" lengthAdjust="spacing" textLength="150" x="44.5055" y="870.8882">BitBtn1Click</text><text fill="#000000" font-family="sans-serif" font-size="23.0769" lengthAdjust="spacing" textLength="92.3077" x="255.4945" y="870.8882">(Sender</text><text fill="#000000" font-family="sans-serif" font-size="23.0769" lengthAdjust="spacing" textLength="8.2418" x="360.989" y="870.8882">:</text><text fill="#000000" font-family="sans-serif" font-size="23.0769" font-style="italic" lengthAdjust="spacing" textLength="108.7912" x="375.8242" y="870.8882">TObject *</text><text fill="#000000" font-family="sans-serif" font-size="23.0769" lengthAdjust="spacing" textLength="23.0769" x="484.6154" y="870.8882">) :</text><text fill="#000000" font-family="sans-serif" font-size="23.0769" font-style="italic" lengthAdjust="spacing" textLength="49.4505" x="514.2857" y="870.8882">void</text><ellipse cx="29.6703" cy="887.8692" fill="#84BE84" rx="4.9451" ry="4.9451" style="stroke:#038048;stroke-width:1.6483516483516485;"/><text fill="#000000" font-family="sans-serif" font-size="23.0769" lengthAdjust="spacing" textLength="150" x="44.5055" y="897.7512">BitBtn3Click</text><text fill="#000000" font-family="sans-serif" font-size="23.0769" lengthAdjust="spacing" textLength="92.3077" x="255.4945" y="897.7512">(Sender</text><text fill="#000000" font-family="sans-serif" font-size="23.0769" lengthAdjust="spacing" textLength="8.2418" x="360.989" y="897.7512">:</text><text fill="#000000" font-family="sans-serif" font-size="23.0769" font-style="italic" lengthAdjust="spacing" textLength="108.7912" x="375.8242" y="897.7512">TObject *</text><text fill="#000000" font-family="sans-serif" font-size="23.0769" lengthAdjust="spacing" textLength="23.0769" x="484.6154" y="897.7512">) :</text><text fill="#000000" font-family="sans-serif" font-size="23.0769" font-style="italic" lengthAdjust="spacing" textLength="49.4505" x="514.2857" y="897.7512">void</text><ellipse cx="29.6703" cy="914.7321" fill="#84BE84" rx="4.9451" ry="4.9451" style="stroke:#038048;stroke-width:1.6483516483516485;"/><text fill="#000000" font-family="sans-serif" font-size="23.0769" lengthAdjust="spacing" textLength="161.5385" x="44.5055" y="924.6142">FormActivate</text><text fill="#000000" font-family="sans-serif" font-size="23.0769" lengthAdjust="spacing" textLength="92.3077" x="255.4945" y="924.6142">(Sender</text><text fill="#000000" font-family="sans-serif" font-size="23.0769" lengthAdjust="spacing" textLength="8.2418" x="360.989" y="924.6142">:</text><text fill="#000000" font-family="sans-serif" font-size="23.0769" font-style="italic" lengthAdjust="spacing" textLength="108.7912" x="375.8242" y="924.6142">TObject *</text><text fill="#000000" font-family="sans-serif" font-size="23.0769" lengthAdjust="spacing" textLength="23.0769" x="484.6154" y="924.6142">) :</text><text fill="#000000" font-family="sans-serif" font-size="23.0769" font-style="italic" lengthAdjust="spacing" textLength="49.4505" x="514.2857" y="924.6142">void</text></g><!--MD5=[dd0bf217da5c5e97452bc452f42aff32]
class <b>TForm</b>--><g id="elem_&lt;b&gt;TForm&lt;/b&gt;"><rect fill="#F1F1F1" height="52.7473" id="&lt;b&gt;TForm&lt;/b&gt;" rx="4.1209" ry="4.1209" style="stroke:#181818;stroke-width:0.8241758241758242;" width="138.4615" x="270.3297" y="129.0608"/><ellipse cx="295.0549" cy="155.4344" fill="#ADD1B2" rx="18.1319" ry="18.1319" style="stroke:#181818;stroke-width:1.6483516483516485;"/><path d="M298.9183,148.3001 C297.3729,147.579 296.3942,147.3472 294.9519,147.3472 C290.625,147.3472 287.3283,150.7727 287.3283,155.2541 L287.3283,157.1085 C287.3283,161.3582 290.8053,164.4746 295.5701,164.4746 C297.579,164.4746 299.4849,163.9852 300.7212,163.0838 C301.6741,162.4141 302.215,161.6672 302.215,161.0234 C302.215,160.2764 301.5711,159.6326 300.7984,159.6326 C300.4378,159.6326 300.103,159.7613 299.794,160.0704 C299.047,160.8688 299.047,160.8688 298.738,161.0234 C298.0426,161.4612 296.9093,161.6672 295.6473,161.6672 C292.2734,161.6672 290.1356,159.8644 290.1356,157.057 L290.1356,155.2541 C290.1356,152.318 292.1961,150.1545 295.0549,150.1545 C296.0079,150.1545 297.0124,150.4121 297.785,150.8242 C298.5834,151.2878 298.8668,151.6484 299.0213,152.318 C299.1243,152.9876 299.1758,153.1937 299.4076,153.3997 C299.6394,153.6315 300.0258,153.8118 300.3863,153.8118 C300.8242,153.8118 301.262,153.58 301.5453,153.2194 C301.7256,152.9619 301.7771,152.6528 301.7771,151.9574 L301.7771,149.6137 C301.7771,148.8925 301.7514,148.6865 301.5968,148.4289 C301.3393,147.9911 300.8757,147.7593 300.3863,147.7593 C299.897,147.7593 299.5622,147.9138 299.2016,148.4289 L298.9183,148.3001 Z " fill="#000000"/><text fill="#000000" font-family="sans-serif" font-size="23.0769" font-weight="bold" lengthAdjust="spacing" textLength="85.7143" x="318.1319" y="163.4234">TForm</text></g><!--MD5=[7fc57a4f78c5281f0e4b5b889f15bdfc]
reverse link <b>TForm</b> to <b>TEducationForm</b>--><g id="link_&lt;b&gt;TForm&lt;/b&gt;_&lt;b&gt;TEducationForm&lt;/b&gt;"><path codeLine="6" d="M339.5604,214.9663 C339.5604,233.7443 339.5604,256.0811 339.5604,280.4273 " fill="none" id="&lt;b&gt;TForm&lt;/b&gt;-backto-&lt;b&gt;TEducationForm&lt;/b&gt;" style="stroke:#181818;stroke-width:1.6483516483516485;"/><polygon fill="none" points="328.022,214.8855,339.5604,181.9185,351.0989,214.8839,328.022,214.8855" style="stroke:#181818;stroke-width:1.6483516483516485;"/></g><!--MD5=[35cea3ab2a6696791eaa9c43fdc34e2f]
@startuml
title Исходный файл: "Education"

scale 750 width
' left to right direction

"<b>TEducationForm</b>" -up-|> "<b>TForm</b>"

hide "<b>TForm</b>" members

class "<b>TEducationForm</b>"
{
    + BitBtn1 \t\t\t\t\t: <i>TBitBtn *</i>
    + BitBtn2 \t\t\t\t\t: <i>TBitBtn *</i>
    + BitBtn3 \t\t\t\t\t: <i>TBitBtn *</i>
    ..
    + NameEduMiddleDBEdt \t: <i>TDBEdit *</i>
    + NomAttestDBEdt \t\t: <i>TDBEdit *</i>
    + WhenEduMiddleDBEdt \t: <i>TDBEdit *</i>
    + WhereEduMiddleDBEdt \t: <i>TDBEdit *</i>
    ..
    + DBLookupComboBox1 \t: <i>TDBLookupComboBox *</i>
    ..
    + Label1 \t\t\t\t\t: <i>TLabel *</i>
    + Label14 \t\t\t\t\t: <i>TLabel *</i>
    + Label21 \t\t\t\t\t: <i>TLabel *</i>
    + Label23 \t\t\t\t\t: <i>TLabel *</i>
    + Label25 \t\t\t\t\t: <i>TLabel *</i>
    + Panel2 \t\t\t\t\t: <i>TLabel *</i>
    - -

    + <b>TEducationForm (Owner \t: <i>TComponent *</i>)</b>

    + BitBtn1Click \t\t(Sender \t: <i>TObject *</i>) : <i>void</i>
    + BitBtn3Click \t\t(Sender \t: <i>TObject *</i>) : <i>void</i>
    + FormActivate \t(Sender \t: <i>TObject *</i>) : <i>void</i>
}


package TEducationForm <<Folder>>
{
    class TEducationForm
    hide  TEducationForm members
}
@enduml

@startuml
title Исходный файл: "Education"

scale 750 width

"<b>TEducationForm</b>" -up-|> "<b>TForm</b>"

hide "<b>TForm</b>" members

class "<b>TEducationForm</b>"
{
    + BitBtn1 \t\t\t\t\t: <i>TBitBtn *</i>
    + BitBtn2 \t\t\t\t\t: <i>TBitBtn *</i>
    + BitBtn3 \t\t\t\t\t: <i>TBitBtn *</i>
    ..
    + NameEduMiddleDBEdt \t: <i>TDBEdit *</i>
    + NomAttestDBEdt \t\t: <i>TDBEdit *</i>
    + WhenEduMiddleDBEdt \t: <i>TDBEdit *</i>
    + WhereEduMiddleDBEdt \t: <i>TDBEdit *</i>
    ..
    + DBLookupComboBox1 \t: <i>TDBLookupComboBox *</i>
    ..
    + Label1 \t\t\t\t\t: <i>TLabel *</i>
    + Label14 \t\t\t\t\t: <i>TLabel *</i>
    + Label21 \t\t\t\t\t: <i>TLabel *</i>
    + Label23 \t\t\t\t\t: <i>TLabel *</i>
    + Label25 \t\t\t\t\t: <i>TLabel *</i>
    + Panel2 \t\t\t\t\t: <i>TLabel *</i>
    - -

    + <b>TEducationForm (Owner \t: <i>TComponent *</i>)</b>

    + BitBtn1Click \t\t(Sender \t: <i>TObject *</i>) : <i>void</i>
    + BitBtn3Click \t\t(Sender \t: <i>TObject *</i>) : <i>void</i>
    + FormActivate \t(Sender \t: <i>TObject *</i>) : <i>void</i>
}


package TEducationForm <<Folder>>
{
    class TEducationForm
    hide  TEducationForm members
}
@enduml

PlantUML version 1.2022.6beta1(Unknown compile time)
(GPL source distribution)
Java Runtime: Java(TM) SE Runtime Environment
JVM: Java HotSpot(TM) 64-Bit Server VM
Default Encoding: UTF-8
Language: en
Country: US
--></g></svg>