<?xml version="1.0" encoding="UTF-8" standalone="no"?><svg xmlns="http://www.w3.org/2000/svg" xmlns:xlink="http://www.w3.org/1999/xlink" contentStyleType="text/css" height="636.3158px" preserveAspectRatio="none" style="width:751px;height:636px;background:#FFFFFF;" version="1.1" viewBox="0 0 751 636" width="751.5789px" zoomAndPan="magnify"><defs/><g><rect height="41.5214" style="stroke:#00000000;stroke-width:1.5789473684210524;fill:none;" width="494.2105" x="117.6316" y="7.8947"/><text fill="#000000" font-family="sans-serif" font-size="22.1053" font-weight="bold" lengthAdjust="spacing" textLength="478.4211" x="125.5263" y="36.3081">Исходный файл: "Rep_Sel_Exerc.cpp"</text><!--MD5=[33a9fd3e16423d57f7447c6b5854cc73]
cluster TFormRepSelExerc--><g id="cluster_TFormRepSelExerc"><path d="M425.5263,68.3635 L662.3684,68.3635 A5.9211,5.9211 0 0 1 666.3158,72.3109 L677.3684,103.5691 L736.5789,103.5691 A3.9474,3.9474 0 0 1 740.5263,107.5164 L740.5263,220.7319 A3.9474,3.9474 0 0 1 736.5789,224.6793 L425.5263,224.6793 A3.9474,3.9474 0 0 1 421.5789,220.7319 L421.5789,72.3109 A3.9474,3.9474 0 0 1 425.5263,68.3635 " style="stroke:#000000;stroke-width:2.3684210526315788;fill:none;"/><line style="stroke:#000000;stroke-width:2.3684210526315788;fill:none;" x1="421.5789" x2="677.3684" y1="103.5691" y2="103.5691"/><text fill="#000000" font-family="sans-serif" font-size="22.1053" font-weight="bold" lengthAdjust="spacing" textLength="235.2632" x="427.8947" y="92.04">TFormRepSelExerc</text></g><!--MD5=[f6e5447aa6b42651e5e731e05d818857]
class TFormRepSelExerc--><g id="elem_TFormRepSelExerc"><rect codeLine="28" fill="#F1F1F1" height="75.7895" id="TFormRepSelExerc" rx="3.9474" ry="3.9474" style="stroke:#181818;stroke-width:0.7894736842105262;" width="266.8421" x="447.6316" y="123.6266"/><ellipse cx="471.3158" cy="148.8898" fill="#ADD1B2" rx="17.3684" ry="17.3684" style="stroke:#181818;stroke-width:1.5789473684210524;"/><path d="M475.0164,142.0559 C473.5362,141.3651 472.5987,141.1431 471.2171,141.1431 C467.0724,141.1431 463.9145,144.4243 463.9145,148.7171 L463.9145,150.4934 C463.9145,154.5641 467.2451,157.5493 471.8092,157.5493 C473.7336,157.5493 475.5592,157.0806 476.7434,156.2171 C477.6562,155.5757 478.1743,154.8602 478.1743,154.2434 C478.1743,153.528 477.5576,152.9112 476.8174,152.9112 C476.472,152.9112 476.1513,153.0345 475.8553,153.3306 C475.1398,154.0954 475.1398,154.0954 474.8437,154.2434 C474.1776,154.6628 473.0921,154.8602 471.8832,154.8602 C468.6513,154.8602 466.6036,153.1332 466.6036,150.4441 L466.6036,148.7171 C466.6036,145.9046 468.5773,143.8322 471.3158,143.8322 C472.2286,143.8322 473.1908,144.0789 473.9309,144.4737 C474.6957,144.9178 474.9671,145.2632 475.1151,145.9046 C475.2138,146.5461 475.2632,146.7434 475.4852,146.9408 C475.7072,147.1628 476.0773,147.3355 476.4227,147.3355 C476.8421,147.3355 477.2615,147.1135 477.5329,146.7681 C477.7056,146.5214 477.7549,146.2253 477.7549,145.5592 L477.7549,143.3141 C477.7549,142.6234 477.7303,142.426 477.5822,142.1793 C477.3355,141.7599 476.8914,141.5378 476.4227,141.5378 C475.9539,141.5378 475.6332,141.6859 475.2878,142.1793 L475.0164,142.0559 Z " fill="#000000"/><text fill="#000000" font-family="sans-serif" font-size="22.1053" lengthAdjust="spacing" textLength="216.3158" x="493.4211" y="156.5425">TFormRepSelExerc</text><line style="stroke:#181818;stroke-width:0.7894736842105262;" x1="449.2105" x2="712.8947" y1="174.153" y2="174.153"/><line style="stroke:#181818;stroke-width:0.7894736842105262;" x1="449.2105" x2="712.8947" y1="186.7845" y2="186.7845"/></g><!--MD5=[820cd9ddb2776cd6b58c444cdfb3c173]
class <b>TFormRepSelExerc</b>--><g id="elem_&lt;b&gt;TFormRepSelExerc&lt;/b&gt;"><rect codeLine="9" fill="#F1F1F1" height="332.6398" id="&lt;b&gt;TFormRepSelExerc&lt;/b&gt;" rx="3.9474" ry="3.9474" style="stroke:#181818;stroke-width:0.7894736842105262;" width="628.4211" x="11.0526" y="294.153"/><ellipse cx="200.9211" cy="319.4161" fill="#ADD1B2" rx="17.3684" ry="17.3684" style="stroke:#181818;stroke-width:1.5789473684210524;"/><path d="M204.6217,312.5822 C203.1414,311.8914 202.2039,311.6694 200.8224,311.6694 C196.6776,311.6694 193.5197,314.9507 193.5197,319.2434 L193.5197,321.0197 C193.5197,325.0905 196.8503,328.0757 201.4145,328.0757 C203.3388,328.0757 205.1645,327.6069 206.3487,326.7434 C207.2615,326.102 207.7796,325.3865 207.7796,324.7697 C207.7796,324.0543 207.1628,323.4375 206.4227,323.4375 C206.0773,323.4375 205.7566,323.5609 205.4605,323.8569 C204.7451,324.6217 204.7451,324.6217 204.449,324.7697 C203.7829,325.1891 202.6974,325.3865 201.4885,325.3865 C198.2566,325.3865 196.2089,323.6595 196.2089,320.9704 L196.2089,319.2434 C196.2089,316.4309 198.1826,314.3586 200.9211,314.3586 C201.8339,314.3586 202.7961,314.6053 203.5362,315 C204.301,315.4441 204.5724,315.7895 204.7204,316.4309 C204.8191,317.0724 204.8684,317.2697 205.0905,317.4671 C205.3125,317.6891 205.6826,317.8618 206.028,317.8618 C206.4474,317.8618 206.8668,317.6398 207.1382,317.2944 C207.3109,317.0477 207.3602,316.7516 207.3602,316.0855 L207.3602,313.8405 C207.3602,313.1497 207.3355,312.9523 207.1875,312.7056 C206.9408,312.2862 206.4967,312.0641 206.028,312.0641 C205.5592,312.0641 205.2385,312.2122 204.8931,312.7056 L204.6217,312.5822 Z " fill="#000000"/><text fill="#000000" font-family="sans-serif" font-size="22.1053" font-weight="bold" lengthAdjust="spacing" textLength="235.2632" x="233.2895" y="327.0688">TFormRepSelExerc</text><line style="stroke:#181818;stroke-width:0.7894736842105262;" x1="12.6316" x2="637.8947" y1="344.6793" y2="344.6793"/><ellipse cx="28.4211" cy="362.0477" fill="none" rx="4.7368" ry="4.7368" style="stroke:#038048;stroke-width:1.5789473684210524;"/><text fill="#000000" font-family="sans-serif" font-size="22.1053" lengthAdjust="spacing" textLength="168.9474" x="42.6316" y="371.5137">frxDBDataset1</text><text fill="#000000" font-family="sans-serif" font-size="22.1053" lengthAdjust="spacing" textLength="7.8947" x="295.2632" y="371.5137">:</text><text fill="#000000" font-family="sans-serif" font-size="22.1053" font-style="italic" lengthAdjust="spacing" textLength="181.5789" x="309.4737" y="371.5137">TfrxDBDataset *</text><ellipse cx="28.4211" cy="387.7796" fill="none" rx="4.7368" ry="4.7368" style="stroke:#038048;stroke-width:1.5789473684210524;"/><text fill="#000000" font-family="sans-serif" font-size="22.1053" lengthAdjust="spacing" textLength="167.3684" x="42.6316" y="397.2456">frxDBDataset2</text><text fill="#000000" font-family="sans-serif" font-size="22.1053" lengthAdjust="spacing" textLength="7.8947" x="295.2632" y="397.2456">:</text><text fill="#000000" font-family="sans-serif" font-size="22.1053" font-style="italic" lengthAdjust="spacing" textLength="181.5789" x="309.4737" y="397.2456">TfrxDBDataset *</text><ellipse cx="28.4211" cy="413.5115" fill="none" rx="4.7368" ry="4.7368" style="stroke:#038048;stroke-width:1.5789473684210524;"/><text fill="#000000" font-family="sans-serif" font-size="22.1053" lengthAdjust="spacing" textLength="168.9474" x="42.6316" y="422.9775">frxDBDataset3</text><text fill="#000000" font-family="sans-serif" font-size="22.1053" lengthAdjust="spacing" textLength="7.8947" x="295.2632" y="422.9775">:</text><text fill="#000000" font-family="sans-serif" font-size="22.1053" font-style="italic" lengthAdjust="spacing" textLength="181.5789" x="309.4737" y="422.9775">TfrxDBDataset *</text><ellipse cx="28.4211" cy="439.2434" fill="none" rx="4.7368" ry="4.7368" style="stroke:#038048;stroke-width:1.5789473684210524;"/><text fill="#000000" font-family="sans-serif" font-size="22.1053" lengthAdjust="spacing" textLength="167.3684" x="42.6316" y="448.7094">frxDBDataset4</text><text fill="#000000" font-family="sans-serif" font-size="22.1053" lengthAdjust="spacing" textLength="7.8947" x="295.2632" y="448.7094">:</text><text fill="#000000" font-family="sans-serif" font-size="22.1053" font-style="italic" lengthAdjust="spacing" textLength="181.5789" x="309.4737" y="448.7094">TfrxDBDataset *</text><line style="stroke:#181818;stroke-width:1.5789473684210524;stroke-dasharray:1.0,2.0;" x1="12.6316" x2="637.8947" y1="460.2385" y2="460.2385"/><ellipse cx="28.4211" cy="477.6069" fill="none" rx="4.7368" ry="4.7368" style="stroke:#038048;stroke-width:1.5789473684210524;"/><text fill="#000000" font-family="sans-serif" font-size="22.1053" lengthAdjust="spacing" textLength="134.2105" x="42.6316" y="487.0729">frxPreview1</text><text fill="#000000" font-family="sans-serif" font-size="22.1053" lengthAdjust="spacing" textLength="7.8947" x="295.2632" y="487.0729">:</text><text fill="#000000" font-family="sans-serif" font-size="22.1053" font-style="italic" lengthAdjust="spacing" textLength="148.4211" x="309.4737" y="487.0729">TfrxPreview *</text><line style="stroke:#181818;stroke-width:1.5789473684210524;stroke-dasharray:1.0,2.0;" x1="12.6316" x2="637.8947" y1="498.602" y2="498.602"/><ellipse cx="28.4211" cy="515.9704" fill="none" rx="4.7368" ry="4.7368" style="stroke:#038048;stroke-width:1.5789473684210524;"/><text fill="#000000" font-family="sans-serif" font-size="22.1053" lengthAdjust="spacing" textLength="197.3684" x="42.6316" y="525.4364">frxRep_Sel_Exerc</text><text fill="#000000" font-family="sans-serif" font-size="22.1053" lengthAdjust="spacing" textLength="7.8947" x="295.2632" y="525.4364">:</text><text fill="#000000" font-family="sans-serif" font-size="22.1053" font-style="italic" lengthAdjust="spacing" textLength="137.3684" x="309.4737" y="525.4364">TfrxReport *</text><line style="stroke:#181818;stroke-width:1.5789473684210524;" x1="12.6316" x2="637.8947" y1="536.9655" y2="536.9655"/><text fill="#000000" font-family="sans-serif" font-size="22.1053" lengthAdjust="spacing" textLength="6.3158" x="42.6316" y="563.7999"> </text><ellipse cx="28.4211" cy="580.0658" fill="#84BE84" rx="4.7368" ry="4.7368" style="stroke:#038048;stroke-width:1.5789473684210524;"/><text fill="#000000" font-family="sans-serif" font-size="22.1053" font-weight="bold" lengthAdjust="spacing" textLength="235.2632" x="42.6316" y="589.5318">TFormRepSelExerc</text><text fill="#000000" font-family="sans-serif" font-size="22.1053" font-weight="bold" lengthAdjust="spacing" textLength="90" x="295.2632" y="589.5318">(Owner</text><text fill="#000000" font-family="sans-serif" font-size="22.1053" font-weight="bold" lengthAdjust="spacing" textLength="9.4737" x="421.5789" y="589.5318">:</text><text fill="#000000" font-family="sans-serif" font-size="22.1053" font-style="italic" font-weight="bold" lengthAdjust="spacing" textLength="180" x="438.9474" y="589.5318">TComponent *</text><text fill="#000000" font-family="sans-serif" font-size="22.1053" font-weight="bold" lengthAdjust="spacing" textLength="11.0526" x="618.9474" y="589.5318">)</text><text fill="#000000" font-family="sans-serif" font-size="22.1053" lengthAdjust="spacing" textLength="6.3158" x="42.6316" y="615.2637"> </text></g><!--MD5=[dd0bf217da5c5e97452bc452f42aff32]
class <b>TForm</b>--><g id="elem_&lt;b&gt;TForm&lt;/b&gt;"><rect fill="#F1F1F1" height="50.5263" id="&lt;b&gt;TForm&lt;/b&gt;" rx="3.9474" ry="3.9474" style="stroke:#181818;stroke-width:0.7894736842105262;" width="132.6316" x="258.9474" y="136.2582"/><ellipse cx="282.6316" cy="161.5214" fill="#ADD1B2" rx="17.3684" ry="17.3684" style="stroke:#181818;stroke-width:1.5789473684210524;"/><path d="M286.3322,154.6875 C284.852,153.9967 283.9145,153.7747 282.5329,153.7747 C278.3882,153.7747 275.2303,157.0559 275.2303,161.3487 L275.2303,163.125 C275.2303,167.1957 278.5609,170.1809 283.125,170.1809 C285.0493,170.1809 286.875,169.7122 288.0592,168.8487 C288.972,168.2072 289.4901,167.4918 289.4901,166.875 C289.4901,166.1595 288.8734,165.5428 288.1332,165.5428 C287.7878,165.5428 287.4671,165.6661 287.1711,165.9622 C286.4556,166.727 286.4556,166.727 286.1595,166.875 C285.4934,167.2944 284.4079,167.4918 283.199,167.4918 C279.9671,167.4918 277.9194,165.7648 277.9194,163.0757 L277.9194,161.3487 C277.9194,158.5362 279.8931,156.4638 282.6316,156.4638 C283.5444,156.4638 284.5066,156.7105 285.2467,157.1053 C286.0115,157.5493 286.2829,157.8947 286.4309,158.5362 C286.5296,159.1776 286.5789,159.375 286.801,159.5724 C287.023,159.7944 287.3931,159.9671 287.7385,159.9671 C288.1579,159.9671 288.5773,159.7451 288.8487,159.3997 C289.0214,159.153 289.0707,158.8569 289.0707,158.1908 L289.0707,155.9457 C289.0707,155.2549 289.0461,155.0576 288.898,154.8109 C288.6513,154.3914 288.2072,154.1694 287.7385,154.1694 C287.2697,154.1694 286.949,154.3174 286.6036,154.8109 L286.3322,154.6875 Z " fill="#000000"/><text fill="#000000" font-family="sans-serif" font-size="22.1053" font-weight="bold" lengthAdjust="spacing" textLength="82.1053" x="304.7368" y="169.174">TForm</text></g><!--MD5=[c6b7894f7f9f6a91226d3313b6e46883]
reverse link <b>TForm</b> to <b>TFormRepSelExerc</b>--><g id="link_&lt;b&gt;TForm&lt;/b&gt;_&lt;b&gt;TFormRepSelExerc&lt;/b&gt;"><path codeLine="5" d="M325.2632,218.6809 C325.2632,240.5019 325.2632,266.793 325.2632,293.8656 " fill="none" id="&lt;b&gt;TForm&lt;/b&gt;-backto-&lt;b&gt;TFormRepSelExerc&lt;/b&gt;" style="stroke:#181818;stroke-width:1.5789473684210524;"/><polygon fill="none" points="314.2105,218.4061,325.2632,186.8272,336.3158,218.4061,314.2105,218.4061" style="stroke:#181818;stroke-width:1.5789473684210524;"/></g><!--MD5=[6feed306280fe64bb113855957fb2db1]
@startuml
title Исходный файл: "Rep_Sel_Exerc.cpp"

scale 750 width

"<b>TFormRepSelExerc</b>" -up-|> "<b>TForm</b>"

hide "<b>TForm</b>" members

class "<b>TFormRepSelExerc</b>"
{
    + frxDBDataset1 \t\t: <i>TfrxDBDataset *</i>
    + frxDBDataset2 \t\t: <i>TfrxDBDataset *</i>
    + frxDBDataset3 \t\t: <i>TfrxDBDataset *</i>
    + frxDBDataset4 \t\t: <i>TfrxDBDataset *</i>
    ..
    + frxPreview1 \t\t\t: <i>TfrxPreview *</i>
    ..
    + frxRep_Sel_Exerc \t: <i>TfrxReport *</i>
    - -
    
    + <b>TFormRepSelExerc \t(Owner \t: <i>TComponent *</i>)</b>

}


package TFormRepSelExerc <<Folder>>
{
    class TFormRepSelExerc
    hide  members
}


' note right of "<b>TFormRepSelExerc</b>"::Save_Priv
' сохранение привелегий (сирота, Чаэс, инвалид)
' end note
@enduml

@startuml
title Исходный файл: "Rep_Sel_Exerc.cpp"

scale 750 width

"<b>TFormRepSelExerc</b>" -up-|> "<b>TForm</b>"

hide "<b>TForm</b>" members

class "<b>TFormRepSelExerc</b>"
{
    + frxDBDataset1 \t\t: <i>TfrxDBDataset *</i>
    + frxDBDataset2 \t\t: <i>TfrxDBDataset *</i>
    + frxDBDataset3 \t\t: <i>TfrxDBDataset *</i>
    + frxDBDataset4 \t\t: <i>TfrxDBDataset *</i>
    ..
    + frxPreview1 \t\t\t: <i>TfrxPreview *</i>
    ..
    + frxRep_Sel_Exerc \t: <i>TfrxReport *</i>
    - -
    
    + <b>TFormRepSelExerc \t(Owner \t: <i>TComponent *</i>)</b>

}


package TFormRepSelExerc <<Folder>>
{
    class TFormRepSelExerc
    hide  members
}


@enduml

PlantUML version 1.2022.5(Sat Apr 30 10:55:52 UTC 2022)
(GPL source distribution)
Java Runtime: Java(TM) SE Runtime Environment
JVM: Java HotSpot(TM) 64-Bit Server VM
Default Encoding: UTF-8
Language: en
Country: US
--></g></svg>