<?xml version="1.0" encoding="UTF-8" standalone="no"?><svg xmlns="http://www.w3.org/2000/svg" xmlns:xlink="http://www.w3.org/1999/xlink" contentStyleType="text/css" height="777.2556px" preserveAspectRatio="none" style="width:750px;height:777px;background:#FFFFFF;" version="1.1" viewBox="0 0 750 777" width="750.9398px" zoomAndPan="magnify"><defs/><g><rect height="24.7151" style="stroke:#00000000;stroke-width:0.9398496240601504;fill:none;" width="250.9398" x="243.4211" y="4.6992"/><text fill="#000000" font-family="sans-serif" font-size="13.1579" font-weight="bold" lengthAdjust="spacing" textLength="241.5414" x="248.1203" y="21.612">Исходный файл: "BallUnit.cpp"</text><!--MD5=[e71892ea53864aabdc3d9d03956ec2bd]
cluster TBall_Form--><g id="cluster_TBall_Form"><path d="M286.6541,40.6926 L372.1805,40.6926 A3.5244,3.5244 0 0 1 374.5301,43.0422 L381.109,61.6483 L417.2932,61.6483 A2.3496,2.3496 0 0 1 419.6429,63.9979 L419.6429,131.388 A2.3496,2.3496 0 0 1 417.2932,133.7377 L286.6541,133.7377 A2.3496,2.3496 0 0 1 284.3045,131.388 L284.3045,43.0422 A2.3496,2.3496 0 0 1 286.6541,40.6926 " style="stroke:#000000;stroke-width:1.4097744360902256;fill:none;"/><line style="stroke:#000000;stroke-width:1.4097744360902256;fill:none;" x1="284.3045" x2="381.109" y1="61.6483" y2="61.6483"/><text fill="#000000" font-family="sans-serif" font-size="13.1579" font-weight="bold" lengthAdjust="spacing" textLength="84.5865" x="288.0639" y="54.7857">TBall_Form</text></g><!--MD5=[161f9aae935d0e209fb62a612700e907]
class TBall_Form--><g id="elem_TBall_Form"><rect codeLine="66" fill="#F1F1F1" height="45.1128" id="TBall_Form" rx="2.3496" ry="2.3496" style="stroke:#181818;stroke-width:0.4699248120300752;" width="104.3233" x="299.812" y="73.5873"/><ellipse cx="313.9098" cy="88.6249" fill="#ADD1B2" rx="10.3383" ry="10.3383" style="stroke:#181818;stroke-width:0.9398496240601504;"/><path d="M316.1125,84.5571 C315.2314,84.1459 314.6734,84.0137 313.851,84.0137 C311.3839,84.0137 309.5042,85.9669 309.5042,88.5221 L309.5042,89.5794 C309.5042,92.0025 311.4867,93.7794 314.2035,93.7794 C315.3489,93.7794 316.4356,93.5004 317.1405,92.9864 C317.6839,92.6046 317.9922,92.1787 317.9922,91.8116 C317.9922,91.3857 317.6251,91.0186 317.1846,91.0186 C316.979,91.0186 316.7881,91.092 316.6118,91.2682 C316.186,91.7234 316.186,91.7234 316.0098,91.8116 C315.6133,92.0612 314.9671,92.1787 314.2475,92.1787 C312.3238,92.1787 311.1049,91.1507 311.1049,89.55 L311.1049,88.5221 C311.1049,86.848 312.2797,85.6144 313.9098,85.6144 C314.4531,85.6144 315.0258,85.7613 315.4664,85.9962 C315.9216,86.2606 316.0832,86.4662 316.1713,86.848 C316.23,87.2298 316.2594,87.3473 316.3916,87.4648 C316.5237,87.5969 316.744,87.6997 316.9496,87.6997 C317.1992,87.6997 317.4489,87.5676 317.6104,87.362 C317.7132,87.2151 317.7426,87.0389 317.7426,86.6424 L317.7426,85.306 C317.7426,84.8949 317.7279,84.7774 317.6398,84.6305 C317.493,84.3809 317.2286,84.2487 316.9496,84.2487 C316.6706,84.2487 316.4797,84.3368 316.2741,84.6305 L316.1125,84.5571 Z " fill="#000000"/><text fill="#000000" font-family="sans-serif" font-size="13.1579" lengthAdjust="spacing" textLength="74.2481" x="327.0677" y="93.18">TBall_Form</text><line style="stroke:#181818;stroke-width:0.4699248120300752;" x1="300.7519" x2="403.1955" y1="103.6625" y2="103.6625"/><line style="stroke:#181818;stroke-width:0.4699248120300752;" x1="300.7519" x2="403.1955" y1="111.1813" y2="111.1813"/></g><!--MD5=[944e6139e45737b5ce3d74a6103d4fd1]
class <b>TBall_Form</b>--><g id="elem_&lt;b&gt;TBall_Form&lt;/b&gt;"><rect codeLine="10" fill="#F1F1F1" height="595.9528" id="&lt;b&gt;TBall_Form&lt;/b&gt;" rx="2.3496" ry="2.3496" style="stroke:#181818;stroke-width:0.4699248120300752;" width="440.7895" x="6.5789" y="175.091"/><ellipse cx="180.6861" cy="190.1286" fill="#ADD1B2" rx="10.3383" ry="10.3383" style="stroke:#181818;stroke-width:0.9398496240601504;"/><path d="M182.8889,186.0609 C182.0078,185.6497 181.4497,185.5175 180.6273,185.5175 C178.1602,185.5175 176.2805,187.4706 176.2805,190.0258 L176.2805,191.0832 C176.2805,193.5062 178.263,195.2831 180.9798,195.2831 C182.1252,195.2831 183.2119,195.0041 183.9168,194.4901 C184.4602,194.1083 184.7686,193.6824 184.7686,193.3153 C184.7686,192.8895 184.4014,192.5223 183.9609,192.5223 C183.7553,192.5223 183.5644,192.5957 183.3882,192.772 C182.9623,193.2272 182.9623,193.2272 182.7861,193.3153 C182.3896,193.565 181.7434,193.6824 181.0238,193.6824 C179.1001,193.6824 177.8812,192.6545 177.8812,191.0538 L177.8812,190.0258 C177.8812,188.3517 179.056,187.1182 180.6861,187.1182 C181.2294,187.1182 181.8022,187.265 182.2427,187.5 C182.698,187.7643 182.8595,187.9699 182.9476,188.3517 C183.0063,188.7336 183.0357,188.851 183.1679,188.9685 C183.3,189.1007 183.5203,189.2035 183.7259,189.2035 C183.9756,189.2035 184.2252,189.0713 184.3867,188.8657 C184.4895,188.7189 184.5189,188.5426 184.5189,188.1461 L184.5189,186.8098 C184.5189,186.3986 184.5042,186.2811 184.4161,186.1343 C184.2693,185.8846 184.0049,185.7525 183.7259,185.7525 C183.4469,185.7525 183.256,185.8406 183.0504,186.1343 L182.8889,186.0609 Z " fill="#000000"/><text fill="#000000" font-family="sans-serif" font-size="13.1579" font-weight="bold" lengthAdjust="spacing" textLength="84.5865" x="199.953" y="194.6838">TBall_Form</text><line style="stroke:#181818;stroke-width:0.4699248120300752;" x1="7.5188" x2="446.4286" y1="205.1662" y2="205.1662"/><ellipse cx="16.9173" cy="215.5046" fill="none" rx="2.8195" ry="2.8195" style="stroke:#038048;stroke-width:0.9398496240601504;"/><text fill="#000000" font-family="sans-serif" font-size="13.1579" lengthAdjust="spacing" textLength="52.6316" x="25.3759" y="221.1391">BitBtn1</text><text fill="#000000" font-family="sans-serif" font-size="13.1579" lengthAdjust="spacing" textLength="4.6992" x="145.6767" y="221.1391">:</text><text fill="#000000" font-family="sans-serif" font-size="13.1579" font-style="italic" lengthAdjust="spacing" textLength="59.2105" x="154.1353" y="221.1391">TBitBtn *</text><ellipse cx="16.9173" cy="230.8212" fill="none" rx="2.8195" ry="2.8195" style="stroke:#038048;stroke-width:0.9398496240601504;"/><text fill="#000000" font-family="sans-serif" font-size="13.1579" lengthAdjust="spacing" textLength="51.6917" x="25.3759" y="236.4557">BitBtn2</text><text fill="#000000" font-family="sans-serif" font-size="13.1579" lengthAdjust="spacing" textLength="4.6992" x="145.6767" y="236.4557">:</text><text fill="#000000" font-family="sans-serif" font-size="13.1579" font-style="italic" lengthAdjust="spacing" textLength="59.2105" x="154.1353" y="236.4557">TBitBtn *</text><ellipse cx="16.9173" cy="246.1378" fill="none" rx="2.8195" ry="2.8195" style="stroke:#038048;stroke-width:0.9398496240601504;"/><text fill="#000000" font-family="sans-serif" font-size="13.1579" lengthAdjust="spacing" textLength="52.6316" x="25.3759" y="251.7723">BitBtn3</text><text fill="#000000" font-family="sans-serif" font-size="13.1579" lengthAdjust="spacing" textLength="4.6992" x="145.6767" y="251.7723">:</text><text fill="#000000" font-family="sans-serif" font-size="13.1579" font-style="italic" lengthAdjust="spacing" textLength="59.2105" x="154.1353" y="251.7723">TBitBtn *</text><ellipse cx="16.9173" cy="261.4544" fill="none" rx="2.8195" ry="2.8195" style="stroke:#038048;stroke-width:0.9398496240601504;"/><text fill="#000000" font-family="sans-serif" font-size="13.1579" lengthAdjust="spacing" textLength="76.1278" x="25.3759" y="267.0889">CheckBox1</text><text fill="#000000" font-family="sans-serif" font-size="13.1579" lengthAdjust="spacing" textLength="4.6992" x="145.6767" y="267.0889">:</text><text fill="#000000" font-family="sans-serif" font-size="13.1579" font-style="italic" lengthAdjust="spacing" textLength="85.5263" x="154.1353" y="267.0889">TCheckBox *</text><ellipse cx="16.9173" cy="276.771" fill="none" rx="2.8195" ry="2.8195" style="stroke:#038048;stroke-width:0.9398496240601504;"/><text fill="#000000" font-family="sans-serif" font-size="13.1579" lengthAdjust="spacing" textLength="93.0451" x="25.3759" y="282.4055">DBNavigator1</text><text fill="#000000" font-family="sans-serif" font-size="13.1579" lengthAdjust="spacing" textLength="4.6992" x="145.6767" y="282.4055">:</text><text fill="#000000" font-family="sans-serif" font-size="13.1579" font-style="italic" lengthAdjust="spacing" textLength="103.3835" x="154.1353" y="282.4055">TDBNavigator *</text><ellipse cx="16.9173" cy="292.0876" fill="none" rx="2.8195" ry="2.8195" style="stroke:#038048;stroke-width:0.9398496240601504;"/><text fill="#000000" font-family="sans-serif" font-size="13.1579" lengthAdjust="spacing" textLength="59.2105" x="25.3759" y="297.7221">DBText1</text><text fill="#000000" font-family="sans-serif" font-size="13.1579" lengthAdjust="spacing" textLength="4.6992" x="145.6767" y="297.7221">:</text><text fill="#000000" font-family="sans-serif" font-size="13.1579" font-style="italic" lengthAdjust="spacing" textLength="67.6692" x="154.1353" y="297.7221">TDBText *</text><ellipse cx="16.9173" cy="307.4043" fill="none" rx="2.8195" ry="2.8195" style="stroke:#038048;stroke-width:0.9398496240601504;"/><text fill="#000000" font-family="sans-serif" font-size="13.1579" lengthAdjust="spacing" textLength="58.2707" x="25.3759" y="313.0388">DBText2</text><text fill="#000000" font-family="sans-serif" font-size="13.1579" lengthAdjust="spacing" textLength="4.6992" x="145.6767" y="313.0388">:</text><text fill="#000000" font-family="sans-serif" font-size="13.1579" font-style="italic" lengthAdjust="spacing" textLength="67.6692" x="154.1353" y="313.0388">TDBText *</text><ellipse cx="16.9173" cy="322.7209" fill="none" rx="2.8195" ry="2.8195" style="stroke:#038048;stroke-width:0.9398496240601504;"/><text fill="#000000" font-family="sans-serif" font-size="13.1579" lengthAdjust="spacing" textLength="59.2105" x="25.3759" y="328.3554">DBText3</text><text fill="#000000" font-family="sans-serif" font-size="13.1579" lengthAdjust="spacing" textLength="4.6992" x="145.6767" y="328.3554">:</text><text fill="#000000" font-family="sans-serif" font-size="13.1579" font-style="italic" lengthAdjust="spacing" textLength="67.6692" x="154.1353" y="328.3554">TDBText *</text><ellipse cx="16.9173" cy="338.0375" fill="none" rx="2.8195" ry="2.8195" style="stroke:#038048;stroke-width:0.9398496240601504;"/><text fill="#000000" font-family="sans-serif" font-size="13.1579" lengthAdjust="spacing" textLength="35.7143" x="25.3759" y="343.672">Edit1</text><text fill="#000000" font-family="sans-serif" font-size="13.1579" lengthAdjust="spacing" textLength="4.6992" x="145.6767" y="343.672">:</text><text fill="#000000" font-family="sans-serif" font-size="13.1579" font-style="italic" lengthAdjust="spacing" textLength="44.1729" x="154.1353" y="343.672">TEdit *</text><ellipse cx="16.9173" cy="353.3541" fill="none" rx="2.8195" ry="2.8195" style="stroke:#038048;stroke-width:0.9398496240601504;"/><text fill="#000000" font-family="sans-serif" font-size="13.1579" lengthAdjust="spacing" textLength="45.1128" x="25.3759" y="358.9886">Label1</text><text fill="#000000" font-family="sans-serif" font-size="13.1579" lengthAdjust="spacing" textLength="4.6992" x="145.6767" y="358.9886">:</text><text fill="#000000" font-family="sans-serif" font-size="13.1579" font-style="italic" lengthAdjust="spacing" textLength="55.4511" x="154.1353" y="358.9886">TLabel *</text><ellipse cx="16.9173" cy="368.6707" fill="none" rx="2.8195" ry="2.8195" style="stroke:#038048;stroke-width:0.9398496240601504;"/><text fill="#000000" font-family="sans-serif" font-size="13.1579" lengthAdjust="spacing" textLength="45.1128" x="25.3759" y="374.3052">Panel1</text><text fill="#000000" font-family="sans-serif" font-size="13.1579" lengthAdjust="spacing" textLength="4.6992" x="145.6767" y="374.3052">:</text><text fill="#000000" font-family="sans-serif" font-size="13.1579" font-style="italic" lengthAdjust="spacing" textLength="55.4511" x="154.1353" y="374.3052">TPanel *</text><ellipse cx="16.9173" cy="383.9873" fill="none" rx="2.8195" ry="2.8195" style="stroke:#038048;stroke-width:0.9398496240601504;"/><text fill="#000000" font-family="sans-serif" font-size="13.1579" lengthAdjust="spacing" textLength="87.406" x="25.3759" y="389.6218">RadioGroup1</text><text fill="#000000" font-family="sans-serif" font-size="13.1579" lengthAdjust="spacing" textLength="4.6992" x="145.6767" y="389.6218">:</text><text fill="#000000" font-family="sans-serif" font-size="13.1579" font-style="italic" lengthAdjust="spacing" textLength="98.6842" x="154.1353" y="389.6218">TRadioGroup *</text><ellipse cx="16.9173" cy="399.3039" fill="none" rx="2.8195" ry="2.8195" style="stroke:#038048;stroke-width:0.9398496240601504;"/><text fill="#000000" font-family="sans-serif" font-size="13.1579" lengthAdjust="spacing" textLength="86.4662" x="25.3759" y="404.9384">RadioGroup2</text><text fill="#000000" font-family="sans-serif" font-size="13.1579" lengthAdjust="spacing" textLength="4.6992" x="145.6767" y="404.9384">:</text><text fill="#000000" font-family="sans-serif" font-size="13.1579" font-style="italic" lengthAdjust="spacing" textLength="98.6842" x="154.1353" y="404.9384">TRadioGroup *</text><line style="stroke:#181818;stroke-width:0.9398496240601504;" x1="7.5188" x2="446.4286" y1="411.801" y2="411.801"/><text fill="#000000" font-family="sans-serif" font-size="13.1579" lengthAdjust="spacing" textLength="3.7594" x="25.3759" y="427.7738"> </text><ellipse cx="16.9173" cy="437.4559" fill="#84BE84" rx="2.8195" ry="2.8195" style="stroke:#038048;stroke-width:0.9398496240601504;"/><text fill="#000000" font-family="sans-serif" font-size="13.1579" font-weight="bold" lengthAdjust="spacing" textLength="142.8571" x="25.3759" y="443.0905">TBall_Form (Owner</text><text fill="#000000" font-family="sans-serif" font-size="13.1579" font-weight="bold" lengthAdjust="spacing" textLength="5.6391" x="175.7519" y="443.0905">:</text><text fill="#000000" font-family="sans-serif" font-size="13.1579" font-style="italic" font-weight="bold" lengthAdjust="spacing" textLength="107.1429" x="186.0902" y="443.0905">TComponent *</text><text fill="#000000" font-family="sans-serif" font-size="13.1579" font-weight="bold" lengthAdjust="spacing" textLength="6.5789" x="293.2331" y="443.0905">)</text><text fill="#000000" font-family="sans-serif" font-size="13.1579" lengthAdjust="spacing" textLength="3.7594" x="25.3759" y="458.4071"> </text><ellipse cx="16.9173" cy="468.0892" fill="#84BE84" rx="2.8195" ry="2.8195" style="stroke:#038048;stroke-width:0.9398496240601504;"/><text fill="#000000" font-family="sans-serif" font-size="13.1579" lengthAdjust="spacing" textLength="71.4286" x="25.3759" y="473.7237">ball_check</text><text fill="#000000" font-family="sans-serif" font-size="13.1579" lengthAdjust="spacing" textLength="17.8571" x="265.9774" y="473.7237">() :</text><text fill="#000000" font-family="sans-serif" font-size="13.1579" font-style="italic" lengthAdjust="spacing" textLength="28.1955" x="287.594" y="473.7237">void</text><ellipse cx="16.9173" cy="483.4058" fill="#84BE84" rx="2.8195" ry="2.8195" style="stroke:#038048;stroke-width:0.9398496240601504;"/><text fill="#000000" font-family="sans-serif" font-size="13.1579" lengthAdjust="spacing" textLength="85.5263" x="25.3759" y="489.0403">BitBtn1Click</text><text fill="#000000" font-family="sans-serif" font-size="13.1579" lengthAdjust="spacing" textLength="52.6316" x="265.9774" y="489.0403">(Sender</text><text fill="#000000" font-family="sans-serif" font-size="13.1579" lengthAdjust="spacing" textLength="4.6992" x="326.1278" y="489.0403">:</text><text fill="#000000" font-family="sans-serif" font-size="13.1579" font-style="italic" lengthAdjust="spacing" textLength="62.0301" x="334.5865" y="489.0403">TObject *</text><text fill="#000000" font-family="sans-serif" font-size="13.1579" lengthAdjust="spacing" textLength="13.1579" x="396.6165" y="489.0403">) :</text><text fill="#000000" font-family="sans-serif" font-size="13.1579" font-style="italic" lengthAdjust="spacing" textLength="28.1955" x="413.5338" y="489.0403">void</text><ellipse cx="16.9173" cy="498.7224" fill="#84BE84" rx="2.8195" ry="2.8195" style="stroke:#038048;stroke-width:0.9398496240601504;"/><text fill="#000000" font-family="sans-serif" font-size="13.1579" lengthAdjust="spacing" textLength="84.5865" x="25.3759" y="504.3569">BitBtn2Click</text><text fill="#000000" font-family="sans-serif" font-size="13.1579" lengthAdjust="spacing" textLength="52.6316" x="265.9774" y="504.3569">(Sender</text><text fill="#000000" font-family="sans-serif" font-size="13.1579" lengthAdjust="spacing" textLength="4.6992" x="326.1278" y="504.3569">:</text><text fill="#000000" font-family="sans-serif" font-size="13.1579" font-style="italic" lengthAdjust="spacing" textLength="62.0301" x="334.5865" y="504.3569">TObject *</text><text fill="#000000" font-family="sans-serif" font-size="13.1579" lengthAdjust="spacing" textLength="13.1579" x="396.6165" y="504.3569">) :</text><text fill="#000000" font-family="sans-serif" font-size="13.1579" font-style="italic" lengthAdjust="spacing" textLength="28.1955" x="413.5338" y="504.3569">void</text><ellipse cx="16.9173" cy="514.039" fill="#84BE84" rx="2.8195" ry="2.8195" style="stroke:#038048;stroke-width:0.9398496240601504;"/><text fill="#000000" font-family="sans-serif" font-size="13.1579" lengthAdjust="spacing" textLength="85.5263" x="25.3759" y="519.6735">BitBtn3Click</text><text fill="#000000" font-family="sans-serif" font-size="13.1579" lengthAdjust="spacing" textLength="52.6316" x="265.9774" y="519.6735">(Sender</text><text fill="#000000" font-family="sans-serif" font-size="13.1579" lengthAdjust="spacing" textLength="4.6992" x="326.1278" y="519.6735">:</text><text fill="#000000" font-family="sans-serif" font-size="13.1579" font-style="italic" lengthAdjust="spacing" textLength="62.0301" x="334.5865" y="519.6735">TObject *</text><text fill="#000000" font-family="sans-serif" font-size="13.1579" lengthAdjust="spacing" textLength="13.1579" x="396.6165" y="519.6735">) :</text><text fill="#000000" font-family="sans-serif" font-size="13.1579" font-style="italic" lengthAdjust="spacing" textLength="28.1955" x="413.5338" y="519.6735">void</text><ellipse cx="16.9173" cy="529.3556" fill="#84BE84" rx="2.8195" ry="2.8195" style="stroke:#038048;stroke-width:0.9398496240601504;"/><text fill="#000000" font-family="sans-serif" font-size="13.1579" lengthAdjust="spacing" textLength="109.0226" x="25.3759" y="534.9901">CheckBox1Click</text><text fill="#000000" font-family="sans-serif" font-size="13.1579" lengthAdjust="spacing" textLength="52.6316" x="265.9774" y="534.9901">(Sender</text><text fill="#000000" font-family="sans-serif" font-size="13.1579" lengthAdjust="spacing" textLength="4.6992" x="326.1278" y="534.9901">:</text><text fill="#000000" font-family="sans-serif" font-size="13.1579" font-style="italic" lengthAdjust="spacing" textLength="62.0301" x="334.5865" y="534.9901">TObject *</text><text fill="#000000" font-family="sans-serif" font-size="13.1579" lengthAdjust="spacing" textLength="13.1579" x="396.6165" y="534.9901">) :</text><text fill="#000000" font-family="sans-serif" font-size="13.1579" font-style="italic" lengthAdjust="spacing" textLength="28.1955" x="413.5338" y="534.9901">void</text><ellipse cx="16.9173" cy="544.6722" fill="#84BE84" rx="2.8195" ry="2.8195" style="stroke:#038048;stroke-width:0.9398496240601504;"/><text fill="#000000" font-family="sans-serif" font-size="13.1579" lengthAdjust="spacing" textLength="206.7669" x="25.3759" y="550.3067">DBLookupComboBox1CloseUp</text><text fill="#000000" font-family="sans-serif" font-size="13.1579" lengthAdjust="spacing" textLength="52.6316" x="265.9774" y="550.3067">(Sender</text><text fill="#000000" font-family="sans-serif" font-size="13.1579" lengthAdjust="spacing" textLength="4.6992" x="326.1278" y="550.3067">:</text><text fill="#000000" font-family="sans-serif" font-size="13.1579" font-style="italic" lengthAdjust="spacing" textLength="62.0301" x="334.5865" y="550.3067">TObject *</text><text fill="#000000" font-family="sans-serif" font-size="13.1579" lengthAdjust="spacing" textLength="13.1579" x="396.6165" y="550.3067">) :</text><text fill="#000000" font-family="sans-serif" font-size="13.1579" font-style="italic" lengthAdjust="spacing" textLength="28.1955" x="413.5338" y="550.3067">void</text><line style="stroke:#181818;stroke-width:0.9398496240601504;stroke-dasharray:1.0,2.0;" x1="7.5188" x2="446.4286" y1="557.1693" y2="557.1693"/><ellipse cx="16.9173" cy="567.5076" fill="#84BE84" rx="2.8195" ry="2.8195" style="stroke:#038048;stroke-width:0.9398496240601504;"/><text fill="#000000" font-family="sans-serif" font-size="13.1579" lengthAdjust="spacing" textLength="125.9398" x="25.3759" y="573.1421">DBNavigator1Click</text><text fill="#000000" font-family="sans-serif" font-size="13.1579" lengthAdjust="spacing" textLength="4.6992" x="265.9774" y="573.1421">(</text><text fill="#000000" font-family="sans-serif" font-size="13.1579" lengthAdjust="spacing" textLength="47.9323" x="85.5263" y="588.4588">Sender</text><text fill="#000000" font-family="sans-serif" font-size="13.1579" lengthAdjust="spacing" textLength="4.6992" x="145.6767" y="588.4588">:</text><text fill="#000000" font-family="sans-serif" font-size="13.1579" font-style="italic" lengthAdjust="spacing" textLength="62.0301" x="154.1353" y="588.4588">TObject *</text><text fill="#000000" font-family="sans-serif" font-size="13.1579" lengthAdjust="spacing" textLength="3.7594" x="216.1654" y="588.4588">,</text><text fill="#000000" font-family="sans-serif" font-size="13.1579" lengthAdjust="spacing" textLength="46.9925" x="85.5263" y="603.7754">Button</text><text fill="#000000" font-family="sans-serif" font-size="13.1579" lengthAdjust="spacing" textLength="4.6992" x="145.6767" y="603.7754">:</text><text fill="#000000" font-family="sans-serif" font-size="13.1579" font-style="italic" lengthAdjust="spacing" textLength="90.2256" x="154.1353" y="603.7754">TNavigateBtn</text><text fill="#000000" font-family="sans-serif" font-size="13.1579" lengthAdjust="spacing" textLength="13.1579" x="55.4511" y="619.092">) :</text><text fill="#000000" font-family="sans-serif" font-size="13.1579" font-style="italic" lengthAdjust="spacing" textLength="28.1955" x="72.3684" y="619.092">void</text><line style="stroke:#181818;stroke-width:0.9398496240601504;stroke-dasharray:1.0,2.0;" x1="7.5188" x2="446.4286" y1="625.9545" y2="625.9545"/><ellipse cx="16.9173" cy="636.2929" fill="#84BE84" rx="2.8195" ry="2.8195" style="stroke:#038048;stroke-width:0.9398496240601504;"/><text fill="#000000" font-family="sans-serif" font-size="13.1579" lengthAdjust="spacing" textLength="86.4662" x="25.3759" y="641.9274">Edit1Change</text><text fill="#000000" font-family="sans-serif" font-size="13.1579" lengthAdjust="spacing" textLength="52.6316" x="265.9774" y="641.9274">(Sender</text><text fill="#000000" font-family="sans-serif" font-size="13.1579" lengthAdjust="spacing" textLength="4.6992" x="326.1278" y="641.9274">:</text><text fill="#000000" font-family="sans-serif" font-size="13.1579" font-style="italic" lengthAdjust="spacing" textLength="62.0301" x="334.5865" y="641.9274">TObject *</text><text fill="#000000" font-family="sans-serif" font-size="13.1579" lengthAdjust="spacing" textLength="13.1579" x="396.6165" y="641.9274">) :</text><text fill="#000000" font-family="sans-serif" font-size="13.1579" font-style="italic" lengthAdjust="spacing" textLength="28.1955" x="413.5338" y="641.9274">void</text><ellipse cx="16.9173" cy="651.6095" fill="#84BE84" rx="2.8195" ry="2.8195" style="stroke:#038048;stroke-width:0.9398496240601504;"/><text fill="#000000" font-family="sans-serif" font-size="13.1579" lengthAdjust="spacing" textLength="92.1053" x="25.3759" y="657.244">FormActivate</text><text fill="#000000" font-family="sans-serif" font-size="13.1579" lengthAdjust="spacing" textLength="52.6316" x="265.9774" y="657.244">(Sender</text><text fill="#000000" font-family="sans-serif" font-size="13.1579" lengthAdjust="spacing" textLength="4.6992" x="326.1278" y="657.244">:</text><text fill="#000000" font-family="sans-serif" font-size="13.1579" font-style="italic" lengthAdjust="spacing" textLength="62.0301" x="334.5865" y="657.244">TObject *</text><text fill="#000000" font-family="sans-serif" font-size="13.1579" lengthAdjust="spacing" textLength="13.1579" x="396.6165" y="657.244">) :</text><text fill="#000000" font-family="sans-serif" font-size="13.1579" font-style="italic" lengthAdjust="spacing" textLength="28.1955" x="413.5338" y="657.244">void</text><line style="stroke:#181818;stroke-width:0.9398496240601504;stroke-dasharray:1.0,2.0;" x1="7.5188" x2="446.4286" y1="664.1066" y2="664.1066"/><ellipse cx="16.9173" cy="674.4449" fill="#84BE84" rx="2.8195" ry="2.8195" style="stroke:#038048;stroke-width:0.9398496240601504;"/><text fill="#000000" font-family="sans-serif" font-size="13.1579" lengthAdjust="spacing" textLength="71.4286" x="25.3759" y="680.0794">FormClose</text><text fill="#000000" font-family="sans-serif" font-size="13.1579" lengthAdjust="spacing" textLength="4.6992" x="265.9774" y="680.0794">(</text><text fill="#000000" font-family="sans-serif" font-size="13.1579" lengthAdjust="spacing" textLength="47.9323" x="85.5263" y="695.396">Sender</text><text fill="#000000" font-family="sans-serif" font-size="13.1579" lengthAdjust="spacing" textLength="4.6992" x="145.6767" y="695.396">:</text><text fill="#000000" font-family="sans-serif" font-size="13.1579" font-style="italic" lengthAdjust="spacing" textLength="62.0301" x="154.1353" y="695.396">TObject *</text><text fill="#000000" font-family="sans-serif" font-size="13.1579" lengthAdjust="spacing" textLength="3.7594" x="216.1654" y="695.396">,</text><text fill="#000000" font-family="sans-serif" font-size="13.1579" lengthAdjust="spacing" textLength="44.1729" x="85.5263" y="710.7126">Action</text><text fill="#000000" font-family="sans-serif" font-size="13.1579" lengthAdjust="spacing" textLength="4.6992" x="145.6767" y="710.7126">:</text><text fill="#000000" font-family="sans-serif" font-size="13.1579" font-style="italic" lengthAdjust="spacing" textLength="101.5038" x="154.1353" y="710.7126">TCloseAction &amp;</text><text fill="#000000" font-family="sans-serif" font-size="13.1579" lengthAdjust="spacing" textLength="13.1579" x="55.4511" y="726.0292">) :</text><text fill="#000000" font-family="sans-serif" font-size="13.1579" font-style="italic" lengthAdjust="spacing" textLength="28.1955" x="72.3684" y="726.0292">void</text><line style="stroke:#181818;stroke-width:0.9398496240601504;stroke-dasharray:1.0,2.0;" x1="7.5188" x2="446.4286" y1="732.8918" y2="732.8918"/><ellipse cx="16.9173" cy="743.2301" fill="#84BE84" rx="2.8195" ry="2.8195" style="stroke:#038048;stroke-width:0.9398496240601504;"/><text fill="#000000" font-family="sans-serif" font-size="13.1579" lengthAdjust="spacing" textLength="60.1504" x="25.3759" y="748.8647">Proverka</text><text fill="#000000" font-family="sans-serif" font-size="13.1579" lengthAdjust="spacing" textLength="17.8571" x="265.9774" y="748.8647">() :</text><text fill="#000000" font-family="sans-serif" font-size="13.1579" font-style="italic" lengthAdjust="spacing" textLength="28.1955" x="287.594" y="748.8647">void</text><ellipse cx="16.9173" cy="758.5468" fill="#84BE84" rx="2.8195" ry="2.8195" style="stroke:#038048;stroke-width:0.9398496240601504;"/><text fill="#000000" font-family="sans-serif" font-size="13.1579" lengthAdjust="spacing" textLength="120.3008" x="25.3759" y="764.1813">RadioGroup1Click</text><text fill="#000000" font-family="sans-serif" font-size="13.1579" lengthAdjust="spacing" textLength="52.6316" x="265.9774" y="764.1813">(Sender</text><text fill="#000000" font-family="sans-serif" font-size="13.1579" lengthAdjust="spacing" textLength="4.6992" x="326.1278" y="764.1813">:</text><text fill="#000000" font-family="sans-serif" font-size="13.1579" font-style="italic" lengthAdjust="spacing" textLength="62.0301" x="334.5865" y="764.1813">TObject *</text><text fill="#000000" font-family="sans-serif" font-size="13.1579" lengthAdjust="spacing" textLength="13.1579" x="396.6165" y="764.1813">) :</text><text fill="#000000" font-family="sans-serif" font-size="13.1579" font-style="italic" lengthAdjust="spacing" textLength="28.1955" x="413.5338" y="764.1813">void</text></g><!--MD5=[dd0bf217da5c5e97452bc452f42aff32]
class <b>TForm</b>--><g id="elem_&lt;b&gt;TForm&lt;/b&gt;"><rect fill="#F1F1F1" height="30.0752" id="&lt;b&gt;TForm&lt;/b&gt;" rx="2.3496" ry="2.3496" style="stroke:#181818;stroke-width:0.4699248120300752;" width="78.9474" x="187.5" y="81.1061"/><ellipse cx="201.5977" cy="96.1437" fill="#ADD1B2" rx="10.3383" ry="10.3383" style="stroke:#181818;stroke-width:0.9398496240601504;"/><path d="M203.8005,92.0759 C202.9194,91.6647 202.3614,91.5325 201.539,91.5325 C199.0719,91.5325 197.1922,93.4857 197.1922,96.0409 L197.1922,97.0982 C197.1922,99.5213 199.1747,101.2982 201.8914,101.2982 C203.0369,101.2982 204.1236,101.0191 204.8285,100.5052 C205.3718,100.1234 205.6802,99.6975 205.6802,99.3304 C205.6802,98.9045 205.3131,98.5374 204.8725,98.5374 C204.6669,98.5374 204.476,98.6108 204.2998,98.787 C203.8739,99.2422 203.8739,99.2422 203.6977,99.3304 C203.3012,99.58 202.6551,99.6975 201.9355,99.6975 C200.0117,99.6975 198.7929,98.6695 198.7929,97.0688 L198.7929,96.0409 C198.7929,94.3668 199.9677,93.1332 201.5977,93.1332 C202.1411,93.1332 202.7138,93.2801 203.1544,93.515 C203.6096,93.7794 203.7711,93.985 203.8593,94.3668 C203.918,94.7486 203.9474,94.8661 204.0795,94.9836 C204.2117,95.1157 204.432,95.2185 204.6376,95.2185 C204.8872,95.2185 205.1369,95.0863 205.2984,94.8808 C205.4012,94.7339 205.4306,94.5577 205.4306,94.1612 L205.4306,92.8248 C205.4306,92.4137 205.4159,92.2962 205.3278,92.1493 C205.1809,91.8997 204.9166,91.7675 204.6376,91.7675 C204.3586,91.7675 204.1676,91.8556 203.9621,92.1493 L203.8005,92.0759 Z " fill="#000000"/><text fill="#000000" font-family="sans-serif" font-size="13.1579" font-weight="bold" lengthAdjust="spacing" textLength="48.8722" x="214.7556" y="100.6988">TForm</text></g><path d="M480.2632,425.561 L480.2632,440.7234 L315.7895,469.1685 L480.2632,448.2422 L480.2632,463.4046 A0,0 0 0 0 480.2632,463.4046 L688.9098,463.4046 A0,0 0 0 0 688.9098,463.4046 L688.9098,434.9595 L679.5113,425.561 L480.2632,425.561 A0,0 0 0 0 480.2632,425.561 " fill="#FEFFDD" style="stroke:#181818;stroke-width:0.4699248120300752;"/><path d="M679.5113,425.561 L679.5113,434.9595 L688.9098,434.9595 L679.5113,425.561 " fill="#FEFFDD" style="stroke:#181818;stroke-width:0.4699248120300752;"/><text fill="#000000" font-family="sans-serif" font-size="12.218" lengthAdjust="spacing" textLength="188.9098" x="485.9023" y="441.6013">установка RadioGroup 1 или 2</text><text fill="#000000" font-family="sans-serif" font-size="12.218" lengthAdjust="spacing" textLength="163.5338" x="485.9023" y="455.8239">в нужное значение балла</text><path d="M480.2632,472.8031 L480.2632,487.9655 L315.7895,744.3095 L480.2632,495.4843 L480.2632,510.6467 A0,0 0 0 0 480.2632,510.6467 L744.3609,510.6467 A0,0 0 0 0 744.3609,510.6467 L744.3609,482.2016 L734.9624,472.8031 L480.2632,472.8031 A0,0 0 0 0 480.2632,472.8031 " fill="#FEFFDD" style="stroke:#181818;stroke-width:0.4699248120300752;"/><path d="M734.9624,472.8031 L734.9624,482.2016 L744.3609,482.2016 L734.9624,472.8031 " fill="#FEFFDD" style="stroke:#181818;stroke-width:0.4699248120300752;"/><text fill="#000000" font-family="sans-serif" font-size="12.218" lengthAdjust="spacing" textLength="204.8872" x="485.9023" y="488.8434">изменение статуса абитуриента</text><text fill="#000000" font-family="sans-serif" font-size="12.218" lengthAdjust="spacing" textLength="244.3609" x="485.9023" y="503.066">при получении отрицательной оценки</text><!--MD5=[3a3f1432e79bb188dd1b2e8db04ab97c]
reverse link <b>TForm</b> to <b>TBall_Form</b>--><g id="link_&lt;b&gt;TForm&lt;/b&gt;_&lt;b&gt;TBall_Form&lt;/b&gt;"><path codeLine="6" d="M226.9737,130.2095 C226.9737,142.5422 226.9737,157.7471 226.9737,174.826 " fill="none" id="&lt;b&gt;TForm&lt;/b&gt;-backto-&lt;b&gt;TBall_Form&lt;/b&gt;" style="stroke:#181818;stroke-width:0.9398496240601504;"/><polygon fill="none" points="220.3947,130.123,226.9737,111.326,233.5526,130.123,220.3947,130.123" style="stroke:#181818;stroke-width:0.9398496240601504;"/></g><!--MD5=[eb002b268cc25d38cd1e602a92d53b83]
@startuml
title Исходный файл: "BallUnit.cpp"

scale 750 width
' left to right direction

"<b>TBall_Form</b>" -up-|> "<b>TForm</b>"

hide "<b>TForm</b>" members

class "<b>TBall_Form</b>"
{
    + BitBtn1 \t\t\t: <i>TBitBtn *</i>
    + BitBtn2 \t\t\t: <i>TBitBtn *</i>
    + BitBtn3 \t\t\t: <i>TBitBtn *</i>
    + CheckBox1 \t\t: <i>TCheckBox *</i>
    + DBNavigator1 \t: <i>TDBNavigator *</i>
    + DBText1 \t\t: <i>TDBText *</i>
    + DBText2 \t\t: <i>TDBText *</i>
    + DBText3 \t\t: <i>TDBText *</i>
    + Edit1 \t\t\t: <i>TEdit *</i>
    + Label1 \t\t\t: <i>TLabel *</i>
    + Panel1 \t\t\t: <i>TPanel *</i>
    + RadioGroup1 \t: <i>TRadioGroup *</i>
    + RadioGroup2 \t: <i>TRadioGroup *</i>
    - -
    
    + <b>TBall_Form (Owner \t: <i>TComponent *</i>)</b>
    
    + ball_check \t\t\t\t\t\t() : <i>void</i>
    + BitBtn1Click \t\t\t\t\t\t(Sender \t: <i>TObject *</i>) : <i>void</i>
    + BitBtn2Click \t\t\t\t\t\t(Sender \t: <i>TObject *</i>) : <i>void</i>
    + BitBtn3Click \t\t\t\t\t\t(Sender \t: <i>TObject *</i>) : <i>void</i>
    + CheckBox1Click \t\t\t\t\t(Sender \t: <i>TObject *</i>) : <i>void</i>
    + DBLookupComboBox1CloseUp \t(Sender \t: <i>TObject *</i>) : <i>void</i>
    ..
    + DBNavigator1Click \t\t\t\t(
            \t\tSender \t: <i>TObject *</i>,
            \t\tButton \t: <i>TNavigateBtn</i>
        \t) : <i>void</i>
    ..
    + Edit1Change \t\t\t\t\t(Sender \t: <i>TObject *</i>) : <i>void</i>
    + FormActivate \t\t\t\t\t(Sender \t: <i>TObject *</i>) : <i>void</i>
    ..
    + FormClose \t\t\t\t\t\t(
            \t\tSender \t: <i>TObject *</i>,
            \t\tAction \t: <i>TCloseAction &</i>
        \t) : <i>void</i>
    ..
    + Proverka \t\t\t\t\t\t() : <i>void</i>
    + RadioGroup1Click \t\t\t\t(Sender \t: <i>TObject *</i>) : <i>void</i>
}


note right of "<b>TBall_Form</b>"::ball_check
установка RadioGroup 1 или 2
в нужное значение балла
end note
note right of "<b>TBall_Form</b>"::Proverka
изменение статуса абитуриента
при получении отрицательной оценки
end note


package TBall_Form <<Folder>>
{
    class TBall_Form
    hide  members
}
@enduml

@startuml
title Исходный файл: "BallUnit.cpp"

scale 750 width

"<b>TBall_Form</b>" -up-|> "<b>TForm</b>"

hide "<b>TForm</b>" members

class "<b>TBall_Form</b>"
{
    + BitBtn1 \t\t\t: <i>TBitBtn *</i>
    + BitBtn2 \t\t\t: <i>TBitBtn *</i>
    + BitBtn3 \t\t\t: <i>TBitBtn *</i>
    + CheckBox1 \t\t: <i>TCheckBox *</i>
    + DBNavigator1 \t: <i>TDBNavigator *</i>
    + DBText1 \t\t: <i>TDBText *</i>
    + DBText2 \t\t: <i>TDBText *</i>
    + DBText3 \t\t: <i>TDBText *</i>
    + Edit1 \t\t\t: <i>TEdit *</i>
    + Label1 \t\t\t: <i>TLabel *</i>
    + Panel1 \t\t\t: <i>TPanel *</i>
    + RadioGroup1 \t: <i>TRadioGroup *</i>
    + RadioGroup2 \t: <i>TRadioGroup *</i>
    - -
    
    + <b>TBall_Form (Owner \t: <i>TComponent *</i>)</b>
    
    + ball_check \t\t\t\t\t\t() : <i>void</i>
    + BitBtn1Click \t\t\t\t\t\t(Sender \t: <i>TObject *</i>) : <i>void</i>
    + BitBtn2Click \t\t\t\t\t\t(Sender \t: <i>TObject *</i>) : <i>void</i>
    + BitBtn3Click \t\t\t\t\t\t(Sender \t: <i>TObject *</i>) : <i>void</i>
    + CheckBox1Click \t\t\t\t\t(Sender \t: <i>TObject *</i>) : <i>void</i>
    + DBLookupComboBox1CloseUp \t(Sender \t: <i>TObject *</i>) : <i>void</i>
    ..
    + DBNavigator1Click \t\t\t\t(
            \t\tSender \t: <i>TObject *</i>,
            \t\tButton \t: <i>TNavigateBtn</i>
        \t) : <i>void</i>
    ..
    + Edit1Change \t\t\t\t\t(Sender \t: <i>TObject *</i>) : <i>void</i>
    + FormActivate \t\t\t\t\t(Sender \t: <i>TObject *</i>) : <i>void</i>
    ..
    + FormClose \t\t\t\t\t\t(
            \t\tSender \t: <i>TObject *</i>,
            \t\tAction \t: <i>TCloseAction &</i>
        \t) : <i>void</i>
    ..
    + Proverka \t\t\t\t\t\t() : <i>void</i>
    + RadioGroup1Click \t\t\t\t(Sender \t: <i>TObject *</i>) : <i>void</i>
}


note right of "<b>TBall_Form</b>"::ball_check
установка RadioGroup 1 или 2
в нужное значение балла
end note
note right of "<b>TBall_Form</b>"::Proverka
изменение статуса абитуриента
при получении отрицательной оценки
end note


package TBall_Form <<Folder>>
{
    class TBall_Form
    hide  members
}
@enduml

PlantUML version 1.2022.5(Sat Apr 30 10:55:52 UTC 2022)
(GPL source distribution)
Java Runtime: Java(TM) SE Runtime Environment
JVM: Java HotSpot(TM) 64-Bit Server VM
Default Encoding: UTF-8
Language: en
Country: US
--></g></svg>