<?xml version="1.0" encoding="UTF-8" standalone="no"?><svg xmlns="http://www.w3.org/2000/svg" xmlns:xlink="http://www.w3.org/1999/xlink" contentStyleType="text/css" height="1290.7725px" preserveAspectRatio="none" style="width:751px;height:1290px;background:#FFFFFF;" version="1.1" viewBox="0 0 751 1290" width="751.6094px" zoomAndPan="magnify"><defs/><g><rect height="42.3233" style="stroke:#00000000;stroke-width:1.609442060085837;fill:none;" width="449.0343" x="140.0215" y="8.0472"/><text fill="#000000" font-family="sans-serif" font-size="22.5322" font-weight="bold" lengthAdjust="spacing" textLength="432.9399" x="148.0687" y="37.0093">Исходный файл: "DUALLIST.cpp"</text><!--MD5=[6cc2337840f710ef7e7291774c74f2ce]
cluster TDualListDlg--><g id="cluster_TDualListDlg"><path d="M478.0043,69.6838 L646.9957,69.6838 A6.0354,6.0354 0 0 1 651.0193,73.7074 L662.2854,105.5693 L717.8112,105.5693 A4.0236,4.0236 0 0 1 721.8348,109.5929 L721.8348,224.995 A4.0236,4.0236 0 0 1 717.8112,229.0186 L478.0043,229.0186 A4.0236,4.0236 0 0 1 473.9807,224.995 L473.9807,73.7074 A4.0236,4.0236 0 0 1 478.0043,69.6838 " style="stroke:#000000;stroke-width:2.4141630901287554;fill:none;"/><line style="stroke:#000000;stroke-width:2.4141630901287554;fill:none;" x1="473.9807" x2="662.2854" y1="105.5693" y2="105.5693"/><text fill="#000000" font-family="sans-serif" font-size="22.5322" font-weight="bold" lengthAdjust="spacing" textLength="167.382" x="480.4185" y="93.8176">TDualListDlg</text></g><!--MD5=[1b727ba2f9ed8ab40beaa76fc7687020]
class TDualListDlg--><g id="elem_TDualListDlg"><rect codeLine="55" fill="#F1F1F1" height="77.2532" id="TDualListDlg" rx="4.0236" ry="4.0236" style="stroke:#181818;stroke-width:0.8047210300429185;" width="196.3519" x="499.7318" y="126.0143"/><ellipse cx="523.8734" cy="151.7654" fill="#ADD1B2" rx="17.7039" ry="17.7039" style="stroke:#181818;stroke-width:1.609442060085837;"/><path d="M527.6455,144.7995 C526.1367,144.0954 525.1811,143.869 523.7728,143.869 C519.548,143.869 516.3291,147.2137 516.3291,151.5893 L516.3291,153.3999 C516.3291,157.5493 519.724,160.5921 524.3763,160.5921 C526.3378,160.5921 528.1988,160.1143 529.4058,159.2342 C530.3363,158.5803 530.8644,157.8511 530.8644,157.2224 C530.8644,156.4931 530.2357,155.8644 529.4813,155.8644 C529.1292,155.8644 528.8023,155.9901 528.5005,156.2919 C527.7713,157.0715 527.7713,157.0715 527.4695,157.2224 C526.7905,157.6499 525.684,157.8511 524.4518,157.8511 C521.1575,157.8511 519.0702,156.0907 519.0702,153.3497 L519.0702,151.5893 C519.0702,148.7225 521.082,146.6101 523.8734,146.6101 C524.8038,146.6101 525.7846,146.8616 526.539,147.2639 C527.3186,147.7166 527.5952,148.0687 527.7461,148.7225 C527.8467,149.3763 527.897,149.5775 528.1233,149.7787 C528.3497,150.005 528.7269,150.1811 529.0789,150.1811 C529.5064,150.1811 529.9339,149.9547 530.2106,149.6027 C530.3866,149.3512 530.4369,149.0494 530.4369,148.3704 L530.4369,146.082 C530.4369,145.3779 530.4117,145.1767 530.2609,144.9252 C530.0094,144.4977 529.5567,144.2714 529.0789,144.2714 C528.6011,144.2714 528.2742,144.4223 527.9221,144.9252 L527.6455,144.7995 Z " fill="#000000"/><text fill="#000000" font-family="sans-serif" font-size="22.5322" lengthAdjust="spacing" textLength="144.8498" x="546.4056" y="159.5658">TDualListDlg</text><line style="stroke:#181818;stroke-width:0.8047210300429185;" x1="501.3412" x2="694.4742" y1="177.5164" y2="177.5164"/><line style="stroke:#181818;stroke-width:0.8047210300429185;" x1="501.3412" x2="694.4742" y1="190.392" y2="190.392"/></g><!--MD5=[5adc338dc7785ca01647efaf4520c361]
class <b>TDualListDlg</b>--><g id="elem_&lt;b&gt;TDualListDlg&lt;/b&gt;"><rect codeLine="9" fill="#F1F1F1" height="980.4771" id="&lt;b&gt;TDualListDlg&lt;/b&gt;" rx="4.0236" ry="4.0236" style="stroke:#181818;stroke-width:0.8047210300429185;" width="729.0773" x="11.2661" y="299.834"/><ellipse cx="285.2736" cy="325.5851" fill="#ADD1B2" rx="17.7039" ry="17.7039" style="stroke:#181818;stroke-width:1.609442060085837;"/><path d="M289.0457,318.6192 C287.5369,317.9151 286.5813,317.6888 285.173,317.6888 C280.9482,317.6888 277.7293,321.0334 277.7293,325.4091 L277.7293,327.2197 C277.7293,331.369 281.1243,334.4119 285.7766,334.4119 C287.7381,334.4119 289.599,333.9341 290.8061,333.0539 C291.7365,332.4001 292.2646,331.6708 292.2646,331.0421 C292.2646,330.3128 291.6359,329.6841 290.8815,329.6841 C290.5294,329.6841 290.2025,329.8099 289.9008,330.1117 C289.1715,330.8912 289.1715,330.8912 288.8697,331.0421 C288.1907,331.4696 287.0842,331.6708 285.852,331.6708 C282.5577,331.6708 280.4704,329.9105 280.4704,327.1694 L280.4704,325.4091 C280.4704,322.5422 282.4822,320.4299 285.2736,320.4299 C286.2041,320.4299 287.1848,320.6813 287.9392,321.0837 C288.7188,321.5363 288.9954,321.8884 289.1463,322.5422 C289.2469,323.1961 289.2972,323.3973 289.5235,323.5984 C289.7499,323.8248 290.1271,324.0008 290.4791,324.0008 C290.9067,324.0008 291.3342,323.7745 291.6108,323.4224 C291.7868,323.1709 291.8371,322.8692 291.8371,322.1902 L291.8371,319.9018 C291.8371,319.1976 291.812,318.9964 291.6611,318.745 C291.4096,318.3175 290.9569,318.0911 290.4791,318.0911 C290.0013,318.0911 289.6744,318.242 289.3224,318.745 L289.0457,318.6192 Z " fill="#000000"/><text fill="#000000" font-family="sans-serif" font-size="22.5322" font-weight="bold" lengthAdjust="spacing" textLength="167.382" x="318.2672" y="333.3855">TDualListDlg</text><line style="stroke:#181818;stroke-width:0.8047210300429185;" x1="12.8755" x2="738.7339" y1="351.3362" y2="351.3362"/><ellipse cx="28.97" cy="369.04" fill="none" rx="4.8283" ry="4.8283" style="stroke:#038048;stroke-width:1.609442060085837;"/><text fill="#000000" font-family="sans-serif" font-size="22.5322" lengthAdjust="spacing" textLength="119.0987" x="43.4549" y="378.6888">CancelBtn</text><text fill="#000000" font-family="sans-serif" font-size="22.5322" lengthAdjust="spacing" textLength="8.0472" x="197.9614" y="378.6888">:</text><text fill="#000000" font-family="sans-serif" font-size="22.5322" font-style="italic" lengthAdjust="spacing" textLength="107.8326" x="212.4464" y="378.6888">TButton *</text><ellipse cx="28.97" cy="395.2689" fill="none" rx="4.8283" ry="4.8283" style="stroke:#038048;stroke-width:1.609442060085837;"/><text fill="#000000" font-family="sans-serif" font-size="22.5322" lengthAdjust="spacing" textLength="94.9571" x="43.4549" y="404.9177">HelpBtn</text><text fill="#000000" font-family="sans-serif" font-size="22.5322" lengthAdjust="spacing" textLength="8.0472" x="197.9614" y="404.9177">:</text><text fill="#000000" font-family="sans-serif" font-size="22.5322" font-style="italic" lengthAdjust="spacing" textLength="107.8326" x="212.4464" y="404.9177">TButton *</text><ellipse cx="28.97" cy="421.4978" fill="none" rx="4.8283" ry="4.8283" style="stroke:#038048;stroke-width:1.609442060085837;"/><text fill="#000000" font-family="sans-serif" font-size="22.5322" lengthAdjust="spacing" textLength="75.6438" x="43.4549" y="431.1466">OKBtn</text><text fill="#000000" font-family="sans-serif" font-size="22.5322" lengthAdjust="spacing" textLength="8.0472" x="197.9614" y="431.1466">:</text><text fill="#000000" font-family="sans-serif" font-size="22.5322" font-style="italic" lengthAdjust="spacing" textLength="107.8326" x="212.4464" y="431.1466">TButton *</text><line style="stroke:#181818;stroke-width:1.609442060085837;stroke-dasharray:1.0,2.0;" x1="12.8755" x2="738.7339" y1="442.8983" y2="442.8983"/><ellipse cx="28.97" cy="460.6022" fill="none" rx="4.8283" ry="4.8283" style="stroke:#038048;stroke-width:1.609442060085837;"/><text fill="#000000" font-family="sans-serif" font-size="22.5322" lengthAdjust="spacing" textLength="103.0043" x="43.4549" y="470.251">DstLabel</text><text fill="#000000" font-family="sans-serif" font-size="22.5322" lengthAdjust="spacing" textLength="8.0472" x="197.9614" y="470.251">:</text><text fill="#000000" font-family="sans-serif" font-size="22.5322" font-style="italic" lengthAdjust="spacing" textLength="94.9571" x="212.4464" y="470.251">TLabel *</text><ellipse cx="28.97" cy="486.8311" fill="none" rx="4.8283" ry="4.8283" style="stroke:#038048;stroke-width:1.609442060085837;"/><text fill="#000000" font-family="sans-serif" font-size="22.5322" lengthAdjust="spacing" textLength="99.7854" x="43.4549" y="496.4799">SrcLabel</text><text fill="#000000" font-family="sans-serif" font-size="22.5322" lengthAdjust="spacing" textLength="8.0472" x="197.9614" y="496.4799">:</text><text fill="#000000" font-family="sans-serif" font-size="22.5322" font-style="italic" lengthAdjust="spacing" textLength="94.9571" x="212.4464" y="496.4799">TLabel *</text><line style="stroke:#181818;stroke-width:1.609442060085837;stroke-dasharray:1.0,2.0;" x1="12.8755" x2="738.7339" y1="508.2316" y2="508.2316"/><ellipse cx="28.97" cy="525.9355" fill="none" rx="4.8283" ry="4.8283" style="stroke:#038048;stroke-width:1.609442060085837;"/><text fill="#000000" font-family="sans-serif" font-size="22.5322" lengthAdjust="spacing" textLength="82.0815" x="43.4549" y="535.5843">DstList</text><text fill="#000000" font-family="sans-serif" font-size="22.5322" lengthAdjust="spacing" textLength="8.0472" x="197.9614" y="535.5843">:</text><text fill="#000000" font-family="sans-serif" font-size="22.5322" font-style="italic" lengthAdjust="spacing" textLength="114.2704" x="212.4464" y="535.5843">TListBox *</text><ellipse cx="28.97" cy="552.1644" fill="none" rx="4.8283" ry="4.8283" style="stroke:#038048;stroke-width:1.609442060085837;"/><text fill="#000000" font-family="sans-serif" font-size="22.5322" lengthAdjust="spacing" textLength="78.8627" x="43.4549" y="561.8132">SrcList</text><text fill="#000000" font-family="sans-serif" font-size="22.5322" lengthAdjust="spacing" textLength="8.0472" x="197.9614" y="561.8132">:</text><text fill="#000000" font-family="sans-serif" font-size="22.5322" font-style="italic" lengthAdjust="spacing" textLength="114.2704" x="212.4464" y="561.8132">TListBox *</text><line style="stroke:#181818;stroke-width:1.609442060085837;stroke-dasharray:1.0,2.0;" x1="12.8755" x2="738.7339" y1="573.5649" y2="573.5649"/><ellipse cx="28.97" cy="591.2688" fill="none" rx="4.8283" ry="4.8283" style="stroke:#038048;stroke-width:1.609442060085837;"/><text fill="#000000" font-family="sans-serif" font-size="22.5322" lengthAdjust="spacing" textLength="98.176" x="43.4549" y="600.9176">ExAllBtn</text><text fill="#000000" font-family="sans-serif" font-size="22.5322" lengthAdjust="spacing" textLength="8.0472" x="197.9614" y="600.9176">:</text><text fill="#000000" font-family="sans-serif" font-size="22.5322" font-style="italic" lengthAdjust="spacing" textLength="180.2575" x="212.4464" y="600.9176">TSpeedButton *</text><ellipse cx="28.97" cy="617.4977" fill="none" rx="4.8283" ry="4.8283" style="stroke:#038048;stroke-width:1.609442060085837;"/><text fill="#000000" font-family="sans-serif" font-size="22.5322" lengthAdjust="spacing" textLength="130.3648" x="43.4549" y="627.1464">ExcludeBtn</text><text fill="#000000" font-family="sans-serif" font-size="22.5322" lengthAdjust="spacing" textLength="8.0472" x="197.9614" y="627.1464">:</text><text fill="#000000" font-family="sans-serif" font-size="22.5322" font-style="italic" lengthAdjust="spacing" textLength="180.2575" x="212.4464" y="627.1464">TSpeedButton *</text><ellipse cx="28.97" cy="643.7265" fill="none" rx="4.8283" ry="4.8283" style="stroke:#038048;stroke-width:1.609442060085837;"/><text fill="#000000" font-family="sans-serif" font-size="22.5322" lengthAdjust="spacing" textLength="104.6137" x="43.4549" y="653.3753">IncAllBtn</text><text fill="#000000" font-family="sans-serif" font-size="22.5322" lengthAdjust="spacing" textLength="8.0472" x="197.9614" y="653.3753">:</text><text fill="#000000" font-family="sans-serif" font-size="22.5322" font-style="italic" lengthAdjust="spacing" textLength="180.2575" x="212.4464" y="653.3753">TSpeedButton *</text><ellipse cx="28.97" cy="669.9554" fill="none" rx="4.8283" ry="4.8283" style="stroke:#038048;stroke-width:1.609442060085837;"/><text fill="#000000" font-family="sans-serif" font-size="22.5322" lengthAdjust="spacing" textLength="123.927" x="43.4549" y="679.6042">IncludeBtn</text><text fill="#000000" font-family="sans-serif" font-size="22.5322" lengthAdjust="spacing" textLength="8.0472" x="197.9614" y="679.6042">:</text><text fill="#000000" font-family="sans-serif" font-size="22.5322" font-style="italic" lengthAdjust="spacing" textLength="180.2575" x="212.4464" y="679.6042">TSpeedButton *</text><line style="stroke:#181818;stroke-width:1.609442060085837;" x1="12.8755" x2="738.7339" y1="691.356" y2="691.356"/><text fill="#000000" font-family="sans-serif" font-size="22.5322" lengthAdjust="spacing" textLength="6.4378" x="43.4549" y="718.7086"> </text><ellipse cx="28.97" cy="735.2887" fill="#84BE84" rx="4.8283" ry="4.8283" style="stroke:#038048;stroke-width:1.609442060085837;"/><text fill="#000000" font-family="sans-serif" font-size="22.5322" font-weight="bold" lengthAdjust="spacing" textLength="267.1674" x="43.4549" y="744.9375">TDualListDlg (Owner</text><text fill="#000000" font-family="sans-serif" font-size="22.5322" font-weight="bold" lengthAdjust="spacing" textLength="9.6567" x="365.3433" y="744.9375">:</text><text fill="#000000" font-family="sans-serif" font-size="22.5322" font-style="italic" font-weight="bold" lengthAdjust="spacing" textLength="183.4764" x="383.0472" y="744.9375">TComponent *</text><text fill="#000000" font-family="sans-serif" font-size="22.5322" font-weight="bold" lengthAdjust="spacing" textLength="11.2661" x="566.5236" y="744.9375">)</text><text fill="#000000" font-family="sans-serif" font-size="22.5322" lengthAdjust="spacing" textLength="6.4378" x="43.4549" y="771.1664"> </text><ellipse cx="28.97" cy="787.7464" fill="#84BE84" rx="4.8283" ry="4.8283" style="stroke:#038048;stroke-width:1.609442060085837;"/><text fill="#000000" font-family="sans-serif" font-size="22.5322" lengthAdjust="spacing" textLength="178.6481" x="43.4549" y="797.3952">DstListDblClick</text><text fill="#000000" font-family="sans-serif" font-size="22.5322" lengthAdjust="spacing" textLength="90.1288" x="300.9657" y="797.3952">(Sender</text><text fill="#000000" font-family="sans-serif" font-size="22.5322" lengthAdjust="spacing" textLength="8.0472" x="403.97" y="797.3952">:</text><text fill="#000000" font-family="sans-serif" font-size="22.5322" font-style="italic" lengthAdjust="spacing" textLength="106.2232" x="418.4549" y="797.3952">TObject *</text><text fill="#000000" font-family="sans-serif" font-size="22.5322" lengthAdjust="spacing" textLength="22.5322" x="524.6781" y="797.3952">) :</text><text fill="#000000" font-family="sans-serif" font-size="22.5322" font-style="italic" lengthAdjust="spacing" textLength="48.2833" x="553.6481" y="797.3952">void</text><ellipse cx="28.97" cy="813.9753" fill="#84BE84" rx="4.8283" ry="4.8283" style="stroke:#038048;stroke-width:1.609442060085837;"/><text fill="#000000" font-family="sans-serif" font-size="22.5322" lengthAdjust="spacing" textLength="154.5064" x="43.4549" y="823.6241">ExAllBtnClick</text><text fill="#000000" font-family="sans-serif" font-size="22.5322" lengthAdjust="spacing" textLength="90.1288" x="300.9657" y="823.6241">(Sender</text><text fill="#000000" font-family="sans-serif" font-size="22.5322" lengthAdjust="spacing" textLength="8.0472" x="403.97" y="823.6241">:</text><text fill="#000000" font-family="sans-serif" font-size="22.5322" font-style="italic" lengthAdjust="spacing" textLength="106.2232" x="418.4549" y="823.6241">TObject *</text><text fill="#000000" font-family="sans-serif" font-size="22.5322" lengthAdjust="spacing" textLength="22.5322" x="524.6781" y="823.6241">) :</text><text fill="#000000" font-family="sans-serif" font-size="22.5322" font-style="italic" lengthAdjust="spacing" textLength="48.2833" x="553.6481" y="823.6241">void</text><ellipse cx="28.97" cy="840.2042" fill="#84BE84" rx="4.8283" ry="4.8283" style="stroke:#038048;stroke-width:1.609442060085837;"/><text fill="#000000" font-family="sans-serif" font-size="22.5322" lengthAdjust="spacing" textLength="186.6953" x="43.4549" y="849.853">ExcludeBtnClick</text><text fill="#000000" font-family="sans-serif" font-size="22.5322" lengthAdjust="spacing" textLength="90.1288" x="300.9657" y="849.853">(Sender</text><text fill="#000000" font-family="sans-serif" font-size="22.5322" lengthAdjust="spacing" textLength="8.0472" x="403.97" y="849.853">:</text><text fill="#000000" font-family="sans-serif" font-size="22.5322" font-style="italic" lengthAdjust="spacing" textLength="106.2232" x="418.4549" y="849.853">TObject *</text><text fill="#000000" font-family="sans-serif" font-size="22.5322" lengthAdjust="spacing" textLength="22.5322" x="524.6781" y="849.853">) :</text><text fill="#000000" font-family="sans-serif" font-size="22.5322" font-style="italic" lengthAdjust="spacing" textLength="48.2833" x="553.6481" y="849.853">void</text><ellipse cx="28.97" cy="866.4331" fill="#84BE84" rx="4.8283" ry="4.8283" style="stroke:#038048;stroke-width:1.609442060085837;"/><text fill="#000000" font-family="sans-serif" font-size="22.5322" lengthAdjust="spacing" textLength="204.3991" x="43.4549" y="876.0819">GetFirstSelection</text><text fill="#000000" font-family="sans-serif" font-size="22.5322" lengthAdjust="spacing" textLength="49.8927" x="300.9657" y="876.0819">(List</text><text fill="#000000" font-family="sans-serif" font-size="22.5322" lengthAdjust="spacing" textLength="8.0472" x="403.97" y="876.0819">:</text><text fill="#000000" font-family="sans-serif" font-size="22.5322" font-style="italic" lengthAdjust="spacing" textLength="201.1803" x="418.4549" y="876.0819">TCustomListBox *</text><text fill="#000000" font-family="sans-serif" font-size="22.5322" lengthAdjust="spacing" textLength="22.5322" x="619.6352" y="876.0819">) :</text><text fill="#000000" font-family="sans-serif" font-size="22.5322" font-style="italic" lengthAdjust="spacing" textLength="82.0815" x="648.6052" y="876.0819">Integer</text><ellipse cx="28.97" cy="892.662" fill="#84BE84" rx="4.8283" ry="4.8283" style="stroke:#038048;stroke-width:1.609442060085837;"/><text fill="#000000" font-family="sans-serif" font-size="22.5322" lengthAdjust="spacing" textLength="160.9442" x="43.4549" y="902.3107">IncAllBtnClick</text><text fill="#000000" font-family="sans-serif" font-size="22.5322" lengthAdjust="spacing" textLength="90.1288" x="300.9657" y="902.3107">(Sender</text><text fill="#000000" font-family="sans-serif" font-size="22.5322" lengthAdjust="spacing" textLength="8.0472" x="403.97" y="902.3107">:</text><text fill="#000000" font-family="sans-serif" font-size="22.5322" font-style="italic" lengthAdjust="spacing" textLength="106.2232" x="418.4549" y="902.3107">TObject *</text><text fill="#000000" font-family="sans-serif" font-size="22.5322" lengthAdjust="spacing" textLength="22.5322" x="524.6781" y="902.3107">) :</text><text fill="#000000" font-family="sans-serif" font-size="22.5322" font-style="italic" lengthAdjust="spacing" textLength="48.2833" x="553.6481" y="902.3107">void</text><ellipse cx="28.97" cy="918.8908" fill="#84BE84" rx="4.8283" ry="4.8283" style="stroke:#038048;stroke-width:1.609442060085837;"/><text fill="#000000" font-family="sans-serif" font-size="22.5322" lengthAdjust="spacing" textLength="180.2575" x="43.4549" y="928.5396">IncludeBtnClick</text><text fill="#000000" font-family="sans-serif" font-size="22.5322" lengthAdjust="spacing" textLength="90.1288" x="300.9657" y="928.5396">(Sender</text><text fill="#000000" font-family="sans-serif" font-size="22.5322" lengthAdjust="spacing" textLength="8.0472" x="403.97" y="928.5396">:</text><text fill="#000000" font-family="sans-serif" font-size="22.5322" font-style="italic" lengthAdjust="spacing" textLength="106.2232" x="418.4549" y="928.5396">TObject *</text><text fill="#000000" font-family="sans-serif" font-size="22.5322" lengthAdjust="spacing" textLength="22.5322" x="524.6781" y="928.5396">) :</text><text fill="#000000" font-family="sans-serif" font-size="22.5322" font-style="italic" lengthAdjust="spacing" textLength="48.2833" x="553.6481" y="928.5396">void</text><line style="stroke:#181818;stroke-width:1.609442060085837;stroke-dasharray:1.0,2.0;" x1="12.8755" x2="738.7339" y1="940.2914" y2="940.2914"/><ellipse cx="28.97" cy="957.9952" fill="#84BE84" rx="4.8283" ry="4.8283" style="stroke:#038048;stroke-width:1.609442060085837;"/><text fill="#000000" font-family="sans-serif" font-size="22.5322" lengthAdjust="spacing" textLength="164.1631" x="43.4549" y="967.644">MoveSelected</text><text fill="#000000" font-family="sans-serif" font-size="22.5322" lengthAdjust="spacing" textLength="8.0472" x="300.9657" y="967.644">(</text><text fill="#000000" font-family="sans-serif" font-size="22.5322" lengthAdjust="spacing" textLength="41.8455" x="146.4592" y="993.8729">List</text><text fill="#000000" font-family="sans-serif" font-size="22.5322" lengthAdjust="spacing" textLength="8.0472" x="249.4635" y="993.8729">:</text><text fill="#000000" font-family="sans-serif" font-size="22.5322" font-style="italic" lengthAdjust="spacing" textLength="201.1803" x="263.9485" y="993.8729">TCustomListBox *</text><text fill="#000000" font-family="sans-serif" font-size="22.5322" lengthAdjust="spacing" textLength="6.4378" x="465.1288" y="993.8729">,</text><text fill="#000000" font-family="sans-serif" font-size="22.5322" lengthAdjust="spacing" textLength="65.9871" x="146.4592" y="1020.1018">Items</text><text fill="#000000" font-family="sans-serif" font-size="22.5322" lengthAdjust="spacing" textLength="8.0472" x="249.4635" y="1020.1018">:</text><text fill="#000000" font-family="sans-serif" font-size="22.5322" font-style="italic" lengthAdjust="spacing" textLength="111.0515" x="263.9485" y="1020.1018">TStrings *</text><text fill="#000000" font-family="sans-serif" font-size="22.5322" lengthAdjust="spacing" textLength="22.5322" x="94.9571" y="1046.3307">) :</text><text fill="#000000" font-family="sans-serif" font-size="22.5322" font-style="italic" lengthAdjust="spacing" textLength="48.2833" x="123.927" y="1046.3307">void</text><line style="stroke:#181818;stroke-width:1.609442060085837;stroke-dasharray:1.0,2.0;" x1="12.8755" x2="738.7339" y1="1058.0824" y2="1058.0824"/><ellipse cx="28.97" cy="1075.7863" fill="#84BE84" rx="4.8283" ry="4.8283" style="stroke:#038048;stroke-width:1.609442060085837;"/><text fill="#000000" font-family="sans-serif" font-size="22.5322" lengthAdjust="spacing" textLength="131.9742" x="43.4549" y="1085.4351">OKBtnClick</text><text fill="#000000" font-family="sans-serif" font-size="22.5322" lengthAdjust="spacing" textLength="90.1288" x="300.9657" y="1085.4351">(Sender</text><text fill="#000000" font-family="sans-serif" font-size="22.5322" lengthAdjust="spacing" textLength="8.0472" x="403.97" y="1085.4351">:</text><text fill="#000000" font-family="sans-serif" font-size="22.5322" font-style="italic" lengthAdjust="spacing" textLength="106.2232" x="418.4549" y="1085.4351">TObject *</text><text fill="#000000" font-family="sans-serif" font-size="22.5322" lengthAdjust="spacing" textLength="22.5322" x="524.6781" y="1085.4351">) :</text><text fill="#000000" font-family="sans-serif" font-size="22.5322" font-style="italic" lengthAdjust="spacing" textLength="48.2833" x="553.6481" y="1085.4351">void</text><ellipse cx="28.97" cy="1102.0152" fill="#84BE84" rx="4.8283" ry="4.8283" style="stroke:#038048;stroke-width:1.609442060085837;"/><text fill="#000000" font-family="sans-serif" font-size="22.5322" lengthAdjust="spacing" textLength="131.9742" x="43.4549" y="1111.6639">SetButtons</text><text fill="#000000" font-family="sans-serif" font-size="22.5322" lengthAdjust="spacing" textLength="30.5794" x="300.9657" y="1111.6639">() :</text><text fill="#000000" font-family="sans-serif" font-size="22.5322" font-style="italic" lengthAdjust="spacing" textLength="48.2833" x="337.9828" y="1111.6639">void</text><line style="stroke:#181818;stroke-width:1.609442060085837;stroke-dasharray:1.0,2.0;" x1="12.8755" x2="738.7339" y1="1123.4157" y2="1123.4157"/><ellipse cx="28.97" cy="1141.1196" fill="#84BE84" rx="4.8283" ry="4.8283" style="stroke:#038048;stroke-width:1.609442060085837;"/><text fill="#000000" font-family="sans-serif" font-size="22.5322" lengthAdjust="spacing" textLength="94.9571" x="43.4549" y="1150.7684">SetItem</text><text fill="#000000" font-family="sans-serif" font-size="22.5322" lengthAdjust="spacing" textLength="8.0472" x="300.9657" y="1150.7684">(</text><text fill="#000000" font-family="sans-serif" font-size="22.5322" lengthAdjust="spacing" textLength="41.8455" x="146.4592" y="1176.9972">List</text><text fill="#000000" font-family="sans-serif" font-size="22.5322" lengthAdjust="spacing" textLength="8.0472" x="249.4635" y="1176.9972">:</text><text fill="#000000" font-family="sans-serif" font-size="22.5322" font-style="italic" lengthAdjust="spacing" textLength="114.2704" x="263.9485" y="1176.9972">TListBox *</text><text fill="#000000" font-family="sans-serif" font-size="22.5322" lengthAdjust="spacing" textLength="6.4378" x="378.2189" y="1176.9972">,</text><text fill="#000000" font-family="sans-serif" font-size="22.5322" lengthAdjust="spacing" textLength="62.7682" x="146.4592" y="1203.2261">Index</text><text fill="#000000" font-family="sans-serif" font-size="22.5322" lengthAdjust="spacing" textLength="8.0472" x="249.4635" y="1203.2261">:</text><text fill="#000000" font-family="sans-serif" font-size="22.5322" font-style="italic" lengthAdjust="spacing" textLength="28.97" x="263.9485" y="1203.2261">int</text><text fill="#000000" font-family="sans-serif" font-size="22.5322" lengthAdjust="spacing" textLength="22.5322" x="94.9571" y="1229.455">) :</text><text fill="#000000" font-family="sans-serif" font-size="22.5322" font-style="italic" lengthAdjust="spacing" textLength="48.2833" x="123.927" y="1229.455">void</text><line style="stroke:#181818;stroke-width:1.609442060085837;stroke-dasharray:1.0,2.0;" x1="12.8755" x2="738.7339" y1="1241.2067" y2="1241.2067"/><ellipse cx="28.97" cy="1258.9106" fill="#84BE84" rx="4.8283" ry="4.8283" style="stroke:#038048;stroke-width:1.609442060085837;"/><text fill="#000000" font-family="sans-serif" font-size="22.5322" lengthAdjust="spacing" textLength="175.4292" x="43.4549" y="1268.5594">SrcListDblClick</text><text fill="#000000" font-family="sans-serif" font-size="22.5322" lengthAdjust="spacing" textLength="90.1288" x="300.9657" y="1268.5594">(Sender</text><text fill="#000000" font-family="sans-serif" font-size="22.5322" lengthAdjust="spacing" textLength="8.0472" x="403.97" y="1268.5594">:</text><text fill="#000000" font-family="sans-serif" font-size="22.5322" font-style="italic" lengthAdjust="spacing" textLength="106.2232" x="418.4549" y="1268.5594">TObject *</text><text fill="#000000" font-family="sans-serif" font-size="22.5322" lengthAdjust="spacing" textLength="22.5322" x="524.6781" y="1268.5594">) :</text><text fill="#000000" font-family="sans-serif" font-size="22.5322" font-style="italic" lengthAdjust="spacing" textLength="48.2833" x="553.6481" y="1268.5594">void</text></g><!--MD5=[dd0bf217da5c5e97452bc452f42aff32]
class <b>TForm</b>--><g id="elem_&lt;b&gt;TForm&lt;/b&gt;"><rect fill="#F1F1F1" height="51.5021" id="&lt;b&gt;TForm&lt;/b&gt;" rx="4.0236" ry="4.0236" style="stroke:#181818;stroke-width:0.8047210300429185;" width="135.1931" x="308.2082" y="138.8898"/><ellipse cx="332.3498" cy="164.6409" fill="#ADD1B2" rx="17.7039" ry="17.7039" style="stroke:#181818;stroke-width:1.609442060085837;"/><path d="M336.1219,157.675 C334.6131,156.9709 333.6575,156.7446 332.2492,156.7446 C328.0244,156.7446 324.8055,160.0892 324.8055,164.4649 L324.8055,166.2755 C324.8055,170.4248 328.2004,173.4677 332.8527,173.4677 C334.8142,173.4677 336.6752,172.9899 337.8822,172.1097 C338.8127,171.4559 339.3408,170.7266 339.3408,170.0979 C339.3408,169.3686 338.7121,168.7399 337.9577,168.7399 C337.6056,168.7399 337.2787,168.8657 336.9769,169.1674 C336.2477,169.947 336.2477,169.947 335.9459,170.0979 C335.2669,170.5254 334.1604,170.7266 332.9282,170.7266 C329.6339,170.7266 327.5466,168.9663 327.5466,166.2252 L327.5466,164.4649 C327.5466,161.598 329.5584,159.4856 332.3498,159.4856 C333.2802,159.4856 334.261,159.7371 335.0154,160.1395 C335.795,160.5921 336.0716,160.9442 336.2225,161.598 C336.3231,162.2519 336.3734,162.4531 336.5997,162.6542 C336.826,162.8806 337.2033,163.0566 337.5553,163.0566 C337.9828,163.0566 338.4103,162.8303 338.687,162.4782 C338.863,162.2267 338.9133,161.925 338.9133,161.246 L338.9133,158.9576 C338.9133,158.2534 338.8881,158.0522 338.7373,157.8008 C338.4858,157.3733 338.0331,157.1469 337.5553,157.1469 C337.0775,157.1469 336.7506,157.2978 336.3985,157.8008 L336.1219,157.675 Z " fill="#000000"/><text fill="#000000" font-family="sans-serif" font-size="22.5322" font-weight="bold" lengthAdjust="spacing" textLength="83.691" x="354.882" y="172.4413">TForm</text></g><!--MD5=[2d2af3a94c81a6c7580d2e256780cb25]
reverse link <b>TForm</b> to <b>TDualListDlg</b>--><g id="link_&lt;b&gt;TForm&lt;/b&gt;_&lt;b&gt;TDualListDlg&lt;/b&gt;"><path codeLine="5" d="M375.8047,223.1232 C375.8047,244.3372 375.8047,270.4746 375.8047,299.7713 " fill="none" id="&lt;b&gt;TForm&lt;/b&gt;-backto-&lt;b&gt;TDualListDlg&lt;/b&gt;" style="stroke:#181818;stroke-width:1.609442060085837;"/><polygon fill="none" points="364.5386,222.8238,375.8047,190.635,387.0708,222.8238,364.5386,222.8238" style="stroke:#181818;stroke-width:1.609442060085837;"/></g><!--MD5=[06200acf0719aed16034c7a0ef7b4be5]
@startuml
title Исходный файл: "DUALLIST.cpp"

scale 750 width

"<b>TDualListDlg</b>" -up-|> "<b>TForm</b>"

hide "<b>TForm</b>" members

class "<b>TDualListDlg</b>"
{
    + CancelBtn \t: <i>TButton *</i>
    + HelpBtn \t\t: <i>TButton *</i>
    + OKBtn \t\t: <i>TButton *</i>
    ..
    + DstLabel \t: <i>TLabel *</i>
    + SrcLabel \t: <i>TLabel *</i>
    ..
    + DstList \t\t: <i>TListBox *</i>
    + SrcList \t\t: <i>TListBox *</i>
    ..
    + ExAllBtn \t: <i>TSpeedButton *</i>
    + ExcludeBtn \t: <i>TSpeedButton *</i>
    + IncAllBtn \t: <i>TSpeedButton *</i>
    + IncludeBtn \t: <i>TSpeedButton *</i>
    - -
    
    + <b>TDualListDlg (Owner \t: <i>TComponent *</i>)</b>

    + DstListDblClick \t\t(Sender \t: <i>TObject *</i>) : <i>void</i>
    + ExAllBtnClick \t\t(Sender \t: <i>TObject *</i>) : <i>void</i>
    + ExcludeBtnClick \t\t(Sender \t: <i>TObject *</i>) : <i>void</i>
    + GetFirstSelection \t(List \t: <i>TCustomListBox *</i>) : <i>Integer</i>
    + IncAllBtnClick \t\t(Sender \t: <i>TObject *</i>) : <i>void</i>
    + IncludeBtnClick \t\t(Sender \t: <i>TObject *</i>) : <i>void</i>
    ..
    + MoveSelected \t\t(
            \t\tList \t\t: <i>TCustomListBox *</i>,
            \t\tItems \t: <i>TStrings *</i>
        \t) : <i>void</i>
    ..
    + OKBtnClick \t\t\t(Sender \t: <i>TObject *</i>) : <i>void</i>
    + SetButtons \t\t\t() : <i>void</i>
    ..
    + SetItem \t\t\t\t(
            \t\tList \t\t: <i>TListBox *</i>,
            \t\tIndex \t: <i>int</i>
        \t) : <i>void</i>
    ..
    + SrcListDblClick \t\t(Sender \t: <i>TObject *</i>) : <i>void</i>
}


package TDualListDlg <<Folder>>
{
    class TDualListDlg
    hide  members
}
@enduml

PlantUML version 1.2022.5(Sat Apr 30 10:55:52 UTC 2022)
(GPL source distribution)
Java Runtime: Java(TM) SE Runtime Environment
JVM: Java HotSpot(TM) 64-Bit Server VM
Default Encoding: UTF-8
Language: en
Country: US
--></g></svg>