<?xml version="1.0" encoding="UTF-8" standalone="no"?><svg xmlns="http://www.w3.org/2000/svg" xmlns:xlink="http://www.w3.org/1999/xlink" contentStyleType="text/css" height="844.1189px" preserveAspectRatio="none" style="width:750px;height:844px;background:#FFFFFF;" version="1.1" viewBox="0 0 750 844" width="750.3279px" zoomAndPan="magnify"><defs/><g><rect height="17.2476" style="stroke:#00000000;stroke-width:0.6558810668998688;fill:none;" width="211.1937" x="265.1399" y="3.2794"/><text fill="#000000" font-family="sans-serif" font-size="9.1823" font-weight="bold" lengthAdjust="spacing" textLength="204.6349" x="268.4193" y="15.0821">Исходный файл: "Undo_Ab_1Unit.cpp"</text><!--MD5=[4d1e42a44afacb649cbeb7ebd8b701b8]
cluster TUndo_Ab_1Form--><g id="cluster_TUndo_Ab_1Form"><path d="M510.2755,28.3976 L601.4429,28.3976 A2.4596,2.4596 0 0 1 603.0826,30.0373 L607.6738,43.0217 L631.6135,43.0217 A1.6397,1.6397 0 0 1 633.2532,44.6614 L633.2532,91.6901 A1.6397,1.6397 0 0 1 631.6135,93.3298 L510.2755,93.3298 A1.6397,1.6397 0 0 1 508.6358,91.6901 L508.6358,30.0373 A1.6397,1.6397 0 0 1 510.2755,28.3976 " style="stroke:#000000;stroke-width:0.9838216003498033;fill:none;"/><line style="stroke:#000000;stroke-width:0.9838216003498033;fill:none;" x1="508.6358" x2="607.6738" y1="43.0217" y2="43.0217"/><text fill="#000000" font-family="sans-serif" font-size="9.1823" font-weight="bold" lengthAdjust="spacing" textLength="90.5116" x="511.2593" y="38.2326">TUndo_Ab_1Form</text></g><!--MD5=[d9a9d6acbc2a53dd312e488ec74a3024]
class TUndo_Ab_1Form--><g id="elem_TUndo_Ab_1Form"><rect codeLine="73" fill="#F1F1F1" height="31.4823" id="TUndo_Ab_1Form" rx="1.6397" ry="1.6397" style="stroke:#181818;stroke-width:0.3279405334499344;" width="102.9733" x="519.4578" y="51.3534"/><ellipse cx="529.296" cy="61.8475" fill="#ADD1B2" rx="7.2147" ry="7.2147" style="stroke:#181818;stroke-width:0.6558810668998688;"/><path d="M530.8332,59.0088 C530.2184,58.7219 529.8289,58.6296 529.255,58.6296 C527.5333,58.6296 526.2216,59.9926 526.2216,61.7758 L526.2216,62.5137 C526.2216,64.2046 527.6051,65.4446 529.501,65.4446 C530.3003,65.4446 531.0587,65.2499 531.5506,64.8912 C531.9298,64.6248 532.145,64.3276 532.145,64.0714 C532.145,63.7742 531.8888,63.518 531.5814,63.518 C531.4379,63.518 531.3047,63.5692 531.1817,63.6922 C530.8845,64.0099 530.8845,64.0099 530.7615,64.0714 C530.4848,64.2456 530.0339,64.3276 529.5317,64.3276 C528.1892,64.3276 527.3386,63.6102 527.3386,62.4932 L527.3386,61.7758 C527.3386,60.6075 528.1585,59.7467 529.296,59.7467 C529.6752,59.7467 530.0749,59.8491 530.3823,60.0131 C530.7,60.1976 530.8127,60.3411 530.8742,60.6075 C530.9152,60.874 530.9357,60.9559 531.028,61.0379 C531.1202,61.1302 531.2739,61.2019 531.4174,61.2019 C531.5916,61.2019 531.7658,61.1097 531.8786,60.9662 C531.9503,60.8637 531.9708,60.7407 531.9708,60.464 L531.9708,59.5315 C531.9708,59.2445 531.9605,59.1625 531.899,59.06 C531.7966,58.8858 531.6121,58.7936 531.4174,58.7936 C531.2227,58.7936 531.0894,58.8551 530.946,59.06 L530.8332,59.0088 Z " fill="#000000"/><text fill="#000000" font-family="sans-serif" font-size="9.1823" lengthAdjust="spacing" textLength="81.9851" x="538.4784" y="65.0264">TUndo_Ab_1Form</text><line style="stroke:#181818;stroke-width:0.3279405334499344;" x1="520.1137" x2="621.7753" y1="72.3416" y2="72.3416"/><line style="stroke:#181818;stroke-width:0.3279405334499344;" x1="520.1137" x2="621.7753" y1="77.5887" y2="77.5887"/></g><!--MD5=[90d33c4324ff6ddb5bd7ab5b816a8cc5]
class <b>TUndo_Ab_1Form</b>--><g id="elem_&lt;b&gt;TUndo_Ab_1Form&lt;/b&gt;"><rect codeLine="9" fill="#F1F1F1" height="511.7" id="&lt;b&gt;TUndo_Ab_1Form&lt;/b&gt;" rx="1.6397" ry="1.6397" style="stroke:#181818;stroke-width:0.3279405334499344;" width="311.5435" x="4.5912" y="124.1562"/><ellipse cx="112.3196" cy="134.6503" fill="#ADD1B2" rx="7.2147" ry="7.2147" style="stroke:#181818;stroke-width:0.6558810668998688;"/><path d="M113.8569,131.8116 C113.242,131.5247 112.8525,131.4324 112.2786,131.4324 C110.557,131.4324 109.2452,132.7954 109.2452,134.5786 L109.2452,135.3165 C109.2452,137.0074 110.6287,138.2474 112.5246,138.2474 C113.324,138.2474 114.0823,138.0527 114.5742,137.694 C114.9534,137.4276 115.1686,137.1304 115.1686,136.8742 C115.1686,136.577 114.9124,136.3208 114.605,136.3208 C114.4615,136.3208 114.3283,136.372 114.2053,136.495 C113.9081,136.8127 113.9081,136.8127 113.7851,136.8742 C113.5084,137.0484 113.0575,137.1304 112.5553,137.1304 C111.2128,137.1304 110.3622,136.413 110.3622,135.296 L110.3622,134.5786 C110.3622,133.4103 111.1821,132.5495 112.3196,132.5495 C112.6988,132.5495 113.0985,132.6519 113.4059,132.8159 C113.7236,133.0004 113.8364,133.1439 113.8978,133.4103 C113.9388,133.6768 113.9593,133.7587 114.0516,133.8407 C114.1438,133.933 114.2975,134.0047 114.441,134.0047 C114.6152,134.0047 114.7894,133.9125 114.9022,133.769 C114.9739,133.6665 114.9944,133.5435 114.9944,133.2668 L114.9944,132.3343 C114.9944,132.0473 114.9841,131.9653 114.9227,131.8628 C114.8202,131.6886 114.6357,131.5964 114.441,131.5964 C114.2463,131.5964 114.1131,131.6579 113.9696,131.8628 L113.8569,131.8116 Z " fill="#000000"/><text fill="#000000" font-family="sans-serif" font-size="9.1823" font-weight="bold" lengthAdjust="spacing" textLength="90.5116" x="125.7652" y="137.8292">TUndo_Ab_1Form</text><line style="stroke:#181818;stroke-width:0.3279405334499344;" x1="5.247" x2="315.4788" y1="145.1444" y2="145.1444"/><ellipse cx="11.8059" cy="152.3591" fill="none" rx="1.9676" ry="1.9676" style="stroke:#038048;stroke-width:0.6558810668998688;"/><text fill="#000000" font-family="sans-serif" font-size="9.1823" lengthAdjust="spacing" textLength="36.7293" x="17.7088" y="156.2912">BitBtn1</text><text fill="#000000" font-family="sans-serif" font-size="9.1823" lengthAdjust="spacing" textLength="3.2794" x="143.638" y="156.2912">:</text><text fill="#000000" font-family="sans-serif" font-size="9.1823" font-style="italic" lengthAdjust="spacing" textLength="41.3205" x="149.5409" y="156.2912">TBitBtn *</text><ellipse cx="11.8059" cy="163.0479" fill="none" rx="1.9676" ry="1.9676" style="stroke:#038048;stroke-width:0.6558810668998688;"/><text fill="#000000" font-family="sans-serif" font-size="9.1823" lengthAdjust="spacing" textLength="36.0735" x="17.7088" y="166.98">BitBtn2</text><text fill="#000000" font-family="sans-serif" font-size="9.1823" lengthAdjust="spacing" textLength="3.2794" x="143.638" y="166.98">:</text><text fill="#000000" font-family="sans-serif" font-size="9.1823" font-style="italic" lengthAdjust="spacing" textLength="41.3205" x="149.5409" y="166.98">TBitBtn *</text><line style="stroke:#181818;stroke-width:0.6558810668998688;stroke-dasharray:1.0,2.0;" x1="5.247" x2="315.4788" y1="171.7691" y2="171.7691"/><ellipse cx="11.8059" cy="178.9838" fill="none" rx="1.9676" ry="1.9676" style="stroke:#038048;stroke-width:0.6558810668998688;"/><text fill="#000000" font-family="sans-serif" font-size="9.1823" lengthAdjust="spacing" textLength="90.5116" x="17.7088" y="182.9159">CategoryAbCmbBx</text><text fill="#000000" font-family="sans-serif" font-size="9.1823" lengthAdjust="spacing" textLength="3.2794" x="143.638" y="182.9159">:</text><text fill="#000000" font-family="sans-serif" font-size="9.1823" font-style="italic" lengthAdjust="spacing" textLength="64.2763" x="149.5409" y="182.9159">TComboBox *</text><ellipse cx="11.8059" cy="189.6726" fill="none" rx="1.9676" ry="1.9676" style="stroke:#038048;stroke-width:0.6558810668998688;"/><text fill="#000000" font-family="sans-serif" font-size="9.1823" lengthAdjust="spacing" textLength="57.7175" x="17.7088" y="193.6047">ComboBox1</text><text fill="#000000" font-family="sans-serif" font-size="9.1823" lengthAdjust="spacing" textLength="3.2794" x="143.638" y="193.6047">:</text><text fill="#000000" font-family="sans-serif" font-size="9.1823" font-style="italic" lengthAdjust="spacing" textLength="64.2763" x="149.5409" y="193.6047">TComboBox *</text><ellipse cx="11.8059" cy="200.3614" fill="none" rx="1.9676" ry="1.9676" style="stroke:#038048;stroke-width:0.6558810668998688;"/><text fill="#000000" font-family="sans-serif" font-size="9.1823" lengthAdjust="spacing" textLength="57.0617" x="17.7088" y="204.2935">ComboBox2</text><text fill="#000000" font-family="sans-serif" font-size="9.1823" lengthAdjust="spacing" textLength="3.2794" x="143.638" y="204.2935">:</text><text fill="#000000" font-family="sans-serif" font-size="9.1823" font-style="italic" lengthAdjust="spacing" textLength="64.2763" x="149.5409" y="204.2935">TComboBox *</text><ellipse cx="11.8059" cy="211.0502" fill="none" rx="1.9676" ry="1.9676" style="stroke:#038048;stroke-width:0.6558810668998688;"/><text fill="#000000" font-family="sans-serif" font-size="9.1823" lengthAdjust="spacing" textLength="72.1469" x="17.7088" y="214.9823">KonkursCmbBx</text><text fill="#000000" font-family="sans-serif" font-size="9.1823" lengthAdjust="spacing" textLength="3.2794" x="143.638" y="214.9823">:</text><text fill="#000000" font-family="sans-serif" font-size="9.1823" font-style="italic" lengthAdjust="spacing" textLength="64.2763" x="149.5409" y="214.9823">TComboBox *</text><ellipse cx="11.8059" cy="221.739" fill="none" rx="1.9676" ry="1.9676" style="stroke:#038048;stroke-width:0.6558810668998688;"/><text fill="#000000" font-family="sans-serif" font-size="9.1823" lengthAdjust="spacing" textLength="57.7175" x="17.7088" y="225.6711">PriceCmbBx</text><text fill="#000000" font-family="sans-serif" font-size="9.1823" lengthAdjust="spacing" textLength="3.2794" x="143.638" y="225.6711">:</text><text fill="#000000" font-family="sans-serif" font-size="9.1823" font-style="italic" lengthAdjust="spacing" textLength="64.2763" x="149.5409" y="225.6711">TComboBox *</text><ellipse cx="11.8059" cy="232.4279" fill="none" rx="1.9676" ry="1.9676" style="stroke:#038048;stroke-width:0.6558810668998688;"/><text fill="#000000" font-family="sans-serif" font-size="9.1823" lengthAdjust="spacing" textLength="66.8999" x="17.7088" y="236.3599">SngFrgCmbBx</text><text fill="#000000" font-family="sans-serif" font-size="9.1823" lengthAdjust="spacing" textLength="3.2794" x="143.638" y="236.3599">:</text><text fill="#000000" font-family="sans-serif" font-size="9.1823" font-style="italic" lengthAdjust="spacing" textLength="64.2763" x="149.5409" y="236.3599">TComboBox *</text><line style="stroke:#181818;stroke-width:0.6558810668998688;stroke-dasharray:1.0,2.0;" x1="5.247" x2="315.4788" y1="241.149" y2="241.149"/><ellipse cx="11.8059" cy="248.3637" fill="none" rx="1.9676" ry="1.9676" style="stroke:#038048;stroke-width:0.6558810668998688;"/><text fill="#000000" font-family="sans-serif" font-size="9.1823" lengthAdjust="spacing" textLength="106.2527" x="17.7088" y="252.2958">DBLookupComboBox1</text><text fill="#000000" font-family="sans-serif" font-size="9.1823" lengthAdjust="spacing" textLength="3.2794" x="143.638" y="252.2958">:</text><text fill="#000000" font-family="sans-serif" font-size="9.1823" font-style="italic" lengthAdjust="spacing" textLength="112.1557" x="149.5409" y="252.2958">TDBLookupComboBox *</text><ellipse cx="11.8059" cy="259.0525" fill="none" rx="1.9676" ry="1.9676" style="stroke:#038048;stroke-width:0.6558810668998688;"/><text fill="#000000" font-family="sans-serif" font-size="9.1823" lengthAdjust="spacing" textLength="105.5969" x="17.7088" y="262.9846">DBLookupComboBox2</text><text fill="#000000" font-family="sans-serif" font-size="9.1823" lengthAdjust="spacing" textLength="3.2794" x="143.638" y="262.9846">:</text><text fill="#000000" font-family="sans-serif" font-size="9.1823" font-style="italic" lengthAdjust="spacing" textLength="112.1557" x="149.5409" y="262.9846">TDBLookupComboBox *</text><ellipse cx="11.8059" cy="269.7413" fill="none" rx="1.9676" ry="1.9676" style="stroke:#038048;stroke-width:0.6558810668998688;"/><text fill="#000000" font-family="sans-serif" font-size="9.1823" lengthAdjust="spacing" textLength="106.2527" x="17.7088" y="273.6734">DBLookupComboBox3</text><text fill="#000000" font-family="sans-serif" font-size="9.1823" lengthAdjust="spacing" textLength="3.2794" x="143.638" y="273.6734">:</text><text fill="#000000" font-family="sans-serif" font-size="9.1823" font-style="italic" lengthAdjust="spacing" textLength="112.1557" x="149.5409" y="273.6734">TDBLookupComboBox *</text><ellipse cx="11.8059" cy="280.4301" fill="none" rx="1.9676" ry="1.9676" style="stroke:#038048;stroke-width:0.6558810668998688;"/><text fill="#000000" font-family="sans-serif" font-size="9.1823" lengthAdjust="spacing" textLength="105.5969" x="17.7088" y="284.3622">DBLookupComboBox4</text><text fill="#000000" font-family="sans-serif" font-size="9.1823" lengthAdjust="spacing" textLength="3.2794" x="143.638" y="284.3622">:</text><text fill="#000000" font-family="sans-serif" font-size="9.1823" font-style="italic" lengthAdjust="spacing" textLength="112.1557" x="149.5409" y="284.3622">TDBLookupComboBox *</text><line style="stroke:#181818;stroke-width:0.6558810668998688;stroke-dasharray:1.0,2.0;" x1="5.247" x2="315.4788" y1="289.1513" y2="289.1513"/><ellipse cx="11.8059" cy="296.366" fill="none" rx="1.9676" ry="1.9676" style="stroke:#038048;stroke-width:0.6558810668998688;"/><text fill="#000000" font-family="sans-serif" font-size="9.1823" lengthAdjust="spacing" textLength="41.3205" x="17.7088" y="300.2981">DBText1</text><text fill="#000000" font-family="sans-serif" font-size="9.1823" lengthAdjust="spacing" textLength="3.2794" x="143.638" y="300.2981">:</text><text fill="#000000" font-family="sans-serif" font-size="9.1823" font-style="italic" lengthAdjust="spacing" textLength="47.2234" x="149.5409" y="300.2981">TDBText *</text><ellipse cx="11.8059" cy="307.0548" fill="none" rx="1.9676" ry="1.9676" style="stroke:#038048;stroke-width:0.6558810668998688;"/><text fill="#000000" font-family="sans-serif" font-size="9.1823" lengthAdjust="spacing" textLength="40.6646" x="17.7088" y="310.9869">DBText2</text><text fill="#000000" font-family="sans-serif" font-size="9.1823" lengthAdjust="spacing" textLength="3.2794" x="143.638" y="310.9869">:</text><text fill="#000000" font-family="sans-serif" font-size="9.1823" font-style="italic" lengthAdjust="spacing" textLength="47.2234" x="149.5409" y="310.9869">TDBText *</text><ellipse cx="11.8059" cy="317.7436" fill="none" rx="1.9676" ry="1.9676" style="stroke:#038048;stroke-width:0.6558810668998688;"/><text fill="#000000" font-family="sans-serif" font-size="9.1823" lengthAdjust="spacing" textLength="41.3205" x="17.7088" y="321.6757">DBText3</text><text fill="#000000" font-family="sans-serif" font-size="9.1823" lengthAdjust="spacing" textLength="3.2794" x="143.638" y="321.6757">:</text><text fill="#000000" font-family="sans-serif" font-size="9.1823" font-style="italic" lengthAdjust="spacing" textLength="47.2234" x="149.5409" y="321.6757">TDBText *</text><line style="stroke:#181818;stroke-width:0.6558810668998688;stroke-dasharray:1.0,2.0;" x1="5.247" x2="315.4788" y1="326.4648" y2="326.4648"/><ellipse cx="11.8059" cy="333.6795" fill="none" rx="1.9676" ry="1.9676" style="stroke:#038048;stroke-width:0.6558810668998688;"/><text fill="#000000" font-family="sans-serif" font-size="9.1823" lengthAdjust="spacing" textLength="24.2676" x="17.7088" y="337.6116">Edit2</text><text fill="#000000" font-family="sans-serif" font-size="9.1823" lengthAdjust="spacing" textLength="3.2794" x="143.638" y="337.6116">:</text><text fill="#000000" font-family="sans-serif" font-size="9.1823" font-style="italic" lengthAdjust="spacing" textLength="30.8264" x="149.5409" y="337.6116">TEdit *</text><line style="stroke:#181818;stroke-width:0.6558810668998688;stroke-dasharray:1.0,2.0;" x1="5.247" x2="315.4788" y1="342.4007" y2="342.4007"/><ellipse cx="11.8059" cy="349.6154" fill="none" rx="1.9676" ry="1.9676" style="stroke:#038048;stroke-width:0.6558810668998688;"/><text fill="#000000" font-family="sans-serif" font-size="9.1823" lengthAdjust="spacing" textLength="31.4823" x="17.7088" y="353.5474">Label1</text><text fill="#000000" font-family="sans-serif" font-size="9.1823" lengthAdjust="spacing" textLength="3.2794" x="143.638" y="353.5474">:</text><text fill="#000000" font-family="sans-serif" font-size="9.1823" font-style="italic" lengthAdjust="spacing" textLength="38.697" x="149.5409" y="353.5474">TLabel *</text><ellipse cx="11.8059" cy="360.3042" fill="none" rx="1.9676" ry="1.9676" style="stroke:#038048;stroke-width:0.6558810668998688;"/><text fill="#000000" font-family="sans-serif" font-size="9.1823" lengthAdjust="spacing" textLength="30.8264" x="17.7088" y="364.2362">Label2</text><text fill="#000000" font-family="sans-serif" font-size="9.1823" lengthAdjust="spacing" textLength="3.2794" x="143.638" y="364.2362">:</text><text fill="#000000" font-family="sans-serif" font-size="9.1823" font-style="italic" lengthAdjust="spacing" textLength="38.697" x="149.5409" y="364.2362">TLabel *</text><ellipse cx="11.8059" cy="370.993" fill="none" rx="1.9676" ry="1.9676" style="stroke:#038048;stroke-width:0.6558810668998688;"/><text fill="#000000" font-family="sans-serif" font-size="9.1823" lengthAdjust="spacing" textLength="31.4823" x="17.7088" y="374.9251">Label3</text><text fill="#000000" font-family="sans-serif" font-size="9.1823" lengthAdjust="spacing" textLength="3.2794" x="143.638" y="374.9251">:</text><text fill="#000000" font-family="sans-serif" font-size="9.1823" font-style="italic" lengthAdjust="spacing" textLength="38.697" x="149.5409" y="374.9251">TLabel *</text><ellipse cx="11.8059" cy="381.6818" fill="none" rx="1.9676" ry="1.9676" style="stroke:#038048;stroke-width:0.6558810668998688;"/><text fill="#000000" font-family="sans-serif" font-size="9.1823" lengthAdjust="spacing" textLength="30.8264" x="17.7088" y="385.6139">Label4</text><text fill="#000000" font-family="sans-serif" font-size="9.1823" lengthAdjust="spacing" textLength="3.2794" x="143.638" y="385.6139">:</text><text fill="#000000" font-family="sans-serif" font-size="9.1823" font-style="italic" lengthAdjust="spacing" textLength="38.697" x="149.5409" y="385.6139">TLabel *</text><ellipse cx="11.8059" cy="392.3706" fill="none" rx="1.9676" ry="1.9676" style="stroke:#038048;stroke-width:0.6558810668998688;"/><text fill="#000000" font-family="sans-serif" font-size="9.1823" lengthAdjust="spacing" textLength="31.4823" x="17.7088" y="396.3027">Label5</text><text fill="#000000" font-family="sans-serif" font-size="9.1823" lengthAdjust="spacing" textLength="3.2794" x="143.638" y="396.3027">:</text><text fill="#000000" font-family="sans-serif" font-size="9.1823" font-style="italic" lengthAdjust="spacing" textLength="38.697" x="149.5409" y="396.3027">TLabel *</text><ellipse cx="11.8059" cy="403.0594" fill="none" rx="1.9676" ry="1.9676" style="stroke:#038048;stroke-width:0.6558810668998688;"/><text fill="#000000" font-family="sans-serif" font-size="9.1823" lengthAdjust="spacing" textLength="31.4823" x="17.7088" y="406.9915">Label6</text><text fill="#000000" font-family="sans-serif" font-size="9.1823" lengthAdjust="spacing" textLength="3.2794" x="143.638" y="406.9915">:</text><text fill="#000000" font-family="sans-serif" font-size="9.1823" font-style="italic" lengthAdjust="spacing" textLength="38.697" x="149.5409" y="406.9915">TLabel *</text><ellipse cx="11.8059" cy="413.7482" fill="none" rx="1.9676" ry="1.9676" style="stroke:#038048;stroke-width:0.6558810668998688;"/><text fill="#000000" font-family="sans-serif" font-size="9.1823" lengthAdjust="spacing" textLength="31.4823" x="17.7088" y="417.6803">Label7</text><text fill="#000000" font-family="sans-serif" font-size="9.1823" lengthAdjust="spacing" textLength="3.2794" x="143.638" y="417.6803">:</text><text fill="#000000" font-family="sans-serif" font-size="9.1823" font-style="italic" lengthAdjust="spacing" textLength="38.697" x="149.5409" y="417.6803">TLabel *</text><ellipse cx="11.8059" cy="424.437" fill="none" rx="1.9676" ry="1.9676" style="stroke:#038048;stroke-width:0.6558810668998688;"/><text fill="#000000" font-family="sans-serif" font-size="9.1823" lengthAdjust="spacing" textLength="30.8264" x="17.7088" y="428.3691">Label8</text><text fill="#000000" font-family="sans-serif" font-size="9.1823" lengthAdjust="spacing" textLength="3.2794" x="143.638" y="428.3691">:</text><text fill="#000000" font-family="sans-serif" font-size="9.1823" font-style="italic" lengthAdjust="spacing" textLength="38.697" x="149.5409" y="428.3691">TLabel *</text><ellipse cx="11.8059" cy="435.1258" fill="none" rx="1.9676" ry="1.9676" style="stroke:#038048;stroke-width:0.6558810668998688;"/><text fill="#000000" font-family="sans-serif" font-size="9.1823" lengthAdjust="spacing" textLength="36.7293" x="17.7088" y="439.0579">Label29</text><text fill="#000000" font-family="sans-serif" font-size="9.1823" lengthAdjust="spacing" textLength="3.2794" x="143.638" y="439.0579">:</text><text fill="#000000" font-family="sans-serif" font-size="9.1823" font-style="italic" lengthAdjust="spacing" textLength="38.697" x="149.5409" y="439.0579">TLabel *</text><line style="stroke:#181818;stroke-width:0.6558810668998688;stroke-dasharray:1.0,2.0;" x1="5.247" x2="315.4788" y1="443.847" y2="443.847"/><ellipse cx="11.8059" cy="451.0617" fill="none" rx="1.9676" ry="1.9676" style="stroke:#038048;stroke-width:0.6558810668998688;"/><text fill="#000000" font-family="sans-serif" font-size="9.1823" lengthAdjust="spacing" textLength="31.4823" x="17.7088" y="454.9938">Panel1</text><text fill="#000000" font-family="sans-serif" font-size="9.1823" lengthAdjust="spacing" textLength="3.2794" x="143.638" y="454.9938">:</text><text fill="#000000" font-family="sans-serif" font-size="9.1823" font-style="italic" lengthAdjust="spacing" textLength="38.697" x="149.5409" y="454.9938">TPanel *</text><ellipse cx="11.8059" cy="461.7505" fill="none" rx="1.9676" ry="1.9676" style="stroke:#038048;stroke-width:0.6558810668998688;"/><text fill="#000000" font-family="sans-serif" font-size="9.1823" lengthAdjust="spacing" textLength="30.8264" x="17.7088" y="465.6826">Panel2</text><text fill="#000000" font-family="sans-serif" font-size="9.1823" lengthAdjust="spacing" textLength="3.2794" x="143.638" y="465.6826">:</text><text fill="#000000" font-family="sans-serif" font-size="9.1823" font-style="italic" lengthAdjust="spacing" textLength="38.697" x="149.5409" y="465.6826">TPanel *</text><line style="stroke:#181818;stroke-width:0.6558810668998688;" x1="5.247" x2="315.4788" y1="470.4717" y2="470.4717"/><text fill="#000000" font-family="sans-serif" font-size="9.1823" lengthAdjust="spacing" textLength="2.6235" x="17.7088" y="481.6185"> </text><ellipse cx="11.8059" cy="488.3752" fill="#84BE84" rx="1.9676" ry="1.9676" style="stroke:#038048;stroke-width:0.6558810668998688;"/><text fill="#000000" font-family="sans-serif" font-size="9.1823" font-weight="bold" lengthAdjust="spacing" textLength="90.5116" x="17.7088" y="492.3073">TUndo_Ab_1Form</text><text fill="#000000" font-family="sans-serif" font-size="9.1823" font-weight="bold" lengthAdjust="spacing" textLength="37.3852" x="122.6498" y="492.3073">(Owner</text><text fill="#000000" font-family="sans-serif" font-size="9.1823" font-weight="bold" lengthAdjust="spacing" textLength="3.9353" x="175.1202" y="492.3073">:</text><text fill="#000000" font-family="sans-serif" font-size="9.1823" font-style="italic" font-weight="bold" lengthAdjust="spacing" textLength="74.7704" x="182.3349" y="492.3073">TComponent *</text><text fill="#000000" font-family="sans-serif" font-size="9.1823" font-weight="bold" lengthAdjust="spacing" textLength="4.5912" x="257.1054" y="492.3073">)</text><text fill="#000000" font-family="sans-serif" font-size="9.1823" lengthAdjust="spacing" textLength="2.6235" x="17.7088" y="502.9961"> </text><ellipse cx="11.8059" cy="509.7528" fill="#84BE84" rx="1.9676" ry="1.9676" style="stroke:#038048;stroke-width:0.6558810668998688;"/><text fill="#000000" font-family="sans-serif" font-size="9.1823" lengthAdjust="spacing" textLength="59.6852" x="17.7088" y="513.6849">BitBtn1Click</text><text fill="#000000" font-family="sans-serif" font-size="9.1823" lengthAdjust="spacing" textLength="36.7293" x="185.6143" y="513.6849">(Sender</text><text fill="#000000" font-family="sans-serif" font-size="9.1823" lengthAdjust="spacing" textLength="3.2794" x="227.5907" y="513.6849">:</text><text fill="#000000" font-family="sans-serif" font-size="9.1823" font-style="italic" lengthAdjust="spacing" textLength="43.2882" x="233.4937" y="513.6849">TObject *</text><text fill="#000000" font-family="sans-serif" font-size="9.1823" lengthAdjust="spacing" textLength="9.1823" x="276.7818" y="513.6849">) :</text><text fill="#000000" font-family="sans-serif" font-size="9.1823" font-style="italic" lengthAdjust="spacing" textLength="19.6764" x="288.5877" y="513.6849">void</text><ellipse cx="11.8059" cy="520.4416" fill="#84BE84" rx="1.9676" ry="1.9676" style="stroke:#038048;stroke-width:0.6558810668998688;"/><text fill="#000000" font-family="sans-serif" font-size="9.1823" lengthAdjust="spacing" textLength="59.0293" x="17.7088" y="524.3737">BitBtn2Click</text><text fill="#000000" font-family="sans-serif" font-size="9.1823" lengthAdjust="spacing" textLength="36.7293" x="185.6143" y="524.3737">(Sender</text><text fill="#000000" font-family="sans-serif" font-size="9.1823" lengthAdjust="spacing" textLength="3.2794" x="227.5907" y="524.3737">:</text><text fill="#000000" font-family="sans-serif" font-size="9.1823" font-style="italic" lengthAdjust="spacing" textLength="43.2882" x="233.4937" y="524.3737">TObject *</text><text fill="#000000" font-family="sans-serif" font-size="9.1823" lengthAdjust="spacing" textLength="9.1823" x="276.7818" y="524.3737">) :</text><text fill="#000000" font-family="sans-serif" font-size="9.1823" font-style="italic" lengthAdjust="spacing" textLength="19.6764" x="288.5877" y="524.3737">void</text><ellipse cx="11.8059" cy="531.1304" fill="#84BE84" rx="1.9676" ry="1.9676" style="stroke:#038048;stroke-width:0.6558810668998688;"/><text fill="#000000" font-family="sans-serif" font-size="9.1823" lengthAdjust="spacing" textLength="93.1351" x="17.7088" y="535.0625">ComboBox1Change</text><text fill="#000000" font-family="sans-serif" font-size="9.1823" lengthAdjust="spacing" textLength="36.7293" x="185.6143" y="535.0625">(Sender</text><text fill="#000000" font-family="sans-serif" font-size="9.1823" lengthAdjust="spacing" textLength="3.2794" x="227.5907" y="535.0625">:</text><text fill="#000000" font-family="sans-serif" font-size="9.1823" font-style="italic" lengthAdjust="spacing" textLength="43.2882" x="233.4937" y="535.0625">TObject *</text><text fill="#000000" font-family="sans-serif" font-size="9.1823" lengthAdjust="spacing" textLength="9.1823" x="276.7818" y="535.0625">) :</text><text fill="#000000" font-family="sans-serif" font-size="9.1823" font-style="italic" lengthAdjust="spacing" textLength="19.6764" x="288.5877" y="535.0625">void</text><ellipse cx="11.8059" cy="541.8193" fill="#84BE84" rx="1.9676" ry="1.9676" style="stroke:#038048;stroke-width:0.6558810668998688;"/><text fill="#000000" font-family="sans-serif" font-size="9.1823" lengthAdjust="spacing" textLength="144.2938" x="17.7088" y="545.7513">DBLookupComboBox1CloseUp</text><text fill="#000000" font-family="sans-serif" font-size="9.1823" lengthAdjust="spacing" textLength="36.7293" x="185.6143" y="545.7513">(Sender</text><text fill="#000000" font-family="sans-serif" font-size="9.1823" lengthAdjust="spacing" textLength="3.2794" x="227.5907" y="545.7513">:</text><text fill="#000000" font-family="sans-serif" font-size="9.1823" font-style="italic" lengthAdjust="spacing" textLength="43.2882" x="233.4937" y="545.7513">TObject *</text><text fill="#000000" font-family="sans-serif" font-size="9.1823" lengthAdjust="spacing" textLength="9.1823" x="276.7818" y="545.7513">) :</text><text fill="#000000" font-family="sans-serif" font-size="9.1823" font-style="italic" lengthAdjust="spacing" textLength="19.6764" x="288.5877" y="545.7513">void</text><ellipse cx="11.8059" cy="552.5081" fill="#84BE84" rx="1.9676" ry="1.9676" style="stroke:#038048;stroke-width:0.6558810668998688;"/><text fill="#000000" font-family="sans-serif" font-size="9.1823" lengthAdjust="spacing" textLength="64.2763" x="17.7088" y="556.4401">FormActivate</text><text fill="#000000" font-family="sans-serif" font-size="9.1823" lengthAdjust="spacing" textLength="36.7293" x="185.6143" y="556.4401">(Sender</text><text fill="#000000" font-family="sans-serif" font-size="9.1823" lengthAdjust="spacing" textLength="3.2794" x="227.5907" y="556.4401">:</text><text fill="#000000" font-family="sans-serif" font-size="9.1823" font-style="italic" lengthAdjust="spacing" textLength="43.2882" x="233.4937" y="556.4401">TObject *</text><text fill="#000000" font-family="sans-serif" font-size="9.1823" lengthAdjust="spacing" textLength="9.1823" x="276.7818" y="556.4401">) :</text><text fill="#000000" font-family="sans-serif" font-size="9.1823" font-style="italic" lengthAdjust="spacing" textLength="19.6764" x="288.5877" y="556.4401">void</text><line style="stroke:#181818;stroke-width:0.6558810668998688;stroke-dasharray:1.0,2.0;" x1="5.247" x2="315.4788" y1="561.2292" y2="561.2292"/><ellipse cx="11.8059" cy="568.4439" fill="#84BE84" rx="1.9676" ry="1.9676" style="stroke:#038048;stroke-width:0.6558810668998688;"/><text fill="#000000" font-family="sans-serif" font-size="9.1823" lengthAdjust="spacing" textLength="49.847" x="17.7088" y="572.376">FormClose</text><text fill="#000000" font-family="sans-serif" font-size="9.1823" lengthAdjust="spacing" textLength="3.2794" x="185.6143" y="572.376">(</text><text fill="#000000" font-family="sans-serif" font-size="9.1823" lengthAdjust="spacing" textLength="33.4499" x="59.6852" y="583.0648">Sender</text><text fill="#000000" font-family="sans-serif" font-size="9.1823" lengthAdjust="spacing" textLength="3.2794" x="101.6616" y="583.0648">:</text><text fill="#000000" font-family="sans-serif" font-size="9.1823" font-style="italic" lengthAdjust="spacing" textLength="43.2882" x="107.5645" y="583.0648">TObject *</text><text fill="#000000" font-family="sans-serif" font-size="9.1823" lengthAdjust="spacing" textLength="2.6235" x="150.8526" y="583.0648">,</text><text fill="#000000" font-family="sans-serif" font-size="9.1823" lengthAdjust="spacing" textLength="30.8264" x="59.6852" y="593.7536">Action</text><text fill="#000000" font-family="sans-serif" font-size="9.1823" lengthAdjust="spacing" textLength="3.2794" x="101.6616" y="593.7536">:</text><text fill="#000000" font-family="sans-serif" font-size="9.1823" font-style="italic" lengthAdjust="spacing" textLength="70.8352" x="107.5645" y="593.7536">TCloseAction &amp;</text><text fill="#000000" font-family="sans-serif" font-size="9.1823" lengthAdjust="spacing" textLength="9.1823" x="38.697" y="604.4424">) :</text><text fill="#000000" font-family="sans-serif" font-size="9.1823" font-style="italic" lengthAdjust="spacing" textLength="19.6764" x="50.5028" y="604.4424">void</text><line style="stroke:#181818;stroke-width:0.6558810668998688;stroke-dasharray:1.0,2.0;" x1="5.247" x2="315.4788" y1="609.2315" y2="609.2315"/><ellipse cx="11.8059" cy="616.4462" fill="#84BE84" rx="1.9676" ry="1.9676" style="stroke:#038048;stroke-width:0.6558810668998688;"/><text fill="#000000" font-family="sans-serif" font-size="9.1823" lengthAdjust="spacing" textLength="29.5146" x="17.7088" y="620.3783">Grupp</text><text fill="#000000" font-family="sans-serif" font-size="9.1823" lengthAdjust="spacing" textLength="14.4294" x="185.6143" y="620.3783">(sp</text><text fill="#000000" font-family="sans-serif" font-size="9.1823" lengthAdjust="spacing" textLength="3.2794" x="227.5907" y="620.3783">:</text><text fill="#000000" font-family="sans-serif" font-size="9.1823" font-style="italic" lengthAdjust="spacing" textLength="47.2234" x="233.4937" y="620.3783">AnsiString</text><text fill="#000000" font-family="sans-serif" font-size="9.1823" lengthAdjust="spacing" textLength="9.1823" x="280.7171" y="620.3783">) :</text><text fill="#000000" font-family="sans-serif" font-size="9.1823" font-style="italic" lengthAdjust="spacing" textLength="19.6764" x="292.523" y="620.3783">void</text><ellipse cx="11.8059" cy="627.135" fill="#84BE84" rx="1.9676" ry="1.9676" style="stroke:#038048;stroke-width:0.6558810668998688;"/><text fill="#000000" font-family="sans-serif" font-size="9.1823" lengthAdjust="spacing" textLength="83.9528" x="17.7088" y="631.0671">RadioGroup3Click</text><text fill="#000000" font-family="sans-serif" font-size="9.1823" lengthAdjust="spacing" textLength="36.7293" x="185.6143" y="631.0671">(Sender</text><text fill="#000000" font-family="sans-serif" font-size="9.1823" lengthAdjust="spacing" textLength="3.2794" x="227.5907" y="631.0671">:</text><text fill="#000000" font-family="sans-serif" font-size="9.1823" font-style="italic" lengthAdjust="spacing" textLength="43.2882" x="233.4937" y="631.0671">TObject *</text><text fill="#000000" font-family="sans-serif" font-size="9.1823" lengthAdjust="spacing" textLength="9.1823" x="276.7818" y="631.0671">) :</text><text fill="#000000" font-family="sans-serif" font-size="9.1823" font-style="italic" lengthAdjust="spacing" textLength="19.6764" x="288.5877" y="631.0671">void</text></g><!--MD5=[dd0bf217da5c5e97452bc452f42aff32]
class <b>TForm</b>--><g id="elem_&lt;b&gt;TForm&lt;/b&gt;"><rect fill="#F1F1F1" height="20.9882" id="&lt;b&gt;TForm&lt;/b&gt;" rx="1.6397" ry="1.6397" style="stroke:#181818;stroke-width:0.3279405334499344;" width="55.094" x="132.8159" y="56.6005"/><ellipse cx="142.6541" cy="67.0946" fill="#ADD1B2" rx="7.2147" ry="7.2147" style="stroke:#181818;stroke-width:0.6558810668998688;"/><path d="M144.1914,64.2558 C143.5765,63.9689 143.187,63.8767 142.6131,63.8767 C140.8915,63.8767 139.5797,65.2397 139.5797,67.0228 L139.5797,67.7607 C139.5797,69.4517 140.9632,70.6917 142.8591,70.6917 C143.6584,70.6917 144.4168,70.497 144.9087,70.1383 C145.2879,69.8718 145.5031,69.5746 145.5031,69.3184 C145.5031,69.0212 145.2469,68.765 144.9395,68.765 C144.796,68.765 144.6628,68.8163 144.5398,68.9392 C144.2426,69.2569 144.2426,69.2569 144.1196,69.3184 C143.8429,69.4926 143.392,69.5746 142.8898,69.5746 C141.5473,69.5746 140.6967,68.8573 140.6967,67.7402 L140.6967,67.0228 C140.6967,65.8546 141.5166,64.9937 142.6541,64.9937 C143.0333,64.9937 143.433,65.0962 143.7404,65.2602 C144.0581,65.4446 144.1709,65.5881 144.2323,65.8546 C144.2733,66.121 144.2938,66.203 144.3861,66.285 C144.4783,66.3772 144.632,66.449 144.7755,66.449 C144.9497,66.449 145.1239,66.3567 145.2367,66.2132 C145.3084,66.1108 145.3289,65.9878 145.3289,65.7111 L145.3289,64.7785 C145.3289,64.4916 145.3186,64.4096 145.2572,64.3071 C145.1547,64.1329 144.9702,64.0406 144.7755,64.0406 C144.5808,64.0406 144.4476,64.1021 144.3041,64.3071 L144.1914,64.2558 Z " fill="#000000"/><text fill="#000000" font-family="sans-serif" font-size="9.1823" font-weight="bold" lengthAdjust="spacing" textLength="34.1058" x="151.8365" y="70.2734">TForm</text></g><path d="M339.4185,358.6337 L339.4185,374.1776 L312.1994,617.1995 L339.4185,379.4246 L339.4185,394.9685 A0,0 0 0 0 339.4185,394.9685 L536.1828,394.9685 A0,0 0 0 0 536.1828,394.9685 L536.1828,365.1925 L529.624,358.6337 L339.4185,358.6337 A0,0 0 0 0 339.4185,358.6337 " fill="#FEFFDD" style="stroke:#181818;stroke-width:0.3279405334499344;"/><path d="M529.624,358.6337 L529.624,365.1925 L536.1828,365.1925 L529.624,358.6337 " fill="#FEFFDD" style="stroke:#181818;stroke-width:0.3279405334499344;"/><text fill="#000000" font-family="sans-serif" font-size="8.5265" lengthAdjust="spacing" textLength="182.9908" x="343.3537" y="369.8276">функция проверки на возможные номера</text><text fill="#000000" font-family="sans-serif" font-size="8.5265" lengthAdjust="spacing" textLength="177.0879" x="343.3537" y="379.7529">групп, в зависимости от специализации</text><text fill="#000000" font-family="sans-serif" font-size="8.5265" lengthAdjust="spacing" textLength="72.8028" x="343.3537" y="389.6782">и вида обучения</text><!--MD5=[b7e65362e9bac5aa885ad2e6c86afdce]
class <b>VidKonkursvoid ()</b>--><g id="elem_&lt;b&gt;VidKonkursvoid ()&lt;/b&gt;"><rect codeLine="79" fill="#F1F1F1" height="81.1858" id="&lt;b&gt;VidKonkursvoid ()&lt;/b&gt;" rx="1.6397" ry="1.6397" style="stroke:#181818;stroke-width:0.3279405334499344;" width="199.3878" x="471.2505" y="758.3932"/><text fill="#000000" font-family="sans-serif" font-size="9.1823" font-weight="bold" lengthAdjust="spacing" textLength="93.791" x="524.049" y="770.1959">VidKonkursvoid ()</text><line style="stroke:#181818;stroke-width:0.3279405334499344;" x1="471.9064" x2="669.9825" y1="775.6409" y2="775.6409"/><line style="stroke:#181818;stroke-width:0.6558810668998688;" x1="471.9064" x2="669.9825" y1="780.8879" y2="780.8879"/><ellipse cx="478.4652" cy="788.1026" fill="#84BE84" rx="1.9676" ry="1.9676" style="stroke:#038048;stroke-width:0.6558810668998688;"/><text fill="#000000" font-family="sans-serif" font-size="9.1823" lengthAdjust="spacing" textLength="72.8028" x="484.3682" y="792.0347">VidKonkursvoid</text><text fill="#000000" font-family="sans-serif" font-size="9.1823" lengthAdjust="spacing" textLength="3.2794" x="568.3209" y="792.0347">(</text><text fill="#000000" font-family="sans-serif" font-size="9.1823" lengthAdjust="spacing" textLength="60.3411" x="505.3564" y="802.7235">RadioGroup2</text><text fill="#000000" font-family="sans-serif" font-size="9.1823" lengthAdjust="spacing" textLength="3.2794" x="589.3091" y="802.7235">:</text><text fill="#000000" font-family="sans-serif" font-size="9.1823" font-style="italic" lengthAdjust="spacing" textLength="68.8675" x="595.2121" y="802.7235">TRadioGroup *</text><text fill="#000000" font-family="sans-serif" font-size="9.1823" lengthAdjust="spacing" textLength="2.6235" x="664.0796" y="802.7235">,</text><text fill="#000000" font-family="sans-serif" font-size="9.1823" lengthAdjust="spacing" textLength="57.7175" x="505.3564" y="813.4123">PriceCmbBx</text><text fill="#000000" font-family="sans-serif" font-size="9.1823" lengthAdjust="spacing" textLength="3.2794" x="589.3091" y="813.4123">:</text><text fill="#000000" font-family="sans-serif" font-size="9.1823" font-style="italic" lengthAdjust="spacing" textLength="64.2763" x="595.2121" y="813.4123">TComboBox *</text><text fill="#000000" font-family="sans-serif" font-size="9.1823" lengthAdjust="spacing" textLength="2.6235" x="659.4884" y="813.4123">,</text><text fill="#000000" font-family="sans-serif" font-size="9.1823" lengthAdjust="spacing" textLength="57.7175" x="505.3564" y="824.1011">ComboBox1</text><text fill="#000000" font-family="sans-serif" font-size="9.1823" lengthAdjust="spacing" textLength="3.2794" x="589.3091" y="824.1011">:</text><text fill="#000000" font-family="sans-serif" font-size="9.1823" font-style="italic" lengthAdjust="spacing" textLength="64.2763" x="595.2121" y="824.1011">TComboBox *</text><text fill="#000000" font-family="sans-serif" font-size="9.1823" lengthAdjust="spacing" textLength="6.5588" x="484.3682" y="834.7899">):</text><text fill="#000000" font-family="sans-serif" font-size="9.1823" font-style="italic" lengthAdjust="spacing" textLength="19.6764" x="493.5505" y="834.7899">void</text></g><g id="elem_GMN326962"><path d="M232.1819,761.0168 L232.1819,837.0528 A0,0 0 0 0 232.1819,837.0528 L447.9668,837.0528 A0,0 0 0 0 447.9668,837.0528 L447.9668,801.6814 L471.1082,799.0579 L447.9668,796.4343 L447.9668,767.5756 L441.408,761.0168 L232.1819,761.0168 A0,0 0 0 0 232.1819,761.0168 " fill="#FEFFDD" style="stroke:#181818;stroke-width:0.3279405334499344;"/><path d="M441.408,761.0168 L441.408,767.5756 L447.9668,767.5756 L441.408,761.0168 " fill="#FEFFDD" style="stroke:#181818;stroke-width:0.3279405334499344;"/><text fill="#000000" font-family="sans-serif" font-size="8.5265" lengthAdjust="spacing" textLength="164.6261" x="236.1172" y="772.2106">УСТАНОВКА КОНКУРСА АБИТУРИЕНТА</text><text fill="#000000" font-family="sans-serif" font-size="8.5265" lengthAdjust="spacing" textLength="202.0114" x="236.1172" y="782.1359">вызывается если у платников общий конкурс</text><text fill="#000000" font-family="sans-serif" font-size="8.5265" lengthAdjust="spacing" textLength="111.4998" x="236.1172" y="792.0613">(т.е. oplata_konkurs == 0)</text><text fill="#000000" font-family="sans-serif" font-size="8.5265" lengthAdjust="spacing" textLength="2.6235" x="236.1172" y="801.9866"> </text><text fill="#000000" font-family="sans-serif" font-size="8.5265" lengthAdjust="spacing" textLength="150.1968" x="236.1172" y="811.9119">Using into FormEduCmbBxChange()</text><text fill="#000000" font-family="sans-serif" font-size="8.5265" lengthAdjust="spacing" textLength="2.6235" x="236.1172" y="821.8372"> </text><text fill="#000000" font-family="sans-serif" font-size="8.5265" lengthAdjust="spacing" textLength="154.1321" x="236.1172" y="831.7626">NEED CHECK IMPLIMENTATION !!!!!!!!</text></g><!--MD5=[923b944bdbc0b6ac7088f467e36f6fd6]
reverse link <b>TForm</b> to <b>TUndo_Ab_1Form</b>--><g id="link_&lt;b&gt;TForm&lt;/b&gt;_&lt;b&gt;TUndo_Ab_1Form&lt;/b&gt;"><path codeLine="5" d="M160.3629,90.7457 C160.3629,99.823 160.3629,111.1895 160.3629,124.1234 " fill="none" id="&lt;b&gt;TForm&lt;/b&gt;-backto-&lt;b&gt;TUndo_Ab_1Form&lt;/b&gt;" style="stroke:#181818;stroke-width:0.6558810668998688;"/><polygon fill="none" points="155.7718,90.7063,160.3629,77.5887,164.9541,90.7063,155.7718,90.7063" style="stroke:#181818;stroke-width:0.6558810668998688;"/></g><!--MD5=[8acc70a283033e232e0d12dd4db6ca9d]
link TUndo_Ab_1Form to <b>VidKonkursvoid ()</b>--><g id="link_TUndo_Ab_1Form_&lt;b&gt;VidKonkursvoid ()&lt;/b&gt;"><path codeLine="101" d="M570.9445,82.8423 C570.9445,171.0649 570.9445,620.8366 570.9445,758.3847 " fill="none" id="TUndo_Ab_1Form-&lt;b&gt;VidKonkursvoid ()&lt;/b&gt;" style="stroke:#008000;stroke-width:0.6558810668998688;stroke-dasharray:7.0,7.0;"/><path d="M574.2239,658.6993 L574.2239,694.7728 L746.0647,694.7728 L746.0647,665.2581 L739.5059,658.6993 L574.2239,658.6993 " fill="#FEFFDD" style="stroke:#181818;stroke-width:0.3279405334499344;"/><path d="M739.5059,658.6993 L739.5059,665.2581 L746.0647,665.2581 L739.5059,658.6993 " fill="#FEFFDD" style="stroke:#181818;stroke-width:0.3279405334499344;"/><text fill="#000000" font-family="sans-serif" font-size="8.5265" lengthAdjust="spacing" textLength="135.1115" x="578.1592" y="669.8932">The "VidKonkursvoid" function is</text><text fill="#000000" font-family="sans-serif" font-size="8.5265" lengthAdjust="spacing" textLength="148.2291" x="578.1592" y="679.8185">contained in the "Undo_Ab_1Unit.h"</text><text fill="#000000" font-family="sans-serif" font-size="8.5265" lengthAdjust="spacing" textLength="152.8203" x="578.1592" y="689.7438">header, but is not a part of the class</text></g><!--MD5=[4181dd8ca4d983e70ce07f5d373d3d8d]
@startuml
title Исходный файл: "Undo_Ab_1Unit.cpp"

scale 750 width

"<b>TUndo_Ab_1Form</b>" -up-|> "<b>TForm</b>"

hide "<b>TForm</b>" members

class "<b>TUndo_Ab_1Form</b>"
{
    + BitBtn1 \t\t\t\t\t: <i>TBitBtn *</i>
    + BitBtn2 \t\t\t\t\t: <i>TBitBtn *</i>
    ..
    + CategoryAbCmbBx \t\t: <i>TComboBox *</i>
    + ComboBox1 \t\t\t\t: <i>TComboBox *</i>
    + ComboBox2 \t\t\t\t: <i>TComboBox *</i>
    + KonkursCmbBx \t\t\t: <i>TComboBox *</i>
    + PriceCmbBx \t\t\t\t: <i>TComboBox *</i>
    + SngFrgCmbBx \t\t\t: <i>TComboBox *</i>
    ..
    + DBLookupComboBox1 \t: <i>TDBLookupComboBox *</i>
    + DBLookupComboBox2 \t: <i>TDBLookupComboBox *</i>
    + DBLookupComboBox3 \t: <i>TDBLookupComboBox *</i>
    + DBLookupComboBox4 \t: <i>TDBLookupComboBox *</i>
    ..
    + DBText1 \t\t\t\t: <i>TDBText *</i>
    + DBText2 \t\t\t\t: <i>TDBText *</i>
    + DBText3 \t\t\t\t: <i>TDBText *</i>
    ..
    + Edit2 \t\t\t\t\t: <i>TEdit *</i>
    ..
    + Label1 \t\t\t\t\t: <i>TLabel *</i>
    + Label2 \t\t\t\t\t: <i>TLabel *</i>
    + Label3 \t\t\t\t\t: <i>TLabel *</i>
    + Label4 \t\t\t\t\t: <i>TLabel *</i>
    + Label5 \t\t\t\t\t: <i>TLabel *</i>
    + Label6 \t\t\t\t\t: <i>TLabel *</i>
    + Label7 \t\t\t\t\t: <i>TLabel *</i>
    + Label8 \t\t\t\t\t: <i>TLabel *</i>
    + Label29 \t\t\t\t\t: <i>TLabel *</i>
    ..
    + Panel1 \t\t\t\t\t: <i>TPanel *</i>
    + Panel2 \t\t\t\t\t: <i>TPanel *</i>
    - -
    
    + <b>TUndo_Ab_1Form \t(Owner \t: <i>TComponent *</i>)</b>

    + BitBtn1Click \t\t\t\t\t\t(Sender \t: <i>TObject *</i>) : <i>void</i>
    + BitBtn2Click \t\t\t\t\t\t(Sender \t: <i>TObject *</i>) : <i>void</i>
    + ComboBox1Change \t\t\t\t(Sender \t: <i>TObject *</i>) : <i>void</i>
    + DBLookupComboBox1CloseUp \t(Sender \t: <i>TObject *</i>) : <i>void</i>
    + FormActivate \t\t\t\t\t(Sender \t: <i>TObject *</i>) : <i>void</i>
    ..
    + FormClose \t\t\t\t\t\t(
            \t\tSender \t: <i>TObject *</i>,
            \t\tAction \t: <i>TCloseAction &</i>
        \t) : <i>void</i>
    ..
    + Grupp \t\t\t\t\t\t\t(sp \t\t: <i>AnsiString</i>) : <i>void</i>
    + RadioGroup3Click \t\t\t\t(Sender \t: <i>TObject *</i>) : <i>void</i>
}


note right of "<b>TUndo_Ab_1Form</b>"::Grupp
функция проверки на возможные номера
групп, в зависимости от специализации
и вида обучения
end note


package TUndo_Ab_1Form <<Folder>>
{
    class TUndo_Ab_1Form
    hide  members
}



class "<b>VidKonkursvoid ()</b>" {
    - -
    + VidKonkursvoid \t(
        \tRadioGroup2 \t: <i>TRadioGroup *</i>,
        \tPriceCmbBx \t\t: <i>TComboBox *</i>,
        \tComboBox1 \t\t: <i>TComboBox *</i>
    ): <i>void</i>
}

hide "<b>VidKonkursvoid ()</b>" circle
show "<b>VidKonkursvoid ()</b>" method

note left of "<b>VidKonkursvoid ()</b>"
УСТАНОВКА КОНКУРСА АБИТУРИЕНТА
вызывается если у платников общий конкурс
(т.е. oplata_konkurs == 0)

Using into FormEduCmbBxChange()

NEED CHECK IMPLIMENTATION !!!!!!!!
end note

TUndo_Ab_1Form ..[#green].. "<b>VidKonkursvoid ()</b>"
    
note right on link #LightBlue
The "VidKonkursvoid" function is 
contained in the "Undo_Ab_1Unit.h"
header, but is not a part of the class  
end note
@enduml

PlantUML version 1.2022.5(Sat Apr 30 10:55:52 UTC 2022)
(GPL source distribution)
Java Runtime: Java(TM) SE Runtime Environment
JVM: Java HotSpot(TM) 64-Bit Server VM
Default Encoding: UTF-8
Language: en
Country: US
--></g></svg>