<?xml version="1.0" encoding="UTF-8" standalone="no"?><svg xmlns="http://www.w3.org/2000/svg" xmlns:xlink="http://www.w3.org/1999/xlink" contentStyleType="text/css" height="1004.9669px" preserveAspectRatio="none" style="width:751px;height:1004px;background:#FFFFFF;" version="1.1" viewBox="0 0 751 1004" width="751.6556px" zoomAndPan="magnify"><defs/><g><rect height="43.5379" style="stroke:#00000000;stroke-width:1.6556291390728477;fill:none;" width="516.5563" x="105.9603" y="8.2781"/><text fill="#000000" font-family="sans-serif" font-size="23.1788" font-weight="bold" lengthAdjust="spacing" textLength="500" x="114.2384" y="38.0714">Исходный файл: "Undo_Ab_Unit.cpp"</text><!--MD5=[b9355b1508b0e406882644e0d53bd556]
cluster TUndo_Ab_Form--><g id="cluster_TUndo_Ab_Form"><path d="M446.1921,71.6836 L659.7682,71.6836 A6.2086,6.2086 0 0 1 663.9073,75.8226 L675.4967,108.5989 L735.9272,108.5989 A4.1391,4.1391 0 0 1 740.0662,112.738 L740.0662,231.4518 A4.1391,4.1391 0 0 1 735.9272,235.5909 L446.1921,235.5909 A4.1391,4.1391 0 0 1 442.053,231.4518 L442.053,75.8226 A4.1391,4.1391 0 0 1 446.1921,71.6836 " style="stroke:#000000;stroke-width:2.4834437086092715;fill:none;"/><line style="stroke:#000000;stroke-width:2.4834437086092715;fill:none;" x1="442.053" x2="675.4967" y1="108.5989" y2="108.5989"/><text fill="#000000" font-family="sans-serif" font-size="23.1788" font-weight="bold" lengthAdjust="spacing" textLength="211.9205" x="448.6755" y="96.5099">TUndo_Ab_Form</text></g><!--MD5=[7a2516f976ffd29d3fd97fe56fa01f02]
class TUndo_Ab_Form--><g id="elem_TUndo_Ab_Form"><rect codeLine="42" fill="#F1F1F1" height="79.4702" id="TUndo_Ab_Form" rx="4.1391" ry="4.1391" style="stroke:#181818;stroke-width:0.8278145695364238;" width="245.0331" x="468.543" y="129.6306"/><ellipse cx="493.3775" cy="156.1207" fill="#ADD1B2" rx="18.2119" ry="18.2119" style="stroke:#181818;stroke-width:1.6556291390728477;"/><path d="M497.2579,148.9549 C495.7057,148.2305 494.7227,147.9977 493.274,147.9977 C488.928,147.9977 485.6167,151.4383 485.6167,155.9396 L485.6167,157.8022 C485.6167,162.0706 489.1091,165.2007 493.8949,165.2007 C495.9127,165.2007 497.827,164.7092 499.0687,163.8038 C500.0259,163.1312 500.5691,162.381 500.5691,161.7343 C500.5691,160.9841 499.9224,160.3373 499.1463,160.3373 C498.7841,160.3373 498.4478,160.4667 498.1374,160.7771 C497.3872,161.5791 497.3872,161.5791 497.0768,161.7343 C496.3783,162.174 495.2401,162.381 493.9725,162.381 C490.5836,162.381 488.4365,160.5702 488.4365,157.7504 L488.4365,155.9396 C488.4365,152.9905 490.506,150.8175 493.3775,150.8175 C494.3346,150.8175 495.3435,151.0762 496.1196,151.4901 C496.9216,151.9557 497.2061,152.3179 497.3613,152.9905 C497.4648,153.6631 497.5166,153.87 497.7494,154.077 C497.9822,154.3098 498.3702,154.4909 498.7324,154.4909 C499.1722,154.4909 499.612,154.2581 499.8965,153.8959 C500.0776,153.6372 500.1293,153.3268 500.1293,152.6283 L500.1293,150.2742 C500.1293,149.5499 500.1035,149.3429 499.9483,149.0842 C499.6896,148.6445 499.2239,148.4116 498.7324,148.4116 C498.2409,148.4116 497.9046,148.5668 497.5424,149.0842 L497.2579,148.9549 Z " fill="#000000"/><text fill="#000000" font-family="sans-serif" font-size="23.1788" lengthAdjust="spacing" textLength="192.053" x="516.5563" y="164.145">TUndo_Ab_Form</text><line style="stroke:#181818;stroke-width:0.8278145695364238;" x1="470.1987" x2="711.9205" y1="182.6107" y2="182.6107"/><line style="stroke:#181818;stroke-width:0.8278145695364238;" x1="470.1987" x2="711.9205" y1="195.8558" y2="195.8558"/></g><!--MD5=[6a427c8422581ada3b5f1fe2d5d37bf3]
class <b>TUndo_Ab_Form</b>--><g id="elem_&lt;b&gt;TUndo_Ab_Form&lt;/b&gt;"><rect codeLine="9" fill="#F1F1F1" height="685.327" id="&lt;b&gt;TUndo_Ab_Form&lt;/b&gt;" rx="4.1391" ry="4.1391" style="stroke:#181818;stroke-width:0.8278145695364238;" width="658.9404" x="11.5894" y="308.4385"/><ellipse cx="228.0629" cy="334.9286" fill="#ADD1B2" rx="18.2119" ry="18.2119" style="stroke:#181818;stroke-width:1.6556291390728477;"/><path d="M231.9433,327.7628 C230.3911,327.0385 229.4081,326.8057 227.9594,326.8057 C223.6134,326.8057 220.3022,330.2463 220.3022,334.7475 L220.3022,336.6101 C220.3022,340.8785 223.7945,344.0087 228.5803,344.0087 C230.5981,344.0087 232.5124,343.5172 233.7541,342.6118 C234.7113,341.9392 235.2546,341.1889 235.2546,340.5422 C235.2546,339.792 234.6078,339.1453 233.8317,339.1453 C233.4696,339.1453 233.1333,339.2746 232.8228,339.5851 C232.0726,340.387 232.0726,340.387 231.7622,340.5422 C231.0637,340.982 229.9255,341.1889 228.6579,341.1889 C225.269,341.1889 223.1219,339.3781 223.1219,336.5584 L223.1219,334.7475 C223.1219,331.7984 225.1914,329.6254 228.0629,329.6254 C229.0201,329.6254 230.029,329.8841 230.805,330.298 C231.607,330.7637 231.8916,331.1258 232.0468,331.7984 C232.1502,332.471 232.202,332.678 232.4348,332.8849 C232.6676,333.1178 233.0557,333.2988 233.4178,333.2988 C233.8576,333.2988 234.2974,333.066 234.582,332.7038 C234.763,332.4452 234.8148,332.1347 234.8148,331.4363 L234.8148,329.0822 C234.8148,328.3578 234.7889,328.1509 234.6337,327.8922 C234.375,327.4524 233.9094,327.2196 233.4178,327.2196 C232.9263,327.2196 232.59,327.3748 232.2279,327.8922 L231.9433,327.7628 Z " fill="#000000"/><text fill="#000000" font-family="sans-serif" font-size="23.1788" font-weight="bold" lengthAdjust="spacing" textLength="211.9205" x="262.0033" y="342.9529">TUndo_Ab_Form</text><line style="stroke:#181818;stroke-width:0.8278145695364238;" x1="13.245" x2="668.8742" y1="361.4187" y2="361.4187"/><ellipse cx="29.8013" cy="379.6306" fill="none" rx="4.9669" ry="4.9669" style="stroke:#038048;stroke-width:1.6556291390728477;"/><text fill="#000000" font-family="sans-serif" font-size="23.1788" lengthAdjust="spacing" textLength="91.0596" x="44.702" y="389.5563">BitBtn2</text><text fill="#000000" font-family="sans-serif" font-size="23.1788" lengthAdjust="spacing" textLength="8.2781" x="203.6424" y="389.5563">:</text><text fill="#000000" font-family="sans-serif" font-size="23.1788" font-style="italic" lengthAdjust="spacing" textLength="104.3046" x="218.543" y="389.5563">TBitBtn *</text><ellipse cx="29.8013" cy="406.6122" fill="none" rx="4.9669" ry="4.9669" style="stroke:#038048;stroke-width:1.6556291390728477;"/><text fill="#000000" font-family="sans-serif" font-size="23.1788" lengthAdjust="spacing" textLength="92.7152" x="44.702" y="416.5379">BitBtn3</text><text fill="#000000" font-family="sans-serif" font-size="23.1788" lengthAdjust="spacing" textLength="8.2781" x="203.6424" y="416.5379">:</text><text fill="#000000" font-family="sans-serif" font-size="23.1788" font-style="italic" lengthAdjust="spacing" textLength="104.3046" x="218.543" y="416.5379">TBitBtn *</text><line style="stroke:#181818;stroke-width:1.6556291390728477;stroke-dasharray:1.0,2.0;" x1="13.245" x2="668.8742" y1="428.6269" y2="428.6269"/><ellipse cx="29.8013" cy="446.8388" fill="none" rx="4.9669" ry="4.9669" style="stroke:#038048;stroke-width:1.6556291390728477;"/><text fill="#000000" font-family="sans-serif" font-size="23.1788" lengthAdjust="spacing" textLength="99.3377" x="44.702" y="456.7645">DBGrid1</text><text fill="#000000" font-family="sans-serif" font-size="23.1788" lengthAdjust="spacing" textLength="8.2781" x="203.6424" y="456.7645">:</text><text fill="#000000" font-family="sans-serif" font-size="23.1788" font-style="italic" lengthAdjust="spacing" textLength="117.5497" x="218.543" y="456.7645">TDBGrid *</text><line style="stroke:#181818;stroke-width:1.6556291390728477;stroke-dasharray:1.0,2.0;" x1="13.245" x2="668.8742" y1="468.8535" y2="468.8535"/><ellipse cx="29.8013" cy="487.0654" fill="none" rx="4.9669" ry="4.9669" style="stroke:#038048;stroke-width:1.6556291390728477;"/><text fill="#000000" font-family="sans-serif" font-size="23.1788" lengthAdjust="spacing" textLength="62.9139" x="44.702" y="496.9911">Edit1</text><text fill="#000000" font-family="sans-serif" font-size="23.1788" lengthAdjust="spacing" textLength="8.2781" x="203.6424" y="496.9911">:</text><text fill="#000000" font-family="sans-serif" font-size="23.1788" font-style="italic" lengthAdjust="spacing" textLength="77.8146" x="218.543" y="496.9911">TEdit *</text><line style="stroke:#181818;stroke-width:1.6556291390728477;stroke-dasharray:1.0,2.0;" x1="13.245" x2="668.8742" y1="509.0801" y2="509.0801"/><ellipse cx="29.8013" cy="527.292" fill="none" rx="4.9669" ry="4.9669" style="stroke:#038048;stroke-width:1.6556291390728477;"/><text fill="#000000" font-family="sans-serif" font-size="23.1788" lengthAdjust="spacing" textLength="79.4702" x="44.702" y="537.2177">Label1</text><text fill="#000000" font-family="sans-serif" font-size="23.1788" lengthAdjust="spacing" textLength="8.2781" x="203.6424" y="537.2177">:</text><text fill="#000000" font-family="sans-serif" font-size="23.1788" font-style="italic" lengthAdjust="spacing" textLength="97.6821" x="218.543" y="537.2177">TLabel *</text><ellipse cx="29.8013" cy="554.2736" fill="none" rx="4.9669" ry="4.9669" style="stroke:#038048;stroke-width:1.6556291390728477;"/><text fill="#000000" font-family="sans-serif" font-size="23.1788" lengthAdjust="spacing" textLength="94.3709" x="44.702" y="564.1993">Label35</text><text fill="#000000" font-family="sans-serif" font-size="23.1788" lengthAdjust="spacing" textLength="8.2781" x="203.6424" y="564.1993">:</text><text fill="#000000" font-family="sans-serif" font-size="23.1788" font-style="italic" lengthAdjust="spacing" textLength="97.6821" x="218.543" y="564.1993">TLabel *</text><line style="stroke:#181818;stroke-width:1.6556291390728477;stroke-dasharray:1.0,2.0;" x1="13.245" x2="668.8742" y1="576.2883" y2="576.2883"/><ellipse cx="29.8013" cy="594.5002" fill="none" rx="4.9669" ry="4.9669" style="stroke:#038048;stroke-width:1.6556291390728477;"/><text fill="#000000" font-family="sans-serif" font-size="23.1788" lengthAdjust="spacing" textLength="79.4702" x="44.702" y="604.4259">Panel1</text><text fill="#000000" font-family="sans-serif" font-size="23.1788" lengthAdjust="spacing" textLength="8.2781" x="203.6424" y="604.4259">:</text><text fill="#000000" font-family="sans-serif" font-size="23.1788" font-style="italic" lengthAdjust="spacing" textLength="97.6821" x="218.543" y="604.4259">TPanel *</text><ellipse cx="29.8013" cy="621.4818" fill="none" rx="4.9669" ry="4.9669" style="stroke:#038048;stroke-width:1.6556291390728477;"/><text fill="#000000" font-family="sans-serif" font-size="23.1788" lengthAdjust="spacing" textLength="77.8146" x="44.702" y="631.4075">Panel2</text><text fill="#000000" font-family="sans-serif" font-size="23.1788" lengthAdjust="spacing" textLength="8.2781" x="203.6424" y="631.4075">:</text><text fill="#000000" font-family="sans-serif" font-size="23.1788" font-style="italic" lengthAdjust="spacing" textLength="97.6821" x="218.543" y="631.4075">TPanel *</text><ellipse cx="29.8013" cy="648.4634" fill="none" rx="4.9669" ry="4.9669" style="stroke:#038048;stroke-width:1.6556291390728477;"/><text fill="#000000" font-family="sans-serif" font-size="23.1788" lengthAdjust="spacing" textLength="79.4702" x="44.702" y="658.3891">Panel3</text><text fill="#000000" font-family="sans-serif" font-size="23.1788" lengthAdjust="spacing" textLength="8.2781" x="203.6424" y="658.3891">:</text><text fill="#000000" font-family="sans-serif" font-size="23.1788" font-style="italic" lengthAdjust="spacing" textLength="97.6821" x="218.543" y="658.3891">TPanel *</text><line style="stroke:#181818;stroke-width:1.6556291390728477;" x1="13.245" x2="668.8742" y1="670.4781" y2="670.4781"/><text fill="#000000" font-family="sans-serif" font-size="23.1788" lengthAdjust="spacing" textLength="6.6225" x="44.702" y="698.6157"> </text><ellipse cx="29.8013" cy="715.6716" fill="#84BE84" rx="4.9669" ry="4.9669" style="stroke:#038048;stroke-width:1.6556291390728477;"/><text fill="#000000" font-family="sans-serif" font-size="23.1788" font-weight="bold" lengthAdjust="spacing" textLength="211.9205" x="44.702" y="725.5973">TUndo_Ab_Form</text><text fill="#000000" font-family="sans-serif" font-size="23.1788" font-weight="bold" lengthAdjust="spacing" textLength="94.3709" x="309.6026" y="725.5973">(Owner</text><text fill="#000000" font-family="sans-serif" font-size="23.1788" font-weight="bold" lengthAdjust="spacing" textLength="9.9338" x="442.053" y="725.5973">:</text><text fill="#000000" font-family="sans-serif" font-size="23.1788" font-style="italic" font-weight="bold" lengthAdjust="spacing" textLength="188.7417" x="460.2649" y="725.5973">TComponent *</text><text fill="#000000" font-family="sans-serif" font-size="23.1788" font-weight="bold" lengthAdjust="spacing" textLength="11.5894" x="649.0066" y="725.5973">)</text><text fill="#000000" font-family="sans-serif" font-size="23.1788" lengthAdjust="spacing" textLength="6.6225" x="44.702" y="752.5788"> </text><ellipse cx="29.8013" cy="769.6347" fill="#84BE84" rx="4.9669" ry="4.9669" style="stroke:#038048;stroke-width:1.6556291390728477;"/><text fill="#000000" font-family="sans-serif" font-size="23.1788" lengthAdjust="spacing" textLength="149.0066" x="44.702" y="779.5604">BitBtn2Click</text><text fill="#000000" font-family="sans-serif" font-size="23.1788" lengthAdjust="spacing" textLength="92.7152" x="256.6225" y="779.5604">(Sender</text><text fill="#000000" font-family="sans-serif" font-size="23.1788" lengthAdjust="spacing" textLength="8.2781" x="362.5828" y="779.5604">:</text><text fill="#000000" font-family="sans-serif" font-size="23.1788" font-style="italic" lengthAdjust="spacing" textLength="109.2715" x="377.4834" y="779.5604">TObject *</text><text fill="#000000" font-family="sans-serif" font-size="23.1788" lengthAdjust="spacing" textLength="23.1788" x="486.755" y="779.5604">) :</text><text fill="#000000" font-family="sans-serif" font-size="23.1788" font-style="italic" lengthAdjust="spacing" textLength="49.6689" x="516.5563" y="779.5604">void</text><ellipse cx="29.8013" cy="796.6163" fill="#84BE84" rx="4.9669" ry="4.9669" style="stroke:#038048;stroke-width:1.6556291390728477;"/><text fill="#000000" font-family="sans-serif" font-size="23.1788" lengthAdjust="spacing" textLength="150.6623" x="44.702" y="806.542">BitBtn3Click</text><text fill="#000000" font-family="sans-serif" font-size="23.1788" lengthAdjust="spacing" textLength="92.7152" x="256.6225" y="806.542">(Sender</text><text fill="#000000" font-family="sans-serif" font-size="23.1788" lengthAdjust="spacing" textLength="8.2781" x="362.5828" y="806.542">:</text><text fill="#000000" font-family="sans-serif" font-size="23.1788" font-style="italic" lengthAdjust="spacing" textLength="109.2715" x="377.4834" y="806.542">TObject *</text><text fill="#000000" font-family="sans-serif" font-size="23.1788" lengthAdjust="spacing" textLength="23.1788" x="486.755" y="806.542">) :</text><text fill="#000000" font-family="sans-serif" font-size="23.1788" font-style="italic" lengthAdjust="spacing" textLength="49.6689" x="516.5563" y="806.542">void</text><ellipse cx="29.8013" cy="823.5979" fill="#84BE84" rx="4.9669" ry="4.9669" style="stroke:#038048;stroke-width:1.6556291390728477;"/><text fill="#000000" font-family="sans-serif" font-size="23.1788" lengthAdjust="spacing" textLength="152.3179" x="44.702" y="833.5236">Edit1Change</text><text fill="#000000" font-family="sans-serif" font-size="23.1788" lengthAdjust="spacing" textLength="92.7152" x="256.6225" y="833.5236">(Sender</text><text fill="#000000" font-family="sans-serif" font-size="23.1788" lengthAdjust="spacing" textLength="8.2781" x="362.5828" y="833.5236">:</text><text fill="#000000" font-family="sans-serif" font-size="23.1788" font-style="italic" lengthAdjust="spacing" textLength="109.2715" x="377.4834" y="833.5236">TObject *</text><text fill="#000000" font-family="sans-serif" font-size="23.1788" lengthAdjust="spacing" textLength="23.1788" x="486.755" y="833.5236">) :</text><text fill="#000000" font-family="sans-serif" font-size="23.1788" font-style="italic" lengthAdjust="spacing" textLength="49.6689" x="516.5563" y="833.5236">void</text><ellipse cx="29.8013" cy="850.5795" fill="#84BE84" rx="4.9669" ry="4.9669" style="stroke:#038048;stroke-width:1.6556291390728477;"/><text fill="#000000" font-family="sans-serif" font-size="23.1788" lengthAdjust="spacing" textLength="162.2517" x="44.702" y="860.5052">FormActivate</text><text fill="#000000" font-family="sans-serif" font-size="23.1788" lengthAdjust="spacing" textLength="92.7152" x="256.6225" y="860.5052">(Sender</text><text fill="#000000" font-family="sans-serif" font-size="23.1788" lengthAdjust="spacing" textLength="8.2781" x="362.5828" y="860.5052">:</text><text fill="#000000" font-family="sans-serif" font-size="23.1788" font-style="italic" lengthAdjust="spacing" textLength="109.2715" x="377.4834" y="860.5052">TObject *</text><text fill="#000000" font-family="sans-serif" font-size="23.1788" lengthAdjust="spacing" textLength="23.1788" x="486.755" y="860.5052">) :</text><text fill="#000000" font-family="sans-serif" font-size="23.1788" font-style="italic" lengthAdjust="spacing" textLength="49.6689" x="516.5563" y="860.5052">void</text><line style="stroke:#181818;stroke-width:1.6556291390728477;stroke-dasharray:1.0,2.0;" x1="13.245" x2="668.8742" y1="872.5942" y2="872.5942"/><ellipse cx="29.8013" cy="890.8061" fill="#84BE84" rx="4.9669" ry="4.9669" style="stroke:#038048;stroke-width:1.6556291390728477;"/><text fill="#000000" font-family="sans-serif" font-size="23.1788" lengthAdjust="spacing" textLength="125.8278" x="44.702" y="900.7318">FormClose</text><text fill="#000000" font-family="sans-serif" font-size="23.1788" lengthAdjust="spacing" textLength="8.2781" x="256.6225" y="900.7318">(</text><text fill="#000000" font-family="sans-serif" font-size="23.1788" lengthAdjust="spacing" textLength="84.4371" x="150.6623" y="927.7134">Sender</text><text fill="#000000" font-family="sans-serif" font-size="23.1788" lengthAdjust="spacing" textLength="8.2781" x="256.6225" y="927.7134">:</text><text fill="#000000" font-family="sans-serif" font-size="23.1788" font-style="italic" lengthAdjust="spacing" textLength="109.2715" x="271.5232" y="927.7134">TObject *</text><text fill="#000000" font-family="sans-serif" font-size="23.1788" lengthAdjust="spacing" textLength="6.6225" x="380.7947" y="927.7134">,</text><text fill="#000000" font-family="sans-serif" font-size="23.1788" lengthAdjust="spacing" textLength="77.8146" x="150.6623" y="954.6949">Action</text><text fill="#000000" font-family="sans-serif" font-size="23.1788" lengthAdjust="spacing" textLength="8.2781" x="256.6225" y="954.6949">:</text><text fill="#000000" font-family="sans-serif" font-size="23.1788" font-style="italic" lengthAdjust="spacing" textLength="178.8079" x="271.5232" y="954.6949">TCloseAction &amp;</text><text fill="#000000" font-family="sans-serif" font-size="23.1788" lengthAdjust="spacing" textLength="23.1788" x="97.6821" y="981.6765">) :</text><text fill="#000000" font-family="sans-serif" font-size="23.1788" font-style="italic" lengthAdjust="spacing" textLength="49.6689" x="127.4834" y="981.6765">void</text></g><!--MD5=[dd0bf217da5c5e97452bc452f42aff32]
class <b>TForm</b>--><g id="elem_&lt;b&gt;TForm&lt;/b&gt;"><rect fill="#F1F1F1" height="52.9801" id="&lt;b&gt;TForm&lt;/b&gt;" rx="4.1391" ry="4.1391" style="stroke:#181818;stroke-width:0.8278145695364238;" width="139.0728" x="271.5232" y="142.8756"/><ellipse cx="296.3576" cy="169.3657" fill="#ADD1B2" rx="18.2119" ry="18.2119" style="stroke:#181818;stroke-width:1.6556291390728477;"/><path d="M300.238,162.1999 C298.6858,161.4756 297.7028,161.2428 296.2541,161.2428 C291.9081,161.2428 288.5969,164.6834 288.5969,169.1846 L288.5969,171.0472 C288.5969,175.3156 292.0892,178.4458 296.875,178.4458 C298.8928,178.4458 300.8071,177.9543 302.0488,177.0488 C303.006,176.3762 303.5493,175.626 303.5493,174.9793 C303.5493,174.2291 302.9025,173.5824 302.1264,173.5824 C301.7643,173.5824 301.428,173.7117 301.1175,174.0221 C300.3673,174.8241 300.3673,174.8241 300.0569,174.9793 C299.3584,175.4191 298.2202,175.626 296.9526,175.626 C293.5637,175.626 291.4166,173.8152 291.4166,170.9954 L291.4166,169.1846 C291.4166,166.2355 293.4861,164.0625 296.3576,164.0625 C297.3148,164.0625 298.3237,164.3212 299.0998,164.7351 C299.9017,165.2007 300.1863,165.5629 300.3415,166.2355 C300.445,166.9081 300.4967,167.1151 300.7295,167.322 C300.9623,167.5548 301.3504,167.7359 301.7125,167.7359 C302.1523,167.7359 302.5921,167.5031 302.8767,167.1409 C303.0577,166.8822 303.1095,166.5718 303.1095,165.8733 L303.1095,163.5192 C303.1095,162.7949 303.0836,162.588 302.9284,162.3293 C302.6697,161.8895 302.2041,161.6567 301.7125,161.6567 C301.221,161.6567 300.8847,161.8119 300.5226,162.3293 L300.238,162.1999 Z " fill="#000000"/><text fill="#000000" font-family="sans-serif" font-size="23.1788" font-weight="bold" lengthAdjust="spacing" textLength="86.0927" x="319.5364" y="177.39">TForm</text></g><!--MD5=[99fadbcd6764680cb84b978782e26bad]
reverse link <b>TForm</b> to <b>TUndo_Ab_Form</b>--><g id="link_&lt;b&gt;TForm&lt;/b&gt;_&lt;b&gt;TUndo_Ab_Form&lt;/b&gt;"><path codeLine="5" d="M341.0596,229.8673 C341.0596,251.816 341.0596,278.5958 341.0596,307.9021 " fill="none" id="&lt;b&gt;TForm&lt;/b&gt;-backto-&lt;b&gt;TUndo_Ab_Form&lt;/b&gt;" style="stroke:#181818;stroke-width:1.6556291390728477;"/><polygon fill="none" points="329.4702,229.1852,341.0596,196.0726,352.649,229.1852,329.4702,229.1852" style="stroke:#181818;stroke-width:1.6556291390728477;"/></g><!--MD5=[631ca04fc9016dcc3dcd210532ec32e8]
@startuml
title Исходный файл: "Undo_Ab_Unit.cpp"

scale 750 width

"<b>TUndo_Ab_Form</b>" -up-|> "<b>TForm</b>"

hide "<b>TForm</b>" members

class "<b>TUndo_Ab_Form</b>"
{
    + BitBtn2 \t\t: <i>TBitBtn *</i>
    + BitBtn3 \t\t: <i>TBitBtn *</i>
    ..
    + DBGrid1 \t: <i>TDBGrid *</i>
    ..
    + Edit1 \t\t: <i>TEdit *</i>
    ..
    + Label1 \t\t: <i>TLabel *</i>
    + Label35 \t\t: <i>TLabel *</i>
    ..
    + Panel1 \t\t: <i>TPanel *</i>
    + Panel2 \t\t: <i>TPanel *</i>
    + Panel3 \t\t: <i>TPanel *</i>
    - -
    
    + <b>TUndo_Ab_Form \t(Owner \t: <i>TComponent *</i>)</b>

    + BitBtn2Click \t\t(Sender \t: <i>TObject *</i>) : <i>void</i>
    + BitBtn3Click \t\t(Sender \t: <i>TObject *</i>) : <i>void</i>
    + Edit1Change \t(Sender \t: <i>TObject *</i>) : <i>void</i>
    + FormActivate \t(Sender \t: <i>TObject *</i>) : <i>void</i>
    ..
    + FormClose \t\t(
            \t\tSender \t: <i>TObject *</i>,
            \t\tAction \t: <i>TCloseAction &</i>
        \t) : <i>void</i>
}


package TUndo_Ab_Form <<Folder>>
{
    class TUndo_Ab_Form
    hide  members
}


' note right of "<b>TUndo_Ab_Form</b>"::Save_Priv
' сохранение привелегий (сирота, Чаэс, инвалид)
' end note
@enduml

@startuml
title Исходный файл: "Undo_Ab_Unit.cpp"

scale 750 width

"<b>TUndo_Ab_Form</b>" -up-|> "<b>TForm</b>"

hide "<b>TForm</b>" members

class "<b>TUndo_Ab_Form</b>"
{
    + BitBtn2 \t\t: <i>TBitBtn *</i>
    + BitBtn3 \t\t: <i>TBitBtn *</i>
    ..
    + DBGrid1 \t: <i>TDBGrid *</i>
    ..
    + Edit1 \t\t: <i>TEdit *</i>
    ..
    + Label1 \t\t: <i>TLabel *</i>
    + Label35 \t\t: <i>TLabel *</i>
    ..
    + Panel1 \t\t: <i>TPanel *</i>
    + Panel2 \t\t: <i>TPanel *</i>
    + Panel3 \t\t: <i>TPanel *</i>
    - -
    
    + <b>TUndo_Ab_Form \t(Owner \t: <i>TComponent *</i>)</b>

    + BitBtn2Click \t\t(Sender \t: <i>TObject *</i>) : <i>void</i>
    + BitBtn3Click \t\t(Sender \t: <i>TObject *</i>) : <i>void</i>
    + Edit1Change \t(Sender \t: <i>TObject *</i>) : <i>void</i>
    + FormActivate \t(Sender \t: <i>TObject *</i>) : <i>void</i>
    ..
    + FormClose \t\t(
            \t\tSender \t: <i>TObject *</i>,
            \t\tAction \t: <i>TCloseAction &</i>
        \t) : <i>void</i>
}


package TUndo_Ab_Form <<Folder>>
{
    class TUndo_Ab_Form
    hide  members
}


@enduml

PlantUML version 1.2022.5(Sat Apr 30 10:55:52 UTC 2022)
(GPL source distribution)
Java Runtime: Java(TM) SE Runtime Environment
JVM: Java HotSpot(TM) 64-Bit Server VM
Default Encoding: UTF-8
Language: en
Country: US
--></g></svg>