<?xml version="1.0" encoding="UTF-8" standalone="no"?><svg xmlns="http://www.w3.org/2000/svg" xmlns:xlink="http://www.w3.org/1999/xlink" contentStyleType="text/css" height="633.8028px" preserveAspectRatio="none" style="width:751px;height:633px;background:#FFFFFF;" version="1.1" viewBox="0 0 751 633" width="751.5091px" zoomAndPan="magnify"><defs/><g><rect height="39.6834" style="stroke:#00000000;stroke-width:1.5090543259557343;fill:none;" width="513.0785" x="108.6519" y="7.5453"/><text fill="#000000" font-family="sans-serif" font-size="21.1268" font-weight="bold" lengthAdjust="spacing" textLength="497.9879" x="116.1972" y="34.7009">Исходный файл: "ListDocIndexUnit.cpp"</text><!--MD5=[84cbddb4762fc0126de6300c22014dd2]
cluster TListDocIndexForm--><g id="cluster_TListDocIndexForm"><path d="M436.8712,65.3373 L673.7928,65.3373 A5.659,5.659 0 0 1 677.5654,69.11 L688.1288,98.9845 L737.173,98.9845 A3.7726,3.7726 0 0 1 740.9457,102.7572 L740.9457,210.9611 A3.7726,3.7726 0 0 1 737.173,214.7337 L436.8712,214.7337 A3.7726,3.7726 0 0 1 433.0986,210.9611 L433.0986,69.11 A3.7726,3.7726 0 0 1 436.8712,65.3373 " style="stroke:#000000;stroke-width:2.2635814889336014;fill:none;"/><line style="stroke:#000000;stroke-width:2.2635814889336014;fill:none;" x1="433.0986" x2="688.1288" y1="98.9845" y2="98.9845"/><text fill="#000000" font-family="sans-serif" font-size="21.1268" font-weight="bold" lengthAdjust="spacing" textLength="235.4125" x="439.1348" y="87.9658">TListDocIndexForm</text></g><!--MD5=[8310b5545dde1b546a0e86c521234415]
class TListDocIndexForm--><g id="elem_TListDocIndexForm"><rect codeLine="29" fill="#F1F1F1" height="72.4346" id="TListDocIndexForm" rx="3.7726" ry="3.7726" style="stroke:#181818;stroke-width:0.7545271629778671;" width="258.0483" x="457.998" y="118.1542"/><ellipse cx="480.6338" cy="142.2991" fill="#ADD1B2" rx="16.5996" ry="16.5996" style="stroke:#181818;stroke-width:1.5090543259557343;"/><path d="M484.1706,135.7677 C482.7559,135.1075 481.8599,134.8953 480.5395,134.8953 C476.5782,134.8953 473.5601,138.0313 473.5601,142.1341 L473.5601,143.8317 C473.5601,147.7223 476.7433,150.5753 481.1054,150.5753 C482.9445,150.5753 484.6894,150.1273 485.8212,149.3021 C486.6936,148.689 487.1888,148.0052 487.1888,147.4157 C487.1888,146.732 486.5993,146.1425 485.8919,146.1425 C485.5618,146.1425 485.2553,146.2604 484.9723,146.5433 C484.2885,147.2743 484.2885,147.2743 484.0056,147.4157 C483.369,147.8166 482.3315,148.0052 481.1761,148.0052 C478.0873,148.0052 476.1302,146.3547 476.1302,143.7846 L476.1302,142.1341 C476.1302,139.4461 478.0165,137.4654 480.6338,137.4654 C481.5062,137.4654 482.4258,137.7012 483.1332,138.0785 C483.8641,138.5029 484.1235,138.833 484.265,139.4461 C484.3593,140.0591 484.4064,140.2477 484.6186,140.4364 C484.8309,140.6486 485.1845,140.8136 485.5147,140.8136 C485.9155,140.8136 486.3163,140.6014 486.5757,140.2713 C486.7408,140.0355 486.7879,139.7526 486.7879,139.1159 L486.7879,136.9703 C486.7879,136.31 486.7643,136.1214 486.6229,135.8856 C486.3871,135.4848 485.9627,135.2726 485.5147,135.2726 C485.0666,135.2726 484.7601,135.414 484.43,135.8856 L484.1706,135.7677 Z " fill="#000000"/><text fill="#000000" font-family="sans-serif" font-size="21.1268" lengthAdjust="spacing" textLength="209.7586" x="501.7606" y="149.613">TListDocIndexForm</text><line style="stroke:#181818;stroke-width:0.7545271629778671;" x1="459.507" x2="714.5372" y1="166.444" y2="166.444"/><line style="stroke:#181818;stroke-width:0.7545271629778671;" x1="459.507" x2="714.5372" y1="178.5164" y2="178.5164"/></g><!--MD5=[6b755c30329830d153f839989a47c3f3]
class <b>TListDocIndexForm</b>--><g id="elem_&lt;b&gt;TListDocIndexForm&lt;/b&gt;"><rect codeLine="9" fill="#F1F1F1" height="342.5082" id="&lt;b&gt;TListDocIndexForm&lt;/b&gt;" rx="3.7726" ry="3.7726" style="stroke:#181818;stroke-width:0.7545271629778671;" width="660.9658" x="10.5634" y="281.1321"/><ellipse cx="216.9266" cy="305.277" fill="#ADD1B2" rx="16.5996" ry="16.5996" style="stroke:#181818;stroke-width:1.5090543259557343;"/><path d="M220.4634,298.7456 C219.0487,298.0854 218.1527,297.8732 216.8322,297.8732 C212.871,297.8732 209.8529,301.0092 209.8529,305.1119 L209.8529,306.8096 C209.8529,310.7001 213.036,313.5532 217.3981,313.5532 C219.2373,313.5532 220.9821,313.1052 222.1139,312.2799 C222.9864,311.6669 223.4815,310.9831 223.4815,310.3936 C223.4815,309.7098 222.892,309.1203 222.1847,309.1203 C221.8546,309.1203 221.548,309.2382 221.2651,309.5212 C220.5813,310.2521 220.5813,310.2521 220.2984,310.3936 C219.6617,310.7945 218.6242,310.9831 217.4689,310.9831 C214.38,310.9831 212.423,309.3326 212.423,306.7624 L212.423,305.1119 C212.423,302.4239 214.3093,300.4433 216.9266,300.4433 C217.799,300.4433 218.7186,300.6791 219.4259,301.0563 C220.1569,301.4808 220.4162,301.8109 220.5577,302.4239 C220.652,303.037 220.6992,303.2256 220.9114,303.4142 C221.1236,303.6264 221.4773,303.7915 221.8074,303.7915 C222.2082,303.7915 222.6091,303.5793 222.8685,303.2492 C223.0335,303.0134 223.0807,302.7304 223.0807,302.0938 L223.0807,299.9481 C223.0807,299.2879 223.0571,299.0993 222.9156,298.8635 C222.6798,298.4627 222.2554,298.2504 221.8074,298.2504 C221.3594,298.2504 221.0529,298.3919 220.7228,298.8635 L220.4634,298.7456 Z " fill="#000000"/><text fill="#000000" font-family="sans-serif" font-size="21.1268" font-weight="bold" lengthAdjust="spacing" textLength="235.4125" x="247.8622" y="312.5909">TListDocIndexForm</text><line style="stroke:#181818;stroke-width:0.7545271629778671;" x1="12.0724" x2="670.0201" y1="329.4218" y2="329.4218"/><ellipse cx="27.163" cy="346.0214" fill="none" rx="4.5272" ry="4.5272" style="stroke:#038048;stroke-width:1.5090543259557343;"/><text fill="#000000" font-family="sans-serif" font-size="21.1268" lengthAdjust="spacing" textLength="84.507" x="40.7445" y="355.0684">BitBtn1</text><text fill="#000000" font-family="sans-serif" font-size="21.1268" lengthAdjust="spacing" textLength="7.5453" x="185.6137" y="355.0684">:</text><text fill="#000000" font-family="sans-serif" font-size="21.1268" font-style="italic" lengthAdjust="spacing" textLength="95.0704" x="199.1952" y="355.0684">TBitBtn *</text><line style="stroke:#181818;stroke-width:1.5090543259557343;stroke-dasharray:1.0,2.0;" x1="12.0724" x2="670.0201" y1="366.0871" y2="366.0871"/><ellipse cx="27.163" cy="382.6867" fill="none" rx="4.5272" ry="4.5272" style="stroke:#038048;stroke-width:1.5090543259557343;"/><text fill="#000000" font-family="sans-serif" font-size="21.1268" lengthAdjust="spacing" textLength="96.5795" x="40.7445" y="391.7337">DateEdit</text><text fill="#000000" font-family="sans-serif" font-size="21.1268" lengthAdjust="spacing" textLength="7.5453" x="185.6137" y="391.7337">:</text><text fill="#000000" font-family="sans-serif" font-size="21.1268" font-style="italic" lengthAdjust="spacing" textLength="70.9256" x="199.1952" y="391.7337">TEdit *</text><ellipse cx="27.163" cy="407.2796" fill="none" rx="4.5272" ry="4.5272" style="stroke:#038048;stroke-width:1.5090543259557343;"/><text fill="#000000" font-family="sans-serif" font-size="21.1268" lengthAdjust="spacing" textLength="102.6157" x="40.7445" y="416.3266">IndexEdit</text><text fill="#000000" font-family="sans-serif" font-size="21.1268" lengthAdjust="spacing" textLength="7.5453" x="185.6137" y="416.3266">:</text><text fill="#000000" font-family="sans-serif" font-size="21.1268" font-style="italic" lengthAdjust="spacing" textLength="70.9256" x="199.1952" y="416.3266">TEdit *</text><line style="stroke:#181818;stroke-width:1.5090543259557343;stroke-dasharray:1.0,2.0;" x1="12.0724" x2="670.0201" y1="427.3453" y2="427.3453"/><ellipse cx="27.163" cy="443.9449" fill="none" rx="4.5272" ry="4.5272" style="stroke:#038048;stroke-width:1.5090543259557343;"/><text fill="#000000" font-family="sans-serif" font-size="21.1268" lengthAdjust="spacing" textLength="72.4346" x="40.7445" y="452.9919">Label1</text><text fill="#000000" font-family="sans-serif" font-size="21.1268" lengthAdjust="spacing" textLength="7.5453" x="185.6137" y="452.9919">:</text><text fill="#000000" font-family="sans-serif" font-size="21.1268" font-style="italic" lengthAdjust="spacing" textLength="89.0342" x="199.1952" y="452.9919">TLabel *</text><ellipse cx="27.163" cy="468.5378" fill="none" rx="4.5272" ry="4.5272" style="stroke:#038048;stroke-width:1.5090543259557343;"/><text fill="#000000" font-family="sans-serif" font-size="21.1268" lengthAdjust="spacing" textLength="70.9256" x="40.7445" y="477.5847">Label2</text><text fill="#000000" font-family="sans-serif" font-size="21.1268" lengthAdjust="spacing" textLength="7.5453" x="185.6137" y="477.5847">:</text><text fill="#000000" font-family="sans-serif" font-size="21.1268" font-style="italic" lengthAdjust="spacing" textLength="89.0342" x="199.1952" y="477.5847">TLabel *</text><ellipse cx="27.163" cy="493.1307" fill="none" rx="4.5272" ry="4.5272" style="stroke:#038048;stroke-width:1.5090543259557343;"/><text fill="#000000" font-family="sans-serif" font-size="21.1268" lengthAdjust="spacing" textLength="99.5976" x="40.7445" y="502.1776">Text_doc</text><text fill="#000000" font-family="sans-serif" font-size="21.1268" lengthAdjust="spacing" textLength="7.5453" x="185.6137" y="502.1776">:</text><text fill="#000000" font-family="sans-serif" font-size="21.1268" font-style="italic" lengthAdjust="spacing" textLength="89.0342" x="199.1952" y="502.1776">TLabel *</text><line style="stroke:#181818;stroke-width:1.5090543259557343;" x1="12.0724" x2="670.0201" y1="513.1964" y2="513.1964"/><text fill="#000000" font-family="sans-serif" font-size="21.1268" lengthAdjust="spacing" textLength="6.0362" x="40.7445" y="538.8429"> </text><ellipse cx="27.163" cy="554.3888" fill="#84BE84" rx="4.5272" ry="4.5272" style="stroke:#038048;stroke-width:1.5090543259557343;"/><text fill="#000000" font-family="sans-serif" font-size="21.1268" font-weight="bold" lengthAdjust="spacing" textLength="235.4125" x="40.7445" y="563.4358">TListDocIndexForm</text><text fill="#000000" font-family="sans-serif" font-size="21.1268" font-weight="bold" lengthAdjust="spacing" textLength="86.0161" x="342.5553" y="563.4358">(Owner</text><text fill="#000000" font-family="sans-serif" font-size="21.1268" font-weight="bold" lengthAdjust="spacing" textLength="9.0543" x="463.2797" y="563.4358">:</text><text fill="#000000" font-family="sans-serif" font-size="21.1268" font-style="italic" font-weight="bold" lengthAdjust="spacing" textLength="172.0322" x="479.8793" y="563.4358">TComponent *</text><text fill="#000000" font-family="sans-serif" font-size="21.1268" font-weight="bold" lengthAdjust="spacing" textLength="10.5634" x="651.9115" y="563.4358">)</text><text fill="#000000" font-family="sans-serif" font-size="21.1268" lengthAdjust="spacing" textLength="6.0362" x="40.7445" y="588.0287"> </text><ellipse cx="27.163" cy="603.5746" fill="#84BE84" rx="4.5272" ry="4.5272" style="stroke:#038048;stroke-width:1.5090543259557343;"/><text fill="#000000" font-family="sans-serif" font-size="21.1268" lengthAdjust="spacing" textLength="137.3239" x="40.7445" y="612.6215">BitBtn1Click</text><text fill="#000000" font-family="sans-serif" font-size="21.1268" lengthAdjust="spacing" textLength="84.507" x="233.9034" y="612.6215">(Sender</text><text fill="#000000" font-family="sans-serif" font-size="21.1268" lengthAdjust="spacing" textLength="7.5453" x="330.4829" y="612.6215">:</text><text fill="#000000" font-family="sans-serif" font-size="21.1268" font-style="italic" lengthAdjust="spacing" textLength="99.5976" x="344.0644" y="612.6215">TObject *</text><text fill="#000000" font-family="sans-serif" font-size="21.1268" lengthAdjust="spacing" textLength="21.1268" x="443.662" y="612.6215">) :</text><text fill="#000000" font-family="sans-serif" font-size="21.1268" font-style="italic" lengthAdjust="spacing" textLength="45.2716" x="470.8249" y="612.6215">void</text></g><!--MD5=[dd0bf217da5c5e97452bc452f42aff32]
class <b>TForm</b>--><g id="elem_&lt;b&gt;TForm&lt;/b&gt;"><rect fill="#F1F1F1" height="48.2897" id="&lt;b&gt;TForm&lt;/b&gt;" rx="3.7726" ry="3.7726" style="stroke:#181818;stroke-width:0.7545271629778671;" width="126.7606" x="277.666" y="130.2267"/><ellipse cx="300.3018" cy="154.3715" fill="#ADD1B2" rx="16.5996" ry="16.5996" style="stroke:#181818;stroke-width:1.5090543259557343;"/><path d="M303.8387,147.8402 C302.4239,147.18 301.5279,146.9677 300.2075,146.9677 C296.2462,146.9677 293.2281,150.1037 293.2281,154.2065 L293.2281,155.9042 C293.2281,159.7947 296.4113,162.6478 300.7734,162.6478 C302.6126,162.6478 304.3574,162.1998 305.4892,161.3745 C306.3616,160.7614 306.8568,160.0777 306.8568,159.4882 C306.8568,158.8044 306.2673,158.2149 305.5599,158.2149 C305.2298,158.2149 304.9233,158.3328 304.6403,158.6158 C303.9566,159.3467 303.9566,159.3467 303.6736,159.4882 C303.037,159.889 301.9995,160.0777 300.8441,160.0777 C297.7553,160.0777 295.7982,158.4271 295.7982,155.857 L295.7982,154.2065 C295.7982,151.5185 297.6845,149.5379 300.3018,149.5379 C301.1742,149.5379 302.0938,149.7736 302.8012,150.1509 C303.5321,150.5753 303.7915,150.9054 303.933,151.5185 C304.0273,152.1315 304.0744,152.3202 304.2867,152.5088 C304.4989,152.721 304.8526,152.8861 305.1827,152.8861 C305.5835,152.8861 305.9843,152.6739 306.2437,152.3438 C306.4088,152.108 306.4559,151.825 306.4559,151.1884 L306.4559,149.0427 C306.4559,148.3825 306.4323,148.1939 306.2909,147.9581 C306.0551,147.5572 305.6307,147.345 305.1827,147.345 C304.7347,147.345 304.4281,147.4865 304.098,147.9581 L303.8387,147.8402 Z " fill="#000000"/><text fill="#000000" font-family="sans-serif" font-size="21.1268" font-weight="bold" lengthAdjust="spacing" textLength="78.4708" x="321.4286" y="161.6854">TForm</text></g><!--MD5=[10a4d48e984454d2cf144340e94029aa]
reverse link <b>TForm</b> to <b>TListDocIndexForm</b>--><g id="link_&lt;b&gt;TForm&lt;/b&gt;_&lt;b&gt;TListDocIndexForm&lt;/b&gt;"><path codeLine="5" d="M341.0463,208.8348 C341.0463,229.6175 341.0463,254.7267 341.0463,280.8016 " fill="none" id="&lt;b&gt;TForm&lt;/b&gt;-backto-&lt;b&gt;TListDocIndexForm&lt;/b&gt;" style="stroke:#181818;stroke-width:1.5090543259557343;"/><polygon fill="none" points="330.4829,208.7216,341.0463,178.5406,351.6097,208.7216,330.4829,208.7216" style="stroke:#181818;stroke-width:1.5090543259557343;"/></g><!--MD5=[7ddc13d79767971406ae9cb8929a2b97]
@startuml
title Исходный файл: "ListDocIndexUnit.cpp"

scale 750 width

"<b>TListDocIndexForm</b>" -up-|> "<b>TForm</b>"

hide "<b>TForm</b>" members

class "<b>TListDocIndexForm</b>"
{
    + BitBtn1 \t\t: <i>TBitBtn *</i>
    ..
    + DateEdit \t: <i>TEdit *</i>
    + IndexEdit \t: <i>TEdit *</i>
    ..
    + Label1 \t\t: <i>TLabel *</i>
    + Label2 \t\t: <i>TLabel *</i>
    + Text_doc \t: <i>TLabel *</i>
    - -
    
    + <b>TListDocIndexForm \t(Owner \t: <i>TComponent *</i>)</b>

    + BitBtn1Click \t\t(Sender \t: <i>TObject *</i>) : <i>void</i>
}


package TListDocIndexForm <<Folder>>
{
    class TListDocIndexForm
    hide  members
}


' note right of "<b>TListDocIndexForm</b>"::Save_Priv
' сохранение привелегий (сирота, Чаэс, инвалид)
' end note
@enduml

@startuml
title Исходный файл: "ListDocIndexUnit.cpp"

scale 750 width

"<b>TListDocIndexForm</b>" -up-|> "<b>TForm</b>"

hide "<b>TForm</b>" members

class "<b>TListDocIndexForm</b>"
{
    + BitBtn1 \t\t: <i>TBitBtn *</i>
    ..
    + DateEdit \t: <i>TEdit *</i>
    + IndexEdit \t: <i>TEdit *</i>
    ..
    + Label1 \t\t: <i>TLabel *</i>
    + Label2 \t\t: <i>TLabel *</i>
    + Text_doc \t: <i>TLabel *</i>
    - -
    
    + <b>TListDocIndexForm \t(Owner \t: <i>TComponent *</i>)</b>

    + BitBtn1Click \t\t(Sender \t: <i>TObject *</i>) : <i>void</i>
}


package TListDocIndexForm <<Folder>>
{
    class TListDocIndexForm
    hide  members
}


@enduml

PlantUML version 1.2022.5(Sat Apr 30 10:55:52 UTC 2022)
(GPL source distribution)
Java Runtime: Java(TM) SE Runtime Environment
JVM: Java HotSpot(TM) 64-Bit Server VM
Default Encoding: UTF-8
Language: en
Country: US
--></g></svg>