<?xml version="1.0" encoding="UTF-8" standalone="no"?><svg xmlns="http://www.w3.org/2000/svg" xmlns:xlink="http://www.w3.org/1999/xlink" contentStyleType="text/css" height="1115.9737px" preserveAspectRatio="none" style="width:751px;height:1115px;background:#FFFFFF;" version="1.1" viewBox="0 0 751 1115" width="751.6411px" zoomAndPan="magnify"><defs/><g><rect height="43.1568" style="stroke:#00000000;stroke-width:1.6411378555798688;fill:none;" width="520.2407" x="104.2123" y="8.2057"/><text fill="#000000" font-family="sans-serif" font-size="22.9759" font-weight="bold" lengthAdjust="spacing" textLength="503.8293" x="112.4179" y="37.7382">Исходный файл: "Priv_EnterUnit.cpp"</text><!--MD5=[e3b131e1b854dd8f963d2e8fc8750ff7]
cluster TPriv_EnterForm--><g id="cluster_TPriv_EnterForm"><path d="M442.2867,71.0561 L662.1991,71.0561 A6.1543,6.1543 0 0 1 666.302,75.159 L677.7899,107.6484 L736.0503,107.6484 A4.1028,4.1028 0 0 1 740.1532,111.7512 L740.1532,229.4259 A4.1028,4.1028 0 0 1 736.0503,233.5288 L442.2867,233.5288 A4.1028,4.1028 0 0 1 438.1838,229.4259 L438.1838,75.159 A4.1028,4.1028 0 0 1 442.2867,71.0561 " style="stroke:#000000;stroke-width:2.461706783369803;fill:none;"/><line style="stroke:#000000;stroke-width:2.461706783369803;fill:none;" x1="438.1838" x2="677.7899" y1="107.6484" y2="107.6484"/><text fill="#000000" font-family="sans-serif" font-size="22.9759" font-weight="bold" lengthAdjust="spacing" textLength="218.2713" x="444.7484" y="95.6652">TPriv_EnterForm</text></g><!--MD5=[ef8a3e8729814147b87523dcf1e43525]
class TPriv_EnterForm--><g id="elem_TPriv_EnterForm"><rect codeLine="46" fill="#F1F1F1" height="78.7746" id="TPriv_EnterForm" rx="4.1028" ry="4.1028" style="stroke:#181818;stroke-width:0.8205689277899344;" width="249.453" x="464.442" y="128.496"/><ellipse cx="489.0591" cy="154.7542" fill="#ADD1B2" rx="18.0525" ry="18.0525" style="stroke:#181818;stroke-width:1.6411378555798688;"/><path d="M492.9055,147.6511 C491.3669,146.9331 490.3925,146.7023 488.9565,146.7023 C484.6485,146.7023 481.3662,150.1128 481.3662,154.5747 L481.3662,156.421 C481.3662,160.652 484.828,163.7548 489.5719,163.7548 C491.5721,163.7548 493.4696,163.2676 494.7005,162.3701 C495.6493,161.7034 496.1878,160.9597 496.1878,160.3187 C496.1878,159.575 495.5467,158.9339 494.7774,158.9339 C494.4184,158.9339 494.0851,159.0622 493.7774,159.3699 C493.0337,160.1648 493.0337,160.1648 492.726,160.3187 C492.0336,160.7546 490.9054,160.9597 489.6489,160.9597 C486.2897,160.9597 484.1613,159.1647 484.1613,156.3697 L484.1613,154.5747 C484.1613,151.6514 486.2127,149.4974 489.0591,149.4974 C490.0079,149.4974 491.0079,149.7538 491.7772,150.1641 C492.5721,150.6257 492.8542,150.9847 493.0081,151.6514 C493.1106,152.3181 493.1619,152.5232 493.3927,152.7284 C493.6235,152.9592 494.0081,153.1387 494.3671,153.1387 C494.8031,153.1387 495.239,152.9079 495.5211,152.5489 C495.7006,152.2925 495.7518,151.9848 495.7518,151.2924 L495.7518,148.9589 C495.7518,148.2409 495.7262,148.0358 495.5723,147.7793 C495.3159,147.3434 494.8543,147.1126 494.3671,147.1126 C493.8799,147.1126 493.5466,147.2665 493.1876,147.7793 L492.9055,147.6511 Z " fill="#000000"/><text fill="#000000" font-family="sans-serif" font-size="22.9759" lengthAdjust="spacing" textLength="196.9365" x="512.035" y="162.7082">TPriv_EnterForm</text><line style="stroke:#181818;stroke-width:0.8205689277899344;" x1="466.0832" x2="712.2538" y1="181.0124" y2="181.0124"/><line style="stroke:#181818;stroke-width:0.8205689277899344;" x1="466.0832" x2="712.2538" y1="194.1415" y2="194.1415"/></g><!--MD5=[c57ac2bf3d78ac3b1d9eff15a063a973]
class <b>TPriv_EnterForm</b>--><g id="elem_&lt;b&gt;TPriv_EnterForm&lt;/b&gt;"><rect codeLine="9" fill="#F1F1F1" height="799.9265" id="&lt;b&gt;TPriv_EnterForm&lt;/b&gt;" rx="4.1028" ry="4.1028" style="stroke:#181818;stroke-width:0.8205689277899344;" width="653.1729" x="11.488" y="305.7389"/><ellipse cx="221.9639" cy="331.9971" fill="#ADD1B2" rx="18.0525" ry="18.0525" style="stroke:#181818;stroke-width:1.6411378555798688;"/><path d="M225.8103,324.894 C224.2717,324.176 223.2973,323.9452 221.8613,323.9452 C217.5533,323.9452 214.2711,327.3557 214.2711,331.8176 L214.2711,333.6638 C214.2711,337.8949 217.7328,340.9977 222.4768,340.9977 C224.4769,340.9977 226.3745,340.5105 227.6053,339.613 C228.5541,338.9463 229.0926,338.2026 229.0926,337.5615 C229.0926,336.8179 228.4515,336.1768 227.6822,336.1768 C227.3232,336.1768 226.9899,336.305 226.6822,336.6128 C225.9385,337.4077 225.9385,337.4077 225.6308,337.5615 C224.9385,337.9975 223.8102,338.2026 222.5537,338.2026 C219.1945,338.2026 217.0661,336.4076 217.0661,333.6126 L217.0661,331.8176 C217.0661,328.8943 219.1175,326.7403 221.9639,326.7403 C222.9127,326.7403 223.9127,326.9967 224.682,327.407 C225.477,327.8686 225.759,328.2276 225.9129,328.8943 C226.0155,329.561 226.0667,329.7661 226.2975,329.9713 C226.5283,330.2021 226.913,330.3816 227.272,330.3816 C227.7079,330.3816 228.1438,330.1508 228.4259,329.7918 C228.6054,329.5354 228.6567,329.2276 228.6567,328.5353 L228.6567,326.2018 C228.6567,325.4838 228.631,325.2787 228.4772,325.0222 C228.2207,324.5863 227.7592,324.3555 227.272,324.3555 C226.7847,324.3555 226.4514,324.5094 226.0924,325.0222 L225.8103,324.894 Z " fill="#000000"/><text fill="#000000" font-family="sans-serif" font-size="22.9759" font-weight="bold" lengthAdjust="spacing" textLength="218.2713" x="255.6072" y="339.9511">TPriv_EnterForm</text><line style="stroke:#181818;stroke-width:0.8205689277899344;" x1="13.1291" x2="663.0197" y1="358.2553" y2="358.2553"/><ellipse cx="29.5405" cy="376.3078" fill="none" rx="4.9234" ry="4.9234" style="stroke:#038048;stroke-width:1.6411378555798688;"/><text fill="#000000" font-family="sans-serif" font-size="22.9759" lengthAdjust="spacing" textLength="91.9037" x="44.3107" y="386.1466">BitBtn1</text><text fill="#000000" font-family="sans-serif" font-size="22.9759" lengthAdjust="spacing" textLength="8.2057" x="201.86" y="386.1466">:</text><text fill="#000000" font-family="sans-serif" font-size="22.9759" font-style="italic" lengthAdjust="spacing" textLength="103.3917" x="216.6302" y="386.1466">TBitBtn *</text><ellipse cx="29.5405" cy="403.0532" fill="none" rx="4.9234" ry="4.9234" style="stroke:#038048;stroke-width:1.6411378555798688;"/><text fill="#000000" font-family="sans-serif" font-size="22.9759" lengthAdjust="spacing" textLength="90.2626" x="44.3107" y="412.892">BitBtn2</text><text fill="#000000" font-family="sans-serif" font-size="22.9759" lengthAdjust="spacing" textLength="8.2057" x="201.86" y="412.892">:</text><text fill="#000000" font-family="sans-serif" font-size="22.9759" font-style="italic" lengthAdjust="spacing" textLength="103.3917" x="216.6302" y="412.892">TBitBtn *</text><ellipse cx="29.5405" cy="429.7986" fill="none" rx="4.9234" ry="4.9234" style="stroke:#038048;stroke-width:1.6411378555798688;"/><text fill="#000000" font-family="sans-serif" font-size="22.9759" lengthAdjust="spacing" textLength="91.9037" x="44.3107" y="439.6374">BitBtn3</text><text fill="#000000" font-family="sans-serif" font-size="22.9759" lengthAdjust="spacing" textLength="8.2057" x="201.86" y="439.6374">:</text><text fill="#000000" font-family="sans-serif" font-size="22.9759" font-style="italic" lengthAdjust="spacing" textLength="103.3917" x="216.6302" y="439.6374">TBitBtn *</text><ellipse cx="29.5405" cy="456.544" fill="none" rx="4.9234" ry="4.9234" style="stroke:#038048;stroke-width:1.6411378555798688;"/><text fill="#000000" font-family="sans-serif" font-size="22.9759" lengthAdjust="spacing" textLength="90.2626" x="44.3107" y="466.3829">BitBtn4</text><text fill="#000000" font-family="sans-serif" font-size="22.9759" lengthAdjust="spacing" textLength="8.2057" x="201.86" y="466.3829">:</text><text fill="#000000" font-family="sans-serif" font-size="22.9759" font-style="italic" lengthAdjust="spacing" textLength="103.3917" x="216.6302" y="466.3829">TBitBtn *</text><ellipse cx="29.5405" cy="483.2895" fill="none" rx="4.9234" ry="4.9234" style="stroke:#038048;stroke-width:1.6411378555798688;"/><text fill="#000000" font-family="sans-serif" font-size="22.9759" lengthAdjust="spacing" textLength="91.9037" x="44.3107" y="493.1283">BitBtn5</text><text fill="#000000" font-family="sans-serif" font-size="22.9759" lengthAdjust="spacing" textLength="8.2057" x="201.86" y="493.1283">:</text><text fill="#000000" font-family="sans-serif" font-size="22.9759" font-style="italic" lengthAdjust="spacing" textLength="103.3917" x="216.6302" y="493.1283">TBitBtn *</text><line style="stroke:#181818;stroke-width:1.6411378555798688;stroke-dasharray:1.0,2.0;" x1="13.1291" x2="663.0197" y1="505.1115" y2="505.1115"/><ellipse cx="29.5405" cy="523.164" fill="none" rx="4.9234" ry="4.9234" style="stroke:#038048;stroke-width:1.6411378555798688;"/><text fill="#000000" font-family="sans-serif" font-size="22.9759" lengthAdjust="spacing" textLength="98.4683" x="44.3107" y="533.0028">DBGrid1</text><text fill="#000000" font-family="sans-serif" font-size="22.9759" lengthAdjust="spacing" textLength="8.2057" x="201.86" y="533.0028">:</text><text fill="#000000" font-family="sans-serif" font-size="22.9759" font-style="italic" lengthAdjust="spacing" textLength="116.5208" x="216.6302" y="533.0028">TDBGrid *</text><line style="stroke:#181818;stroke-width:1.6411378555798688;stroke-dasharray:1.0,2.0;" x1="13.1291" x2="663.0197" y1="544.986" y2="544.986"/><ellipse cx="29.5405" cy="563.0385" fill="none" rx="4.9234" ry="4.9234" style="stroke:#038048;stroke-width:1.6411378555798688;"/><text fill="#000000" font-family="sans-serif" font-size="22.9759" lengthAdjust="spacing" textLength="103.3917" x="44.3107" y="572.8773">DBText1</text><text fill="#000000" font-family="sans-serif" font-size="22.9759" lengthAdjust="spacing" textLength="8.2057" x="201.86" y="572.8773">:</text><text fill="#000000" font-family="sans-serif" font-size="22.9759" font-style="italic" lengthAdjust="spacing" textLength="118.1619" x="216.6302" y="572.8773">TDBText *</text><ellipse cx="29.5405" cy="589.7839" fill="none" rx="4.9234" ry="4.9234" style="stroke:#038048;stroke-width:1.6411378555798688;"/><text fill="#000000" font-family="sans-serif" font-size="22.9759" lengthAdjust="spacing" textLength="101.7505" x="44.3107" y="599.6227">DBText2</text><text fill="#000000" font-family="sans-serif" font-size="22.9759" lengthAdjust="spacing" textLength="8.2057" x="201.86" y="599.6227">:</text><text fill="#000000" font-family="sans-serif" font-size="22.9759" font-style="italic" lengthAdjust="spacing" textLength="118.1619" x="216.6302" y="599.6227">TDBText *</text><ellipse cx="29.5405" cy="616.5293" fill="none" rx="4.9234" ry="4.9234" style="stroke:#038048;stroke-width:1.6411378555798688;"/><text fill="#000000" font-family="sans-serif" font-size="22.9759" lengthAdjust="spacing" textLength="103.3917" x="44.3107" y="626.3681">DBText3</text><text fill="#000000" font-family="sans-serif" font-size="22.9759" lengthAdjust="spacing" textLength="8.2057" x="201.86" y="626.3681">:</text><text fill="#000000" font-family="sans-serif" font-size="22.9759" font-style="italic" lengthAdjust="spacing" textLength="118.1619" x="216.6302" y="626.3681">TDBText *</text><line style="stroke:#181818;stroke-width:1.6411378555798688;stroke-dasharray:1.0,2.0;" x1="13.1291" x2="663.0197" y1="638.3513" y2="638.3513"/><ellipse cx="29.5405" cy="656.4039" fill="none" rx="4.9234" ry="4.9234" style="stroke:#038048;stroke-width:1.6411378555798688;"/><text fill="#000000" font-family="sans-serif" font-size="22.9759" lengthAdjust="spacing" textLength="78.7746" x="44.3107" y="666.2427">Panel1</text><text fill="#000000" font-family="sans-serif" font-size="22.9759" lengthAdjust="spacing" textLength="8.2057" x="201.86" y="666.2427">:</text><text fill="#000000" font-family="sans-serif" font-size="22.9759" font-style="italic" lengthAdjust="spacing" textLength="96.8271" x="216.6302" y="666.2427">TPanel *</text><ellipse cx="29.5405" cy="683.1493" fill="none" rx="4.9234" ry="4.9234" style="stroke:#038048;stroke-width:1.6411378555798688;"/><text fill="#000000" font-family="sans-serif" font-size="22.9759" lengthAdjust="spacing" textLength="77.1335" x="44.3107" y="692.9881">Panel2</text><text fill="#000000" font-family="sans-serif" font-size="22.9759" lengthAdjust="spacing" textLength="8.2057" x="201.86" y="692.9881">:</text><text fill="#000000" font-family="sans-serif" font-size="22.9759" font-style="italic" lengthAdjust="spacing" textLength="96.8271" x="216.6302" y="692.9881">TPanel *</text><ellipse cx="29.5405" cy="709.8947" fill="none" rx="4.9234" ry="4.9234" style="stroke:#038048;stroke-width:1.6411378555798688;"/><text fill="#000000" font-family="sans-serif" font-size="22.9759" lengthAdjust="spacing" textLength="78.7746" x="44.3107" y="719.7335">Panel3</text><text fill="#000000" font-family="sans-serif" font-size="22.9759" lengthAdjust="spacing" textLength="8.2057" x="201.86" y="719.7335">:</text><text fill="#000000" font-family="sans-serif" font-size="22.9759" font-style="italic" lengthAdjust="spacing" textLength="96.8271" x="216.6302" y="719.7335">TPanel *</text><line style="stroke:#181818;stroke-width:1.6411378555798688;" x1="13.1291" x2="663.0197" y1="731.7167" y2="731.7167"/><text fill="#000000" font-family="sans-serif" font-size="22.9759" lengthAdjust="spacing" textLength="6.5646" x="44.3107" y="759.608"> </text><ellipse cx="29.5405" cy="776.5146" fill="#84BE84" rx="4.9234" ry="4.9234" style="stroke:#038048;stroke-width:1.6411378555798688;"/><text fill="#000000" font-family="sans-serif" font-size="22.9759" font-weight="bold" lengthAdjust="spacing" textLength="218.2713" x="44.3107" y="786.3534">TPriv_EnterForm</text><text fill="#000000" font-family="sans-serif" font-size="22.9759" font-weight="bold" lengthAdjust="spacing" textLength="93.5449" x="306.8928" y="786.3534">(Owner</text><text fill="#000000" font-family="sans-serif" font-size="22.9759" font-weight="bold" lengthAdjust="spacing" textLength="9.8468" x="438.1838" y="786.3534">:</text><text fill="#000000" font-family="sans-serif" font-size="22.9759" font-style="italic" font-weight="bold" lengthAdjust="spacing" textLength="187.0897" x="456.2363" y="786.3534">TComponent *</text><text fill="#000000" font-family="sans-serif" font-size="22.9759" font-weight="bold" lengthAdjust="spacing" textLength="11.488" x="643.326" y="786.3534">)</text><text fill="#000000" font-family="sans-serif" font-size="22.9759" lengthAdjust="spacing" textLength="6.5646" x="44.3107" y="813.0989"> </text><ellipse cx="29.5405" cy="830.0055" fill="#84BE84" rx="4.9234" ry="4.9234" style="stroke:#038048;stroke-width:1.6411378555798688;"/><text fill="#000000" font-family="sans-serif" font-size="22.9759" lengthAdjust="spacing" textLength="149.3435" x="44.3107" y="839.8443">BitBtn1Click</text><text fill="#000000" font-family="sans-serif" font-size="22.9759" lengthAdjust="spacing" textLength="91.9037" x="254.3764" y="839.8443">(Sender</text><text fill="#000000" font-family="sans-serif" font-size="22.9759" lengthAdjust="spacing" textLength="8.2057" x="359.4092" y="839.8443">:</text><text fill="#000000" font-family="sans-serif" font-size="22.9759" font-style="italic" lengthAdjust="spacing" textLength="108.3151" x="374.1794" y="839.8443">TObject *</text><text fill="#000000" font-family="sans-serif" font-size="22.9759" lengthAdjust="spacing" textLength="22.9759" x="482.4945" y="839.8443">) :</text><text fill="#000000" font-family="sans-serif" font-size="22.9759" font-style="italic" lengthAdjust="spacing" textLength="49.2341" x="512.035" y="839.8443">void</text><ellipse cx="29.5405" cy="856.7509" fill="#84BE84" rx="4.9234" ry="4.9234" style="stroke:#038048;stroke-width:1.6411378555798688;"/><text fill="#000000" font-family="sans-serif" font-size="22.9759" lengthAdjust="spacing" textLength="147.7024" x="44.3107" y="866.5897">BitBtn2Click</text><text fill="#000000" font-family="sans-serif" font-size="22.9759" lengthAdjust="spacing" textLength="91.9037" x="254.3764" y="866.5897">(Sender</text><text fill="#000000" font-family="sans-serif" font-size="22.9759" lengthAdjust="spacing" textLength="8.2057" x="359.4092" y="866.5897">:</text><text fill="#000000" font-family="sans-serif" font-size="22.9759" font-style="italic" lengthAdjust="spacing" textLength="108.3151" x="374.1794" y="866.5897">TObject *</text><text fill="#000000" font-family="sans-serif" font-size="22.9759" lengthAdjust="spacing" textLength="22.9759" x="482.4945" y="866.5897">) :</text><text fill="#000000" font-family="sans-serif" font-size="22.9759" font-style="italic" lengthAdjust="spacing" textLength="49.2341" x="512.035" y="866.5897">void</text><ellipse cx="29.5405" cy="883.4963" fill="#84BE84" rx="4.9234" ry="4.9234" style="stroke:#038048;stroke-width:1.6411378555798688;"/><text fill="#000000" font-family="sans-serif" font-size="22.9759" lengthAdjust="spacing" textLength="149.3435" x="44.3107" y="893.3351">BitBtn3Click</text><text fill="#000000" font-family="sans-serif" font-size="22.9759" lengthAdjust="spacing" textLength="91.9037" x="254.3764" y="893.3351">(Sender</text><text fill="#000000" font-family="sans-serif" font-size="22.9759" lengthAdjust="spacing" textLength="8.2057" x="359.4092" y="893.3351">:</text><text fill="#000000" font-family="sans-serif" font-size="22.9759" font-style="italic" lengthAdjust="spacing" textLength="108.3151" x="374.1794" y="893.3351">TObject *</text><text fill="#000000" font-family="sans-serif" font-size="22.9759" lengthAdjust="spacing" textLength="22.9759" x="482.4945" y="893.3351">) :</text><text fill="#000000" font-family="sans-serif" font-size="22.9759" font-style="italic" lengthAdjust="spacing" textLength="49.2341" x="512.035" y="893.3351">void</text><ellipse cx="29.5405" cy="910.2417" fill="#84BE84" rx="4.9234" ry="4.9234" style="stroke:#038048;stroke-width:1.6411378555798688;"/><text fill="#000000" font-family="sans-serif" font-size="22.9759" lengthAdjust="spacing" textLength="147.7024" x="44.3107" y="920.0805">BitBtn4Click</text><text fill="#000000" font-family="sans-serif" font-size="22.9759" lengthAdjust="spacing" textLength="91.9037" x="254.3764" y="920.0805">(Sender</text><text fill="#000000" font-family="sans-serif" font-size="22.9759" lengthAdjust="spacing" textLength="8.2057" x="359.4092" y="920.0805">:</text><text fill="#000000" font-family="sans-serif" font-size="22.9759" font-style="italic" lengthAdjust="spacing" textLength="108.3151" x="374.1794" y="920.0805">TObject *</text><text fill="#000000" font-family="sans-serif" font-size="22.9759" lengthAdjust="spacing" textLength="22.9759" x="482.4945" y="920.0805">) :</text><text fill="#000000" font-family="sans-serif" font-size="22.9759" font-style="italic" lengthAdjust="spacing" textLength="49.2341" x="512.035" y="920.0805">void</text><ellipse cx="29.5405" cy="936.9871" fill="#84BE84" rx="4.9234" ry="4.9234" style="stroke:#038048;stroke-width:1.6411378555798688;"/><text fill="#000000" font-family="sans-serif" font-size="22.9759" lengthAdjust="spacing" textLength="149.3435" x="44.3107" y="946.826">BitBtn5Click</text><text fill="#000000" font-family="sans-serif" font-size="22.9759" lengthAdjust="spacing" textLength="91.9037" x="254.3764" y="946.826">(Sender</text><text fill="#000000" font-family="sans-serif" font-size="22.9759" lengthAdjust="spacing" textLength="8.2057" x="359.4092" y="946.826">:</text><text fill="#000000" font-family="sans-serif" font-size="22.9759" font-style="italic" lengthAdjust="spacing" textLength="108.3151" x="374.1794" y="946.826">TObject *</text><text fill="#000000" font-family="sans-serif" font-size="22.9759" lengthAdjust="spacing" textLength="22.9759" x="482.4945" y="946.826">) :</text><text fill="#000000" font-family="sans-serif" font-size="22.9759" font-style="italic" lengthAdjust="spacing" textLength="49.2341" x="512.035" y="946.826">void</text><ellipse cx="29.5405" cy="963.7326" fill="#84BE84" rx="4.9234" ry="4.9234" style="stroke:#038048;stroke-width:1.6411378555798688;"/><text fill="#000000" font-family="sans-serif" font-size="22.9759" lengthAdjust="spacing" textLength="160.8315" x="44.3107" y="973.5714">FormActivate</text><text fill="#000000" font-family="sans-serif" font-size="22.9759" lengthAdjust="spacing" textLength="91.9037" x="254.3764" y="973.5714">(Sender</text><text fill="#000000" font-family="sans-serif" font-size="22.9759" lengthAdjust="spacing" textLength="8.2057" x="359.4092" y="973.5714">:</text><text fill="#000000" font-family="sans-serif" font-size="22.9759" font-style="italic" lengthAdjust="spacing" textLength="108.3151" x="374.1794" y="973.5714">TObject *</text><text fill="#000000" font-family="sans-serif" font-size="22.9759" lengthAdjust="spacing" textLength="22.9759" x="482.4945" y="973.5714">) :</text><text fill="#000000" font-family="sans-serif" font-size="22.9759" font-style="italic" lengthAdjust="spacing" textLength="49.2341" x="512.035" y="973.5714">void</text><line style="stroke:#181818;stroke-width:1.6411378555798688;stroke-dasharray:1.0,2.0;" x1="13.1291" x2="663.0197" y1="985.5546" y2="985.5546"/><ellipse cx="29.5405" cy="1003.6071" fill="#84BE84" rx="4.9234" ry="4.9234" style="stroke:#038048;stroke-width:1.6411378555798688;"/><text fill="#000000" font-family="sans-serif" font-size="22.9759" lengthAdjust="spacing" textLength="124.7265" x="44.3107" y="1013.4459">FormClose</text><text fill="#000000" font-family="sans-serif" font-size="22.9759" lengthAdjust="spacing" textLength="8.2057" x="254.3764" y="1013.4459">(</text><text fill="#000000" font-family="sans-serif" font-size="22.9759" lengthAdjust="spacing" textLength="83.698" x="149.3435" y="1040.1913">Sender</text><text fill="#000000" font-family="sans-serif" font-size="22.9759" lengthAdjust="spacing" textLength="8.2057" x="254.3764" y="1040.1913">:</text><text fill="#000000" font-family="sans-serif" font-size="22.9759" font-style="italic" lengthAdjust="spacing" textLength="108.3151" x="269.1466" y="1040.1913">TObject *</text><text fill="#000000" font-family="sans-serif" font-size="22.9759" lengthAdjust="spacing" textLength="6.5646" x="377.4617" y="1040.1913">,</text><text fill="#000000" font-family="sans-serif" font-size="22.9759" lengthAdjust="spacing" textLength="77.1335" x="149.3435" y="1066.9367">Action</text><text fill="#000000" font-family="sans-serif" font-size="22.9759" lengthAdjust="spacing" textLength="8.2057" x="254.3764" y="1066.9367">:</text><text fill="#000000" font-family="sans-serif" font-size="22.9759" font-style="italic" lengthAdjust="spacing" textLength="177.2429" x="269.1466" y="1066.9367">TCloseAction &amp;</text><text fill="#000000" font-family="sans-serif" font-size="22.9759" lengthAdjust="spacing" textLength="22.9759" x="96.8271" y="1093.6822">) :</text><text fill="#000000" font-family="sans-serif" font-size="22.9759" font-style="italic" lengthAdjust="spacing" textLength="49.2341" x="126.3676" y="1093.6822">void</text></g><!--MD5=[dd0bf217da5c5e97452bc452f42aff32]
class <b>TForm</b>--><g id="elem_&lt;b&gt;TForm&lt;/b&gt;"><rect fill="#F1F1F1" height="52.5164" id="&lt;b&gt;TForm&lt;/b&gt;" rx="4.1028" ry="4.1028" style="stroke:#181818;stroke-width:0.8205689277899344;" width="137.8556" x="269.1466" y="141.6251"/><ellipse cx="293.7637" cy="167.8833" fill="#ADD1B2" rx="18.0525" ry="18.0525" style="stroke:#181818;stroke-width:1.6411378555798688;"/><path d="M297.6101,160.7802 C296.0715,160.0622 295.0971,159.8314 293.6611,159.8314 C289.3531,159.8314 286.0708,163.2419 286.0708,167.7038 L286.0708,169.5501 C286.0708,173.7811 289.5326,176.8839 294.2765,176.8839 C296.2767,176.8839 298.1742,176.3967 299.4051,175.4992 C300.3539,174.8325 300.8924,174.0888 300.8924,173.4478 C300.8924,172.7041 300.2513,172.063 299.482,172.063 C299.123,172.063 298.7897,172.1913 298.4819,172.499 C297.7383,173.2939 297.7383,173.2939 297.4306,173.4478 C296.7382,173.8837 295.61,174.0888 294.3535,174.0888 C290.9943,174.0888 288.8659,172.2938 288.8659,169.4988 L288.8659,167.7038 C288.8659,164.7805 290.9173,162.6265 293.7637,162.6265 C294.7125,162.6265 295.7125,162.8829 296.4818,163.2932 C297.2767,163.7548 297.5588,164.1138 297.7127,164.7805 C297.8152,165.4472 297.8665,165.6524 298.0973,165.8575 C298.3281,166.0883 298.7127,166.2678 299.0717,166.2678 C299.5077,166.2678 299.9436,166.037 300.2257,165.678 C300.4052,165.4216 300.4564,165.1139 300.4564,164.4215 L300.4564,162.088 C300.4564,161.37 300.4308,161.1649 300.2769,160.9084 C300.0205,160.4725 299.5589,160.2417 299.0717,160.2417 C298.5845,160.2417 298.2512,160.3956 297.8922,160.9084 L297.6101,160.7802 Z " fill="#000000"/><text fill="#000000" font-family="sans-serif" font-size="22.9759" font-weight="bold" lengthAdjust="spacing" textLength="85.3392" x="316.7396" y="175.8373">TForm</text></g><!--MD5=[29317751cebcbb419a9ba4b666405af6]
reverse link <b>TForm</b> to <b>TPriv_EnterForm</b>--><g id="link_&lt;b&gt;TForm&lt;/b&gt;_&lt;b&gt;TPriv_EnterForm&lt;/b&gt;"><path codeLine="5" d="M338.0744,227.8455 C338.0744,249.4856 338.0744,275.9768 338.0744,305.2761 " fill="none" id="&lt;b&gt;TForm&lt;/b&gt;-backto-&lt;b&gt;TPriv_EnterForm&lt;/b&gt;" style="stroke:#181818;stroke-width:1.6411378555798688;"/><polygon fill="none" points="326.5864,227.3959,338.0744,194.5731,349.5624,227.3959,326.5864,227.3959" style="stroke:#181818;stroke-width:1.6411378555798688;"/></g><!--MD5=[a65478ac4a56f8ed5d9469fefd4c83c2]
@startuml
title Исходный файл: "Priv_EnterUnit.cpp"

scale 750 width

"<b>TPriv_EnterForm</b>" -up-|> "<b>TForm</b>"

hide "<b>TForm</b>" members

class "<b>TPriv_EnterForm</b>"
{
    + BitBtn1 \t\t: <i>TBitBtn *</i>
    + BitBtn2 \t\t: <i>TBitBtn *</i>
    + BitBtn3 \t\t: <i>TBitBtn *</i>
    + BitBtn4 \t\t: <i>TBitBtn *</i>
    + BitBtn5 \t\t: <i>TBitBtn *</i>
    ..
    + DBGrid1 \t: <i>TDBGrid *</i>
    ..
    + DBText1 \t: <i>TDBText *</i>
    + DBText2 \t: <i>TDBText *</i>
    + DBText3 \t: <i>TDBText *</i>
    ..
    + Panel1 \t\t: <i>TPanel *</i>
    + Panel2 \t\t: <i>TPanel *</i>
    + Panel3 \t\t: <i>TPanel *</i>
    - -
    
    + <b>TPriv_EnterForm \t(Owner \t: <i>TComponent *</i>)</b>

    + BitBtn1Click \t\t(Sender \t: <i>TObject *</i>) : <i>void</i>
    + BitBtn2Click \t\t(Sender \t: <i>TObject *</i>) : <i>void</i>
    + BitBtn3Click \t\t(Sender \t: <i>TObject *</i>) : <i>void</i>
    + BitBtn4Click \t\t(Sender \t: <i>TObject *</i>) : <i>void</i>
    + BitBtn5Click \t\t(Sender \t: <i>TObject *</i>) : <i>void</i>
    + FormActivate \t(Sender \t: <i>TObject *</i>) : <i>void</i>
    ..
    + FormClose \t\t(
            \t\tSender \t: <i>TObject *</i>,
            \t\tAction \t: <i>TCloseAction &</i>
        \t) : <i>void</i>
}


package TPriv_EnterForm <<Folder>>
{
    class TPriv_EnterForm
    hide  members
}


' note right of "<b>TPriv_EnterForm</b>"::Save_Priv
' сохранение привелегий (сирота, Чаэс, инвалид)
' end note
@enduml

@startuml
title Исходный файл: "Priv_EnterUnit.cpp"

scale 750 width

"<b>TPriv_EnterForm</b>" -up-|> "<b>TForm</b>"

hide "<b>TForm</b>" members

class "<b>TPriv_EnterForm</b>"
{
    + BitBtn1 \t\t: <i>TBitBtn *</i>
    + BitBtn2 \t\t: <i>TBitBtn *</i>
    + BitBtn3 \t\t: <i>TBitBtn *</i>
    + BitBtn4 \t\t: <i>TBitBtn *</i>
    + BitBtn5 \t\t: <i>TBitBtn *</i>
    ..
    + DBGrid1 \t: <i>TDBGrid *</i>
    ..
    + DBText1 \t: <i>TDBText *</i>
    + DBText2 \t: <i>TDBText *</i>
    + DBText3 \t: <i>TDBText *</i>
    ..
    + Panel1 \t\t: <i>TPanel *</i>
    + Panel2 \t\t: <i>TPanel *</i>
    + Panel3 \t\t: <i>TPanel *</i>
    - -
    
    + <b>TPriv_EnterForm \t(Owner \t: <i>TComponent *</i>)</b>

    + BitBtn1Click \t\t(Sender \t: <i>TObject *</i>) : <i>void</i>
    + BitBtn2Click \t\t(Sender \t: <i>TObject *</i>) : <i>void</i>
    + BitBtn3Click \t\t(Sender \t: <i>TObject *</i>) : <i>void</i>
    + BitBtn4Click \t\t(Sender \t: <i>TObject *</i>) : <i>void</i>
    + BitBtn5Click \t\t(Sender \t: <i>TObject *</i>) : <i>void</i>
    + FormActivate \t(Sender \t: <i>TObject *</i>) : <i>void</i>
    ..
    + FormClose \t\t(
            \t\tSender \t: <i>TObject *</i>,
            \t\tAction \t: <i>TCloseAction &</i>
        \t) : <i>void</i>
}


package TPriv_EnterForm <<Folder>>
{
    class TPriv_EnterForm
    hide  members
}


@enduml

PlantUML version 1.2022.5(Sat Apr 30 10:55:52 UTC 2022)
(GPL source distribution)
Java Runtime: Java(TM) SE Runtime Environment
JVM: Java HotSpot(TM) 64-Bit Server VM
Default Encoding: UTF-8
Language: en
Country: US
--></g></svg>