<?xml version="1.0" encoding="UTF-8" standalone="no"?><svg xmlns="http://www.w3.org/2000/svg" xmlns:xlink="http://www.w3.org/1999/xlink" contentStyleType="text/css" height="974.2574px" preserveAspectRatio="none" style="width:751px;height:974px;background:#FFFFFF;" version="1.1" viewBox="0 0 751 974" width="751.4851px" zoomAndPan="magnify"><defs/><g><rect height="39.0548" style="stroke:#00000000;stroke-width:1.4851485148514854;fill:none;" width="501.9802" x="114.3564" y="7.4257"/><text fill="#000000" font-family="sans-serif" font-size="20.7921" font-weight="bold" lengthAdjust="spacing" textLength="487.1287" x="121.7822" y="34.1512">Исходный файл: "Dlg_ProtokolUnit.cpp"</text><!--MD5=[83cfc42c234ec0a975740271de9519c2]
cluster TDlg_ProtokolForm--><g id="cluster_TDlg_ProtokolForm"><path d="M441.8317,64.3023 L672.0297,64.3023 A5.5693,5.5693 0 0 1 675.7426,68.0152 L686.1386,97.4165 L737.3762,97.4165 A3.7129,3.7129 0 0 1 741.0891,101.1293 L741.0891,207.6191 A3.7129,3.7129 0 0 1 737.3762,211.332 L441.8317,211.332 A3.7129,3.7129 0 0 1 438.1188,207.6191 L438.1188,68.0152 A3.7129,3.7129 0 0 1 441.8317,64.3023 " style="stroke:#000000;stroke-width:2.227722772277228;fill:none;"/><line style="stroke:#000000;stroke-width:2.227722772277228;fill:none;" x1="438.1188" x2="686.1386" y1="97.4165" y2="97.4165"/><text fill="#000000" font-family="sans-serif" font-size="20.7921" font-weight="bold" lengthAdjust="spacing" textLength="228.7129" x="444.0594" y="86.5723">TDlg_ProtokolForm</text></g><!--MD5=[f26d8cf09c8c03c1f8c67ef713d59248]
class TDlg_ProtokolForm--><g id="elem_TDlg_ProtokolForm"><rect codeLine="46" fill="#F1F1F1" height="71.2871" id="TDlg_ProtokolForm" rx="3.7129" ry="3.7129" style="stroke:#181818;stroke-width:0.7425742574257427;" width="253.9604" x="462.6238" y="116.2825"/><ellipse cx="484.901" cy="140.0449" fill="#ADD1B2" rx="16.3366" ry="16.3366" style="stroke:#181818;stroke-width:1.4851485148514854;"/><path d="M488.3818,133.617 C486.9895,132.9672 486.1077,132.7584 484.8082,132.7584 C480.9097,132.7584 477.9394,135.8447 477.9394,139.8824 L477.9394,141.5532 C477.9394,145.3821 481.0721,148.19 485.3651,148.19 C487.1751,148.19 488.8923,147.7491 490.0062,146.9369 C490.8648,146.3335 491.3521,145.6606 491.3521,145.0804 C491.3521,144.4075 490.772,143.8274 490.0758,143.8274 C489.7509,143.8274 489.4493,143.9434 489.1708,144.2218 C488.4978,144.9412 488.4978,144.9412 488.2194,145.0804 C487.5928,145.4749 486.5718,145.6606 485.4347,145.6606 C482.3948,145.6606 480.4688,144.0362 480.4688,141.5068 L480.4688,139.8824 C480.4688,137.237 482.3252,135.2877 484.901,135.2877 C485.7596,135.2877 486.6646,135.5198 487.3608,135.8911 C488.0801,136.3088 488.3354,136.6337 488.4746,137.237 C488.5675,137.8403 488.6139,138.026 488.8227,138.2116 C489.0316,138.4205 489.3796,138.5829 489.7045,138.5829 C490.099,138.5829 490.4935,138.3741 490.7488,138.0492 C490.9112,137.8171 490.9576,137.5387 490.9576,136.9121 L490.9576,134.8004 C490.9576,134.1507 490.9344,133.965 490.7952,133.733 C490.5631,133.3385 490.1454,133.1296 489.7045,133.1296 C489.2636,133.1296 488.9619,133.2689 488.6371,133.733 L488.3818,133.617 Z " fill="#000000"/><text fill="#000000" font-family="sans-serif" font-size="20.7921" lengthAdjust="spacing" textLength="206.4356" x="505.6931" y="147.2429">TDlg_ProtokolForm</text><line style="stroke:#181818;stroke-width:0.7425742574257427;" x1="464.1089" x2="715.099" y1="163.8072" y2="163.8072"/><line style="stroke:#181818;stroke-width:0.7425742574257427;" x1="464.1089" x2="715.099" y1="175.6884" y2="175.6884"/></g><!--MD5=[cb8550e0a9c199ad9280e434f2139cba]
class <b>TDlg_ProtokolForm</b>--><g id="elem_&lt;b&gt;TDlg_ProtokolForm&lt;/b&gt;"><rect codeLine="10" fill="#F1F1F1" height="687.8094" id="&lt;b&gt;TDlg_ProtokolForm&lt;/b&gt;" rx="3.7129" ry="3.7129" style="stroke:#181818;stroke-width:0.7425742574257427;" width="674.2574" x="10.396" y="276.6785"/><ellipse cx="226.8564" cy="300.4409" fill="#ADD1B2" rx="16.3366" ry="16.3366" style="stroke:#181818;stroke-width:1.4851485148514854;"/><path d="M230.3373,294.013 C228.9449,293.3632 228.0631,293.1544 226.7636,293.1544 C222.8651,293.1544 219.8948,296.2407 219.8948,300.2785 L219.8948,301.9493 C219.8948,305.7782 223.0275,308.586 227.3205,308.586 C229.1306,308.586 230.8478,308.1451 231.9616,307.3329 C232.8202,306.7296 233.3075,306.0566 233.3075,305.4765 C233.3075,304.8035 232.7274,304.2234 232.0313,304.2234 C231.7064,304.2234 231.4047,304.3394 231.1262,304.6179 C230.4533,305.3373 230.4533,305.3373 230.1748,305.4765 C229.5483,305.871 228.5272,306.0566 227.3902,306.0566 C224.3502,306.0566 222.4242,304.4322 222.4242,301.9028 L222.4242,300.2785 C222.4242,297.633 224.2806,295.6838 226.8564,295.6838 C227.715,295.6838 228.62,295.9158 229.3162,296.2871 C230.0356,296.7048 230.2908,297.0297 230.4301,297.633 C230.5229,298.2364 230.5693,298.422 230.7782,298.6077 C230.987,298.8165 231.3351,298.979 231.66,298.979 C232.0545,298.979 232.4489,298.7701 232.7042,298.4452 C232.8666,298.2132 232.9131,297.9347 232.9131,297.3082 L232.9131,295.1965 C232.9131,294.5467 232.8899,294.3611 232.7506,294.129 C232.5186,293.7345 232.1009,293.5257 231.66,293.5257 C231.2191,293.5257 230.9174,293.6649 230.5925,294.129 L230.3373,294.013 Z " fill="#000000"/><text fill="#000000" font-family="sans-serif" font-size="20.7921" font-weight="bold" lengthAdjust="spacing" textLength="228.7129" x="257.302" y="307.6389">TDlg_ProtokolForm</text><line style="stroke:#181818;stroke-width:0.7425742574257427;" x1="11.8812" x2="683.1683" y1="324.2033" y2="324.2033"/><ellipse cx="26.7327" cy="340.5399" fill="none" rx="4.4554" ry="4.4554" style="stroke:#038048;stroke-width:1.4851485148514854;"/><text fill="#000000" font-family="sans-serif" font-size="20.7921" lengthAdjust="spacing" textLength="83.1683" x="40.099" y="349.4436">BitBtn1</text><text fill="#000000" font-family="sans-serif" font-size="20.7921" lengthAdjust="spacing" textLength="7.4257" x="277.7228" y="349.4436">:</text><text fill="#000000" font-family="sans-serif" font-size="20.7921" font-style="italic" lengthAdjust="spacing" textLength="93.5644" x="291.0891" y="349.4436">TBitBtn *</text><ellipse cx="26.7327" cy="364.7432" fill="none" rx="4.4554" ry="4.4554" style="stroke:#038048;stroke-width:1.4851485148514854;"/><text fill="#000000" font-family="sans-serif" font-size="20.7921" lengthAdjust="spacing" textLength="185.6436" x="40.099" y="373.6468">DateTimePicker1</text><text fill="#000000" font-family="sans-serif" font-size="20.7921" lengthAdjust="spacing" textLength="7.4257" x="277.7228" y="373.6468">:</text><text fill="#000000" font-family="sans-serif" font-size="20.7921" font-style="italic" lengthAdjust="spacing" textLength="197.5248" x="291.0891" y="373.6468">TDateTimePicker *</text><ellipse cx="26.7327" cy="388.9465" fill="none" rx="4.4554" ry="4.4554" style="stroke:#038048;stroke-width:1.4851485148514854;"/><text fill="#000000" font-family="sans-serif" font-size="20.7921" lengthAdjust="spacing" textLength="56.4356" x="40.099" y="397.8501">Edit1</text><text fill="#000000" font-family="sans-serif" font-size="20.7921" lengthAdjust="spacing" textLength="7.4257" x="277.7228" y="397.8501">:</text><text fill="#000000" font-family="sans-serif" font-size="20.7921" font-style="italic" lengthAdjust="spacing" textLength="69.802" x="291.0891" y="397.8501">TEdit *</text><ellipse cx="26.7327" cy="413.1498" fill="none" rx="4.4554" ry="4.4554" style="stroke:#038048;stroke-width:1.4851485148514854;"/><text fill="#000000" font-family="sans-serif" font-size="20.7921" lengthAdjust="spacing" textLength="71.2871" x="40.099" y="422.0534">Label1</text><text fill="#000000" font-family="sans-serif" font-size="20.7921" lengthAdjust="spacing" textLength="7.4257" x="277.7228" y="422.0534">:</text><text fill="#000000" font-family="sans-serif" font-size="20.7921" font-style="italic" lengthAdjust="spacing" textLength="87.6238" x="291.0891" y="422.0534">TLabel *</text><ellipse cx="26.7327" cy="437.353" fill="none" rx="4.4554" ry="4.4554" style="stroke:#038048;stroke-width:1.4851485148514854;"/><text fill="#000000" font-family="sans-serif" font-size="20.7921" lengthAdjust="spacing" textLength="69.802" x="40.099" y="446.2567">Label2</text><text fill="#000000" font-family="sans-serif" font-size="20.7921" lengthAdjust="spacing" textLength="7.4257" x="277.7228" y="446.2567">:</text><text fill="#000000" font-family="sans-serif" font-size="20.7921" font-style="italic" lengthAdjust="spacing" textLength="87.6238" x="291.0891" y="446.2567">TLabel *</text><ellipse cx="26.7327" cy="461.5563" fill="none" rx="4.4554" ry="4.4554" style="stroke:#038048;stroke-width:1.4851485148514854;"/><text fill="#000000" font-family="sans-serif" font-size="20.7921" lengthAdjust="spacing" textLength="71.2871" x="40.099" y="470.46">Panel1</text><text fill="#000000" font-family="sans-serif" font-size="20.7921" lengthAdjust="spacing" textLength="7.4257" x="277.7228" y="470.46">:</text><text fill="#000000" font-family="sans-serif" font-size="20.7921" font-style="italic" lengthAdjust="spacing" textLength="87.6238" x="291.0891" y="470.46">TPanel *</text><line style="stroke:#181818;stroke-width:1.4851485148514854;" x1="11.8812" x2="683.1683" y1="481.3041" y2="481.3041"/><text fill="#000000" font-family="sans-serif" font-size="20.7921" lengthAdjust="spacing" textLength="5.9406" x="40.099" y="506.5444"> </text><ellipse cx="26.7327" cy="521.8441" fill="#84BE84" rx="4.4554" ry="4.4554" style="stroke:#038048;stroke-width:1.4851485148514854;"/><text fill="#000000" font-family="sans-serif" font-size="20.7921" font-style="italic" font-weight="bold" lengthAdjust="spacing" textLength="322.2772" x="40.099" y="530.7477">TDlg_ProtokolForm (Owner</text><text fill="#000000" font-family="sans-serif" font-size="20.7921" font-style="italic" font-weight="bold" lengthAdjust="spacing" textLength="8.9109" x="396.5347" y="530.7477">:</text><text fill="#000000" font-family="sans-serif" font-size="20.7921" font-style="italic" font-weight="bold" lengthAdjust="spacing" textLength="169.3069" x="412.8713" y="530.7477">TComponent *</text><text fill="#000000" font-family="sans-serif" font-size="20.7921" font-style="italic" font-weight="bold" lengthAdjust="spacing" textLength="93.5644" x="582.1782" y="530.7477">) virtual</text><text fill="#000000" font-family="sans-serif" font-size="20.7921" lengthAdjust="spacing" textLength="5.9406" x="40.099" y="554.951"> </text><ellipse cx="26.7327" cy="570.2506" fill="#84BE84" rx="4.4554" ry="4.4554" style="stroke:#038048;stroke-width:1.4851485148514854;"/><text fill="#000000" font-family="sans-serif" font-size="20.7921" lengthAdjust="spacing" textLength="135.1485" x="40.099" y="579.1543">BitBtn1Click</text><text fill="#000000" font-family="sans-serif" font-size="20.7921" lengthAdjust="spacing" textLength="83.1683" x="325.2475" y="579.1543">(Sender</text><text fill="#000000" font-family="sans-serif" font-size="20.7921" lengthAdjust="spacing" textLength="7.4257" x="420.297" y="579.1543">:</text><text fill="#000000" font-family="sans-serif" font-size="20.7921" font-style="italic" lengthAdjust="spacing" textLength="98.0198" x="433.6634" y="579.1543">TObject *</text><text fill="#000000" font-family="sans-serif" font-size="20.7921" lengthAdjust="spacing" textLength="20.7921" x="531.6832" y="579.1543">) :</text><text fill="#000000" font-family="sans-serif" font-size="20.7921" font-style="italic" lengthAdjust="spacing" textLength="44.5545" x="558.4158" y="579.1543">void</text><ellipse cx="26.7327" cy="594.4539" fill="#84BE84" rx="4.4554" ry="4.4554" style="stroke:#038048;stroke-width:1.4851485148514854;"/><text fill="#000000" font-family="sans-serif" font-size="20.7921" lengthAdjust="spacing" textLength="265.8416" x="40.099" y="603.3575">DateTimePicker1Change</text><text fill="#000000" font-family="sans-serif" font-size="20.7921" lengthAdjust="spacing" textLength="83.1683" x="325.2475" y="603.3575">(Sender</text><text fill="#000000" font-family="sans-serif" font-size="20.7921" lengthAdjust="spacing" textLength="7.4257" x="420.297" y="603.3575">:</text><text fill="#000000" font-family="sans-serif" font-size="20.7921" font-style="italic" lengthAdjust="spacing" textLength="98.0198" x="433.6634" y="603.3575">TObject *</text><text fill="#000000" font-family="sans-serif" font-size="20.7921" lengthAdjust="spacing" textLength="20.7921" x="531.6832" y="603.3575">) :</text><text fill="#000000" font-family="sans-serif" font-size="20.7921" font-style="italic" lengthAdjust="spacing" textLength="44.5545" x="558.4158" y="603.3575">void</text><ellipse cx="26.7327" cy="618.6572" fill="#84BE84" rx="4.4554" ry="4.4554" style="stroke:#038048;stroke-width:1.4851485148514854;"/><text fill="#000000" font-family="sans-serif" font-size="20.7921" lengthAdjust="spacing" textLength="145.5446" x="40.099" y="627.5608">FormActivate</text><text fill="#000000" font-family="sans-serif" font-size="20.7921" lengthAdjust="spacing" textLength="83.1683" x="325.2475" y="627.5608">(Sender</text><text fill="#000000" font-family="sans-serif" font-size="20.7921" lengthAdjust="spacing" textLength="7.4257" x="420.297" y="627.5608">:</text><text fill="#000000" font-family="sans-serif" font-size="20.7921" font-style="italic" lengthAdjust="spacing" textLength="98.0198" x="433.6634" y="627.5608">TObject *</text><text fill="#000000" font-family="sans-serif" font-size="20.7921" lengthAdjust="spacing" textLength="20.7921" x="531.6832" y="627.5608">) :</text><text fill="#000000" font-family="sans-serif" font-size="20.7921" font-style="italic" lengthAdjust="spacing" textLength="44.5545" x="558.4158" y="627.5608">void</text><line style="stroke:#181818;stroke-width:1.4851485148514854;stroke-dasharray:1.0,2.0;" x1="11.8812" x2="683.1683" y1="638.405" y2="638.405"/><ellipse cx="26.7327" cy="654.7416" fill="#84BE84" rx="4.4554" ry="4.4554" style="stroke:#038048;stroke-width:1.4851485148514854;"/><text fill="#000000" font-family="sans-serif" font-size="20.7921" lengthAdjust="spacing" textLength="112.8713" x="40.099" y="663.6453">FormClose</text><text fill="#000000" font-family="sans-serif" font-size="20.7921" lengthAdjust="spacing" textLength="7.4257" x="325.2475" y="663.6453">(</text><text fill="#000000" font-family="sans-serif" font-size="20.7921" lengthAdjust="spacing" textLength="75.7426" x="135.1485" y="687.8486">Sender</text><text fill="#000000" font-family="sans-serif" font-size="20.7921" lengthAdjust="spacing" textLength="7.4257" x="230.198" y="687.8486">:</text><text fill="#000000" font-family="sans-serif" font-size="20.7921" font-style="italic" lengthAdjust="spacing" textLength="98.0198" x="243.5644" y="687.8486">TObject *</text><text fill="#000000" font-family="sans-serif" font-size="20.7921" lengthAdjust="spacing" textLength="5.9406" x="341.5842" y="687.8486">,</text><text fill="#000000" font-family="sans-serif" font-size="20.7921" lengthAdjust="spacing" textLength="69.802" x="135.1485" y="712.0518">Action</text><text fill="#000000" font-family="sans-serif" font-size="20.7921" lengthAdjust="spacing" textLength="7.4257" x="230.198" y="712.0518">:</text><text fill="#000000" font-family="sans-serif" font-size="20.7921" font-style="italic" lengthAdjust="spacing" textLength="160.396" x="243.5644" y="712.0518">TCloseAction &amp;</text><text fill="#000000" font-family="sans-serif" font-size="20.7921" lengthAdjust="spacing" textLength="20.7921" x="87.6238" y="736.2551">) :</text><text fill="#000000" font-family="sans-serif" font-size="20.7921" font-style="italic" lengthAdjust="spacing" textLength="44.5545" x="114.3564" y="736.2551">void</text><line style="stroke:#181818;stroke-width:1.4851485148514854;stroke-dasharray:1.0,2.0;" x1="11.8812" x2="683.1683" y1="747.0993" y2="747.0993"/><ellipse cx="26.7327" cy="763.436" fill="#84BE84" rx="4.4554" ry="4.4554" style="stroke:#038048;stroke-width:1.4851485148514854;"/><text fill="#000000" font-family="sans-serif" font-size="20.7921" lengthAdjust="spacing" textLength="160.396" x="40.099" y="772.3396">Panel1DblClick</text><text fill="#000000" font-family="sans-serif" font-size="20.7921" lengthAdjust="spacing" textLength="83.1683" x="325.2475" y="772.3396">(Sender</text><text fill="#000000" font-family="sans-serif" font-size="20.7921" lengthAdjust="spacing" textLength="7.4257" x="420.297" y="772.3396">:</text><text fill="#000000" font-family="sans-serif" font-size="20.7921" font-style="italic" lengthAdjust="spacing" textLength="98.0198" x="433.6634" y="772.3396">TObject *</text><text fill="#000000" font-family="sans-serif" font-size="20.7921" lengthAdjust="spacing" textLength="20.7921" x="531.6832" y="772.3396">) :</text><text fill="#000000" font-family="sans-serif" font-size="20.7921" font-style="italic" lengthAdjust="spacing" textLength="44.5545" x="558.4158" y="772.3396">void</text><line style="stroke:#181818;stroke-width:1.4851485148514854;stroke-dasharray:1.0,2.0;" x1="11.8812" x2="683.1683" y1="783.1838" y2="783.1838"/><ellipse cx="26.7327" cy="799.5204" fill="#84BE84" rx="4.4554" ry="4.4554" style="stroke:#038048;stroke-width:1.4851485148514854;"/><text fill="#000000" font-family="sans-serif" font-size="20.7921" lengthAdjust="spacing" textLength="136.6337" x="40.099" y="808.4241">Protokol_FIO</text><text fill="#000000" font-family="sans-serif" font-size="20.7921" lengthAdjust="spacing" textLength="7.4257" x="325.2475" y="808.4241">(</text><text fill="#000000" font-family="sans-serif" font-size="20.7921" lengthAdjust="spacing" textLength="8.9109" x="135.1485" y="832.6273">f</text><text fill="#000000" font-family="sans-serif" font-size="20.7921" lengthAdjust="spacing" textLength="7.4257" x="230.198" y="832.6273">:</text><text fill="#000000" font-family="sans-serif" font-size="20.7921" font-style="italic" lengthAdjust="spacing" textLength="26.7327" x="243.5644" y="832.6273">int</text><text fill="#000000" font-family="sans-serif" font-size="20.7921" lengthAdjust="spacing" textLength="5.9406" x="270.297" y="832.6273">,</text><text fill="#000000" font-family="sans-serif" font-size="20.7921" lengthAdjust="spacing" textLength="60.8911" x="135.1485" y="856.8306">dat_p</text><text fill="#000000" font-family="sans-serif" font-size="20.7921" lengthAdjust="spacing" textLength="7.4257" x="230.198" y="856.8306">:</text><text fill="#000000" font-family="sans-serif" font-size="20.7921" font-style="italic" lengthAdjust="spacing" textLength="117.3267" x="243.5644" y="856.8306">TDateTime</text><text fill="#000000" font-family="sans-serif" font-size="20.7921" lengthAdjust="spacing" textLength="5.9406" x="360.8911" y="856.8306">,</text><text fill="#000000" font-family="sans-serif" font-size="20.7921" lengthAdjust="spacing" textLength="11.8812" x="135.1485" y="881.0339">v</text><text fill="#000000" font-family="sans-serif" font-size="20.7921" lengthAdjust="spacing" textLength="7.4257" x="230.198" y="881.0339">:</text><text fill="#000000" font-family="sans-serif" font-size="20.7921" font-style="italic" lengthAdjust="spacing" textLength="26.7327" x="243.5644" y="881.0339">int</text><text fill="#000000" font-family="sans-serif" font-size="20.7921" lengthAdjust="spacing" textLength="5.9406" x="270.297" y="881.0339">,</text><text fill="#000000" font-family="sans-serif" font-size="20.7921" lengthAdjust="spacing" textLength="13.3663" x="135.1485" y="905.2372">k</text><text fill="#000000" font-family="sans-serif" font-size="20.7921" lengthAdjust="spacing" textLength="7.4257" x="230.198" y="905.2372">:</text><text fill="#000000" font-family="sans-serif" font-size="20.7921" font-style="italic" lengthAdjust="spacing" textLength="26.7327" x="243.5644" y="905.2372">int</text><text fill="#000000" font-family="sans-serif" font-size="20.7921" lengthAdjust="spacing" textLength="5.9406" x="270.297" y="905.2372">,</text><text fill="#000000" font-family="sans-serif" font-size="20.7921" lengthAdjust="spacing" textLength="23.7624" x="135.1485" y="929.4405">pr</text><text fill="#000000" font-family="sans-serif" font-size="20.7921" lengthAdjust="spacing" textLength="7.4257" x="230.198" y="929.4405">:</text><text fill="#000000" font-family="sans-serif" font-size="20.7921" font-style="italic" lengthAdjust="spacing" textLength="26.7327" x="243.5644" y="929.4405">int</text><text fill="#000000" font-family="sans-serif" font-size="20.7921" lengthAdjust="spacing" textLength="20.7921" x="87.6238" y="953.6437">) :</text><text fill="#000000" font-family="sans-serif" font-size="20.7921" font-style="italic" lengthAdjust="spacing" textLength="46.0396" x="114.3564" y="953.6437">bool</text></g><!--MD5=[dd0bf217da5c5e97452bc452f42aff32]
class <b>TForm</b>--><g id="elem_&lt;b&gt;TForm&lt;/b&gt;"><rect fill="#F1F1F1" height="47.5248" id="&lt;b&gt;TForm&lt;/b&gt;" rx="3.7129" ry="3.7129" style="stroke:#181818;stroke-width:0.7425742574257427;" width="124.7525" x="285.1485" y="128.1637"/><ellipse cx="307.4257" cy="151.9261" fill="#ADD1B2" rx="16.3366" ry="16.3366" style="stroke:#181818;stroke-width:1.4851485148514854;"/><path d="M310.9066,145.4981 C309.5142,144.8484 308.6324,144.6395 307.3329,144.6395 C303.4344,144.6395 300.4641,147.7259 300.4641,151.7636 L300.4641,153.4344 C300.4641,157.2633 303.5968,160.0712 307.8899,160.0712 C309.6999,160.0712 311.4171,159.6303 312.5309,158.8181 C313.3895,158.2147 313.8769,157.5418 313.8769,156.9616 C313.8769,156.2887 313.2967,155.7085 312.6006,155.7085 C312.2757,155.7085 311.974,155.8246 311.6955,156.103 C311.0226,156.8224 311.0226,156.8224 310.7441,156.9616 C310.1176,157.3561 309.0965,157.5418 307.9595,157.5418 C304.9196,157.5418 302.9935,155.9174 302.9935,153.388 L302.9935,151.7636 C302.9935,149.1182 304.8499,147.1689 307.4257,147.1689 C308.2843,147.1689 309.1894,147.401 309.8855,147.7723 C310.6049,148.19 310.8601,148.5149 310.9994,149.1182 C311.0922,149.7215 311.1386,149.9072 311.3475,150.0928 C311.5563,150.3017 311.9044,150.4641 312.2293,150.4641 C312.6238,150.4641 313.0183,150.2553 313.2735,149.9304 C313.436,149.6983 313.4824,149.4199 313.4824,148.7933 L313.4824,146.6816 C313.4824,146.0319 313.4592,145.8462 313.3199,145.6142 C313.0879,145.2197 312.6702,145.0108 312.2293,145.0108 C311.7884,145.0108 311.4867,145.1501 311.1618,145.6142 L310.9066,145.4981 Z " fill="#000000"/><text fill="#000000" font-family="sans-serif" font-size="20.7921" font-weight="bold" lengthAdjust="spacing" textLength="77.2277" x="328.2178" y="159.1241">TForm</text></g><!--MD5=[0024f33ab235753e0642bf20617e8917]
reverse link <b>TForm</b> to <b>TDlg_ProtokolForm</b>--><g id="link_&lt;b&gt;TForm&lt;/b&gt;_&lt;b&gt;TDlg_ProtokolForm&lt;/b&gt;"><path codeLine="6" d="M347.5248,206.0835 C347.5248,225.7439 347.5248,249.8092 347.5248,276.3444 " fill="none" id="&lt;b&gt;TForm&lt;/b&gt;-backto-&lt;b&gt;TDlg_ProtokolForm&lt;/b&gt;" style="stroke:#181818;stroke-width:1.4851485148514854;"/><polygon fill="none" points="337.1287,205.5711,347.5248,175.8681,357.9208,205.5711,337.1287,205.5711" style="stroke:#181818;stroke-width:1.4851485148514854;"/></g><!--MD5=[f436ed2d64f04a28cf68755278f29e72]
@startuml
title Исходный файл: "Dlg_ProtokolUnit.cpp"

scale 750 width
' left to right direction

"<b>TDlg_ProtokolForm</b>" -up-|> "<b>TForm</b>"

hide "<b>TForm</b>" members

class "<b>TDlg_ProtokolForm</b>"
{
    + BitBtn1 \t\t\t\t: <i>TBitBtn *</i>
    + DateTimePicker1 \t: <i>TDateTimePicker *</i>
    + Edit1 \t\t\t\t: <i>TEdit *</i>
    + Label1 \t\t\t\t: <i>TLabel *</i>
    + Label2 \t\t\t\t: <i>TLabel *</i>
    + Panel1 \t\t\t\t: <i>TPanel *</i>
    - -
    
    + <b>{abstract} TDlg_ProtokolForm (Owner \t: <i>TComponent *</i>) virtual</b>

    + BitBtn1Click \t\t\t\t(Sender \t: <i>TObject *</i>) : <i>void</i>
    + DateTimePicker1Change \t(Sender \t: <i>TObject *</i>) : <i>void</i>
    + FormActivate \t\t\t(Sender \t: <i>TObject *</i>) : <i>void</i>
    ..
    + FormClose \t\t\t\t(
            \t\tSender \t: <i>TObject *</i>,
            \t\tAction \t: <i>TCloseAction &</i>
        \t) : <i>void</i>
    ..
    + Panel1DblClick \t\t\t(Sender \t: <i>TObject *</i>) : <i>void</i>
    ..
    + Protokol_FIO \t\t\t(
            \t\tf \t\t: <i>int</i>,
            \t\tdat_p \t: <i>TDateTime</i>,
            \t\tv \t\t: <i>int</i>,
            \t\tk \t\t: <i>int</i>,
            \t\tpr \t\t: <i>int</i>
        \t) : <i>bool</i>
}



package TDlg_ProtokolForm <<Folder>>
{
    class TDlg_ProtokolForm
    hide  members
}
@enduml

@startuml
title Исходный файл: "Dlg_ProtokolUnit.cpp"

scale 750 width

"<b>TDlg_ProtokolForm</b>" -up-|> "<b>TForm</b>"

hide "<b>TForm</b>" members

class "<b>TDlg_ProtokolForm</b>"
{
    + BitBtn1 \t\t\t\t: <i>TBitBtn *</i>
    + DateTimePicker1 \t: <i>TDateTimePicker *</i>
    + Edit1 \t\t\t\t: <i>TEdit *</i>
    + Label1 \t\t\t\t: <i>TLabel *</i>
    + Label2 \t\t\t\t: <i>TLabel *</i>
    + Panel1 \t\t\t\t: <i>TPanel *</i>
    - -
    
    + <b>{abstract} TDlg_ProtokolForm (Owner \t: <i>TComponent *</i>) virtual</b>

    + BitBtn1Click \t\t\t\t(Sender \t: <i>TObject *</i>) : <i>void</i>
    + DateTimePicker1Change \t(Sender \t: <i>TObject *</i>) : <i>void</i>
    + FormActivate \t\t\t(Sender \t: <i>TObject *</i>) : <i>void</i>
    ..
    + FormClose \t\t\t\t(
            \t\tSender \t: <i>TObject *</i>,
            \t\tAction \t: <i>TCloseAction &</i>
        \t) : <i>void</i>
    ..
    + Panel1DblClick \t\t\t(Sender \t: <i>TObject *</i>) : <i>void</i>
    ..
    + Protokol_FIO \t\t\t(
            \t\tf \t\t: <i>int</i>,
            \t\tdat_p \t: <i>TDateTime</i>,
            \t\tv \t\t: <i>int</i>,
            \t\tk \t\t: <i>int</i>,
            \t\tpr \t\t: <i>int</i>
        \t) : <i>bool</i>
}



package TDlg_ProtokolForm <<Folder>>
{
    class TDlg_ProtokolForm
    hide  members
}
@enduml

PlantUML version 1.2022.5(Sat Apr 30 10:55:52 UTC 2022)
(GPL source distribution)
Java Runtime: Java(TM) SE Runtime Environment
JVM: Java HotSpot(TM) 64-Bit Server VM
Default Encoding: UTF-8
Language: en
Country: US
--></g></svg>