<?xml version="1.0" encoding="UTF-8" standalone="no"?><svg xmlns="http://www.w3.org/2000/svg" xmlns:xlink="http://www.w3.org/1999/xlink" contentStyleType="text/css" height="808.4054px" preserveAspectRatio="none" style="width:750px;height:808px;background:#FFFFFF;" version="1.1" viewBox="0 0 750 808" width="750.9271px" zoomAndPan="magnify"><defs/><g><rect height="48.7581" style="stroke:#00000000;stroke-width:1.854140914709518;fill:none;" width="589.6168" x="68.1397" y="9.2707"/><text fill="#000000" font-family="sans-serif" font-size="25.958" font-weight="bold" lengthAdjust="spacing" textLength="571.0754" x="77.4104" y="42.6362">Исходный файл: "LoginPassUnit.cpp"</text><!--MD5=[7d1849a169a7a615c3b2dae36ea9ef4a]
cluster TLoginPass--><g id="cluster_TLoginPass"><path d="M476.5142,80.2785 L650.8035,80.2785 A6.953,6.953 0 0 1 655.4388,84.9139 L668.4178,121.6201 L734.2398,121.6201 A4.6354,4.6354 0 0 1 738.8752,126.2554 L738.8752,259.2031 A4.6354,4.6354 0 0 1 734.2398,263.8385 L476.5142,263.8385 A4.6354,4.6354 0 0 1 471.8789,259.2031 L471.8789,84.9139 A4.6354,4.6354 0 0 1 476.5142,80.2785 " style="stroke:#000000;stroke-width:2.781211372064277;fill:none;"/><line style="stroke:#000000;stroke-width:2.781211372064277;fill:none;" x1="471.8789" x2="668.4178" y1="121.6201" y2="121.6201"/><text fill="#000000" font-family="sans-serif" font-size="25.958" font-weight="bold" lengthAdjust="spacing" textLength="172.4351" x="479.2954" y="108.0816">TLoginPass</text></g><!--MD5=[f15d6bf6a59327ac8253117f5ef39dfe]
class TLoginPass--><g id="elem_TLoginPass"><rect codeLine="30" fill="#F1F1F1" height="88.9988" id="TLoginPass" rx="4.6354" ry="4.6354" style="stroke:#181818;stroke-width:0.927070457354759;" width="205.8096" x="502.4722" y="145.1734"/><ellipse cx="530.2843" cy="174.8397" fill="#ADD1B2" rx="20.3956" ry="20.3956" style="stroke:#181818;stroke-width:1.854140914709518;"/><path d="M534.6299,166.8147 C532.8917,166.0036 531.7908,165.7428 530.1684,165.7428 C525.3013,165.7428 521.593,169.596 521.593,174.6369 L521.593,176.7228 C521.593,181.503 525.5041,185.0085 530.8637,185.0085 C533.1235,185.0085 535.2673,184.4581 536.6579,183.4441 C537.7298,182.6908 538.3382,181.8507 538.3382,181.1264 C538.3382,180.2862 537.614,179.562 536.7448,179.562 C536.3392,179.562 535.9626,179.7068 535.615,180.0545 C534.7748,180.9526 534.7748,180.9526 534.4271,181.1264 C533.6449,181.6189 532.3702,181.8507 530.9506,181.8507 C527.1554,181.8507 524.7508,179.8227 524.7508,176.6649 L524.7508,174.6369 C524.7508,171.3342 527.0685,168.9006 530.2843,168.9006 C531.3562,168.9006 532.4861,169.1904 533.3552,169.6539 C534.2533,170.1754 534.572,170.581 534.7458,171.3342 C534.8617,172.0875 534.9197,172.3192 535.1804,172.551 C535.4411,172.8117 535.8757,173.0145 536.2813,173.0145 C536.7738,173.0145 537.2663,172.7538 537.585,172.3482 C537.7878,172.0585 537.8457,171.7108 537.8457,170.9286 L537.8457,168.2923 C537.8457,167.4811 537.8167,167.2493 537.6429,166.9596 C537.3532,166.4671 536.8317,166.2064 536.2813,166.2064 C535.7308,166.2064 535.3542,166.3802 534.9486,166.9596 L534.6299,166.8147 Z " fill="#000000"/><text fill="#000000" font-family="sans-serif" font-size="25.958" lengthAdjust="spacing" textLength="146.4771" x="556.2423" y="183.8261">TLoginPass</text><line style="stroke:#181818;stroke-width:0.927070457354759;" x1="504.3263" x2="706.4277" y1="204.5059" y2="204.5059"/><line style="stroke:#181818;stroke-width:0.927070457354759;" x1="504.3263" x2="706.4277" y1="219.3391" y2="219.3391"/></g><!--MD5=[1b1a41bc098a4f110090fe210319a491]
class <b>TLoginPass</b>--><g id="elem_&lt;b&gt;TLoginPass&lt;/b&gt;"><rect codeLine="9" fill="#F1F1F1" height="451.0487" id="&lt;b&gt;TLoginPass&lt;/b&gt;" rx="4.6354" ry="4.6354" style="stroke:#181818;stroke-width:0.927070457354759;" width="691.5946" x="12.979" y="345.4207"/><ellipse cx="264.6786" cy="375.0869" fill="#ADD1B2" rx="20.3956" ry="20.3956" style="stroke:#181818;stroke-width:1.854140914709518;"/><path d="M269.0243,367.062 C267.286,366.2508 266.1851,365.99 264.5627,365.99 C259.6956,365.99 255.9873,369.8432 255.9873,374.8841 L255.9873,376.97 C255.9873,381.7502 259.8984,385.2557 265.258,385.2557 C267.5178,385.2557 269.6616,384.7053 271.0522,383.6913 C272.1242,382.938 272.7325,382.0979 272.7325,381.3736 C272.7325,380.5335 272.0083,379.8092 271.1391,379.8092 C270.7335,379.8092 270.3569,379.954 270.0093,380.3017 C269.1691,381.1998 269.1691,381.1998 268.8215,381.3736 C268.0392,381.8661 266.7645,382.0979 265.3449,382.0979 C261.5498,382.0979 259.1452,380.0699 259.1452,376.9121 L259.1452,374.8841 C259.1452,371.5814 261.4628,369.1479 264.6786,369.1479 C265.7505,369.1479 266.8804,369.4376 267.7495,369.9011 C268.6476,370.4226 268.9663,370.8282 269.1401,371.5814 C269.256,372.3347 269.314,372.5664 269.5747,372.7982 C269.8354,373.0589 270.27,373.2617 270.6756,373.2617 C271.1681,373.2617 271.6606,373.001 271.9793,372.5954 C272.1821,372.3057 272.24,371.9581 272.24,371.1758 L272.24,368.5395 C272.24,367.7283 272.2111,367.4965 272.0372,367.2068 C271.7475,366.7143 271.2261,366.4536 270.6756,366.4536 C270.1252,366.4536 269.7485,366.6274 269.3429,367.2068 L269.0243,367.062 Z " fill="#000000"/><text fill="#000000" font-family="sans-serif" font-size="25.958" font-weight="bold" lengthAdjust="spacing" textLength="172.4351" x="302.6885" y="384.0733">TLoginPass</text><line style="stroke:#181818;stroke-width:0.927070457354759;" x1="14.8331" x2="702.7194" y1="404.7532" y2="404.7532"/><ellipse cx="33.3745" cy="425.1487" fill="none" rx="5.5624" ry="5.5624" style="stroke:#038048;stroke-width:1.854140914709518;"/><text fill="#000000" font-family="sans-serif" font-size="25.958" lengthAdjust="spacing" textLength="109.3943" x="50.0618" y="436.2645">Button1</text><text fill="#000000" font-family="sans-serif" font-size="25.958" lengthAdjust="spacing" textLength="9.2707" x="228.0593" y="436.2645">:</text><text fill="#000000" font-family="sans-serif" font-size="25.958" font-style="italic" lengthAdjust="spacing" textLength="124.2274" x="244.7466" y="436.2645">TButton *</text><ellipse cx="33.3745" cy="455.3654" fill="none" rx="5.5624" ry="5.5624" style="stroke:#038048;stroke-width:1.854140914709518;"/><text fill="#000000" font-family="sans-serif" font-size="25.958" lengthAdjust="spacing" textLength="107.5402" x="50.0618" y="466.4812">Button2</text><text fill="#000000" font-family="sans-serif" font-size="25.958" lengthAdjust="spacing" textLength="9.2707" x="228.0593" y="466.4812">:</text><text fill="#000000" font-family="sans-serif" font-size="25.958" font-style="italic" lengthAdjust="spacing" textLength="124.2274" x="244.7466" y="466.4812">TButton *</text><line style="stroke:#181818;stroke-width:1.854140914709518;stroke-dasharray:1.0,2.0;" x1="14.8331" x2="702.7194" y1="480.0197" y2="480.0197"/><ellipse cx="33.3745" cy="500.4153" fill="none" rx="5.5624" ry="5.5624" style="stroke:#038048;stroke-width:1.854140914709518;"/><text fill="#000000" font-family="sans-serif" font-size="25.958" lengthAdjust="spacing" textLength="72.3115" x="50.0618" y="511.531">Login</text><text fill="#000000" font-family="sans-serif" font-size="25.958" lengthAdjust="spacing" textLength="9.2707" x="228.0593" y="511.531">:</text><text fill="#000000" font-family="sans-serif" font-size="25.958" font-style="italic" lengthAdjust="spacing" textLength="87.1446" x="244.7466" y="511.531">TEdit *</text><ellipse cx="33.3745" cy="530.632" fill="none" rx="5.5624" ry="5.5624" style="stroke:#038048;stroke-width:1.854140914709518;"/><text fill="#000000" font-family="sans-serif" font-size="25.958" lengthAdjust="spacing" textLength="122.3733" x="50.0618" y="541.7477">Password</text><text fill="#000000" font-family="sans-serif" font-size="25.958" lengthAdjust="spacing" textLength="9.2707" x="228.0593" y="541.7477">:</text><text fill="#000000" font-family="sans-serif" font-size="25.958" font-style="italic" lengthAdjust="spacing" textLength="87.1446" x="244.7466" y="541.7477">TEdit *</text><line style="stroke:#181818;stroke-width:1.854140914709518;stroke-dasharray:1.0,2.0;" x1="14.8331" x2="702.7194" y1="555.2862" y2="555.2862"/><ellipse cx="33.3745" cy="575.6818" fill="none" rx="5.5624" ry="5.5624" style="stroke:#038048;stroke-width:1.854140914709518;"/><text fill="#000000" font-family="sans-serif" font-size="25.958" lengthAdjust="spacing" textLength="88.9988" x="50.0618" y="586.7976">Label1</text><text fill="#000000" font-family="sans-serif" font-size="25.958" lengthAdjust="spacing" textLength="9.2707" x="228.0593" y="586.7976">:</text><text fill="#000000" font-family="sans-serif" font-size="25.958" font-style="italic" lengthAdjust="spacing" textLength="109.3943" x="244.7466" y="586.7976">TLabel *</text><ellipse cx="33.3745" cy="605.8985" fill="none" rx="5.5624" ry="5.5624" style="stroke:#038048;stroke-width:1.854140914709518;"/><text fill="#000000" font-family="sans-serif" font-size="25.958" lengthAdjust="spacing" textLength="87.1446" x="50.0618" y="617.0143">Label2</text><text fill="#000000" font-family="sans-serif" font-size="25.958" lengthAdjust="spacing" textLength="9.2707" x="228.0593" y="617.0143">:</text><text fill="#000000" font-family="sans-serif" font-size="25.958" font-style="italic" lengthAdjust="spacing" textLength="109.3943" x="244.7466" y="617.0143">TLabel *</text><line style="stroke:#181818;stroke-width:1.854140914709518;" x1="14.8331" x2="702.7194" y1="630.5528" y2="630.5528"/><text fill="#000000" font-family="sans-serif" font-size="25.958" lengthAdjust="spacing" textLength="7.4166" x="50.0618" y="662.0641"> </text><ellipse cx="33.3745" cy="681.165" fill="#84BE84" rx="5.5624" ry="5.5624" style="stroke:#038048;stroke-width:1.854140914709518;"/><text fill="#000000" font-family="sans-serif" font-size="25.958" font-weight="bold" lengthAdjust="spacing" textLength="172.4351" x="50.0618" y="692.2808">TLoginPass</text><text fill="#000000" font-family="sans-serif" font-size="25.958" font-weight="bold" lengthAdjust="spacing" textLength="105.686" x="272.5587" y="692.2808">(Owner</text><text fill="#000000" font-family="sans-serif" font-size="25.958" font-weight="bold" lengthAdjust="spacing" textLength="11.1248" x="420.89" y="692.2808">:</text><text fill="#000000" font-family="sans-serif" font-size="25.958" font-style="italic" font-weight="bold" lengthAdjust="spacing" textLength="211.3721" x="441.2855" y="692.2808">TComponent *</text><text fill="#000000" font-family="sans-serif" font-size="25.958" font-weight="bold" lengthAdjust="spacing" textLength="12.979" x="652.6576" y="692.2808">)</text><text fill="#000000" font-family="sans-serif" font-size="25.958" lengthAdjust="spacing" textLength="7.4166" x="50.0618" y="722.4975"> </text><ellipse cx="33.3745" cy="741.5984" fill="#84BE84" rx="5.5624" ry="5.5624" style="stroke:#038048;stroke-width:1.854140914709518;"/><text fill="#000000" font-family="sans-serif" font-size="25.958" lengthAdjust="spacing" textLength="172.4351" x="50.0618" y="752.7142">Button2Click</text><text fill="#000000" font-family="sans-serif" font-size="25.958" lengthAdjust="spacing" textLength="103.8319" x="346.7244" y="752.7142">(Sender</text><text fill="#000000" font-family="sans-serif" font-size="25.958" lengthAdjust="spacing" textLength="9.2707" x="465.3894" y="752.7142">:</text><text fill="#000000" font-family="sans-serif" font-size="25.958" font-style="italic" lengthAdjust="spacing" textLength="122.3733" x="482.0766" y="752.7142">TObject *</text><text fill="#000000" font-family="sans-serif" font-size="25.958" lengthAdjust="spacing" textLength="25.958" x="604.4499" y="752.7142">) :</text><text fill="#000000" font-family="sans-serif" font-size="25.958" font-style="italic" lengthAdjust="spacing" textLength="55.6242" x="637.8245" y="752.7142">void</text><ellipse cx="33.3745" cy="771.8151" fill="#84BE84" rx="5.5624" ry="5.5624" style="stroke:#038048;stroke-width:1.854140914709518;"/><text fill="#000000" font-family="sans-serif" font-size="25.958" lengthAdjust="spacing" textLength="181.7058" x="50.0618" y="782.9309">FormActivate</text><text fill="#000000" font-family="sans-serif" font-size="25.958" lengthAdjust="spacing" textLength="103.8319" x="346.7244" y="782.9309">(Sender</text><text fill="#000000" font-family="sans-serif" font-size="25.958" lengthAdjust="spacing" textLength="9.2707" x="465.3894" y="782.9309">:</text><text fill="#000000" font-family="sans-serif" font-size="25.958" font-style="italic" lengthAdjust="spacing" textLength="122.3733" x="482.0766" y="782.9309">TObject *</text><text fill="#000000" font-family="sans-serif" font-size="25.958" lengthAdjust="spacing" textLength="25.958" x="604.4499" y="782.9309">) :</text><text fill="#000000" font-family="sans-serif" font-size="25.958" font-style="italic" lengthAdjust="spacing" textLength="55.6242" x="637.8245" y="782.9309">void</text></g><!--MD5=[dd0bf217da5c5e97452bc452f42aff32]
class <b>TForm</b>--><g id="elem_&lt;b&gt;TForm&lt;/b&gt;"><rect fill="#F1F1F1" height="59.3325" id="&lt;b&gt;TForm&lt;/b&gt;" rx="4.6354" ry="4.6354" style="stroke:#181818;stroke-width:0.927070457354759;" width="155.7478" x="280.9023" y="160.0066"/><ellipse cx="308.7145" cy="189.6728" fill="#ADD1B2" rx="20.3956" ry="20.3956" style="stroke:#181818;stroke-width:1.854140914709518;"/><path d="M313.0601,181.6479 C311.3218,180.8367 310.221,180.5759 308.5986,180.5759 C303.7315,180.5759 300.0232,184.4291 300.0232,189.47 L300.0232,191.5559 C300.0232,196.3361 303.9343,199.8416 309.2939,199.8416 C311.5536,199.8416 313.6975,199.2912 315.0881,198.2772 C316.16,197.5239 316.7684,196.6838 316.7684,195.9595 C316.7684,195.1194 316.0441,194.3951 315.175,194.3951 C314.7694,194.3951 314.3928,194.5399 314.0451,194.8876 C313.205,195.7857 313.205,195.7857 312.8573,195.9595 C312.0751,196.452 310.8004,196.6838 309.3808,196.6838 C305.5856,196.6838 303.181,194.6558 303.181,191.498 L303.181,189.47 C303.181,186.1673 305.4987,183.7338 308.7145,183.7338 C309.7864,183.7338 310.9163,184.0235 311.7854,184.487 C312.6835,185.0085 313.0022,185.4141 313.176,186.1673 C313.2919,186.9206 313.3498,187.1523 313.6106,187.3841 C313.8713,187.6449 314.3059,187.8477 314.7114,187.8477 C315.204,187.8477 315.6965,187.5869 316.0151,187.1813 C316.2179,186.8916 316.2759,186.544 316.2759,185.7617 L316.2759,183.1254 C316.2759,182.3142 316.2469,182.0824 316.0731,181.7927 C315.7834,181.3002 315.2619,181.0395 314.7114,181.0395 C314.161,181.0395 313.7844,181.2133 313.3788,181.7927 L313.0601,181.6479 Z " fill="#000000"/><text fill="#000000" font-family="sans-serif" font-size="25.958" font-weight="bold" lengthAdjust="spacing" textLength="96.4153" x="334.6724" y="198.6592">TForm</text></g><!--MD5=[e3f7ca82bd18266128e8b258b3c41778]
reverse link <b>TForm</b> to <b>TLoginPass</b>--><g id="link_&lt;b&gt;TForm&lt;/b&gt;_&lt;b&gt;TLoginPass&lt;/b&gt;"><path codeLine="5" d="M358.7763,257.4027 C358.7763,282.7062 358.7763,313.2216 358.7763,345.124 " fill="none" id="&lt;b&gt;TForm&lt;/b&gt;-backto-&lt;b&gt;TLoginPass&lt;/b&gt;" style="stroke:#181818;stroke-width:1.854140914709518;"/><polygon fill="none" points="345.7973,256.9707,358.7763,219.8879,371.7553,256.9707,345.7973,256.9707" style="stroke:#181818;stroke-width:1.854140914709518;"/></g><!--MD5=[aa3ada1e09e40a222314b263c543a649]
@startuml
title Исходный файл: "LoginPassUnit.cpp"

scale 750 width

"<b>TLoginPass</b>" -up-|> "<b>TForm</b>"

hide "<b>TForm</b>" members

class "<b>TLoginPass</b>"
{
    + Button1 \t\t: <i>TButton *</i>
    + Button2 \t\t: <i>TButton *</i>
    ..
    + Login \t\t: <i>TEdit *</i>
    + Password \t: <i>TEdit *</i>
    ..
    + Label1 \t\t: <i>TLabel *</i>
    + Label2 \t\t: <i>TLabel *</i>
    - -
    
    + <b>TLoginPass \t(Owner \t: <i>TComponent *</i>)</b>

    + Button2Click \t\t(Sender \t: <i>TObject *</i>) : <i>void</i>
    + FormActivate \t\t(Sender \t: <i>TObject *</i>) : <i>void</i>
}


package TLoginPass <<Folder>>
{
    class TLoginPass
    hide  members
}


' note right of "<b>TLoginPass</b>"::Save_Priv
' сохранение привелегий (сирота, Чаэс, инвалид)
' end note
@enduml

@startuml
title Исходный файл: "LoginPassUnit.cpp"

scale 750 width

"<b>TLoginPass</b>" -up-|> "<b>TForm</b>"

hide "<b>TForm</b>" members

class "<b>TLoginPass</b>"
{
    + Button1 \t\t: <i>TButton *</i>
    + Button2 \t\t: <i>TButton *</i>
    ..
    + Login \t\t: <i>TEdit *</i>
    + Password \t: <i>TEdit *</i>
    ..
    + Label1 \t\t: <i>TLabel *</i>
    + Label2 \t\t: <i>TLabel *</i>
    - -
    
    + <b>TLoginPass \t(Owner \t: <i>TComponent *</i>)</b>

    + Button2Click \t\t(Sender \t: <i>TObject *</i>) : <i>void</i>
    + FormActivate \t\t(Sender \t: <i>TObject *</i>) : <i>void</i>
}


package TLoginPass <<Folder>>
{
    class TLoginPass
    hide  members
}


@enduml

PlantUML version 1.2022.5(Sat Apr 30 10:55:52 UTC 2022)
(GPL source distribution)
Java Runtime: Java(TM) SE Runtime Environment
JVM: Java HotSpot(TM) 64-Bit Server VM
Default Encoding: UTF-8
Language: en
Country: US
--></g></svg>