<?xml version="1.0" encoding="UTF-8" standalone="no"?><svg xmlns="http://www.w3.org/2000/svg" xmlns:xlink="http://www.w3.org/1999/xlink" contentStyleType="text/css" height="1273.9521px" preserveAspectRatio="none" style="width:751px;height:1273px;background:#FFFFFF;" version="1.1" viewBox="0 0 751 1273" width="751.497px" zoomAndPan="magnify"><defs/><g><rect height="39.3666" style="stroke:#00000000;stroke-width:1.4970059880239521;fill:none;" width="507.485" x="111.5269" y="7.485"/><text fill="#000000" font-family="sans-serif" font-size="20.9581" font-weight="bold" lengthAdjust="spacing" textLength="492.515" x="119.012" y="34.4238">Исходный файл: "LETTERDUALLIST.cpp"</text><!--MD5=[5447bb3f0ed66b10f141de2eb6847e71]
cluster TLetterDualListDlg--><g id="cluster_TLetterDualListDlg"><path d="M445.3593,64.8157 L677.3952,64.8157 A5.6138,5.6138 0 0 1 681.1377,68.5582 L691.6168,98.1942 L737.2754,98.1942 A3.7425,3.7425 0 0 1 741.018,101.9368 L741.018,209.2768 A3.7425,3.7425 0 0 1 737.2754,213.0193 L445.3593,213.0193 A3.7425,3.7425 0 0 1 441.6168,209.2768 L441.6168,68.5582 A3.7425,3.7425 0 0 1 445.3593,64.8157 " style="stroke:#000000;stroke-width:2.245508982035928;fill:none;"/><line style="stroke:#000000;stroke-width:2.245508982035928;fill:none;" x1="441.6168" x2="691.6168" y1="98.1942" y2="98.1942"/><text fill="#000000" font-family="sans-serif" font-size="20.9581" font-weight="bold" lengthAdjust="spacing" textLength="230.5389" x="447.6048" y="87.2635">TLetterDualListDlg</text></g><!--MD5=[433356eef96cf937ca4d76022a2f9c44]
class TLetterDualListDlg--><g id="elem_TLetterDualListDlg"><rect codeLine="58" fill="#F1F1F1" height="71.8563" id="TLetterDualListDlg" rx="3.7425" ry="3.7425" style="stroke:#181818;stroke-width:0.7485029940119761;" width="251.497" x="465.5689" y="117.2109"/><ellipse cx="488.024" cy="141.163" fill="#ADD1B2" rx="16.4671" ry="16.4671" style="stroke:#181818;stroke-width:1.4970059880239521;"/><path d="M491.5326,134.6838 C490.1291,134.0288 489.2403,133.8183 487.9304,133.8183 C484.0007,133.8183 481.0067,136.9293 481.0067,140.9993 L481.0067,142.6834 C481.0067,146.5429 484.1645,149.3731 488.4918,149.3731 C490.3162,149.3731 492.0472,148.9287 493.1699,148.11 C494.0354,147.5019 494.5266,146.8235 494.5266,146.2388 C494.5266,145.5604 493.9418,144.9757 493.2401,144.9757 C492.9126,144.9757 492.6085,145.0926 492.3278,145.3733 C491.6495,146.0984 491.6495,146.0984 491.3688,146.2388 C490.7373,146.6364 489.7081,146.8235 488.5619,146.8235 C485.4978,146.8235 483.5563,145.1862 483.5563,142.6366 L483.5563,140.9993 C483.5563,138.3327 485.4276,136.3679 488.024,136.3679 C488.8894,136.3679 489.8016,136.6018 490.5034,136.976 C491.2285,137.3971 491.4858,137.7246 491.6261,138.3327 C491.7197,138.9409 491.7665,139.128 491.977,139.3151 C492.1875,139.5256 492.5384,139.6894 492.8658,139.6894 C493.2635,139.6894 493.6611,139.4789 493.9184,139.1514 C494.0821,138.9175 494.1289,138.6368 494.1289,138.0052 L494.1289,135.8767 C494.1289,135.2217 494.1055,135.0346 493.9652,134.8007 C493.7313,134.4031 493.3103,134.1926 492.8658,134.1926 C492.4214,134.1926 492.1173,134.3329 491.7899,134.8007 L491.5326,134.6838 Z " fill="#000000"/><text fill="#000000" font-family="sans-serif" font-size="20.9581" lengthAdjust="spacing" textLength="203.5928" x="508.982" y="148.4185">TLetterDualListDlg</text><line style="stroke:#181818;stroke-width:0.7485029940119761;" x1="467.0659" x2="715.5689" y1="165.1151" y2="165.1151"/><line style="stroke:#181818;stroke-width:0.7485029940119761;" x1="467.0659" x2="715.5689" y1="177.0911" y2="177.0911"/></g><!--MD5=[7c7913829f6a8e4d27d4f876863acdfb]
class <b>TLetterDualListDlg</b>--><g id="elem_&lt;b&gt;TLetterDualListDlg&lt;/b&gt;"><rect codeLine="9" fill="#F1F1F1" height="985.1703" id="&lt;b&gt;TLetterDualListDlg&lt;/b&gt;" rx="3.7425" ry="3.7425" style="stroke:#181818;stroke-width:0.7485029940119761;" width="679.6407" x="10.479" y="278.8875"/><ellipse cx="228.6677" cy="302.8396" fill="#ADD1B2" rx="16.4671" ry="16.4671" style="stroke:#181818;stroke-width:1.4970059880239521;"/><path d="M232.1763,296.3604 C230.7728,295.7055 229.884,295.4949 228.5741,295.4949 C224.6445,295.4949 221.6504,298.6059 221.6504,302.6759 L221.6504,304.36 C221.6504,308.2195 224.8082,311.0498 229.1355,311.0498 C230.96,311.0498 232.6909,310.6054 233.8136,309.7867 C234.6791,309.1785 235.1703,308.5002 235.1703,307.9154 C235.1703,307.2371 234.5855,306.6523 233.8838,306.6523 C233.5563,306.6523 233.2522,306.7693 232.9716,307.05 C232.2932,307.7751 232.2932,307.7751 232.0125,307.9154 C231.381,308.3131 230.3518,308.5002 229.2057,308.5002 C226.1415,308.5002 224.2,306.8628 224.2,304.3132 L224.2,302.6759 C224.2,300.0094 226.0713,298.0445 228.6677,298.0445 C229.5331,298.0445 230.4454,298.2784 231.1471,298.6527 C231.8722,299.0737 232.1295,299.4012 232.2698,300.0094 C232.3634,300.6175 232.4102,300.8046 232.6207,300.9918 C232.8312,301.2023 233.1821,301.366 233.5095,301.366 C233.9072,301.366 234.3048,301.1555 234.5621,300.828 C234.7259,300.5941 234.7726,300.3134 234.7726,299.6819 L234.7726,297.5533 C234.7726,296.8984 234.7493,296.7113 234.6089,296.4774 C234.375,296.0797 233.954,295.8692 233.5095,295.8692 C233.0651,295.8692 232.761,296.0095 232.4336,296.4774 L232.1763,296.3604 Z " fill="#000000"/><text fill="#000000" font-family="sans-serif" font-size="20.9581" font-weight="bold" lengthAdjust="spacing" textLength="230.5389" x="259.3563" y="310.0951">TLetterDualListDlg</text><line style="stroke:#181818;stroke-width:0.7485029940119761;" x1="11.976" x2="688.6228" y1="326.7917" y2="326.7917"/><ellipse cx="26.9461" cy="343.2588" fill="none" rx="4.491" ry="4.491" style="stroke:#038048;stroke-width:1.4970059880239521;"/><text fill="#000000" font-family="sans-serif" font-size="20.9581" lengthAdjust="spacing" textLength="110.7784" x="40.4192" y="352.2335">CancelBtn</text><text fill="#000000" font-family="sans-serif" font-size="20.9581" lengthAdjust="spacing" textLength="7.485" x="184.1317" y="352.2335">:</text><text fill="#000000" font-family="sans-serif" font-size="20.9581" font-style="italic" lengthAdjust="spacing" textLength="100.2994" x="197.6048" y="352.2335">TButton *</text><ellipse cx="26.9461" cy="367.6553" fill="none" rx="4.491" ry="4.491" style="stroke:#038048;stroke-width:1.4970059880239521;"/><text fill="#000000" font-family="sans-serif" font-size="20.9581" lengthAdjust="spacing" textLength="70.3593" x="40.4192" y="376.63">OKBtn</text><text fill="#000000" font-family="sans-serif" font-size="20.9581" lengthAdjust="spacing" textLength="7.485" x="184.1317" y="376.63">:</text><text fill="#000000" font-family="sans-serif" font-size="20.9581" font-style="italic" lengthAdjust="spacing" textLength="100.2994" x="197.6048" y="376.63">TButton *</text><line style="stroke:#181818;stroke-width:1.4970059880239521;stroke-dasharray:1.0,2.0;" x1="11.976" x2="688.6228" y1="387.5608" y2="387.5608"/><ellipse cx="26.9461" cy="404.0279" fill="none" rx="4.491" ry="4.491" style="stroke:#038048;stroke-width:1.4970059880239521;"/><text fill="#000000" font-family="sans-serif" font-size="20.9581" lengthAdjust="spacing" textLength="110.7784" x="40.4192" y="413.0026">DBImage1</text><text fill="#000000" font-family="sans-serif" font-size="20.9581" lengthAdjust="spacing" textLength="7.485" x="184.1317" y="413.0026">:</text><text fill="#000000" font-family="sans-serif" font-size="20.9581" font-style="italic" lengthAdjust="spacing" textLength="128.7425" x="197.6048" y="413.0026">TDBImage *</text><line style="stroke:#181818;stroke-width:1.4970059880239521;stroke-dasharray:1.0,2.0;" x1="11.976" x2="688.6228" y1="423.9334" y2="423.9334"/><ellipse cx="26.9461" cy="440.4004" fill="none" rx="4.491" ry="4.491" style="stroke:#038048;stroke-width:1.4970059880239521;"/><text fill="#000000" font-family="sans-serif" font-size="20.9581" lengthAdjust="spacing" textLength="95.8084" x="40.4192" y="449.3752">DstLabel</text><text fill="#000000" font-family="sans-serif" font-size="20.9581" lengthAdjust="spacing" textLength="7.485" x="184.1317" y="449.3752">:</text><text fill="#000000" font-family="sans-serif" font-size="20.9581" font-style="italic" lengthAdjust="spacing" textLength="88.3234" x="197.6048" y="449.3752">TLabel *</text><ellipse cx="26.9461" cy="464.797" fill="none" rx="4.491" ry="4.491" style="stroke:#038048;stroke-width:1.4970059880239521;"/><text fill="#000000" font-family="sans-serif" font-size="20.9581" lengthAdjust="spacing" textLength="92.8144" x="40.4192" y="473.7717">SrcLabel</text><text fill="#000000" font-family="sans-serif" font-size="20.9581" lengthAdjust="spacing" textLength="7.485" x="184.1317" y="473.7717">:</text><text fill="#000000" font-family="sans-serif" font-size="20.9581" font-style="italic" lengthAdjust="spacing" textLength="88.3234" x="197.6048" y="473.7717">TLabel *</text><line style="stroke:#181818;stroke-width:1.4970059880239521;stroke-dasharray:1.0,2.0;" x1="11.976" x2="688.6228" y1="484.7025" y2="484.7025"/><ellipse cx="26.9461" cy="501.1695" fill="none" rx="4.491" ry="4.491" style="stroke:#038048;stroke-width:1.4970059880239521;"/><text fill="#000000" font-family="sans-serif" font-size="20.9581" lengthAdjust="spacing" textLength="76.3473" x="40.4192" y="510.1443">DstList</text><text fill="#000000" font-family="sans-serif" font-size="20.9581" lengthAdjust="spacing" textLength="7.485" x="184.1317" y="510.1443">:</text><text fill="#000000" font-family="sans-serif" font-size="20.9581" font-style="italic" lengthAdjust="spacing" textLength="106.2874" x="197.6048" y="510.1443">TListBox *</text><ellipse cx="26.9461" cy="525.5661" fill="none" rx="4.491" ry="4.491" style="stroke:#038048;stroke-width:1.4970059880239521;"/><text fill="#000000" font-family="sans-serif" font-size="20.9581" lengthAdjust="spacing" textLength="82.3353" x="40.4192" y="534.5408">DstListI</text><text fill="#000000" font-family="sans-serif" font-size="20.9581" lengthAdjust="spacing" textLength="7.485" x="184.1317" y="534.5408">:</text><text fill="#000000" font-family="sans-serif" font-size="20.9581" font-style="italic" lengthAdjust="spacing" textLength="106.2874" x="197.6048" y="534.5408">TListBox *</text><ellipse cx="26.9461" cy="549.9626" fill="none" rx="4.491" ry="4.491" style="stroke:#038048;stroke-width:1.4970059880239521;"/><text fill="#000000" font-family="sans-serif" font-size="20.9581" lengthAdjust="spacing" textLength="73.3533" x="40.4192" y="558.9373">SrcList</text><text fill="#000000" font-family="sans-serif" font-size="20.9581" lengthAdjust="spacing" textLength="7.485" x="184.1317" y="558.9373">:</text><text fill="#000000" font-family="sans-serif" font-size="20.9581" font-style="italic" lengthAdjust="spacing" textLength="106.2874" x="197.6048" y="558.9373">TListBox *</text><ellipse cx="26.9461" cy="574.3591" fill="none" rx="4.491" ry="4.491" style="stroke:#038048;stroke-width:1.4970059880239521;"/><text fill="#000000" font-family="sans-serif" font-size="20.9581" lengthAdjust="spacing" textLength="79.3413" x="40.4192" y="583.3338">SrcListI</text><text fill="#000000" font-family="sans-serif" font-size="20.9581" lengthAdjust="spacing" textLength="7.485" x="184.1317" y="583.3338">:</text><text fill="#000000" font-family="sans-serif" font-size="20.9581" font-style="italic" lengthAdjust="spacing" textLength="106.2874" x="197.6048" y="583.3338">TListBox *</text><line style="stroke:#181818;stroke-width:1.4970059880239521;stroke-dasharray:1.0,2.0;" x1="11.976" x2="688.6228" y1="594.2646" y2="594.2646"/><ellipse cx="26.9461" cy="610.7317" fill="none" rx="4.491" ry="4.491" style="stroke:#038048;stroke-width:1.4970059880239521;"/><text fill="#000000" font-family="sans-serif" font-size="20.9581" lengthAdjust="spacing" textLength="91.3174" x="40.4192" y="619.7064">ExAllBtn</text><text fill="#000000" font-family="sans-serif" font-size="20.9581" lengthAdjust="spacing" textLength="7.485" x="184.1317" y="619.7064">:</text><text fill="#000000" font-family="sans-serif" font-size="20.9581" font-style="italic" lengthAdjust="spacing" textLength="167.6647" x="197.6048" y="619.7064">TSpeedButton *</text><ellipse cx="26.9461" cy="635.1282" fill="none" rx="4.491" ry="4.491" style="stroke:#038048;stroke-width:1.4970059880239521;"/><text fill="#000000" font-family="sans-serif" font-size="20.9581" lengthAdjust="spacing" textLength="121.2575" x="40.4192" y="644.1029">ExcludeBtn</text><text fill="#000000" font-family="sans-serif" font-size="20.9581" lengthAdjust="spacing" textLength="7.485" x="184.1317" y="644.1029">:</text><text fill="#000000" font-family="sans-serif" font-size="20.9581" font-style="italic" lengthAdjust="spacing" textLength="167.6647" x="197.6048" y="644.1029">TSpeedButton *</text><ellipse cx="26.9461" cy="659.5247" fill="none" rx="4.491" ry="4.491" style="stroke:#038048;stroke-width:1.4970059880239521;"/><text fill="#000000" font-family="sans-serif" font-size="20.9581" lengthAdjust="spacing" textLength="97.3054" x="40.4192" y="668.4994">IncAllBtn</text><text fill="#000000" font-family="sans-serif" font-size="20.9581" lengthAdjust="spacing" textLength="7.485" x="184.1317" y="668.4994">:</text><text fill="#000000" font-family="sans-serif" font-size="20.9581" font-style="italic" lengthAdjust="spacing" textLength="167.6647" x="197.6048" y="668.4994">TSpeedButton *</text><ellipse cx="26.9461" cy="683.9212" fill="none" rx="4.491" ry="4.491" style="stroke:#038048;stroke-width:1.4970059880239521;"/><text fill="#000000" font-family="sans-serif" font-size="20.9581" lengthAdjust="spacing" textLength="115.2695" x="40.4192" y="692.8959">IncludeBtn</text><text fill="#000000" font-family="sans-serif" font-size="20.9581" lengthAdjust="spacing" textLength="7.485" x="184.1317" y="692.8959">:</text><text fill="#000000" font-family="sans-serif" font-size="20.9581" font-style="italic" lengthAdjust="spacing" textLength="167.6647" x="197.6048" y="692.8959">TSpeedButton *</text><line style="stroke:#181818;stroke-width:1.4970059880239521;" x1="11.976" x2="688.6228" y1="703.8267" y2="703.8267"/><text fill="#000000" font-family="sans-serif" font-size="20.9581" lengthAdjust="spacing" textLength="5.988" x="40.4192" y="729.2685"> </text><ellipse cx="26.9461" cy="744.6903" fill="#84BE84" rx="4.491" ry="4.491" style="stroke:#038048;stroke-width:1.4970059880239521;"/><text fill="#000000" font-family="sans-serif" font-size="20.9581" font-style="italic" font-weight="bold" lengthAdjust="spacing" textLength="338.3234" x="40.4192" y="753.665">TLetterDualListDlg (AOwner</text><text fill="#000000" font-family="sans-serif" font-size="20.9581" font-style="italic" font-weight="bold" lengthAdjust="spacing" textLength="8.982" x="399.7006" y="753.665">:</text><text fill="#000000" font-family="sans-serif" font-size="20.9581" font-style="italic" font-weight="bold" lengthAdjust="spacing" textLength="170.6587" x="416.1677" y="753.665">TComponent *</text><text fill="#000000" font-family="sans-serif" font-size="20.9581" font-style="italic" font-weight="bold" lengthAdjust="spacing" textLength="94.3114" x="586.8263" y="753.665">) virtual</text><text fill="#000000" font-family="sans-serif" font-size="20.9581" lengthAdjust="spacing" textLength="5.988" x="40.4192" y="778.0616"> </text><ellipse cx="26.9461" cy="793.4833" fill="#84BE84" rx="4.491" ry="4.491" style="stroke:#038048;stroke-width:1.4970059880239521;"/><text fill="#000000" font-family="sans-serif" font-size="20.9581" lengthAdjust="spacing" textLength="155.6886" x="40.4192" y="802.4581">ExcAllBtnClick</text><text fill="#000000" font-family="sans-serif" font-size="20.9581" lengthAdjust="spacing" textLength="83.8323" x="279.9401" y="802.4581">(Sender</text><text fill="#000000" font-family="sans-serif" font-size="20.9581" lengthAdjust="spacing" textLength="7.485" x="375.7485" y="802.4581">:</text><text fill="#000000" font-family="sans-serif" font-size="20.9581" font-style="italic" lengthAdjust="spacing" textLength="98.8024" x="389.2216" y="802.4581">TObject *</text><text fill="#000000" font-family="sans-serif" font-size="20.9581" lengthAdjust="spacing" textLength="20.9581" x="488.024" y="802.4581">) :</text><text fill="#000000" font-family="sans-serif" font-size="20.9581" font-style="italic" lengthAdjust="spacing" textLength="44.9102" x="514.9701" y="802.4581">void</text><ellipse cx="26.9461" cy="817.8799" fill="#84BE84" rx="4.491" ry="4.491" style="stroke:#038048;stroke-width:1.4970059880239521;"/><text fill="#000000" font-family="sans-serif" font-size="20.9581" lengthAdjust="spacing" textLength="173.6527" x="40.4192" y="826.8546">ExcludeBtnClick</text><text fill="#000000" font-family="sans-serif" font-size="20.9581" lengthAdjust="spacing" textLength="83.8323" x="279.9401" y="826.8546">(Sender</text><text fill="#000000" font-family="sans-serif" font-size="20.9581" lengthAdjust="spacing" textLength="7.485" x="375.7485" y="826.8546">:</text><text fill="#000000" font-family="sans-serif" font-size="20.9581" font-style="italic" lengthAdjust="spacing" textLength="98.8024" x="389.2216" y="826.8546">TObject *</text><text fill="#000000" font-family="sans-serif" font-size="20.9581" lengthAdjust="spacing" textLength="20.9581" x="488.024" y="826.8546">) :</text><text fill="#000000" font-family="sans-serif" font-size="20.9581" font-style="italic" lengthAdjust="spacing" textLength="44.9102" x="514.9701" y="826.8546">void</text><ellipse cx="26.9461" cy="842.2764" fill="#84BE84" rx="4.491" ry="4.491" style="stroke:#038048;stroke-width:1.4970059880239521;"/><text fill="#000000" font-family="sans-serif" font-size="20.9581" lengthAdjust="spacing" textLength="146.7066" x="40.4192" y="851.2511">FormActivate</text><text fill="#000000" font-family="sans-serif" font-size="20.9581" lengthAdjust="spacing" textLength="83.8323" x="279.9401" y="851.2511">(Sender</text><text fill="#000000" font-family="sans-serif" font-size="20.9581" lengthAdjust="spacing" textLength="7.485" x="375.7485" y="851.2511">:</text><text fill="#000000" font-family="sans-serif" font-size="20.9581" font-style="italic" lengthAdjust="spacing" textLength="98.8024" x="389.2216" y="851.2511">TObject *</text><text fill="#000000" font-family="sans-serif" font-size="20.9581" lengthAdjust="spacing" textLength="20.9581" x="488.024" y="851.2511">) :</text><text fill="#000000" font-family="sans-serif" font-size="20.9581" font-style="italic" lengthAdjust="spacing" textLength="44.9102" x="514.9701" y="851.2511">void</text><ellipse cx="26.9461" cy="866.6729" fill="#84BE84" rx="4.491" ry="4.491" style="stroke:#038048;stroke-width:1.4970059880239521;"/><text fill="#000000" font-family="sans-serif" font-size="20.9581" lengthAdjust="spacing" textLength="190.1198" x="40.4192" y="875.6476">GetFirstSelection</text><text fill="#000000" font-family="sans-serif" font-size="20.9581" lengthAdjust="spacing" textLength="46.4072" x="279.9401" y="875.6476">(List</text><text fill="#000000" font-family="sans-serif" font-size="20.9581" lengthAdjust="spacing" textLength="7.485" x="375.7485" y="875.6476">:</text><text fill="#000000" font-family="sans-serif" font-size="20.9581" font-style="italic" lengthAdjust="spacing" textLength="187.1257" x="389.2216" y="875.6476">TCustomListBox *</text><text fill="#000000" font-family="sans-serif" font-size="20.9581" lengthAdjust="spacing" textLength="20.9581" x="576.3473" y="875.6476">) :</text><text fill="#000000" font-family="sans-serif" font-size="20.9581" font-style="italic" lengthAdjust="spacing" textLength="76.3473" x="603.2934" y="875.6476">Integer</text><ellipse cx="26.9461" cy="891.0694" fill="#84BE84" rx="4.491" ry="4.491" style="stroke:#038048;stroke-width:1.4970059880239521;"/><text fill="#000000" font-family="sans-serif" font-size="20.9581" lengthAdjust="spacing" textLength="149.7006" x="40.4192" y="900.0441">IncAllBtnClick</text><text fill="#000000" font-family="sans-serif" font-size="20.9581" lengthAdjust="spacing" textLength="83.8323" x="279.9401" y="900.0441">(Sender</text><text fill="#000000" font-family="sans-serif" font-size="20.9581" lengthAdjust="spacing" textLength="7.485" x="375.7485" y="900.0441">:</text><text fill="#000000" font-family="sans-serif" font-size="20.9581" font-style="italic" lengthAdjust="spacing" textLength="98.8024" x="389.2216" y="900.0441">TObject *</text><text fill="#000000" font-family="sans-serif" font-size="20.9581" lengthAdjust="spacing" textLength="20.9581" x="488.024" y="900.0441">) :</text><text fill="#000000" font-family="sans-serif" font-size="20.9581" font-style="italic" lengthAdjust="spacing" textLength="44.9102" x="514.9701" y="900.0441">void</text><ellipse cx="26.9461" cy="915.4659" fill="#84BE84" rx="4.491" ry="4.491" style="stroke:#038048;stroke-width:1.4970059880239521;"/><text fill="#000000" font-family="sans-serif" font-size="20.9581" lengthAdjust="spacing" textLength="167.6647" x="40.4192" y="924.4407">IncludeBtnClick</text><text fill="#000000" font-family="sans-serif" font-size="20.9581" lengthAdjust="spacing" textLength="83.8323" x="279.9401" y="924.4407">(Sender</text><text fill="#000000" font-family="sans-serif" font-size="20.9581" lengthAdjust="spacing" textLength="7.485" x="375.7485" y="924.4407">:</text><text fill="#000000" font-family="sans-serif" font-size="20.9581" font-style="italic" lengthAdjust="spacing" textLength="98.8024" x="389.2216" y="924.4407">TObject *</text><text fill="#000000" font-family="sans-serif" font-size="20.9581" lengthAdjust="spacing" textLength="20.9581" x="488.024" y="924.4407">) :</text><text fill="#000000" font-family="sans-serif" font-size="20.9581" font-style="italic" lengthAdjust="spacing" textLength="44.9102" x="514.9701" y="924.4407">void</text><line style="stroke:#181818;stroke-width:1.4970059880239521;stroke-dasharray:1.0,2.0;" x1="11.976" x2="688.6228" y1="935.3714" y2="935.3714"/><ellipse cx="26.9461" cy="951.8385" fill="#84BE84" rx="4.491" ry="4.491" style="stroke:#038048;stroke-width:1.4970059880239521;"/><text fill="#000000" font-family="sans-serif" font-size="20.9581" lengthAdjust="spacing" textLength="152.6946" x="40.4192" y="960.8132">MoveSelected</text><text fill="#000000" font-family="sans-serif" font-size="20.9581" lengthAdjust="spacing" textLength="7.485" x="279.9401" y="960.8132">(</text><text fill="#000000" font-family="sans-serif" font-size="20.9581" lengthAdjust="spacing" textLength="52.3952" x="136.2275" y="985.2098">List1</text><text fill="#000000" font-family="sans-serif" font-size="20.9581" lengthAdjust="spacing" textLength="7.485" x="232.0359" y="985.2098">:</text><text fill="#000000" font-family="sans-serif" font-size="20.9581" font-style="italic" lengthAdjust="spacing" textLength="187.1257" x="245.509" y="985.2098">TCustomListBox *</text><text fill="#000000" font-family="sans-serif" font-size="20.9581" lengthAdjust="spacing" textLength="5.988" x="432.6347" y="985.2098">,</text><text fill="#000000" font-family="sans-serif" font-size="20.9581" lengthAdjust="spacing" textLength="74.8503" x="136.2275" y="1009.6063">Items1</text><text fill="#000000" font-family="sans-serif" font-size="20.9581" lengthAdjust="spacing" textLength="7.485" x="232.0359" y="1009.6063">:</text><text fill="#000000" font-family="sans-serif" font-size="20.9581" font-style="italic" lengthAdjust="spacing" textLength="103.2934" x="245.509" y="1009.6063">TStrings *</text><text fill="#000000" font-family="sans-serif" font-size="20.9581" lengthAdjust="spacing" textLength="5.988" x="348.8024" y="1009.6063">,</text><text fill="#000000" font-family="sans-serif" font-size="20.9581" lengthAdjust="spacing" textLength="50.8982" x="136.2275" y="1034.0028">List2</text><text fill="#000000" font-family="sans-serif" font-size="20.9581" lengthAdjust="spacing" textLength="7.485" x="232.0359" y="1034.0028">:</text><text fill="#000000" font-family="sans-serif" font-size="20.9581" font-style="italic" lengthAdjust="spacing" textLength="187.1257" x="245.509" y="1034.0028">TCustomListBox *</text><text fill="#000000" font-family="sans-serif" font-size="20.9581" lengthAdjust="spacing" textLength="5.988" x="432.6347" y="1034.0028">,</text><text fill="#000000" font-family="sans-serif" font-size="20.9581" lengthAdjust="spacing" textLength="73.3533" x="136.2275" y="1058.3993">Items2</text><text fill="#000000" font-family="sans-serif" font-size="20.9581" lengthAdjust="spacing" textLength="7.485" x="232.0359" y="1058.3993">:</text><text fill="#000000" font-family="sans-serif" font-size="20.9581" font-style="italic" lengthAdjust="spacing" textLength="103.2934" x="245.509" y="1058.3993">TStrings *</text><text fill="#000000" font-family="sans-serif" font-size="20.9581" lengthAdjust="spacing" textLength="20.9581" x="88.3234" y="1082.7958">) :</text><text fill="#000000" font-family="sans-serif" font-size="20.9581" font-style="italic" lengthAdjust="spacing" textLength="44.9102" x="115.2695" y="1082.7958">void</text><line style="stroke:#181818;stroke-width:1.4970059880239521;stroke-dasharray:1.0,2.0;" x1="11.976" x2="688.6228" y1="1093.7266" y2="1093.7266"/><ellipse cx="26.9461" cy="1110.1937" fill="#84BE84" rx="4.491" ry="4.491" style="stroke:#038048;stroke-width:1.4970059880239521;"/><text fill="#000000" font-family="sans-serif" font-size="20.9581" lengthAdjust="spacing" textLength="122.7545" x="40.4192" y="1119.1684">OKBtnClick</text><text fill="#000000" font-family="sans-serif" font-size="20.9581" lengthAdjust="spacing" textLength="83.8323" x="279.9401" y="1119.1684">(Sender</text><text fill="#000000" font-family="sans-serif" font-size="20.9581" lengthAdjust="spacing" textLength="7.485" x="375.7485" y="1119.1684">:</text><text fill="#000000" font-family="sans-serif" font-size="20.9581" font-style="italic" lengthAdjust="spacing" textLength="98.8024" x="389.2216" y="1119.1684">TObject *</text><text fill="#000000" font-family="sans-serif" font-size="20.9581" lengthAdjust="spacing" textLength="20.9581" x="488.024" y="1119.1684">) :</text><text fill="#000000" font-family="sans-serif" font-size="20.9581" font-style="italic" lengthAdjust="spacing" textLength="44.9102" x="514.9701" y="1119.1684">void</text><ellipse cx="26.9461" cy="1134.5902" fill="#84BE84" rx="4.491" ry="4.491" style="stroke:#038048;stroke-width:1.4970059880239521;"/><text fill="#000000" font-family="sans-serif" font-size="20.9581" lengthAdjust="spacing" textLength="122.7545" x="40.4192" y="1143.5649">SetButtons</text><text fill="#000000" font-family="sans-serif" font-size="20.9581" lengthAdjust="spacing" textLength="28.4431" x="279.9401" y="1143.5649">() :</text><text fill="#000000" font-family="sans-serif" font-size="20.9581" font-style="italic" lengthAdjust="spacing" textLength="44.9102" x="314.3713" y="1143.5649">void</text><line style="stroke:#181818;stroke-width:1.4970059880239521;stroke-dasharray:1.0,2.0;" x1="11.976" x2="688.6228" y1="1154.4957" y2="1154.4957"/><ellipse cx="26.9461" cy="1170.9628" fill="#84BE84" rx="4.491" ry="4.491" style="stroke:#038048;stroke-width:1.4970059880239521;"/><text fill="#000000" font-family="sans-serif" font-size="20.9581" lengthAdjust="spacing" textLength="88.3234" x="40.4192" y="1179.9375">SetItem</text><text fill="#000000" font-family="sans-serif" font-size="20.9581" lengthAdjust="spacing" textLength="7.485" x="279.9401" y="1179.9375">(</text><text fill="#000000" font-family="sans-serif" font-size="20.9581" lengthAdjust="spacing" textLength="38.9222" x="136.2275" y="1204.334">List</text><text fill="#000000" font-family="sans-serif" font-size="20.9581" lengthAdjust="spacing" textLength="7.485" x="232.0359" y="1204.334">:</text><text fill="#000000" font-family="sans-serif" font-size="20.9581" font-style="italic" lengthAdjust="spacing" textLength="106.2874" x="245.509" y="1204.334">TListBox *</text><text fill="#000000" font-family="sans-serif" font-size="20.9581" lengthAdjust="spacing" textLength="5.988" x="351.7964" y="1204.334">,</text><text fill="#000000" font-family="sans-serif" font-size="20.9581" lengthAdjust="spacing" textLength="58.3832" x="136.2275" y="1228.7305">Index</text><text fill="#000000" font-family="sans-serif" font-size="20.9581" lengthAdjust="spacing" textLength="7.485" x="232.0359" y="1228.7305">:</text><text fill="#000000" font-family="sans-serif" font-size="20.9581" font-style="italic" lengthAdjust="spacing" textLength="26.9461" x="245.509" y="1228.7305">int</text><text fill="#000000" font-family="sans-serif" font-size="20.9581" lengthAdjust="spacing" textLength="20.9581" x="88.3234" y="1253.127">) :</text><text fill="#000000" font-family="sans-serif" font-size="20.9581" font-style="italic" lengthAdjust="spacing" textLength="44.9102" x="115.2695" y="1253.127">void</text></g><!--MD5=[dd0bf217da5c5e97452bc452f42aff32]
class <b>TForm</b>--><g id="elem_&lt;b&gt;TForm&lt;/b&gt;"><rect fill="#F1F1F1" height="47.9042" id="&lt;b&gt;TForm&lt;/b&gt;" rx="3.7425" ry="3.7425" style="stroke:#181818;stroke-width:0.7485029940119761;" width="125.7485" x="287.4251" y="129.1869"/><ellipse cx="309.8802" cy="153.139" fill="#ADD1B2" rx="16.4671" ry="16.4671" style="stroke:#181818;stroke-width:1.4970059880239521;"/><path d="M313.3888,146.6598 C311.9854,146.0049 311.0966,145.7943 309.7867,145.7943 C305.857,145.7943 302.863,148.9053 302.863,152.9753 L302.863,154.6594 C302.863,158.5189 306.0208,161.3492 310.3481,161.3492 C312.1725,161.3492 313.9034,160.9048 315.0262,160.0861 C315.8917,159.4779 316.3829,158.7996 316.3829,158.2148 C316.3829,157.5365 315.7981,156.9517 315.0964,156.9517 C314.7689,156.9517 314.4648,157.0687 314.1841,157.3494 C313.5058,158.0745 313.5058,158.0745 313.2251,158.2148 C312.5936,158.6125 311.5644,158.7996 310.4182,158.7996 C307.354,158.7996 305.4126,157.1622 305.4126,154.6126 L305.4126,152.9753 C305.4126,150.3088 307.2839,148.3439 309.8802,148.3439 C310.7457,148.3439 311.6579,148.5778 312.3597,148.9521 C313.0848,149.3731 313.3421,149.7006 313.4824,150.3088 C313.576,150.9169 313.6228,151.104 313.8333,151.2912 C314.0438,151.5017 314.3946,151.6654 314.7221,151.6654 C315.1198,151.6654 315.5174,151.4549 315.7747,151.1274 C315.9384,150.8935 315.9852,150.6128 315.9852,149.9813 L315.9852,147.8527 C315.9852,147.1978 315.9618,147.0107 315.8215,146.7768 C315.5876,146.3791 315.1665,146.1686 314.7221,146.1686 C314.2777,146.1686 313.9736,146.3089 313.6461,146.7768 L313.3888,146.6598 Z " fill="#000000"/><text fill="#000000" font-family="sans-serif" font-size="20.9581" font-weight="bold" lengthAdjust="spacing" textLength="77.8443" x="330.8383" y="160.3945">TForm</text></g><!--MD5=[e6fb742fada9676e245aa829bc50ce1f]
reverse link <b>TForm</b> to <b>TLetterDualListDlg</b>--><g id="link_&lt;b&gt;TForm&lt;/b&gt;_&lt;b&gt;TLetterDualListDlg&lt;/b&gt;"><path codeLine="5" d="M350.2994,207.2842 C350.2994,226.9025 350.2994,251.1151 350.2994,278.3696 " fill="none" id="&lt;b&gt;TForm&lt;/b&gt;-backto-&lt;b&gt;TLetterDualListDlg&lt;/b&gt;" style="stroke:#181818;stroke-width:1.4970059880239521;"/><polygon fill="none" points="339.8204,207.2034,350.2994,177.2633,360.7784,207.2034,339.8204,207.2034" style="stroke:#181818;stroke-width:1.4970059880239521;"/></g><!--MD5=[016722dad841256d1f4315b4b5d799d1]
@startuml
title Исходный файл: "LETTERDUALLIST.cpp"

scale 750 width

"<b>TLetterDualListDlg</b>" -up-|> "<b>TForm</b>"

hide "<b>TForm</b>" members

class "<b>TLetterDualListDlg</b>"
{
    + CancelBtn \t: <i>TButton *</i>
    + OKBtn \t\t: <i>TButton *</i>
    ..
    + DBImage1 \t: <i>TDBImage *</i>
    ..
    + DstLabel \t: <i>TLabel *</i>
    + SrcLabel \t: <i>TLabel *</i>
    ..
    + DstList \t\t: <i>TListBox *</i>
    + DstListI \t\t: <i>TListBox *</i>
    + SrcList \t\t: <i>TListBox *</i>
    + SrcListI \t\t: <i>TListBox *</i>
    ..
    + ExAllBtn \t: <i>TSpeedButton *</i>
    + ExcludeBtn \t: <i>TSpeedButton *</i>
    + IncAllBtn \t: <i>TSpeedButton *</i>
    + IncludeBtn \t: <i>TSpeedButton *</i>
    - -
    
    + <b>{abstract} TLetterDualListDlg (AOwner \t: <i>TComponent *</i>) virtual</b>

    + ExcAllBtnClick \t\t(Sender \t: <i>TObject *</i>) : <i>void</i>
    + ExcludeBtnClick \t\t(Sender \t: <i>TObject *</i>) : <i>void</i>
    + FormActivate \t\t(Sender \t: <i>TObject *</i>) : <i>void</i>
    + GetFirstSelection \t(List \t: <i>TCustomListBox *</i>) : <i>Integer</i>
    + IncAllBtnClick \t\t(Sender \t: <i>TObject *</i>) : <i>void</i>
    + IncludeBtnClick \t\t(Sender \t: <i>TObject *</i>) : <i>void</i>
    ..
    + MoveSelected \t\t(
            \t\tList1 \t: <i>TCustomListBox *</i>,
            \t\tItems1 \t: <i>TStrings *</i>,
            \t\tList2 \t: <i>TCustomListBox *</i>,
            \t\tItems2 \t: <i>TStrings *</i>
        \t) : <i>void</i>
    ..
    + OKBtnClick \t\t\t(Sender \t: <i>TObject *</i>) : <i>void</i>
    + SetButtons \t\t\t() : <i>void</i>
    ..
    + SetItem \t\t\t\t(
            \t\tList \t\t: <i>TListBox *</i>,
            \t\tIndex \t: <i>int</i>
        \t) : <i>void</i>
}


package TLetterDualListDlg <<Folder>>
{
    class TLetterDualListDlg
    hide  members
}


' note right of "<b>TLetterDualListDlg</b>"::Save_Priv
' сохранение привелегий (сирота, Чаэс, инвалид)
' end note
@enduml

@startuml
title Исходный файл: "LETTERDUALLIST.cpp"

scale 750 width

"<b>TLetterDualListDlg</b>" -up-|> "<b>TForm</b>"

hide "<b>TForm</b>" members

class "<b>TLetterDualListDlg</b>"
{
    + CancelBtn \t: <i>TButton *</i>
    + OKBtn \t\t: <i>TButton *</i>
    ..
    + DBImage1 \t: <i>TDBImage *</i>
    ..
    + DstLabel \t: <i>TLabel *</i>
    + SrcLabel \t: <i>TLabel *</i>
    ..
    + DstList \t\t: <i>TListBox *</i>
    + DstListI \t\t: <i>TListBox *</i>
    + SrcList \t\t: <i>TListBox *</i>
    + SrcListI \t\t: <i>TListBox *</i>
    ..
    + ExAllBtn \t: <i>TSpeedButton *</i>
    + ExcludeBtn \t: <i>TSpeedButton *</i>
    + IncAllBtn \t: <i>TSpeedButton *</i>
    + IncludeBtn \t: <i>TSpeedButton *</i>
    - -
    
    + <b>{abstract} TLetterDualListDlg (AOwner \t: <i>TComponent *</i>) virtual</b>

    + ExcAllBtnClick \t\t(Sender \t: <i>TObject *</i>) : <i>void</i>
    + ExcludeBtnClick \t\t(Sender \t: <i>TObject *</i>) : <i>void</i>
    + FormActivate \t\t(Sender \t: <i>TObject *</i>) : <i>void</i>
    + GetFirstSelection \t(List \t: <i>TCustomListBox *</i>) : <i>Integer</i>
    + IncAllBtnClick \t\t(Sender \t: <i>TObject *</i>) : <i>void</i>
    + IncludeBtnClick \t\t(Sender \t: <i>TObject *</i>) : <i>void</i>
    ..
    + MoveSelected \t\t(
            \t\tList1 \t: <i>TCustomListBox *</i>,
            \t\tItems1 \t: <i>TStrings *</i>,
            \t\tList2 \t: <i>TCustomListBox *</i>,
            \t\tItems2 \t: <i>TStrings *</i>
        \t) : <i>void</i>
    ..
    + OKBtnClick \t\t\t(Sender \t: <i>TObject *</i>) : <i>void</i>
    + SetButtons \t\t\t() : <i>void</i>
    ..
    + SetItem \t\t\t\t(
            \t\tList \t\t: <i>TListBox *</i>,
            \t\tIndex \t: <i>int</i>
        \t) : <i>void</i>
}


package TLetterDualListDlg <<Folder>>
{
    class TLetterDualListDlg
    hide  members
}


@enduml

PlantUML version 1.2022.5(Sat Apr 30 10:55:52 UTC 2022)
(GPL source distribution)
Java Runtime: Java(TM) SE Runtime Environment
JVM: Java HotSpot(TM) 64-Bit Server VM
Default Encoding: UTF-8
Language: en
Country: US
--></g></svg>