<?xml version="1.0" encoding="UTF-8" standalone="no"?><svg xmlns="http://www.w3.org/2000/svg" xmlns:xlink="http://www.w3.org/1999/xlink" contentStyleType="text/css" height="772.5709px" preserveAspectRatio="none" style="width:750px;height:772px;background:#FFFFFF;" version="1.1" viewBox="0 0 750 772" width="750.6449px" zoomAndPan="magnify"><defs/><g><rect height="33.9169" style="stroke:#00000000;stroke-width:1.2897678417884781;fill:none;" width="420.4643" x="156.3844" y="6.4488"/><text fill="#000000" font-family="sans-serif" font-size="18.0567" font-weight="bold" lengthAdjust="spacing" textLength="407.5666" x="162.8332" y="29.6584">Исходный файл: "Dop_ResultUnit.cpp"</text><!--MD5=[029ffa48e7c4b07264fa9902137957ca]
cluster TDop_ResultForm--><g id="cluster_TDop_ResultForm"><path d="M347.5924,55.8429 L532.0292,55.8429 A4.8366,4.8366 0 0 1 535.2537,59.0673 L544.282,84.6007 L588.779,84.6007 A3.2244,3.2244 0 0 1 592.0034,87.8251 L592.0034,180.3055 A3.2244,3.2244 0 0 1 588.779,183.5299 L347.5924,183.5299 A3.2244,3.2244 0 0 1 344.368,180.3055 L344.368,59.0673 A3.2244,3.2244 0 0 1 347.5924,55.8429 " style="stroke:#000000;stroke-width:1.934651762682717;fill:none;"/><line style="stroke:#000000;stroke-width:1.934651762682717;fill:none;" x1="344.368" x2="544.282" y1="84.6007" y2="84.6007"/><text fill="#000000" font-family="sans-serif" font-size="18.0567" font-weight="bold" lengthAdjust="spacing" textLength="183.147" x="349.5271" y="75.1831">TDop_ResultForm</text></g><!--MD5=[fda2142be2f81e676212d8c499e44a25]
class TDop_ResultForm--><g id="elem_TDop_ResultForm"><rect codeLine="43" fill="#F1F1F1" height="61.9089" id="TDop_ResultForm" rx="3.2244" ry="3.2244" style="stroke:#181818;stroke-width:0.6448839208942391;" width="206.3629" x="365.0043" y="100.9848"/><ellipse cx="384.3508" cy="121.6211" fill="#ADD1B2" rx="14.1874" ry="14.1874" style="stroke:#181818;stroke-width:1.2897678417884781;"/><path d="M387.3737,116.0388 C386.1646,115.4745 385.3988,115.2932 384.2702,115.2932 C380.8846,115.2932 378.305,117.9735 378.305,121.48 L378.305,122.931 C378.305,126.2562 381.0256,128.6946 384.7539,128.6946 C386.3258,128.6946 387.8171,128.3117 388.7844,127.6064 C389.53,127.0824 389.9532,126.498 389.9532,125.9942 C389.9532,125.4098 389.4494,124.906 388.8449,124.906 C388.5627,124.906 388.3007,125.0067 388.0589,125.2485 C387.4745,125.8733 387.4745,125.8733 387.2326,125.9942 C386.6885,126.3368 385.8018,126.498 384.8143,126.498 C382.1743,126.498 380.5017,125.0873 380.5017,122.8907 L380.5017,121.48 C380.5017,119.1826 382.1139,117.4898 384.3508,117.4898 C385.0965,117.4898 385.8824,117.6913 386.487,118.0138 C387.1117,118.3765 387.3334,118.6586 387.4543,119.1826 C387.5349,119.7066 387.5752,119.8678 387.7566,120.029 C387.938,120.2104 388.2403,120.3515 388.5224,120.3515 C388.865,120.3515 389.2076,120.1701 389.4293,119.888 C389.5703,119.6864 389.6107,119.4446 389.6107,118.9005 L389.6107,117.0666 C389.6107,116.5023 389.5905,116.3411 389.4696,116.1396 C389.2681,115.797 388.9053,115.6156 388.5224,115.6156 C388.1395,115.6156 387.8775,115.7365 387.5954,116.1396 L387.3737,116.0388 Z " fill="#000000"/><text fill="#000000" font-family="sans-serif" font-size="18.0567" lengthAdjust="spacing" textLength="165.0903" x="402.4076" y="127.8722">TDop_ResultForm</text><line style="stroke:#181818;stroke-width:0.6448839208942391;" x1="366.2941" x2="570.0774" y1="142.2574" y2="142.2574"/><line style="stroke:#181818;stroke-width:0.6448839208942391;" x1="366.2941" x2="570.0774" y1="152.5755" y2="152.5755"/></g><!--MD5=[95b837c9743816285b9e5259b6932d68]
class <b>TDop_ResultForm</b>--><g id="elem_&lt;b&gt;TDop_ResultForm&lt;/b&gt;"><rect codeLine="9" fill="#F1F1F1" height="523.948" id="&lt;b&gt;TDop_ResultForm&lt;/b&gt;" rx="3.2244" ry="3.2244" style="stroke:#181818;stroke-width:0.6448839208942391;" width="513.3276" x="9.0284" y="240.2797"/><ellipse cx="168.6371" cy="260.916" fill="#ADD1B2" rx="14.1874" ry="14.1874" style="stroke:#181818;stroke-width:1.2897678417884781;"/><path d="M171.66,255.3337 C170.4509,254.7695 169.6851,254.5881 168.5565,254.5881 C165.1709,254.5881 162.5914,257.2684 162.5914,260.7749 L162.5914,262.2259 C162.5914,265.5511 165.312,267.9896 169.0402,267.9896 C170.6121,267.9896 172.1034,267.6067 173.0707,266.9013 C173.8164,266.3774 174.2396,265.7929 174.2396,265.2891 C174.2396,264.7047 173.7358,264.2009 173.1312,264.2009 C172.849,264.2009 172.5871,264.3016 172.3452,264.5435 C171.7608,265.1682 171.7608,265.1682 171.519,265.2891 C170.9748,265.6317 170.0881,265.7929 169.1007,265.7929 C166.4607,265.7929 164.788,264.3823 164.788,262.1856 L164.788,260.7749 C164.788,258.4775 166.4002,256.7847 168.6371,256.7847 C169.3828,256.7847 170.1687,256.9862 170.7733,257.3087 C171.3981,257.6714 171.6197,257.9536 171.7406,258.4775 C171.8213,259.0015 171.8616,259.1627 172.0429,259.3239 C172.2243,259.5053 172.5266,259.6464 172.8087,259.6464 C173.1513,259.6464 173.4939,259.465 173.7156,259.1829 C173.8567,258.9814 173.897,258.7395 173.897,258.1954 L173.897,256.3615 C173.897,255.7972 173.8768,255.636 173.7559,255.4345 C173.5544,255.0919 173.1916,254.9105 172.8087,254.9105 C172.4258,254.9105 172.1639,255.0314 171.8817,255.4345 L171.66,255.3337 Z " fill="#000000"/><text fill="#000000" font-family="sans-serif" font-size="18.0567" font-weight="bold" lengthAdjust="spacing" textLength="183.147" x="195.0774" y="267.1671">TDop_ResultForm</text><line style="stroke:#181818;stroke-width:0.6448839208942391;" x1="10.3181" x2="521.0662" y1="281.5523" y2="281.5523"/><ellipse cx="23.2158" cy="295.7397" fill="none" rx="3.8693" ry="3.8693" style="stroke:#038048;stroke-width:1.2897678417884781;"/><text fill="#000000" font-family="sans-serif" font-size="18.0567" lengthAdjust="spacing" textLength="72.227" x="34.8237" y="303.472">BitBtn1</text><text fill="#000000" font-family="sans-serif" font-size="18.0567" lengthAdjust="spacing" textLength="6.4488" x="199.914" y="303.472">:</text><text fill="#000000" font-family="sans-serif" font-size="18.0567" font-style="italic" lengthAdjust="spacing" textLength="81.2554" x="211.5219" y="303.472">TBitBtn *</text><ellipse cx="23.2158" cy="316.7589" fill="none" rx="3.8693" ry="3.8693" style="stroke:#038048;stroke-width:1.2897678417884781;"/><text fill="#000000" font-family="sans-serif" font-size="18.0567" lengthAdjust="spacing" textLength="76.0963" x="34.8237" y="324.4912">Button1</text><text fill="#000000" font-family="sans-serif" font-size="18.0567" lengthAdjust="spacing" textLength="6.4488" x="199.914" y="324.4912">:</text><text fill="#000000" font-family="sans-serif" font-size="18.0567" font-style="italic" lengthAdjust="spacing" textLength="86.4144" x="211.5219" y="324.4912">TButton *</text><ellipse cx="23.2158" cy="337.7781" fill="none" rx="3.8693" ry="3.8693" style="stroke:#038048;stroke-width:1.2897678417884781;"/><text fill="#000000" font-family="sans-serif" font-size="18.0567" lengthAdjust="spacing" textLength="74.8065" x="34.8237" y="345.5104">LookFIO</text><text fill="#000000" font-family="sans-serif" font-size="18.0567" lengthAdjust="spacing" textLength="6.4488" x="199.914" y="345.5104">:</text><text fill="#000000" font-family="sans-serif" font-size="18.0567" font-style="italic" lengthAdjust="spacing" textLength="220.5503" x="211.5219" y="345.5104">TDBLookupComboBox *</text><ellipse cx="23.2158" cy="358.7973" fill="none" rx="3.8693" ry="3.8693" style="stroke:#038048;stroke-width:1.2897678417884781;"/><text fill="#000000" font-family="sans-serif" font-size="18.0567" lengthAdjust="spacing" textLength="87.7042" x="34.8237" y="366.5296">LookPred</text><text fill="#000000" font-family="sans-serif" font-size="18.0567" lengthAdjust="spacing" textLength="6.4488" x="199.914" y="366.5296">:</text><text fill="#000000" font-family="sans-serif" font-size="18.0567" font-style="italic" lengthAdjust="spacing" textLength="220.5503" x="211.5219" y="366.5296">TDBLookupComboBox *</text><ellipse cx="23.2158" cy="379.8165" fill="none" rx="3.8693" ry="3.8693" style="stroke:#038048;stroke-width:1.2897678417884781;"/><text fill="#000000" font-family="sans-serif" font-size="18.0567" lengthAdjust="spacing" textLength="49.0112" x="34.8237" y="387.5488">Edit1</text><text fill="#000000" font-family="sans-serif" font-size="18.0567" lengthAdjust="spacing" textLength="6.4488" x="199.914" y="387.5488">:</text><text fill="#000000" font-family="sans-serif" font-size="18.0567" font-style="italic" lengthAdjust="spacing" textLength="60.6191" x="211.5219" y="387.5488">TEdit *</text><ellipse cx="23.2158" cy="400.8357" fill="none" rx="3.8693" ry="3.8693" style="stroke:#038048;stroke-width:1.2897678417884781;"/><text fill="#000000" font-family="sans-serif" font-size="18.0567" lengthAdjust="spacing" textLength="61.9089" x="34.8237" y="408.568">Label1</text><text fill="#000000" font-family="sans-serif" font-size="18.0567" lengthAdjust="spacing" textLength="6.4488" x="199.914" y="408.568">:</text><text fill="#000000" font-family="sans-serif" font-size="18.0567" font-style="italic" lengthAdjust="spacing" textLength="76.0963" x="211.5219" y="408.568">TLabel *</text><ellipse cx="23.2158" cy="421.8548" fill="none" rx="3.8693" ry="3.8693" style="stroke:#038048;stroke-width:1.2897678417884781;"/><text fill="#000000" font-family="sans-serif" font-size="18.0567" lengthAdjust="spacing" textLength="60.6191" x="34.8237" y="429.5872">Label2</text><text fill="#000000" font-family="sans-serif" font-size="18.0567" lengthAdjust="spacing" textLength="6.4488" x="199.914" y="429.5872">:</text><text fill="#000000" font-family="sans-serif" font-size="18.0567" font-style="italic" lengthAdjust="spacing" textLength="76.0963" x="211.5219" y="429.5872">TLabel *</text><ellipse cx="23.2158" cy="442.874" fill="none" rx="3.8693" ry="3.8693" style="stroke:#038048;stroke-width:1.2897678417884781;"/><text fill="#000000" font-family="sans-serif" font-size="18.0567" lengthAdjust="spacing" textLength="61.9089" x="34.8237" y="450.6063">Label3</text><text fill="#000000" font-family="sans-serif" font-size="18.0567" lengthAdjust="spacing" textLength="6.4488" x="199.914" y="450.6063">:</text><text fill="#000000" font-family="sans-serif" font-size="18.0567" font-style="italic" lengthAdjust="spacing" textLength="76.0963" x="211.5219" y="450.6063">TLabel *</text><ellipse cx="23.2158" cy="463.8932" fill="none" rx="3.8693" ry="3.8693" style="stroke:#038048;stroke-width:1.2897678417884781;"/><text fill="#000000" font-family="sans-serif" font-size="18.0567" lengthAdjust="spacing" textLength="60.6191" x="34.8237" y="471.6255">Label4</text><text fill="#000000" font-family="sans-serif" font-size="18.0567" lengthAdjust="spacing" textLength="6.4488" x="199.914" y="471.6255">:</text><text fill="#000000" font-family="sans-serif" font-size="18.0567" font-style="italic" lengthAdjust="spacing" textLength="76.0963" x="211.5219" y="471.6255">TLabel *</text><ellipse cx="23.2158" cy="484.9124" fill="none" rx="3.8693" ry="3.8693" style="stroke:#038048;stroke-width:1.2897678417884781;"/><text fill="#000000" font-family="sans-serif" font-size="18.0567" lengthAdjust="spacing" textLength="61.9089" x="34.8237" y="492.6447">Label5</text><text fill="#000000" font-family="sans-serif" font-size="18.0567" lengthAdjust="spacing" textLength="6.4488" x="199.914" y="492.6447">:</text><text fill="#000000" font-family="sans-serif" font-size="18.0567" font-style="italic" lengthAdjust="spacing" textLength="76.0963" x="211.5219" y="492.6447">TLabel *</text><ellipse cx="23.2158" cy="505.9316" fill="none" rx="3.8693" ry="3.8693" style="stroke:#038048;stroke-width:1.2897678417884781;"/><text fill="#000000" font-family="sans-serif" font-size="18.0567" lengthAdjust="spacing" textLength="61.9089" x="34.8237" y="513.6639">Panel1</text><text fill="#000000" font-family="sans-serif" font-size="18.0567" lengthAdjust="spacing" textLength="6.4488" x="199.914" y="513.6639">:</text><text fill="#000000" font-family="sans-serif" font-size="18.0567" font-style="italic" lengthAdjust="spacing" textLength="76.0963" x="211.5219" y="513.6639">TLabel *</text><ellipse cx="23.2158" cy="526.9508" fill="none" rx="3.8693" ry="3.8693" style="stroke:#038048;stroke-width:1.2897678417884781;"/><text fill="#000000" font-family="sans-serif" font-size="18.0567" lengthAdjust="spacing" textLength="119.9484" x="34.8237" y="534.6831">RadioGroup1</text><text fill="#000000" font-family="sans-serif" font-size="18.0567" lengthAdjust="spacing" textLength="6.4488" x="199.914" y="534.6831">:</text><text fill="#000000" font-family="sans-serif" font-size="18.0567" font-style="italic" lengthAdjust="spacing" textLength="135.4256" x="211.5219" y="534.6831">TRadioGroup *</text><line style="stroke:#181818;stroke-width:1.2897678417884781;" x1="10.3181" x2="521.0662" y1="544.1007" y2="544.1007"/><text fill="#000000" font-family="sans-serif" font-size="18.0567" lengthAdjust="spacing" textLength="5.1591" x="34.8237" y="566.0204"> </text><ellipse cx="23.2158" cy="579.3073" fill="#84BE84" rx="3.8693" ry="3.8693" style="stroke:#038048;stroke-width:1.2897678417884781;"/><text fill="#000000" font-family="sans-serif" font-size="18.0567" font-weight="bold" lengthAdjust="spacing" textLength="263.1126" x="34.8237" y="587.0396">TDop_ResultForm (Owner</text><text fill="#000000" font-family="sans-serif" font-size="18.0567" font-weight="bold" lengthAdjust="spacing" textLength="7.7386" x="344.368" y="587.0396">:</text><text fill="#000000" font-family="sans-serif" font-size="18.0567" font-style="italic" font-weight="bold" lengthAdjust="spacing" textLength="147.0335" x="358.5555" y="587.0396">TComponent *</text><text fill="#000000" font-family="sans-serif" font-size="18.0567" font-weight="bold" lengthAdjust="spacing" textLength="9.0284" x="505.589" y="587.0396">)</text><text fill="#000000" font-family="sans-serif" font-size="18.0567" lengthAdjust="spacing" textLength="5.1591" x="34.8237" y="608.0588"> </text><ellipse cx="23.2158" cy="621.3457" fill="#84BE84" rx="3.8693" ry="3.8693" style="stroke:#038048;stroke-width:1.2897678417884781;"/><text fill="#000000" font-family="sans-serif" font-size="18.0567" lengthAdjust="spacing" textLength="117.3689" x="34.8237" y="629.078">BitBtn1Click</text><text fill="#000000" font-family="sans-serif" font-size="18.0567" lengthAdjust="spacing" textLength="72.227" x="199.914" y="629.078">(Sender</text><text fill="#000000" font-family="sans-serif" font-size="18.0567" lengthAdjust="spacing" textLength="6.4488" x="282.4592" y="629.078">:</text><text fill="#000000" font-family="sans-serif" font-size="18.0567" font-style="italic" lengthAdjust="spacing" textLength="85.1247" x="294.0671" y="629.078">TObject *</text><text fill="#000000" font-family="sans-serif" font-size="18.0567" lengthAdjust="spacing" textLength="18.0567" x="379.1917" y="629.078">) :</text><text fill="#000000" font-family="sans-serif" font-size="18.0567" font-style="italic" lengthAdjust="spacing" textLength="38.693" x="402.4076" y="629.078">void</text><line style="stroke:#181818;stroke-width:1.2897678417884781;stroke-dasharray:1.0,2.0;" x1="10.3181" x2="521.0662" y1="638.4955" y2="638.4955"/><ellipse cx="23.2158" cy="652.683" fill="#84BE84" rx="3.8693" ry="3.8693" style="stroke:#038048;stroke-width:1.2897678417884781;"/><text fill="#000000" font-family="sans-serif" font-size="18.0567" lengthAdjust="spacing" textLength="98.0224" x="34.8237" y="660.4153">FormClose</text><text fill="#000000" font-family="sans-serif" font-size="18.0567" lengthAdjust="spacing" textLength="6.4488" x="199.914" y="660.4153">(</text><text fill="#000000" font-family="sans-serif" font-size="18.0567" lengthAdjust="spacing" textLength="65.7782" x="117.3689" y="681.4345">Sender</text><text fill="#000000" font-family="sans-serif" font-size="18.0567" lengthAdjust="spacing" textLength="6.4488" x="199.914" y="681.4345">:</text><text fill="#000000" font-family="sans-serif" font-size="18.0567" font-style="italic" lengthAdjust="spacing" textLength="85.1247" x="211.5219" y="681.4345">TObject *</text><text fill="#000000" font-family="sans-serif" font-size="18.0567" lengthAdjust="spacing" textLength="5.1591" x="296.6466" y="681.4345">,</text><text fill="#000000" font-family="sans-serif" font-size="18.0567" lengthAdjust="spacing" textLength="60.6191" x="117.3689" y="702.4537">Action</text><text fill="#000000" font-family="sans-serif" font-size="18.0567" lengthAdjust="spacing" textLength="6.4488" x="199.914" y="702.4537">:</text><text fill="#000000" font-family="sans-serif" font-size="18.0567" font-style="italic" lengthAdjust="spacing" textLength="139.2949" x="211.5219" y="702.4537">TCloseAction &amp;</text><text fill="#000000" font-family="sans-serif" font-size="18.0567" lengthAdjust="spacing" textLength="18.0567" x="76.0963" y="723.4729">) :</text><text fill="#000000" font-family="sans-serif" font-size="18.0567" font-style="italic" lengthAdjust="spacing" textLength="38.693" x="99.3121" y="723.4729">void</text><line style="stroke:#181818;stroke-width:1.2897678417884781;stroke-dasharray:1.0,2.0;" x1="10.3181" x2="521.0662" y1="732.8904" y2="732.8904"/><ellipse cx="23.2158" cy="747.0779" fill="#84BE84" rx="3.8693" ry="3.8693" style="stroke:#038048;stroke-width:1.2897678417884781;"/><text fill="#000000" font-family="sans-serif" font-size="18.0567" lengthAdjust="spacing" textLength="110.92" x="34.8237" y="754.8102">FormCreate</text><text fill="#000000" font-family="sans-serif" font-size="18.0567" lengthAdjust="spacing" textLength="72.227" x="199.914" y="754.8102">(Sender</text><text fill="#000000" font-family="sans-serif" font-size="18.0567" lengthAdjust="spacing" textLength="6.4488" x="282.4592" y="754.8102">:</text><text fill="#000000" font-family="sans-serif" font-size="18.0567" font-style="italic" lengthAdjust="spacing" textLength="85.1247" x="294.0671" y="754.8102">TObject *</text><text fill="#000000" font-family="sans-serif" font-size="18.0567" lengthAdjust="spacing" textLength="18.0567" x="379.1917" y="754.8102">) :</text><text fill="#000000" font-family="sans-serif" font-size="18.0567" font-style="italic" lengthAdjust="spacing" textLength="38.693" x="402.4076" y="754.8102">void</text></g><!--MD5=[dd0bf217da5c5e97452bc452f42aff32]
class <b>TForm</b>--><g id="elem_&lt;b&gt;TForm&lt;/b&gt;"><rect fill="#F1F1F1" height="41.2726" id="&lt;b&gt;TForm&lt;/b&gt;" rx="3.2244" ry="3.2244" style="stroke:#181818;stroke-width:0.6448839208942391;" width="108.3405" x="211.5219" y="111.3029"/><ellipse cx="230.8684" cy="131.9392" fill="#ADD1B2" rx="14.1874" ry="14.1874" style="stroke:#181818;stroke-width:1.2897678417884781;"/><path d="M233.8913,126.3569 C232.6822,125.7927 231.9164,125.6113 230.7878,125.6113 C227.4022,125.6113 224.8227,128.2916 224.8227,131.7982 L224.8227,133.2491 C224.8227,136.5743 227.5433,139.0128 231.2715,139.0128 C232.8434,139.0128 234.3347,138.6299 235.302,137.9245 C236.0477,137.4006 236.4709,136.8162 236.4709,136.3123 C236.4709,135.7279 235.9671,135.2241 235.3625,135.2241 C235.0803,135.2241 234.8184,135.3249 234.5765,135.5667 C233.9921,136.1914 233.9921,136.1914 233.7503,136.3123 C233.2061,136.6549 232.3194,136.8162 231.332,136.8162 C228.692,136.8162 227.0193,135.4055 227.0193,133.2088 L227.0193,131.7982 C227.0193,129.5008 228.6315,127.8079 230.8684,127.8079 C231.6141,127.8079 232.4,128.0095 233.0046,128.3319 C233.6294,128.6946 233.851,128.9768 233.9719,129.5008 C234.0526,130.0247 234.0929,130.1859 234.2742,130.3472 C234.4556,130.5285 234.7579,130.6696 235.04,130.6696 C235.3826,130.6696 235.7252,130.4882 235.9469,130.2061 C236.088,130.0046 236.1283,129.7627 236.1283,129.2186 L236.1283,127.3847 C236.1283,126.8205 236.1081,126.6592 235.9872,126.4577 C235.7857,126.1151 235.4229,125.9337 235.04,125.9337 C234.6571,125.9337 234.3952,126.0547 234.113,126.4577 L233.8913,126.3569 Z " fill="#000000"/><text fill="#000000" font-family="sans-serif" font-size="18.0567" font-weight="bold" lengthAdjust="spacing" textLength="67.0679" x="248.9252" y="138.1903">TForm</text></g><path d="M568.1427,479.5317 L568.1427,490.5803 L441.1006,748.5591 L568.1427,500.8985 L568.1427,511.9471 A0,0 0 0 0 568.1427,511.9471 L742.2614,511.9471 A0,0 0 0 0 742.2614,511.9471 L742.2614,492.4293 L729.3637,479.5317 L568.1427,479.5317 A0,0 0 0 0 568.1427,479.5317 " fill="#FEFFDD" style="stroke:#181818;stroke-width:0.6448839208942391;"/><path d="M729.3637,479.5317 L729.3637,492.4293 L742.2614,492.4293 L729.3637,479.5317 " fill="#FEFFDD" style="stroke:#181818;stroke-width:0.6448839208942391;"/><text fill="#000000" font-family="sans-serif" font-size="16.767" lengthAdjust="spacing" textLength="147.0335" x="575.8813" y="501.544">создание формы</text><!--MD5=[586058d4e30414daa3284ff7afbaeb59]
reverse link <b>TForm</b> to <b>TDop_ResultForm</b>--><g id="link_&lt;b&gt;TForm&lt;/b&gt;_&lt;b&gt;TDop_ResultForm&lt;/b&gt;"><path codeLine="5" d="M265.6922,179.3459 C265.6922,196.4354 265.6922,217.2445 265.6922,239.974 " fill="none" id="&lt;b&gt;TForm&lt;/b&gt;-backto-&lt;b&gt;TDop_ResultForm&lt;/b&gt;" style="stroke:#181818;stroke-width:1.2897678417884781;"/><polygon fill="none" points="256.6638,178.7875,265.6922,152.9921,274.7206,178.7875,256.6638,178.7875" style="stroke:#181818;stroke-width:1.2897678417884781;"/></g><!--MD5=[855216a96ff3d49daaaba4ef5b5db7e5]
@startuml
title Исходный файл: "Dop_ResultUnit.cpp"

scale 750 width

"<b>TDop_ResultForm</b>" -up-|> "<b>TForm</b>"

hide "<b>TForm</b>" members

class "<b>TDop_ResultForm</b>"
{
    + BitBtn1 \t\t\t: <i>TBitBtn *</i>
    + Button1 \t\t\t: <i>TButton *</i>
    + LookFIO \t\t\t: <i>TDBLookupComboBox *</i>
    + LookPred \t\t: <i>TDBLookupComboBox *</i>
    + Edit1 \t\t\t: <i>TEdit *</i>
    + Label1 \t\t\t: <i>TLabel *</i>
    + Label2 \t\t\t: <i>TLabel *</i>
    + Label3 \t\t\t: <i>TLabel *</i>
    + Label4 \t\t\t: <i>TLabel *</i>
    + Label5 \t\t\t: <i>TLabel *</i>
    + Panel1 \t\t\t: <i>TLabel *</i>
    + RadioGroup1 \t: <i>TRadioGroup *</i>
    - -
    
    + <b>TDop_ResultForm (Owner \t: <i>TComponent *</i>)</b>

    + BitBtn1Click \t\t(Sender \t: <i>TObject *</i>) : <i>void</i>
    ..
    + FormClose \t\t(
            \t\tSender \t: <i>TObject *</i>,
            \t\tAction \t: <i>TCloseAction &</i>
        \t) : <i>void</i>
    ..
    + FormCreate \t\t(Sender \t: <i>TObject *</i>) : <i>void</i>
}

note right of "<b>TDop_ResultForm</b>"::FormCreate
создание формы
end note

package TDop_ResultForm <<Folder>>
{
    class TDop_ResultForm
    hide  members
}
@enduml

PlantUML version 1.2022.5(Sat Apr 30 10:55:52 UTC 2022)
(GPL source distribution)
Java Runtime: Java(TM) SE Runtime Environment
JVM: Java HotSpot(TM) 64-Bit Server VM
Default Encoding: UTF-8
Language: en
Country: US
--></g></svg>