<?xml version="1.0" encoding="UTF-8" standalone="no"?><svg xmlns="http://www.w3.org/2000/svg" xmlns:xlink="http://www.w3.org/1999/xlink" contentStyleType="text/css" height="590.9563px" preserveAspectRatio="none" style="width:751px;height:590px;background:#FFFFFF;" version="1.1" viewBox="0 0 751 590" width="751.5593px" zoomAndPan="magnify"><defs/><g><rect height="41.0034" style="stroke:#00000000;stroke-width:1.5592515592515592;fill:none;" width="536.3825" x="96.6736" y="7.7963"/><text fill="#000000" font-family="sans-serif" font-size="21.8295" font-weight="bold" lengthAdjust="spacing" textLength="520.79" x="104.4699" y="35.8552">Исходный файл: "Exam_List_obUnit.cpp"</text><!--MD5=[48f7467e516da3f2e307cd8211d6fc2e]
cluster TExam_List_obForm--><g id="cluster_TExam_List_obForm"><path d="M420.2183,67.5107 L671.2578,67.5107 A5.8472,5.8472 0 0 1 675.1559,71.4088 L686.0707,102.2772 L736.7464,102.2772 A3.8981,3.8981 0 0 1 740.6445,106.1753 L740.6445,217.9785 A3.8981,3.8981 0 0 1 736.7464,221.8766 L420.2183,221.8766 A3.8981,3.8981 0 0 1 416.3202,217.9785 L416.3202,71.4088 A3.8981,3.8981 0 0 1 420.2183,67.5107 " style="stroke:#000000;stroke-width:2.3388773388773387;fill:none;"/><line style="stroke:#000000;stroke-width:2.3388773388773387;fill:none;" x1="416.3202" x2="686.0707" y1="102.2772" y2="102.2772"/><text fill="#000000" font-family="sans-serif" font-size="21.8295" font-weight="bold" lengthAdjust="spacing" textLength="249.4802" x="422.5572" y="90.8919">TExam_List_obForm</text></g><!--MD5=[65f069e4b36e6bec6624854bee8e1459]
class TExam_List_obForm--><g id="elem_TExam_List_obForm"><rect codeLine="26" fill="#F1F1F1" height="74.8441" id="TExam_List_obForm" rx="3.8981" ry="3.8981" style="stroke:#181818;stroke-width:0.7796257796257796;" width="274.4283" x="441.2682" y="122.0845"/><ellipse cx="464.657" cy="147.0325" fill="#ADD1B2" rx="17.1518" ry="17.1518" style="stroke:#181818;stroke-width:1.5592515592515592;"/><path d="M468.3115,140.2839 C466.8497,139.6017 465.9239,139.3825 464.5595,139.3825 C460.4665,139.3825 457.348,142.6228 457.348,146.862 L457.348,148.6162 C457.348,152.6361 460.637,155.5841 465.1442,155.5841 C467.0446,155.5841 468.8475,155.1212 470.0169,154.2685 C470.9183,153.635 471.43,152.9285 471.43,152.3194 C471.43,151.6129 470.8209,151.0038 470.09,151.0038 C469.7489,151.0038 469.4322,151.1256 469.1398,151.4179 C468.4333,152.1732 468.4333,152.1732 468.1409,152.3194 C467.4831,152.7336 466.4111,152.9285 465.2173,152.9285 C462.0257,152.9285 460.0036,151.223 460.0036,148.5674 L460.0036,146.862 C460.0036,144.0846 461.9526,142.0381 464.657,142.0381 C465.5584,142.0381 466.5086,142.2817 467.2395,142.6715 C467.9947,143.1101 468.2627,143.4511 468.4089,144.0846 C468.5064,144.718 468.5551,144.9129 468.7744,145.1078 C468.9936,145.3271 469.3591,145.4977 469.7002,145.4977 C470.1143,145.4977 470.5285,145.2784 470.7965,144.9373 C470.9671,144.6937 471.0158,144.4013 471.0158,143.7435 L471.0158,141.5264 C471.0158,140.8443 470.9914,140.6494 470.8452,140.4057 C470.6016,139.9916 470.1631,139.7723 469.7002,139.7723 C469.2373,139.7723 468.9205,139.9185 468.5795,140.4057 L468.3115,140.2839 Z " fill="#000000"/><text fill="#000000" font-family="sans-serif" font-size="21.8295" lengthAdjust="spacing" textLength="224.5322" x="486.4865" y="154.5897">TExam_List_obForm</text><line style="stroke:#181818;stroke-width:0.7796257796257796;" x1="442.8274" x2="714.1372" y1="171.9806" y2="171.9806"/><line style="stroke:#181818;stroke-width:0.7796257796257796;" x1="442.8274" x2="714.1372" y1="184.4546" y2="184.4546"/></g><!--MD5=[9d7205de38c7879e09b94c7400ffba21]
class <b>TExam_List_obForm</b>--><g id="elem_&lt;b&gt;TExam_List_obForm&lt;/b&gt;"><rect codeLine="9" fill="#F1F1F1" height="290.6055" id="&lt;b&gt;TExam_List_obForm&lt;/b&gt;" rx="3.8981" ry="3.8981" style="stroke:#181818;stroke-width:0.7796257796257796;" width="620.5821" x="10.9148" y="290.4837"/><ellipse cx="189.8389" cy="315.4317" fill="#ADD1B2" rx="17.1518" ry="17.1518" style="stroke:#181818;stroke-width:1.5592515592515592;"/><path d="M193.4934,308.6831 C192.0316,308.0009 191.1058,307.7816 189.7414,307.7816 C185.6484,307.7816 182.5299,311.022 182.5299,315.2612 L182.5299,317.0153 C182.5299,321.0353 185.8189,323.9832 190.3261,323.9832 C192.2265,323.9832 194.0294,323.5203 195.1988,322.6676 C196.1002,322.0342 196.6119,321.3276 196.6119,320.7186 C196.6119,320.012 196.0028,319.4029 195.2719,319.4029 C194.9308,319.4029 194.6141,319.5248 194.3217,319.8171 C193.6152,320.5724 193.6152,320.5724 193.3228,320.7186 C192.665,321.1327 191.593,321.3276 190.3992,321.3276 C187.2076,321.3276 185.1855,319.6222 185.1855,316.9666 L185.1855,315.2612 C185.1855,312.4838 187.1346,310.4372 189.8389,310.4372 C190.7403,310.4372 191.6905,310.6809 192.4214,311.0707 C193.1767,311.5092 193.4446,311.8503 193.5908,312.4838 C193.6883,313.1172 193.737,313.3121 193.9563,313.507 C194.1755,313.7263 194.541,313.8968 194.8821,313.8968 C195.2963,313.8968 195.7104,313.6776 195.9784,313.3365 C196.149,313.0928 196.1977,312.8005 196.1977,312.1427 L196.1977,309.9256 C196.1977,309.2434 196.1733,309.0485 196.0272,308.8049 C195.7835,308.3907 195.345,308.1715 194.8821,308.1715 C194.4192,308.1715 194.1025,308.3176 193.7614,308.8049 L193.4934,308.6831 Z " fill="#000000"/><text fill="#000000" font-family="sans-serif" font-size="21.8295" font-weight="bold" lengthAdjust="spacing" textLength="249.4802" x="221.8035" y="322.9889">TExam_List_obForm</text><line style="stroke:#181818;stroke-width:0.7796257796257796;" x1="12.474" x2="629.9376" y1="340.3797" y2="340.3797"/><ellipse cx="28.0665" cy="357.5315" fill="none" rx="4.6778" ry="4.6778" style="stroke:#038048;stroke-width:1.5592515592515592;"/><text fill="#000000" font-family="sans-serif" font-size="21.8295" lengthAdjust="spacing" textLength="169.9584" x="42.0998" y="366.8794">frxRepExamOb</text><text fill="#000000" font-family="sans-serif" font-size="21.8295" lengthAdjust="spacing" textLength="7.7963" x="241.684" y="366.8794">:</text><text fill="#000000" font-family="sans-serif" font-size="21.8295" font-style="italic" lengthAdjust="spacing" textLength="135.6549" x="255.7173" y="366.8794">TfrxReport *</text><line style="stroke:#181818;stroke-width:1.5592515592515592;" x1="12.474" x2="629.9376" y1="378.2647" y2="378.2647"/><text fill="#000000" font-family="sans-serif" font-size="21.8295" lengthAdjust="spacing" textLength="6.237" x="42.0998" y="404.7643"> </text><ellipse cx="28.0665" cy="420.8274" fill="#84BE84" rx="4.6778" ry="4.6778" style="stroke:#038048;stroke-width:1.5592515592515592;"/><text fill="#000000" font-family="sans-serif" font-size="21.8295" font-weight="bold" lengthAdjust="spacing" textLength="346.1538" x="42.0998" y="430.1753">TExam_List_obForm (Owner</text><text fill="#000000" font-family="sans-serif" font-size="21.8295" font-weight="bold" lengthAdjust="spacing" textLength="9.3555" x="416.3202" y="430.1753">:</text><text fill="#000000" font-family="sans-serif" font-size="21.8295" font-style="italic" font-weight="bold" lengthAdjust="spacing" textLength="177.7547" x="433.4719" y="430.1753">TComponent *</text><text fill="#000000" font-family="sans-serif" font-size="21.8295" font-weight="bold" lengthAdjust="spacing" textLength="10.9148" x="611.2266" y="430.1753">)</text><text fill="#000000" font-family="sans-serif" font-size="21.8295" lengthAdjust="spacing" textLength="6.237" x="42.0998" y="455.5862"> </text><line style="stroke:#181818;stroke-width:1.5592515592515592;stroke-dasharray:1.0,2.0;" x1="12.474" x2="629.9376" y1="466.9715" y2="466.9715"/><ellipse cx="28.0665" cy="484.1232" fill="#84BE84" rx="4.6778" ry="4.6778" style="stroke:#038048;stroke-width:1.5592515592515592;"/><text fill="#000000" font-family="sans-serif" font-size="21.8295" lengthAdjust="spacing" textLength="118.5031" x="42.0998" y="493.4711">FormClose</text><text fill="#000000" font-family="sans-serif" font-size="21.8295" lengthAdjust="spacing" textLength="7.7963" x="191.7879" y="493.4711">(</text><text fill="#000000" font-family="sans-serif" font-size="21.8295" lengthAdjust="spacing" textLength="79.5218" x="141.8919" y="518.8821">Sender</text><text fill="#000000" font-family="sans-serif" font-size="21.8295" lengthAdjust="spacing" textLength="7.7963" x="241.684" y="518.8821">:</text><text fill="#000000" font-family="sans-serif" font-size="21.8295" font-style="italic" lengthAdjust="spacing" textLength="102.9106" x="255.7173" y="518.8821">TObject *</text><text fill="#000000" font-family="sans-serif" font-size="21.8295" lengthAdjust="spacing" textLength="6.237" x="358.6279" y="518.8821">,</text><text fill="#000000" font-family="sans-serif" font-size="21.8295" lengthAdjust="spacing" textLength="73.2848" x="141.8919" y="544.293">Action</text><text fill="#000000" font-family="sans-serif" font-size="21.8295" lengthAdjust="spacing" textLength="7.7963" x="241.684" y="544.293">:</text><text fill="#000000" font-family="sans-serif" font-size="21.8295" font-style="italic" lengthAdjust="spacing" textLength="168.3992" x="255.7173" y="544.293">TCloseAction &amp;</text><text fill="#000000" font-family="sans-serif" font-size="21.8295" lengthAdjust="spacing" textLength="21.8295" x="91.9958" y="569.7039">) :</text><text fill="#000000" font-family="sans-serif" font-size="21.8295" font-style="italic" lengthAdjust="spacing" textLength="46.7775" x="120.0624" y="569.7039">void</text></g><!--MD5=[dd0bf217da5c5e97452bc452f42aff32]
class <b>TForm</b>--><g id="elem_&lt;b&gt;TForm&lt;/b&gt;"><rect fill="#F1F1F1" height="49.896" id="&lt;b&gt;TForm&lt;/b&gt;" rx="3.8981" ry="3.8981" style="stroke:#181818;stroke-width:0.7796257796257796;" width="130.9771" x="255.7173" y="134.5585"/><ellipse cx="279.106" cy="159.5066" fill="#ADD1B2" rx="17.1518" ry="17.1518" style="stroke:#181818;stroke-width:1.5592515592515592;"/><path d="M282.7605,152.7579 C281.2987,152.0758 280.3729,151.8565 279.0086,151.8565 C274.9155,151.8565 271.797,155.0968 271.797,159.336 L271.797,161.0902 C271.797,165.1101 275.0861,168.0581 279.5933,168.0581 C281.4936,168.0581 283.2965,167.5952 284.466,166.7425 C285.3674,166.109 285.879,165.4025 285.879,164.7934 C285.879,164.0869 285.2699,163.4778 284.539,163.4778 C284.198,163.4778 283.8812,163.5996 283.5889,163.892 C282.8823,164.6472 282.8823,164.6472 282.59,164.7934 C281.9322,165.2076 280.8602,165.4025 279.6664,165.4025 C276.4748,165.4025 274.4526,163.6971 274.4526,161.0415 L274.4526,159.336 C274.4526,156.5586 276.4017,154.5121 279.106,154.5121 C280.0075,154.5121 280.9576,154.7557 281.6885,155.1455 C282.4438,155.5841 282.7118,155.9252 282.858,156.5586 C282.9554,157.192 283.0042,157.387 283.2234,157.5819 C283.4427,157.8011 283.8081,157.9717 284.1492,157.9717 C284.5634,157.9717 284.9776,157.7524 285.2456,157.4113 C285.4161,157.1677 285.4649,156.8753 285.4649,156.2175 L285.4649,154.0005 C285.4649,153.3183 285.4405,153.1234 285.2943,152.8797 C285.0507,152.4656 284.6121,152.2463 284.1492,152.2463 C283.6863,152.2463 283.3696,152.3925 283.0285,152.8797 L282.7605,152.7579 Z " fill="#000000"/><text fill="#000000" font-family="sans-serif" font-size="21.8295" font-weight="bold" lengthAdjust="spacing" textLength="81.0811" x="300.9356" y="167.0638">TForm</text></g><!--MD5=[67b9e1079a01ee4edaae87900d8c20b6]
reverse link <b>TForm</b> to <b>TExam_List_obForm</b>--><g id="link_&lt;b&gt;TForm&lt;/b&gt;_&lt;b&gt;TExam_List_obForm&lt;/b&gt;"><path codeLine="5" d="M321.2058,216.0809 C321.2058,237.7748 321.2058,263.8002 321.2058,290.1906 " fill="none" id="&lt;b&gt;TForm&lt;/b&gt;-backto-&lt;b&gt;TExam_List_obForm&lt;/b&gt;" style="stroke:#181818;stroke-width:1.5592515592515592;"/><polygon fill="none" points="310.2911,215.9889,321.2058,184.8039,332.1206,215.9889,310.2911,215.9889" style="stroke:#181818;stroke-width:1.5592515592515592;"/></g><!--MD5=[adc98e1711b71346e79a02b95dc61d02]
@startuml
title Исходный файл: "Exam_List_obUnit.cpp"

scale 750 width

"<b>TExam_List_obForm</b>" -up-|> "<b>TForm</b>"

hide "<b>TForm</b>" members

class "<b>TExam_List_obForm</b>"
{
    + frxRepExamOb \t: <i>TfrxReport *</i>
    - -
    
    + <b>TExam_List_obForm (Owner \t: <i>TComponent *</i>)</b>

    ..
    + FormClose \t(
            \t\tSender \t: <i>TObject *</i>,
            \t\tAction \t: <i>TCloseAction &</i>
        \t) : <i>void</i>
}


package TExam_List_obForm <<Folder>>
{
    class TExam_List_obForm
    hide  members
}
@enduml

PlantUML version 1.2022.5(Sat Apr 30 10:55:52 UTC 2022)
(GPL source distribution)
Java Runtime: Java(TM) SE Runtime Environment
JVM: Java HotSpot(TM) 64-Bit Server VM
Default Encoding: UTF-8
Language: en
Country: US
--></g></svg>