<?xml version="1.0" encoding="UTF-8" standalone="no"?><svg xmlns="http://www.w3.org/2000/svg" xmlns:xlink="http://www.w3.org/1999/xlink" contentStyleType="text/css" height="683.1683px" preserveAspectRatio="none" style="width:751px;height:683px;background:#FFFFFF;" version="1.1" viewBox="0 0 751 683" width="751.4851px" zoomAndPan="magnify"><defs/><g><rect height="39.0548" style="stroke:#00000000;stroke-width:1.4851485148514854;fill:none;" width="518.3168" x="106.1881" y="7.4257"/><text fill="#000000" font-family="sans-serif" font-size="20.7921" font-weight="bold" lengthAdjust="spacing" textLength="503.4653" x="113.6139" y="34.1512">Исходный файл: "Undo_SpravkaUnit.cpp"</text><!--MD5=[f78c0a7282365887be64d2ebd101fc9d]
cluster TUndo_SpravkaForm--><g id="cluster_TUndo_SpravkaForm"><path d="M429.9505,64.3023 L676.4851,64.3023 A5.5693,5.5693 0 0 1 680.198,68.0152 L690.5941,97.4165 L737.3762,97.4165 A3.7129,3.7129 0 0 1 741.0891,101.1293 L741.0891,207.6191 A3.7129,3.7129 0 0 1 737.3762,211.332 L429.9505,211.332 A3.7129,3.7129 0 0 1 426.2376,207.6191 L426.2376,68.0152 A3.7129,3.7129 0 0 1 429.9505,64.3023 " style="stroke:#000000;stroke-width:2.227722772277228;fill:none;"/><line style="stroke:#000000;stroke-width:2.227722772277228;fill:none;" x1="426.2376" x2="690.5941" y1="97.4165" y2="97.4165"/><text fill="#000000" font-family="sans-serif" font-size="20.7921" font-weight="bold" lengthAdjust="spacing" textLength="245.0495" x="432.1782" y="86.5723">TUndo_SpravkaForm</text></g><!--MD5=[cad9659bed260d8f907b66505572caf2]
class TUndo_SpravkaForm--><g id="elem_TUndo_SpravkaForm"><rect codeLine="32" fill="#F1F1F1" height="71.2871" id="TUndo_SpravkaForm" rx="3.7129" ry="3.7129" style="stroke:#181818;stroke-width:0.7425742574257427;" width="265.8416" x="450.7426" y="116.2825"/><ellipse cx="473.0198" cy="140.0449" fill="#ADD1B2" rx="16.3366" ry="16.3366" style="stroke:#181818;stroke-width:1.4851485148514854;"/><path d="M476.5006,133.617 C475.1083,132.9672 474.2265,132.7584 472.927,132.7584 C469.0285,132.7584 466.0582,135.8447 466.0582,139.8824 L466.0582,141.5532 C466.0582,145.3821 469.1909,148.19 473.4839,148.19 C475.2939,148.19 477.0111,147.7491 478.125,146.9369 C478.9836,146.3335 479.4709,145.6606 479.4709,145.0804 C479.4709,144.4075 478.8908,143.8274 478.1946,143.8274 C477.8697,143.8274 477.5681,143.9434 477.2896,144.2218 C476.6166,144.9412 476.6166,144.9412 476.3382,145.0804 C475.7116,145.4749 474.6906,145.6606 473.5535,145.6606 C470.5136,145.6606 468.5876,144.0362 468.5876,141.5068 L468.5876,139.8824 C468.5876,137.237 470.444,135.2877 473.0198,135.2877 C473.8784,135.2877 474.7834,135.5198 475.4796,135.8911 C476.1989,136.3088 476.4542,136.6337 476.5934,137.237 C476.6863,137.8403 476.7327,138.026 476.9415,138.2116 C477.1504,138.4205 477.4985,138.5829 477.8233,138.5829 C478.2178,138.5829 478.6123,138.3741 478.8676,138.0492 C479.03,137.8171 479.0764,137.5387 479.0764,136.9121 L479.0764,134.8004 C479.0764,134.1507 479.0532,133.965 478.914,133.733 C478.6819,133.3385 478.2642,133.1296 477.8233,133.1296 C477.3824,133.1296 477.0808,133.2689 476.7559,133.733 L476.5006,133.617 Z " fill="#000000"/><text fill="#000000" font-family="sans-serif" font-size="20.7921" lengthAdjust="spacing" textLength="218.3168" x="493.8119" y="147.2429">TUndo_SpravkaForm</text><line style="stroke:#181818;stroke-width:0.7425742574257427;" x1="452.2277" x2="715.099" y1="163.8072" y2="163.8072"/><line style="stroke:#181818;stroke-width:0.7425742574257427;" x1="452.2277" x2="715.099" y1="175.6884" y2="175.6884"/></g><!--MD5=[f089159ebbc10be08627430b36873b22]
class <b>TUndo_SpravkaForm</b>--><g id="elem_&lt;b&gt;TUndo_SpravkaForm&lt;/b&gt;"><rect codeLine="9" fill="#F1F1F1" height="397.37" id="&lt;b&gt;TUndo_SpravkaForm&lt;/b&gt;" rx="3.7129" ry="3.7129" style="stroke:#181818;stroke-width:0.7425742574257427;" width="650.495" x="10.396" y="276.6785"/><ellipse cx="206.8069" cy="300.4409" fill="#ADD1B2" rx="16.3366" ry="16.3366" style="stroke:#181818;stroke-width:1.4851485148514854;"/><path d="M210.2877,294.013 C208.8954,293.3632 208.0136,293.1544 206.7141,293.1544 C202.8156,293.1544 199.8453,296.2407 199.8453,300.2785 L199.8453,301.9493 C199.8453,305.7782 202.978,308.586 207.271,308.586 C209.0811,308.586 210.7983,308.1451 211.9121,307.3329 C212.7707,306.7296 213.258,306.0566 213.258,305.4765 C213.258,304.8035 212.6779,304.2234 211.9817,304.2234 C211.6569,304.2234 211.3552,304.3394 211.0767,304.6179 C210.4038,305.3373 210.4038,305.3373 210.1253,305.4765 C209.4988,305.871 208.4777,306.0566 207.3407,306.0566 C204.3007,306.0566 202.3747,304.4322 202.3747,301.9028 L202.3747,300.2785 C202.3747,297.633 204.2311,295.6838 206.8069,295.6838 C207.6655,295.6838 208.5705,295.9158 209.2667,296.2871 C209.9861,296.7048 210.2413,297.0297 210.3806,297.633 C210.4734,298.2364 210.5198,298.422 210.7287,298.6077 C210.9375,298.8165 211.2856,298.979 211.6105,298.979 C212.005,298.979 212.3994,298.7701 212.6547,298.4452 C212.8171,298.2132 212.8636,297.9347 212.8636,297.3082 L212.8636,295.1965 C212.8636,294.5467 212.8403,294.3611 212.7011,294.129 C212.4691,293.7345 212.0514,293.5257 211.6105,293.5257 C211.1696,293.5257 210.8679,293.6649 210.543,294.129 L210.2877,294.013 Z " fill="#000000"/><text fill="#000000" font-family="sans-serif" font-size="20.7921" font-weight="bold" lengthAdjust="spacing" textLength="245.0495" x="237.2525" y="307.6389">TUndo_SpravkaForm</text><line style="stroke:#181818;stroke-width:0.7425742574257427;" x1="11.8812" x2="659.4059" y1="324.2033" y2="324.2033"/><ellipse cx="26.7327" cy="340.5399" fill="none" rx="4.4554" ry="4.4554" style="stroke:#038048;stroke-width:1.4851485148514854;"/><text fill="#000000" font-family="sans-serif" font-size="20.7921" lengthAdjust="spacing" textLength="83.1683" x="40.099" y="349.4436">BitBtn1</text><text fill="#000000" font-family="sans-serif" font-size="20.7921" lengthAdjust="spacing" textLength="7.4257" x="135.1485" y="349.4436">:</text><text fill="#000000" font-family="sans-serif" font-size="20.7921" font-style="italic" lengthAdjust="spacing" textLength="93.5644" x="148.5149" y="349.4436">TBitBtn *</text><line style="stroke:#181818;stroke-width:1.4851485148514854;stroke-dasharray:1.0,2.0;" x1="11.8812" x2="659.4059" y1="360.2877" y2="360.2877"/><ellipse cx="26.7327" cy="376.6244" fill="none" rx="4.4554" ry="4.4554" style="stroke:#038048;stroke-width:1.4851485148514854;"/><text fill="#000000" font-family="sans-serif" font-size="20.7921" lengthAdjust="spacing" textLength="89.1089" x="40.099" y="385.528">DBGrid1</text><text fill="#000000" font-family="sans-serif" font-size="20.7921" lengthAdjust="spacing" textLength="7.4257" x="135.1485" y="385.528">:</text><text fill="#000000" font-family="sans-serif" font-size="20.7921" font-style="italic" lengthAdjust="spacing" textLength="105.4455" x="148.5149" y="385.528">TDBGrid *</text><line style="stroke:#181818;stroke-width:1.4851485148514854;stroke-dasharray:1.0,2.0;" x1="11.8812" x2="659.4059" y1="396.3722" y2="396.3722"/><ellipse cx="26.7327" cy="412.7088" fill="none" rx="4.4554" ry="4.4554" style="stroke:#038048;stroke-width:1.4851485148514854;"/><text fill="#000000" font-family="sans-serif" font-size="20.7921" lengthAdjust="spacing" textLength="71.2871" x="40.099" y="421.6125">Panel1</text><text fill="#000000" font-family="sans-serif" font-size="20.7921" lengthAdjust="spacing" textLength="7.4257" x="135.1485" y="421.6125">:</text><text fill="#000000" font-family="sans-serif" font-size="20.7921" font-style="italic" lengthAdjust="spacing" textLength="87.6238" x="148.5149" y="421.6125">TPanel *</text><ellipse cx="26.7327" cy="436.9121" fill="none" rx="4.4554" ry="4.4554" style="stroke:#038048;stroke-width:1.4851485148514854;"/><text fill="#000000" font-family="sans-serif" font-size="20.7921" lengthAdjust="spacing" textLength="69.802" x="40.099" y="445.8158">Panel2</text><text fill="#000000" font-family="sans-serif" font-size="20.7921" lengthAdjust="spacing" textLength="7.4257" x="135.1485" y="445.8158">:</text><text fill="#000000" font-family="sans-serif" font-size="20.7921" font-style="italic" lengthAdjust="spacing" textLength="87.6238" x="148.5149" y="445.8158">TPanel *</text><line style="stroke:#181818;stroke-width:1.4851485148514854;" x1="11.8812" x2="659.4059" y1="456.66" y2="456.66"/><text fill="#000000" font-family="sans-serif" font-size="20.7921" lengthAdjust="spacing" textLength="5.9406" x="40.099" y="481.9002"> </text><ellipse cx="26.7327" cy="497.1999" fill="#84BE84" rx="4.4554" ry="4.4554" style="stroke:#038048;stroke-width:1.4851485148514854;"/><text fill="#000000" font-family="sans-serif" font-size="20.7921" font-weight="bold" lengthAdjust="spacing" textLength="245.0495" x="40.099" y="506.1035">TUndo_SpravkaForm</text><text fill="#000000" font-family="sans-serif" font-size="20.7921" font-weight="bold" lengthAdjust="spacing" textLength="84.6535" x="337.1287" y="506.1035">(Owner</text><text fill="#000000" font-family="sans-serif" font-size="20.7921" font-weight="bold" lengthAdjust="spacing" textLength="8.9109" x="455.9406" y="506.1035">:</text><text fill="#000000" font-family="sans-serif" font-size="20.7921" font-style="italic" font-weight="bold" lengthAdjust="spacing" textLength="169.3069" x="472.2772" y="506.1035">TComponent *</text><text fill="#000000" font-family="sans-serif" font-size="20.7921" font-weight="bold" lengthAdjust="spacing" textLength="10.396" x="641.5842" y="506.1035">)</text><text fill="#000000" font-family="sans-serif" font-size="20.7921" lengthAdjust="spacing" textLength="5.9406" x="40.099" y="530.3068"> </text><ellipse cx="26.7327" cy="545.6064" fill="#84BE84" rx="4.4554" ry="4.4554" style="stroke:#038048;stroke-width:1.4851485148514854;"/><text fill="#000000" font-family="sans-serif" font-size="20.7921" lengthAdjust="spacing" textLength="135.1485" x="40.099" y="554.5101">BitBtn1Click</text><text fill="#000000" font-family="sans-serif" font-size="20.7921" lengthAdjust="spacing" textLength="83.1683" x="230.198" y="554.5101">(Sender</text><text fill="#000000" font-family="sans-serif" font-size="20.7921" lengthAdjust="spacing" textLength="7.4257" x="325.2475" y="554.5101">:</text><text fill="#000000" font-family="sans-serif" font-size="20.7921" font-style="italic" lengthAdjust="spacing" textLength="98.0198" x="338.6139" y="554.5101">TObject *</text><text fill="#000000" font-family="sans-serif" font-size="20.7921" lengthAdjust="spacing" textLength="20.7921" x="436.6337" y="554.5101">) :</text><text fill="#000000" font-family="sans-serif" font-size="20.7921" font-style="italic" lengthAdjust="spacing" textLength="44.5545" x="463.3663" y="554.5101">void</text><line style="stroke:#181818;stroke-width:1.4851485148514854;stroke-dasharray:1.0,2.0;" x1="11.8812" x2="659.4059" y1="565.3543" y2="565.3543"/><ellipse cx="26.7327" cy="581.6909" fill="#84BE84" rx="4.4554" ry="4.4554" style="stroke:#038048;stroke-width:1.4851485148514854;"/><text fill="#000000" font-family="sans-serif" font-size="20.7921" lengthAdjust="spacing" textLength="112.8713" x="40.099" y="590.5945">FormClose</text><text fill="#000000" font-family="sans-serif" font-size="20.7921" lengthAdjust="spacing" textLength="7.4257" x="230.198" y="590.5945">(</text><text fill="#000000" font-family="sans-serif" font-size="20.7921" lengthAdjust="spacing" textLength="75.7426" x="135.1485" y="614.7978">Sender</text><text fill="#000000" font-family="sans-serif" font-size="20.7921" lengthAdjust="spacing" textLength="7.4257" x="230.198" y="614.7978">:</text><text fill="#000000" font-family="sans-serif" font-size="20.7921" font-style="italic" lengthAdjust="spacing" textLength="98.0198" x="243.5644" y="614.7978">TObject *</text><text fill="#000000" font-family="sans-serif" font-size="20.7921" lengthAdjust="spacing" textLength="5.9406" x="341.5842" y="614.7978">,</text><text fill="#000000" font-family="sans-serif" font-size="20.7921" lengthAdjust="spacing" textLength="69.802" x="135.1485" y="639.0011">Action</text><text fill="#000000" font-family="sans-serif" font-size="20.7921" lengthAdjust="spacing" textLength="7.4257" x="230.198" y="639.0011">:</text><text fill="#000000" font-family="sans-serif" font-size="20.7921" font-style="italic" lengthAdjust="spacing" textLength="160.396" x="243.5644" y="639.0011">TCloseAction &amp;</text><text fill="#000000" font-family="sans-serif" font-size="20.7921" lengthAdjust="spacing" textLength="20.7921" x="87.6238" y="663.2044">) :</text><text fill="#000000" font-family="sans-serif" font-size="20.7921" font-style="italic" lengthAdjust="spacing" textLength="44.5545" x="114.3564" y="663.2044">void</text></g><!--MD5=[dd0bf217da5c5e97452bc452f42aff32]
class <b>TForm</b>--><g id="elem_&lt;b&gt;TForm&lt;/b&gt;"><rect fill="#F1F1F1" height="47.5248" id="&lt;b&gt;TForm&lt;/b&gt;" rx="3.7129" ry="3.7129" style="stroke:#181818;stroke-width:0.7425742574257427;" width="124.7525" x="273.2673" y="128.1637"/><ellipse cx="295.5446" cy="151.9261" fill="#ADD1B2" rx="16.3366" ry="16.3366" style="stroke:#181818;stroke-width:1.4851485148514854;"/><path d="M299.0254,145.4981 C297.633,144.8484 296.7512,144.6395 295.4517,144.6395 C291.5532,144.6395 288.5829,147.7259 288.5829,151.7636 L288.5829,153.4344 C288.5829,157.2633 291.7157,160.0712 296.0087,160.0712 C297.8187,160.0712 299.5359,159.6303 300.6498,158.8181 C301.5084,158.2147 301.9957,157.5418 301.9957,156.9616 C301.9957,156.2887 301.4155,155.7085 300.7194,155.7085 C300.3945,155.7085 300.0928,155.8246 299.8144,156.103 C299.1414,156.8224 299.1414,156.8224 298.8629,156.9616 C298.2364,157.3561 297.2153,157.5418 296.0783,157.5418 C293.0384,157.5418 291.1123,155.9174 291.1123,153.388 L291.1123,151.7636 C291.1123,149.1182 292.9688,147.1689 295.5446,147.1689 C296.4032,147.1689 297.3082,147.401 298.0043,147.7723 C298.7237,148.19 298.979,148.5149 299.1182,149.1182 C299.211,149.7215 299.2574,149.9072 299.4663,150.0928 C299.6751,150.3017 300.0232,150.4641 300.3481,150.4641 C300.7426,150.4641 301.1371,150.2553 301.3923,149.9304 C301.5548,149.6983 301.6012,149.4199 301.6012,148.7933 L301.6012,146.6816 C301.6012,146.0319 301.578,145.8462 301.4387,145.6142 C301.2067,145.2197 300.789,145.0108 300.3481,145.0108 C299.9072,145.0108 299.6055,145.1501 299.2806,145.6142 L299.0254,145.4981 Z " fill="#000000"/><text fill="#000000" font-family="sans-serif" font-size="20.7921" font-weight="bold" lengthAdjust="spacing" textLength="77.2277" x="316.3366" y="159.1241">TForm</text></g><!--MD5=[b9d10040e8043f661a8e5b7b1dc42bd9]
reverse link <b>TForm</b> to <b>TUndo_SpravkaForm</b>--><g id="link_&lt;b&gt;TForm&lt;/b&gt;_&lt;b&gt;TUndo_SpravkaForm&lt;/b&gt;"><path codeLine="5" d="M335.6436,205.8414 C335.6436,226.0409 335.6436,250.5043 335.6436,276.3429 " fill="none" id="&lt;b&gt;TForm&lt;/b&gt;-backto-&lt;b&gt;TUndo_SpravkaForm&lt;/b&gt;" style="stroke:#181818;stroke-width:1.4851485148514854;"/><polygon fill="none" points="325.2475,205.6721,335.6436,175.9691,346.0396,205.6721,325.2475,205.6721" style="stroke:#181818;stroke-width:1.4851485148514854;"/></g><!--MD5=[31705a911b79c83cdf0f7910ce85bc33]
@startuml
title Исходный файл: "Undo_SpravkaUnit.cpp"

scale 750 width

"<b>TUndo_SpravkaForm</b>" -up-|> "<b>TForm</b>"

hide "<b>TForm</b>" members

class "<b>TUndo_SpravkaForm</b>"
{
    + BitBtn1 \t: <i>TBitBtn *</i>
    ..
    + DBGrid1\t: <i>TDBGrid *</i>
    ..
    + Panel1 \t: <i>TPanel *</i>
    + Panel2 \t: <i>TPanel *</i>
    - -
    
    + <b>TUndo_SpravkaForm \t(Owner \t: <i>TComponent *</i>)</b>

    + BitBtn1Click \t\t(Sender \t: <i>TObject *</i>) : <i>void</i>
    ..
    + FormClose \t\t(
            \t\tSender \t: <i>TObject *</i>,
            \t\tAction \t: <i>TCloseAction &</i>
        \t) : <i>void</i>
}


package TUndo_SpravkaForm <<Folder>>
{
    class TUndo_SpravkaForm
    hide  members
}
@enduml

PlantUML version 1.2022.5(Sat Apr 30 10:55:52 UTC 2022)
(GPL source distribution)
Java Runtime: Java(TM) SE Runtime Environment
JVM: Java HotSpot(TM) 64-Bit Server VM
Default Encoding: UTF-8
Language: en
Country: US
--></g></svg>