<?xml version="1.0" encoding="UTF-8" standalone="no"?><svg xmlns="http://www.w3.org/2000/svg" xmlns:xlink="http://www.w3.org/1999/xlink" contentStyleType="text/css" height="1173.0402px" preserveAspectRatio="none" style="width:751px;height:1173px;background:#FFFFFF;" version="1.1" viewBox="0 0 751 1173" width="751.434px" zoomAndPan="magnify"><defs/><g><rect height="37.7106" style="stroke:#00000000;stroke-width:1.4340344168260037;fill:none;" width="534.8948" x="98.2314" y="7.1702"/><text fill="#000000" font-family="sans-serif" font-size="20.0765" font-weight="bold" lengthAdjust="spacing" textLength="520.5545" x="105.4015" y="32.9758">Исходный файл: "Sertificat_ResultUnit.cpp"</text><!--MD5=[d68aadde699394a90e9b9f2008d12b2f]
cluster TSertificat_ResultForm--><g id="cluster_TSertificat_ResultForm"><path d="M415.153,62.0892 L687.6195,62.0892 A5.3776,5.3776 0 0 1 691.2046,65.6743 L701.2428,94.0637 L737.8107,94.0637 A3.5851,3.5851 0 0 1 741.3958,97.6488 L741.3958,200.4735 A3.5851,3.5851 0 0 1 737.8107,204.0586 L415.153,204.0586 A3.5851,3.5851 0 0 1 411.5679,200.4735 L411.5679,65.6743 A3.5851,3.5851 0 0 1 415.153,62.0892 " style="stroke:#000000;stroke-width:2.1510516252390057;fill:none;"/><line style="stroke:#000000;stroke-width:2.1510516252390057;fill:none;" x1="411.5679" x2="701.2428" y1="94.0637" y2="94.0637"/><text fill="#000000" font-family="sans-serif" font-size="20.0765" font-weight="bold" lengthAdjust="spacing" textLength="271.0325" x="417.304" y="83.5927">TSertificat_ResultForm</text></g><!--MD5=[11979cf7d306d48a458126182587d6d5]
class TSertificat_ResultForm--><g id="elem_TSertificat_ResultForm"><rect codeLine="56" fill="#F1F1F1" height="68.8337" id="TSertificat_ResultForm" rx="3.5851" ry="3.5851" style="stroke:#181818;stroke-width:0.7170172084130019;" width="283.9388" x="434.5124" y="112.2804"/><ellipse cx="456.0229" cy="135.225" fill="#ADD1B2" rx="15.7744" ry="15.7744" style="stroke:#181818;stroke-width:1.4340344168260037;"/><path d="M459.384,129.0183 C458.0396,128.3909 457.1881,128.1892 455.9333,128.1892 C452.169,128.1892 449.3009,131.1693 449.3009,135.0681 L449.3009,136.6814 C449.3009,140.3785 452.3258,143.0897 456.4711,143.0897 C458.2188,143.0897 459.8769,142.664 460.9524,141.8798 C461.7815,141.2972 462.252,140.6474 462.252,140.0872 C462.252,139.4374 461.6919,138.8773 461.0197,138.8773 C460.706,138.8773 460.4147,138.9893 460.1458,139.2582 C459.496,139.9528 459.496,139.9528 459.2271,140.0872 C458.6221,140.4682 457.6362,140.6474 456.5383,140.6474 C453.603,140.6474 451.7432,139.0789 451.7432,136.6366 L451.7432,135.0681 C451.7432,132.5137 453.5358,130.6316 456.0229,130.6316 C456.852,130.6316 457.7259,130.8556 458.3981,131.2141 C459.0927,131.6175 459.3391,131.9312 459.4736,132.5137 C459.5632,133.0963 459.608,133.2756 459.8097,133.4548 C460.0114,133.6565 460.3475,133.8133 460.6611,133.8133 C461.0421,133.8133 461.423,133.6117 461.6695,133.298 C461.8263,133.0739 461.8711,132.805 461.8711,132.2 L461.8711,130.161 C461.8711,129.5336 461.8487,129.3544 461.7143,129.1303 C461.4902,128.7494 461.0869,128.5477 460.6611,128.5477 C460.2354,128.5477 459.9441,128.6822 459.6304,129.1303 L459.384,129.0183 Z " fill="#000000"/><text fill="#000000" font-family="sans-serif" font-size="20.0765" lengthAdjust="spacing" textLength="238.0497" x="476.0994" y="142.1753">TSertificat_ResultForm</text><line style="stroke:#181818;stroke-width:0.7170172084130019;" x1="435.9465" x2="717.0172" y1="158.1695" y2="158.1695"/><line style="stroke:#181818;stroke-width:0.7170172084130019;" x1="435.9465" x2="717.0172" y1="169.6418" y2="169.6418"/></g><!--MD5=[e9e5ac71b675be394866a22d038572bd]
class <b>TSertificat_ResultForm</b>--><g id="elem_&lt;b&gt;TSertificat_ResultForm&lt;/b&gt;"><rect codeLine="9" fill="#F1F1F1" height="896.9885" id="&lt;b&gt;TSertificat_ResultForm&lt;/b&gt;" rx="3.5851" ry="3.5851" style="stroke:#181818;stroke-width:0.7170172084130019;" width="628.1071" x="10.0382" y="267.1561"/><ellipse cx="182.4809" cy="290.1007" fill="#ADD1B2" rx="15.7744" ry="15.7744" style="stroke:#181818;stroke-width:1.4340344168260037;"/><path d="M185.8419,283.894 C184.4975,283.2666 183.646,283.0649 182.3913,283.0649 C178.6269,283.0649 175.7588,286.0451 175.7588,289.9438 L175.7588,291.5571 C175.7588,295.2542 178.7838,297.9655 182.929,297.9655 C184.6767,297.9655 186.3348,297.5397 187.4104,296.7555 C188.2394,296.1729 188.71,295.5231 188.71,294.963 C188.71,294.3132 188.1498,293.753 187.4776,293.753 C187.1639,293.753 186.8726,293.865 186.6037,294.1339 C185.9539,294.8285 185.9539,294.8285 185.6851,294.963 C185.0801,295.3439 184.0942,295.5231 182.9962,295.5231 C180.0609,295.5231 178.2012,293.9546 178.2012,291.5123 L178.2012,289.9438 C178.2012,287.3895 179.9937,285.5073 182.4809,285.5073 C183.3099,285.5073 184.1838,285.7314 184.856,286.0899 C185.5506,286.4932 185.7971,286.8069 185.9315,287.3895 C186.0212,287.972 186.066,288.1513 186.2676,288.3305 C186.4693,288.5322 186.8054,288.6891 187.1191,288.6891 C187.5,288.6891 187.8809,288.4874 188.1274,288.1737 C188.2842,287.9496 188.3291,287.6807 188.3291,287.0758 L188.3291,285.0367 C188.3291,284.4094 188.3066,284.2301 188.1722,284.006 C187.9481,283.6251 187.5448,283.4235 187.1191,283.4235 C186.6934,283.4235 186.4021,283.5579 186.0884,284.006 L185.8419,283.894 Z " fill="#000000"/><text fill="#000000" font-family="sans-serif" font-size="20.0765" font-weight="bold" lengthAdjust="spacing" textLength="271.0325" x="211.8786" y="297.051">TSertificat_ResultForm</text><line style="stroke:#181818;stroke-width:0.7170172084130019;" x1="11.4723" x2="636.7113" y1="313.0452" y2="313.0452"/><ellipse cx="25.8126" cy="328.8196" fill="none" rx="4.3021" ry="4.3021" style="stroke:#038048;stroke-width:1.4340344168260037;"/><text fill="#000000" font-family="sans-serif" font-size="20.0765" lengthAdjust="spacing" textLength="80.3059" x="38.7189" y="337.4168">BitBtn1</text><text fill="#000000" font-family="sans-serif" font-size="20.0765" lengthAdjust="spacing" textLength="7.1702" x="176.3862" y="337.4168">:</text><text fill="#000000" font-family="sans-serif" font-size="20.0765" font-style="italic" lengthAdjust="spacing" textLength="90.3442" x="189.2925" y="337.4168">TBitBtn *</text><line style="stroke:#181818;stroke-width:1.4340344168260037;stroke-dasharray:1.0,2.0;" x1="11.4723" x2="636.7113" y1="347.8878" y2="347.8878"/><ellipse cx="25.8126" cy="363.6622" fill="none" rx="4.3021" ry="4.3021" style="stroke:#038048;stroke-width:1.4340344168260037;"/><text fill="#000000" font-family="sans-serif" font-size="20.0765" lengthAdjust="spacing" textLength="84.608" x="38.7189" y="372.2594">Button1</text><text fill="#000000" font-family="sans-serif" font-size="20.0765" lengthAdjust="spacing" textLength="7.1702" x="176.3862" y="372.2594">:</text><text fill="#000000" font-family="sans-serif" font-size="20.0765" font-style="italic" lengthAdjust="spacing" textLength="96.0803" x="189.2925" y="372.2594">TButton *</text><ellipse cx="25.8126" cy="387.0324" fill="none" rx="4.3021" ry="4.3021" style="stroke:#038048;stroke-width:1.4340344168260037;"/><text fill="#000000" font-family="sans-serif" font-size="20.0765" lengthAdjust="spacing" textLength="83.174" x="38.7189" y="395.6296">Button2</text><text fill="#000000" font-family="sans-serif" font-size="20.0765" lengthAdjust="spacing" textLength="7.1702" x="176.3862" y="395.6296">:</text><text fill="#000000" font-family="sans-serif" font-size="20.0765" font-style="italic" lengthAdjust="spacing" textLength="96.0803" x="189.2925" y="395.6296">TButton *</text><line style="stroke:#181818;stroke-width:1.4340344168260037;stroke-dasharray:1.0,2.0;" x1="11.4723" x2="636.7113" y1="406.1006" y2="406.1006"/><ellipse cx="25.8126" cy="421.875" fill="none" rx="4.3021" ry="4.3021" style="stroke:#038048;stroke-width:1.4340344168260037;"/><text fill="#000000" font-family="sans-serif" font-size="20.0765" lengthAdjust="spacing" textLength="83.174" x="38.7189" y="430.4722">LookFIO</text><text fill="#000000" font-family="sans-serif" font-size="20.0765" lengthAdjust="spacing" textLength="7.1702" x="176.3862" y="430.4722">:</text><text fill="#000000" font-family="sans-serif" font-size="20.0765" font-style="italic" lengthAdjust="spacing" textLength="245.2199" x="189.2925" y="430.4722">TDBLookupComboBox *</text><ellipse cx="25.8126" cy="445.2453" fill="none" rx="4.3021" ry="4.3021" style="stroke:#038048;stroke-width:1.4340344168260037;"/><text fill="#000000" font-family="sans-serif" font-size="20.0765" lengthAdjust="spacing" textLength="97.5143" x="38.7189" y="453.8425">LookPred</text><text fill="#000000" font-family="sans-serif" font-size="20.0765" lengthAdjust="spacing" textLength="7.1702" x="176.3862" y="453.8425">:</text><text fill="#000000" font-family="sans-serif" font-size="20.0765" font-style="italic" lengthAdjust="spacing" textLength="245.2199" x="189.2925" y="453.8425">TDBLookupComboBox *</text><line style="stroke:#181818;stroke-width:1.4340344168260037;stroke-dasharray:1.0,2.0;" x1="11.4723" x2="636.7113" y1="464.3135" y2="464.3135"/><ellipse cx="25.8126" cy="480.0878" fill="none" rx="4.3021" ry="4.3021" style="stroke:#038048;stroke-width:1.4340344168260037;"/><text fill="#000000" font-family="sans-serif" font-size="20.0765" lengthAdjust="spacing" textLength="54.4933" x="38.7189" y="488.685">Edit1</text><text fill="#000000" font-family="sans-serif" font-size="20.0765" lengthAdjust="spacing" textLength="7.1702" x="176.3862" y="488.685">:</text><text fill="#000000" font-family="sans-serif" font-size="20.0765" font-style="italic" lengthAdjust="spacing" textLength="67.3996" x="189.2925" y="488.685">TEdit *</text><line style="stroke:#181818;stroke-width:1.4340344168260037;stroke-dasharray:1.0,2.0;" x1="11.4723" x2="636.7113" y1="499.156" y2="499.156"/><ellipse cx="25.8126" cy="514.9304" fill="none" rx="4.3021" ry="4.3021" style="stroke:#038048;stroke-width:1.4340344168260037;"/><text fill="#000000" font-family="sans-serif" font-size="20.0765" lengthAdjust="spacing" textLength="68.8337" x="38.7189" y="523.5276">Label1</text><text fill="#000000" font-family="sans-serif" font-size="20.0765" lengthAdjust="spacing" textLength="7.1702" x="176.3862" y="523.5276">:</text><text fill="#000000" font-family="sans-serif" font-size="20.0765" font-style="italic" lengthAdjust="spacing" textLength="84.608" x="189.2925" y="523.5276">TLabel *</text><ellipse cx="25.8126" cy="538.3007" fill="none" rx="4.3021" ry="4.3021" style="stroke:#038048;stroke-width:1.4340344168260037;"/><text fill="#000000" font-family="sans-serif" font-size="20.0765" lengthAdjust="spacing" textLength="67.3996" x="38.7189" y="546.8979">Label2</text><text fill="#000000" font-family="sans-serif" font-size="20.0765" lengthAdjust="spacing" textLength="7.1702" x="176.3862" y="546.8979">:</text><text fill="#000000" font-family="sans-serif" font-size="20.0765" font-style="italic" lengthAdjust="spacing" textLength="84.608" x="189.2925" y="546.8979">TLabel *</text><ellipse cx="25.8126" cy="561.6709" fill="none" rx="4.3021" ry="4.3021" style="stroke:#038048;stroke-width:1.4340344168260037;"/><text fill="#000000" font-family="sans-serif" font-size="20.0765" lengthAdjust="spacing" textLength="68.8337" x="38.7189" y="570.2682">Label3</text><text fill="#000000" font-family="sans-serif" font-size="20.0765" lengthAdjust="spacing" textLength="7.1702" x="176.3862" y="570.2682">:</text><text fill="#000000" font-family="sans-serif" font-size="20.0765" font-style="italic" lengthAdjust="spacing" textLength="84.608" x="189.2925" y="570.2682">TLabel *</text><ellipse cx="25.8126" cy="585.0412" fill="none" rx="4.3021" ry="4.3021" style="stroke:#038048;stroke-width:1.4340344168260037;"/><text fill="#000000" font-family="sans-serif" font-size="20.0765" lengthAdjust="spacing" textLength="67.3996" x="38.7189" y="593.6384">Label4</text><text fill="#000000" font-family="sans-serif" font-size="20.0765" lengthAdjust="spacing" textLength="7.1702" x="176.3862" y="593.6384">:</text><text fill="#000000" font-family="sans-serif" font-size="20.0765" font-style="italic" lengthAdjust="spacing" textLength="84.608" x="189.2925" y="593.6384">TLabel *</text><ellipse cx="25.8126" cy="608.4115" fill="none" rx="4.3021" ry="4.3021" style="stroke:#038048;stroke-width:1.4340344168260037;"/><text fill="#000000" font-family="sans-serif" font-size="20.0765" lengthAdjust="spacing" textLength="68.8337" x="38.7189" y="617.0087">Label5</text><text fill="#000000" font-family="sans-serif" font-size="20.0765" lengthAdjust="spacing" textLength="7.1702" x="176.3862" y="617.0087">:</text><text fill="#000000" font-family="sans-serif" font-size="20.0765" font-style="italic" lengthAdjust="spacing" textLength="84.608" x="189.2925" y="617.0087">TLabel *</text><ellipse cx="25.8126" cy="631.7818" fill="none" rx="4.3021" ry="4.3021" style="stroke:#038048;stroke-width:1.4340344168260037;"/><text fill="#000000" font-family="sans-serif" font-size="20.0765" lengthAdjust="spacing" textLength="68.8337" x="38.7189" y="640.379">Label6</text><text fill="#000000" font-family="sans-serif" font-size="20.0765" lengthAdjust="spacing" textLength="7.1702" x="176.3862" y="640.379">:</text><text fill="#000000" font-family="sans-serif" font-size="20.0765" font-style="italic" lengthAdjust="spacing" textLength="84.608" x="189.2925" y="640.379">TLabel *</text><ellipse cx="25.8126" cy="655.1521" fill="none" rx="4.3021" ry="4.3021" style="stroke:#038048;stroke-width:1.4340344168260037;"/><text fill="#000000" font-family="sans-serif" font-size="20.0765" lengthAdjust="spacing" textLength="68.8337" x="38.7189" y="663.7493">Label7</text><text fill="#000000" font-family="sans-serif" font-size="20.0765" lengthAdjust="spacing" textLength="7.1702" x="176.3862" y="663.7493">:</text><text fill="#000000" font-family="sans-serif" font-size="20.0765" font-style="italic" lengthAdjust="spacing" textLength="84.608" x="189.2925" y="663.7493">TLabel *</text><ellipse cx="25.8126" cy="678.5223" fill="none" rx="4.3021" ry="4.3021" style="stroke:#038048;stroke-width:1.4340344168260037;"/><text fill="#000000" font-family="sans-serif" font-size="20.0765" lengthAdjust="spacing" textLength="67.3996" x="38.7189" y="687.1196">Label8</text><text fill="#000000" font-family="sans-serif" font-size="20.0765" lengthAdjust="spacing" textLength="7.1702" x="176.3862" y="687.1196">:</text><text fill="#000000" font-family="sans-serif" font-size="20.0765" font-style="italic" lengthAdjust="spacing" textLength="84.608" x="189.2925" y="687.1196">TLabel *</text><ellipse cx="25.8126" cy="701.8926" fill="none" rx="4.3021" ry="4.3021" style="stroke:#038048;stroke-width:1.4340344168260037;"/><text fill="#000000" font-family="sans-serif" font-size="20.0765" lengthAdjust="spacing" textLength="68.8337" x="38.7189" y="710.4898">Label9</text><text fill="#000000" font-family="sans-serif" font-size="20.0765" lengthAdjust="spacing" textLength="7.1702" x="176.3862" y="710.4898">:</text><text fill="#000000" font-family="sans-serif" font-size="20.0765" font-style="italic" lengthAdjust="spacing" textLength="84.608" x="189.2925" y="710.4898">TLabel *</text><ellipse cx="25.8126" cy="725.2629" fill="none" rx="4.3021" ry="4.3021" style="stroke:#038048;stroke-width:1.4340344168260037;"/><text fill="#000000" font-family="sans-serif" font-size="20.0765" lengthAdjust="spacing" textLength="81.74" x="38.7189" y="733.8601">Label10</text><text fill="#000000" font-family="sans-serif" font-size="20.0765" lengthAdjust="spacing" textLength="7.1702" x="176.3862" y="733.8601">:</text><text fill="#000000" font-family="sans-serif" font-size="20.0765" font-style="italic" lengthAdjust="spacing" textLength="84.608" x="189.2925" y="733.8601">TLabel *</text><ellipse cx="25.8126" cy="748.6332" fill="none" rx="4.3021" ry="4.3021" style="stroke:#038048;stroke-width:1.4340344168260037;"/><text fill="#000000" font-family="sans-serif" font-size="20.0765" lengthAdjust="spacing" textLength="81.74" x="38.7189" y="757.2304">Label11</text><text fill="#000000" font-family="sans-serif" font-size="20.0765" lengthAdjust="spacing" textLength="7.1702" x="176.3862" y="757.2304">:</text><text fill="#000000" font-family="sans-serif" font-size="20.0765" font-style="italic" lengthAdjust="spacing" textLength="84.608" x="189.2925" y="757.2304">TLabel *</text><line style="stroke:#181818;stroke-width:1.4340344168260037;stroke-dasharray:1.0,2.0;" x1="11.4723" x2="636.7113" y1="767.7014" y2="767.7014"/><ellipse cx="25.8126" cy="783.4757" fill="none" rx="4.3021" ry="4.3021" style="stroke:#038048;stroke-width:1.4340344168260037;"/><text fill="#000000" font-family="sans-serif" font-size="20.0765" lengthAdjust="spacing" textLength="68.8337" x="38.7189" y="792.0729">Panel1</text><text fill="#000000" font-family="sans-serif" font-size="20.0765" lengthAdjust="spacing" textLength="7.1702" x="176.3862" y="792.0729">:</text><text fill="#000000" font-family="sans-serif" font-size="20.0765" font-style="italic" lengthAdjust="spacing" textLength="84.608" x="189.2925" y="792.0729">TPanel *</text><line style="stroke:#181818;stroke-width:1.4340344168260037;" x1="11.4723" x2="636.7113" y1="802.5439" y2="802.5439"/><text fill="#000000" font-family="sans-serif" font-size="20.0765" lengthAdjust="spacing" textLength="5.7361" x="38.7189" y="826.9155"> </text><ellipse cx="25.8126" cy="841.6886" fill="#84BE84" rx="4.3021" ry="4.3021" style="stroke:#038048;stroke-width:1.4340344168260037;"/><text fill="#000000" font-family="sans-serif" font-size="20.0765" font-weight="bold" lengthAdjust="spacing" textLength="271.0325" x="38.7189" y="850.2858">TSertificat_ResultForm</text><text fill="#000000" font-family="sans-serif" font-size="20.0765" font-weight="bold" lengthAdjust="spacing" textLength="81.74" x="325.5258" y="850.2858">(Owner</text><text fill="#000000" font-family="sans-serif" font-size="20.0765" font-weight="bold" lengthAdjust="spacing" textLength="8.6042" x="440.2486" y="850.2858">:</text><text fill="#000000" font-family="sans-serif" font-size="20.0765" font-style="italic" font-weight="bold" lengthAdjust="spacing" textLength="163.4799" x="456.0229" y="850.2858">TComponent *</text><text fill="#000000" font-family="sans-serif" font-size="20.0765" font-weight="bold" lengthAdjust="spacing" textLength="10.0382" x="619.5029" y="850.2858">)</text><text fill="#000000" font-family="sans-serif" font-size="20.0765" lengthAdjust="spacing" textLength="5.7361" x="38.7189" y="873.6561"> </text><ellipse cx="25.8126" cy="888.4291" fill="#84BE84" rx="4.3021" ry="4.3021" style="stroke:#038048;stroke-width:1.4340344168260037;"/><text fill="#000000" font-family="sans-serif" font-size="20.0765" lengthAdjust="spacing" textLength="130.4971" x="38.7189" y="897.0263">BitBtn1Click</text><text fill="#000000" font-family="sans-serif" font-size="20.0765" lengthAdjust="spacing" textLength="80.3059" x="222.2753" y="897.0263">(Sender</text><text fill="#000000" font-family="sans-serif" font-size="20.0765" lengthAdjust="spacing" textLength="7.1702" x="314.0535" y="897.0263">:</text><text fill="#000000" font-family="sans-serif" font-size="20.0765" font-style="italic" lengthAdjust="spacing" textLength="94.6463" x="326.9598" y="897.0263">TObject *</text><text fill="#000000" font-family="sans-serif" font-size="20.0765" lengthAdjust="spacing" textLength="20.0765" x="421.6061" y="897.0263">) :</text><text fill="#000000" font-family="sans-serif" font-size="20.0765" font-style="italic" lengthAdjust="spacing" textLength="43.021" x="447.4187" y="897.0263">void</text><ellipse cx="25.8126" cy="911.7994" fill="#84BE84" rx="4.3021" ry="4.3021" style="stroke:#038048;stroke-width:1.4340344168260037;"/><text fill="#000000" font-family="sans-serif" font-size="20.0765" lengthAdjust="spacing" textLength="134.7992" x="38.7189" y="920.3966">Button1Click</text><text fill="#000000" font-family="sans-serif" font-size="20.0765" lengthAdjust="spacing" textLength="80.3059" x="222.2753" y="920.3966">(Sender</text><text fill="#000000" font-family="sans-serif" font-size="20.0765" lengthAdjust="spacing" textLength="7.1702" x="314.0535" y="920.3966">:</text><text fill="#000000" font-family="sans-serif" font-size="20.0765" font-style="italic" lengthAdjust="spacing" textLength="94.6463" x="326.9598" y="920.3966">TObject *</text><text fill="#000000" font-family="sans-serif" font-size="20.0765" lengthAdjust="spacing" textLength="20.0765" x="421.6061" y="920.3966">) :</text><text fill="#000000" font-family="sans-serif" font-size="20.0765" font-style="italic" lengthAdjust="spacing" textLength="43.021" x="447.4187" y="920.3966">void</text><ellipse cx="25.8126" cy="935.1697" fill="#84BE84" rx="4.3021" ry="4.3021" style="stroke:#038048;stroke-width:1.4340344168260037;"/><text fill="#000000" font-family="sans-serif" font-size="20.0765" lengthAdjust="spacing" textLength="133.3652" x="38.7189" y="943.7669">Button2Click</text><text fill="#000000" font-family="sans-serif" font-size="20.0765" lengthAdjust="spacing" textLength="80.3059" x="222.2753" y="943.7669">(Sender</text><text fill="#000000" font-family="sans-serif" font-size="20.0765" lengthAdjust="spacing" textLength="7.1702" x="314.0535" y="943.7669">:</text><text fill="#000000" font-family="sans-serif" font-size="20.0765" font-style="italic" lengthAdjust="spacing" textLength="94.6463" x="326.9598" y="943.7669">TObject *</text><text fill="#000000" font-family="sans-serif" font-size="20.0765" lengthAdjust="spacing" textLength="20.0765" x="421.6061" y="943.7669">) :</text><text fill="#000000" font-family="sans-serif" font-size="20.0765" font-style="italic" lengthAdjust="spacing" textLength="43.021" x="447.4187" y="943.7669">void</text><ellipse cx="25.8126" cy="958.54" fill="#84BE84" rx="4.3021" ry="4.3021" style="stroke:#038048;stroke-width:1.4340344168260037;"/><text fill="#000000" font-family="sans-serif" font-size="20.0765" lengthAdjust="spacing" textLength="131.9312" x="38.7189" y="967.1372">Edit1Change</text><text fill="#000000" font-family="sans-serif" font-size="20.0765" lengthAdjust="spacing" textLength="80.3059" x="222.2753" y="967.1372">(Sender</text><text fill="#000000" font-family="sans-serif" font-size="20.0765" lengthAdjust="spacing" textLength="7.1702" x="314.0535" y="967.1372">:</text><text fill="#000000" font-family="sans-serif" font-size="20.0765" font-style="italic" lengthAdjust="spacing" textLength="94.6463" x="326.9598" y="967.1372">TObject *</text><text fill="#000000" font-family="sans-serif" font-size="20.0765" lengthAdjust="spacing" textLength="20.0765" x="421.6061" y="967.1372">) :</text><text fill="#000000" font-family="sans-serif" font-size="20.0765" font-style="italic" lengthAdjust="spacing" textLength="43.021" x="447.4187" y="967.1372">void</text><line style="stroke:#181818;stroke-width:1.4340344168260037;stroke-dasharray:1.0,2.0;" x1="11.4723" x2="636.7113" y1="977.6082" y2="977.6082"/><text fill="#000000" font-family="sans-serif" font-size="20.0765" lengthAdjust="spacing" textLength="5.7361" x="38.7189" y="1001.9797"> </text><ellipse cx="25.8126" cy="1016.7528" fill="#84BE84" rx="4.3021" ry="4.3021" style="stroke:#038048;stroke-width:1.4340344168260037;"/><text fill="#000000" font-family="sans-serif" font-size="20.0765" lengthAdjust="spacing" textLength="108.9866" x="38.7189" y="1025.35">FormClose</text><text fill="#000000" font-family="sans-serif" font-size="20.0765" lengthAdjust="spacing" textLength="7.1702" x="222.2753" y="1025.35">(</text><text fill="#000000" font-family="sans-serif" font-size="20.0765" lengthAdjust="spacing" textLength="73.1358" x="130.4971" y="1048.7203">Sender</text><text fill="#000000" font-family="sans-serif" font-size="20.0765" lengthAdjust="spacing" textLength="7.1702" x="222.2753" y="1048.7203">:</text><text fill="#000000" font-family="sans-serif" font-size="20.0765" font-style="italic" lengthAdjust="spacing" textLength="94.6463" x="235.1816" y="1048.7203">TObject *</text><text fill="#000000" font-family="sans-serif" font-size="20.0765" lengthAdjust="spacing" textLength="5.7361" x="329.8279" y="1048.7203">,</text><text fill="#000000" font-family="sans-serif" font-size="20.0765" lengthAdjust="spacing" textLength="67.3996" x="130.4971" y="1072.0906">Action</text><text fill="#000000" font-family="sans-serif" font-size="20.0765" lengthAdjust="spacing" textLength="7.1702" x="222.2753" y="1072.0906">:</text><text fill="#000000" font-family="sans-serif" font-size="20.0765" font-style="italic" lengthAdjust="spacing" textLength="154.8757" x="235.1816" y="1072.0906">TCloseAction &amp;</text><text fill="#000000" font-family="sans-serif" font-size="20.0765" lengthAdjust="spacing" textLength="20.0765" x="84.608" y="1095.4609">) :</text><text fill="#000000" font-family="sans-serif" font-size="20.0765" font-style="italic" lengthAdjust="spacing" textLength="43.021" x="110.4207" y="1095.4609">void</text><line style="stroke:#181818;stroke-width:1.4340344168260037;stroke-dasharray:1.0,2.0;" x1="11.4723" x2="636.7113" y1="1105.9318" y2="1105.9318"/><ellipse cx="25.8126" cy="1121.7062" fill="#84BE84" rx="4.3021" ry="4.3021" style="stroke:#038048;stroke-width:1.4340344168260037;"/><text fill="#000000" font-family="sans-serif" font-size="20.0765" lengthAdjust="spacing" textLength="107.5526" x="38.7189" y="1130.3034">FormShow</text><text fill="#000000" font-family="sans-serif" font-size="20.0765" lengthAdjust="spacing" textLength="80.3059" x="222.2753" y="1130.3034">(Sender</text><text fill="#000000" font-family="sans-serif" font-size="20.0765" lengthAdjust="spacing" textLength="7.1702" x="314.0535" y="1130.3034">:</text><text fill="#000000" font-family="sans-serif" font-size="20.0765" font-style="italic" lengthAdjust="spacing" textLength="94.6463" x="326.9598" y="1130.3034">TObject *</text><text fill="#000000" font-family="sans-serif" font-size="20.0765" lengthAdjust="spacing" textLength="20.0765" x="421.6061" y="1130.3034">) :</text><text fill="#000000" font-family="sans-serif" font-size="20.0765" font-style="italic" lengthAdjust="spacing" textLength="43.021" x="447.4187" y="1130.3034">void</text><ellipse cx="25.8126" cy="1145.0765" fill="#84BE84" rx="4.3021" ry="4.3021" style="stroke:#038048;stroke-width:1.4340344168260037;"/><text fill="#000000" font-family="sans-serif" font-size="20.0765" lengthAdjust="spacing" textLength="166.348" x="38.7189" y="1153.6737">LookFIOCloseUp</text><text fill="#000000" font-family="sans-serif" font-size="20.0765" lengthAdjust="spacing" textLength="80.3059" x="222.2753" y="1153.6737">(Sender</text><text fill="#000000" font-family="sans-serif" font-size="20.0765" lengthAdjust="spacing" textLength="7.1702" x="314.0535" y="1153.6737">:</text><text fill="#000000" font-family="sans-serif" font-size="20.0765" font-style="italic" lengthAdjust="spacing" textLength="94.6463" x="326.9598" y="1153.6737">TObject *</text><text fill="#000000" font-family="sans-serif" font-size="20.0765" lengthAdjust="spacing" textLength="20.0765" x="421.6061" y="1153.6737">) :</text><text fill="#000000" font-family="sans-serif" font-size="20.0765" font-style="italic" lengthAdjust="spacing" textLength="43.021" x="447.4187" y="1153.6737">void</text></g><!--MD5=[dd0bf217da5c5e97452bc452f42aff32]
class <b>TForm</b>--><g id="elem_&lt;b&gt;TForm&lt;/b&gt;"><rect fill="#F1F1F1" height="45.8891" id="&lt;b&gt;TForm&lt;/b&gt;" rx="3.5851" ry="3.5851" style="stroke:#181818;stroke-width:0.7170172084130019;" width="120.4589" x="263.8623" y="123.7527"/><ellipse cx="285.3728" cy="146.6972" fill="#ADD1B2" rx="15.7744" ry="15.7744" style="stroke:#181818;stroke-width:1.4340344168260037;"/><path d="M288.7339,140.4906 C287.3895,139.8632 286.538,139.6615 285.2832,139.6615 C281.5189,139.6615 278.6508,142.6416 278.6508,146.5404 L278.6508,148.1537 C278.6508,151.8508 281.6757,154.562 285.821,154.562 C287.5687,154.562 289.2268,154.1363 290.3023,153.3521 C291.1314,152.7695 291.6019,152.1197 291.6019,151.5595 C291.6019,150.9097 291.0418,150.3495 290.3696,150.3495 C290.0559,150.3495 289.7646,150.4616 289.4957,150.7305 C288.8459,151.4251 288.8459,151.4251 288.577,151.5595 C287.972,151.9404 286.9861,152.1197 285.8882,152.1197 C282.9529,152.1197 281.0932,150.5512 281.0932,148.1089 L281.0932,146.5404 C281.0932,143.986 282.8857,142.1038 285.3728,142.1038 C286.2019,142.1038 287.0758,142.3279 287.748,142.6864 C288.4426,143.0897 288.6891,143.4034 288.8235,143.986 C288.9131,144.5686 288.9579,144.7478 289.1596,144.9271 C289.3613,145.1288 289.6974,145.2856 290.0111,145.2856 C290.392,145.2856 290.7729,145.084 291.0194,144.7703 C291.1762,144.5462 291.221,144.2773 291.221,143.6723 L291.221,141.6333 C291.221,141.0059 291.1986,140.8267 291.0642,140.6026 C290.8401,140.2217 290.4368,140.02 290.0111,140.02 C289.5853,140.02 289.294,140.1545 288.9803,140.6026 L288.7339,140.4906 Z " fill="#000000"/><text fill="#000000" font-family="sans-serif" font-size="20.0765" font-weight="bold" lengthAdjust="spacing" textLength="74.5698" x="305.4493" y="153.6475">TForm</text></g><!--MD5=[c612293b64aa5446dd37558e8d233b07]
reverse link <b>TForm</b> to <b>TSertificat_ResultForm</b>--><g id="link_&lt;b&gt;TForm&lt;/b&gt;_&lt;b&gt;TSertificat_ResultForm&lt;/b&gt;"><path codeLine="5" d="M324.0918,198.4974 C324.0918,217.3607 324.0918,240.638 324.0918,266.779 " fill="none" id="&lt;b&gt;TForm&lt;/b&gt;-backto-&lt;b&gt;TSertificat_ResultForm&lt;/b&gt;" style="stroke:#181818;stroke-width:1.4340344168260037;"/><polygon fill="none" points="314.0535,198.3253,324.0918,169.6447,334.13,198.3253,314.0535,198.3253" style="stroke:#181818;stroke-width:1.4340344168260037;"/></g><!--MD5=[9c02d0b7487d1f824588af37571443bb]
@startuml
title Исходный файл: "Sertificat_ResultUnit.cpp"

scale 750 width

"<b>TSertificat_ResultForm</b>" -up-|> "<b>TForm</b>"

hide "<b>TForm</b>" members

class "<b>TSertificat_ResultForm</b>"
{
    + BitBtn1 \t\t: <i>TBitBtn *</i>
    ..
    + Button1 \t\t: <i>TButton *</i>
    + Button2 \t\t: <i>TButton *</i>
    ..
    + LookFIO \t\t: <i>TDBLookupComboBox *</i>
    + LookPred \t: <i>TDBLookupComboBox *</i>
    ..
    + Edit1 \t\t: <i>TEdit *</i>
    ..
    + Label1 \t\t: <i>TLabel *</i>
    + Label2 \t\t: <i>TLabel *</i>
    + Label3 \t\t: <i>TLabel *</i>
    + Label4 \t\t: <i>TLabel *</i>
    + Label5 \t\t: <i>TLabel *</i>
    + Label6 \t\t: <i>TLabel *</i>
    + Label7 \t\t: <i>TLabel *</i>
    + Label8 \t\t: <i>TLabel *</i>
    + Label9 \t\t: <i>TLabel *</i>
    + Label10 \t\t: <i>TLabel *</i>
    + Label11 \t\t: <i>TLabel *</i>
    ..
    + Panel1 \t\t: <i>TPanel *</i>
    - -
    
    + <b>TSertificat_ResultForm \t(Owner \t: <i>TComponent *</i>)</b>

    + BitBtn1Click \t\t(Sender \t: <i>TObject *</i>) : <i>void</i>
    + Button1Click \t(Sender \t: <i>TObject *</i>) : <i>void</i>
    + Button2Click \t(Sender \t: <i>TObject *</i>) : <i>void</i>
    + Edit1Change \t(Sender \t: <i>TObject *</i>) : <i>void</i>
    ..

    + FormClose \t\t(
            \t\tSender \t: <i>TObject *</i>,
            \t\tAction \t: <i>TCloseAction &</i>
        \t) : <i>void</i>
    ..
    + FormShow \t\t(Sender \t: <i>TObject *</i>) : <i>void</i>
    + LookFIOCloseUp \t(Sender \t: <i>TObject *</i>) : <i>void</i>
}


package TSertificat_ResultForm <<Folder>>
{
    class TSertificat_ResultForm
    hide  members
}


' note right of "<b>TSertificat_ResultForm</b>"::Save_Priv
' сохранение привелегий (сирота, Чаэс, инвалид)
' end note
@enduml

@startuml
title Исходный файл: "Sertificat_ResultUnit.cpp"

scale 750 width

"<b>TSertificat_ResultForm</b>" -up-|> "<b>TForm</b>"

hide "<b>TForm</b>" members

class "<b>TSertificat_ResultForm</b>"
{
    + BitBtn1 \t\t: <i>TBitBtn *</i>
    ..
    + Button1 \t\t: <i>TButton *</i>
    + Button2 \t\t: <i>TButton *</i>
    ..
    + LookFIO \t\t: <i>TDBLookupComboBox *</i>
    + LookPred \t: <i>TDBLookupComboBox *</i>
    ..
    + Edit1 \t\t: <i>TEdit *</i>
    ..
    + Label1 \t\t: <i>TLabel *</i>
    + Label2 \t\t: <i>TLabel *</i>
    + Label3 \t\t: <i>TLabel *</i>
    + Label4 \t\t: <i>TLabel *</i>
    + Label5 \t\t: <i>TLabel *</i>
    + Label6 \t\t: <i>TLabel *</i>
    + Label7 \t\t: <i>TLabel *</i>
    + Label8 \t\t: <i>TLabel *</i>
    + Label9 \t\t: <i>TLabel *</i>
    + Label10 \t\t: <i>TLabel *</i>
    + Label11 \t\t: <i>TLabel *</i>
    ..
    + Panel1 \t\t: <i>TPanel *</i>
    - -
    
    + <b>TSertificat_ResultForm \t(Owner \t: <i>TComponent *</i>)</b>

    + BitBtn1Click \t\t(Sender \t: <i>TObject *</i>) : <i>void</i>
    + Button1Click \t(Sender \t: <i>TObject *</i>) : <i>void</i>
    + Button2Click \t(Sender \t: <i>TObject *</i>) : <i>void</i>
    + Edit1Change \t(Sender \t: <i>TObject *</i>) : <i>void</i>
    ..

    + FormClose \t\t(
            \t\tSender \t: <i>TObject *</i>,
            \t\tAction \t: <i>TCloseAction &</i>
        \t) : <i>void</i>
    ..
    + FormShow \t\t(Sender \t: <i>TObject *</i>) : <i>void</i>
    + LookFIOCloseUp \t(Sender \t: <i>TObject *</i>) : <i>void</i>
}


package TSertificat_ResultForm <<Folder>>
{
    class TSertificat_ResultForm
    hide  members
}


@enduml

PlantUML version 1.2022.5(Sat Apr 30 10:55:52 UTC 2022)
(GPL source distribution)
Java Runtime: Java(TM) SE Runtime Environment
JVM: Java HotSpot(TM) 64-Bit Server VM
Default Encoding: UTF-8
Language: en
Country: US
--></g></svg>