<?xml version="1.0" encoding="UTF-8" standalone="no"?><svg xmlns="http://www.w3.org/2000/svg" xmlns:xlink="http://www.w3.org/1999/xlink" contentStyleType="text/css" height="701.559px" preserveAspectRatio="none" style="width:751px;height:701px;background:#FFFFFF;" version="1.1" viewBox="0 0 751 701" width="751.6704px" zoomAndPan="magnify"><defs/><g><rect height="43.9257" style="stroke:#00000000;stroke-width:1.6703786191536747;fill:none;" width="531.1804" x="98.5523" y="8.3519"/><text fill="#000000" font-family="sans-serif" font-size="23.3853" font-weight="bold" lengthAdjust="spacing" textLength="514.4766" x="106.9042" y="38.4106">Исходный файл: "AbituraLogDlg.cpp"</text><!--MD5=[30345d13405bf081418405fc6c64f167]
cluster TAbiturLogDlg--><g id="cluster_TAbiturLogDlg"><path d="M463.5301,72.3222 L660.6347,72.3222 A6.2639,6.2639 0 0 1 664.8107,76.4981 L676.5033,109.5664 L735.8018,109.5664 A4.1759,4.1759 0 0 1 739.9777,113.7423 L739.9777,206.7877 A4.1759,4.1759 0 0 1 735.8018,210.9636 L463.5301,210.9636 A4.1759,4.1759 0 0 1 459.3541,206.7877 L459.3541,76.4981 A4.1759,4.1759 0 0 1 463.5301,72.3222 " style="stroke:#000000;stroke-width:2.505567928730512;fill:none;"/><line style="stroke:#000000;stroke-width:2.505567928730512;fill:none;" x1="459.3541" x2="676.5033" y1="109.5664" y2="109.5664"/><text fill="#000000" font-family="sans-serif" font-size="23.3853" font-weight="bold" lengthAdjust="spacing" textLength="195.4343" x="466.0356" y="97.3697">TAbiturLogDlg</text></g><!--MD5=[c2a3b131cee3a134eab07df38fa152ff]
class TAbiturLogDlg--><g id="elem_TAbiturLogDlg"><rect codeLine="28" fill="#F1F1F1" height="53.4521" id="TAbiturLogDlg" rx="4.1759" ry="4.1759" style="stroke:#181818;stroke-width:0.8351893095768373;" width="227.1715" x="486.0802" y="130.7854"/><ellipse cx="511.1359" cy="157.5115" fill="#ADD1B2" rx="18.3742" ry="18.3742" style="stroke:#181818;stroke-width:1.6703786191536747;"/><path d="M515.0508,150.2819 C513.4848,149.5511 512.493,149.3162 511.0315,149.3162 C506.6467,149.3162 503.306,152.7874 503.306,157.3288 L503.306,159.208 C503.306,163.5144 506.8294,166.6725 511.6579,166.6725 C513.6936,166.6725 515.625,166.1766 516.8778,165.2631 C517.8435,164.5845 518.3916,163.8276 518.3916,163.1751 C518.3916,162.4182 517.7391,161.7657 516.9561,161.7657 C516.5907,161.7657 516.2514,161.8962 515.9382,162.2094 C515.1813,163.0185 515.1813,163.0185 514.8681,163.1751 C514.1634,163.6188 513.015,163.8276 511.7361,163.8276 C508.3171,163.8276 506.1508,162.0006 506.1508,159.1558 L506.1508,157.3288 C506.1508,154.3534 508.2388,152.1611 511.1359,152.1611 C512.1015,152.1611 513.1194,152.422 513.9024,152.8396 C514.7115,153.3094 514.9986,153.6748 515.1552,154.3534 C515.2596,155.032 515.3118,155.2408 515.5467,155.4496 C515.7816,155.6845 516.1731,155.8672 516.5385,155.8672 C516.9822,155.8672 517.4259,155.6323 517.713,155.2669 C517.8957,155.0059 517.9479,154.6927 517.9479,153.988 L517.9479,151.613 C517.9479,150.8822 517.9218,150.6734 517.7652,150.4124 C517.5042,149.9687 517.0344,149.7338 516.5385,149.7338 C516.0426,149.7338 515.7033,149.8904 515.3379,150.4124 L515.0508,150.2819 Z " fill="#000000"/><text fill="#000000" font-family="sans-serif" font-size="23.3853" lengthAdjust="spacing" textLength="173.7194" x="534.5212" y="165.6073">TAbiturLogDlg</text></g><!--MD5=[9178a8102cd838db99eb58ea78d89f19]
class <b>TAbiturLogDlg</b>--><g id="elem_&lt;b&gt;TAbiturLogDlg&lt;/b&gt;"><rect codeLine="9" fill="#F1F1F1" height="406.8416" id="&lt;b&gt;TAbiturLogDlg&lt;/b&gt;" rx="4.1759" ry="4.1759" style="stroke:#181818;stroke-width:0.8351893095768373;" width="691.5367" x="11.6927" y="284.4603"/><ellipse cx="252.6448" cy="311.1863" fill="#ADD1B2" rx="18.3742" ry="18.3742" style="stroke:#181818;stroke-width:1.6703786191536747;"/><path d="M256.5597,303.9567 C254.9937,303.2259 254.0019,302.991 252.5404,302.991 C248.1556,302.991 244.8149,306.4623 244.8149,311.0036 L244.8149,312.8828 C244.8149,317.1892 248.3383,320.3473 253.1668,320.3473 C255.2025,320.3473 257.1339,319.8514 258.3867,318.9379 C259.3524,318.2593 259.9005,317.5024 259.9005,316.8499 C259.9005,316.0931 259.248,315.4406 258.465,315.4406 C258.0996,315.4406 257.7603,315.5711 257.4471,315.8843 C256.6902,316.6933 256.6902,316.6933 256.377,316.8499 C255.6723,317.2936 254.5239,317.5024 253.2451,317.5024 C249.826,317.5024 247.6597,315.6755 247.6597,312.8306 L247.6597,311.0036 C247.6597,308.0283 249.7477,305.8359 252.6448,305.8359 C253.6105,305.8359 254.6283,306.0969 255.4113,306.5145 C256.2204,306.9843 256.5075,307.3497 256.6641,308.0283 C256.7685,308.7068 256.8207,308.9156 257.0556,309.1244 C257.2905,309.3593 257.682,309.542 258.0474,309.542 C258.4911,309.542 258.9348,309.3071 259.2219,308.9417 C259.4046,308.6807 259.4568,308.3676 259.4568,307.6629 L259.4568,305.2878 C259.4568,304.557 259.4307,304.3482 259.2741,304.0872 C259.0131,303.6435 258.5433,303.4086 258.0474,303.4086 C257.5515,303.4086 257.2122,303.5652 256.8468,304.0872 L256.5597,303.9567 Z " fill="#000000"/><text fill="#000000" font-family="sans-serif" font-size="23.3853" font-weight="bold" lengthAdjust="spacing" textLength="195.4343" x="286.8875" y="319.2821">TAbiturLogDlg</text><line style="stroke:#181818;stroke-width:0.8351893095768373;" x1="13.363" x2="701.559" y1="337.9124" y2="337.9124"/><ellipse cx="30.0668" cy="356.2865" fill="none" rx="5.0111" ry="5.0111" style="stroke:#038048;stroke-width:1.6703786191536747;"/><text fill="#000000" font-family="sans-serif" font-size="23.3853" lengthAdjust="spacing" textLength="81.8486" x="45.1002" y="366.3007">Bevel1</text><text fill="#000000" font-family="sans-serif" font-size="23.3853" lengthAdjust="spacing" textLength="8.3519" x="312.3608" y="366.3007">:</text><text fill="#000000" font-family="sans-serif" font-size="23.3853" font-style="italic" lengthAdjust="spacing" textLength="100.2227" x="327.3942" y="366.3007">TBevel *</text><ellipse cx="30.0668" cy="383.5085" fill="none" rx="5.0111" ry="5.0111" style="stroke:#038048;stroke-width:1.6703786191536747;"/><text fill="#000000" font-family="sans-serif" font-size="23.3853" lengthAdjust="spacing" textLength="123.608" x="45.1002" y="393.5226">CancelBtn</text><text fill="#000000" font-family="sans-serif" font-size="23.3853" lengthAdjust="spacing" textLength="8.3519" x="312.3608" y="393.5226">:</text><text fill="#000000" font-family="sans-serif" font-size="23.3853" font-style="italic" lengthAdjust="spacing" textLength="111.9154" x="327.3942" y="393.5226">TButton *</text><ellipse cx="30.0668" cy="410.7304" fill="none" rx="5.0111" ry="5.0111" style="stroke:#038048;stroke-width:1.6703786191536747;"/><text fill="#000000" font-family="sans-serif" font-size="23.3853" lengthAdjust="spacing" textLength="78.5078" x="45.1002" y="420.7446">OKBtn</text><text fill="#000000" font-family="sans-serif" font-size="23.3853" lengthAdjust="spacing" textLength="8.3519" x="312.3608" y="420.7446">:</text><text fill="#000000" font-family="sans-serif" font-size="23.3853" font-style="italic" lengthAdjust="spacing" textLength="111.9154" x="327.3942" y="420.7446">TButton *</text><ellipse cx="30.0668" cy="437.9524" fill="none" rx="5.0111" ry="5.0111" style="stroke:#038048;stroke-width:1.6703786191536747;"/><text fill="#000000" font-family="sans-serif" font-size="23.3853" lengthAdjust="spacing" textLength="208.7973" x="45.1002" y="447.9665">DateTimePicker1</text><text fill="#000000" font-family="sans-serif" font-size="23.3853" lengthAdjust="spacing" textLength="8.3519" x="312.3608" y="447.9665">:</text><text fill="#000000" font-family="sans-serif" font-size="23.3853" font-style="italic" lengthAdjust="spacing" textLength="222.1604" x="327.3942" y="447.9665">TDateTimePicker *</text><ellipse cx="30.0668" cy="465.1743" fill="none" rx="5.0111" ry="5.0111" style="stroke:#038048;stroke-width:1.6703786191536747;"/><text fill="#000000" font-family="sans-serif" font-size="23.3853" lengthAdjust="spacing" textLength="80.1782" x="45.1002" y="475.1885">Label1</text><text fill="#000000" font-family="sans-serif" font-size="23.3853" lengthAdjust="spacing" textLength="8.3519" x="312.3608" y="475.1885">:</text><text fill="#000000" font-family="sans-serif" font-size="23.3853" font-style="italic" lengthAdjust="spacing" textLength="98.5523" x="327.3942" y="475.1885">TLabel *</text><ellipse cx="30.0668" cy="492.3963" fill="none" rx="5.0111" ry="5.0111" style="stroke:#038048;stroke-width:1.6703786191536747;"/><text fill="#000000" font-family="sans-serif" font-size="23.3853" lengthAdjust="spacing" textLength="78.5078" x="45.1002" y="502.4104">Label2</text><text fill="#000000" font-family="sans-serif" font-size="23.3853" lengthAdjust="spacing" textLength="8.3519" x="312.3608" y="502.4104">:</text><text fill="#000000" font-family="sans-serif" font-size="23.3853" font-style="italic" lengthAdjust="spacing" textLength="98.5523" x="327.3942" y="502.4104">TLabel *</text><line style="stroke:#181818;stroke-width:1.6703786191536747;" x1="13.363" x2="701.559" y1="514.6071" y2="514.6071"/><text fill="#000000" font-family="sans-serif" font-size="23.3853" lengthAdjust="spacing" textLength="6.6815" x="45.1002" y="542.9954"> </text><ellipse cx="30.0668" cy="560.2032" fill="#84BE84" rx="5.0111" ry="5.0111" style="stroke:#038048;stroke-width:1.6703786191536747;"/><text fill="#000000" font-family="sans-serif" font-size="23.3853" font-style="italic" font-weight="bold" lengthAdjust="spacing" textLength="317.3719" x="45.1002" y="570.2173">TAbiturLogDlg (AOwner</text><text fill="#000000" font-family="sans-serif" font-size="23.3853" font-style="italic" font-weight="bold" lengthAdjust="spacing" textLength="10.0223" x="379.1759" y="570.2173">:</text><text fill="#000000" font-family="sans-serif" font-size="23.3853" font-style="italic" font-weight="bold" lengthAdjust="spacing" textLength="190.4232" x="397.5501" y="570.2173">TComponent *</text><text fill="#000000" font-family="sans-serif" font-size="23.3853" font-style="italic" font-weight="bold" lengthAdjust="spacing" textLength="105.2339" x="587.9733" y="570.2173">) virtual</text><text fill="#000000" font-family="sans-serif" font-size="23.3853" lengthAdjust="spacing" textLength="6.6815" x="45.1002" y="597.4393"> </text><ellipse cx="30.0668" cy="614.6471" fill="#84BE84" rx="5.0111" ry="5.0111" style="stroke:#038048;stroke-width:1.6703786191536747;"/><text fill="#000000" font-family="sans-serif" font-size="23.3853" lengthAdjust="spacing" textLength="182.0713" x="45.1002" y="624.6612">CancelBtnClick</text><text fill="#000000" font-family="sans-serif" font-size="23.3853" lengthAdjust="spacing" textLength="93.5412" x="258.9087" y="624.6612">(Sender</text><text fill="#000000" font-family="sans-serif" font-size="23.3853" lengthAdjust="spacing" textLength="8.3519" x="365.8129" y="624.6612">:</text><text fill="#000000" font-family="sans-serif" font-size="23.3853" font-style="italic" lengthAdjust="spacing" textLength="110.245" x="380.8463" y="624.6612">TObject *</text><text fill="#000000" font-family="sans-serif" font-size="23.3853" lengthAdjust="spacing" textLength="23.3853" x="491.0913" y="624.6612">) :</text><text fill="#000000" font-family="sans-serif" font-size="23.3853" font-style="italic" lengthAdjust="spacing" textLength="50.1114" x="521.1581" y="624.6612">void</text><ellipse cx="30.0668" cy="641.8691" fill="#84BE84" rx="5.0111" ry="5.0111" style="stroke:#038048;stroke-width:1.6703786191536747;"/><text fill="#000000" font-family="sans-serif" font-size="23.3853" lengthAdjust="spacing" textLength="163.6971" x="45.1002" y="651.8832">FormActivate</text><text fill="#000000" font-family="sans-serif" font-size="23.3853" lengthAdjust="spacing" textLength="93.5412" x="258.9087" y="651.8832">(Sender</text><text fill="#000000" font-family="sans-serif" font-size="23.3853" lengthAdjust="spacing" textLength="8.3519" x="365.8129" y="651.8832">:</text><text fill="#000000" font-family="sans-serif" font-size="23.3853" font-style="italic" lengthAdjust="spacing" textLength="110.245" x="380.8463" y="651.8832">TObject *</text><text fill="#000000" font-family="sans-serif" font-size="23.3853" lengthAdjust="spacing" textLength="23.3853" x="491.0913" y="651.8832">) :</text><text fill="#000000" font-family="sans-serif" font-size="23.3853" font-style="italic" lengthAdjust="spacing" textLength="50.1114" x="521.1581" y="651.8832">void</text><ellipse cx="30.0668" cy="669.091" fill="#84BE84" rx="5.0111" ry="5.0111" style="stroke:#038048;stroke-width:1.6703786191536747;"/><text fill="#000000" font-family="sans-serif" font-size="23.3853" lengthAdjust="spacing" textLength="136.971" x="45.1002" y="679.1052">OKBtnClick</text><text fill="#000000" font-family="sans-serif" font-size="23.3853" lengthAdjust="spacing" textLength="93.5412" x="258.9087" y="679.1052">(Sender</text><text fill="#000000" font-family="sans-serif" font-size="23.3853" lengthAdjust="spacing" textLength="8.3519" x="365.8129" y="679.1052">:</text><text fill="#000000" font-family="sans-serif" font-size="23.3853" font-style="italic" lengthAdjust="spacing" textLength="110.245" x="380.8463" y="679.1052">TObject *</text><text fill="#000000" font-family="sans-serif" font-size="23.3853" lengthAdjust="spacing" textLength="23.3853" x="491.0913" y="679.1052">) :</text><text fill="#000000" font-family="sans-serif" font-size="23.3853" font-style="italic" lengthAdjust="spacing" textLength="50.1114" x="521.1581" y="679.1052">void</text></g><!--MD5=[dd0bf217da5c5e97452bc452f42aff32]
class <b>TForm</b>--><g id="elem_&lt;b&gt;TForm&lt;/b&gt;"><rect fill="#F1F1F1" height="53.4521" id="&lt;b&gt;TForm&lt;/b&gt;" rx="4.1759" ry="4.1759" style="stroke:#181818;stroke-width:0.8351893095768373;" width="140.3118" x="287.3051" y="130.7854"/><ellipse cx="312.3608" cy="157.5115" fill="#ADD1B2" rx="18.3742" ry="18.3742" style="stroke:#181818;stroke-width:1.6703786191536747;"/><path d="M316.2758,150.2819 C314.7098,149.5511 313.718,149.3162 312.2564,149.3162 C307.8717,149.3162 304.5309,152.7874 304.5309,157.3288 L304.5309,159.208 C304.5309,163.5144 308.0544,166.6725 312.8828,166.6725 C314.9186,166.6725 316.8499,166.1766 318.1027,165.2631 C319.0684,164.5845 319.6165,163.8276 319.6165,163.1751 C319.6165,162.4182 318.964,161.7657 318.181,161.7657 C317.8156,161.7657 317.4763,161.8962 317.1631,162.2094 C316.4063,163.0185 316.4063,163.0185 316.0931,163.1751 C315.3884,163.6188 314.24,163.8276 312.9611,163.8276 C309.542,163.8276 307.3758,162.0006 307.3758,159.1558 L307.3758,157.3288 C307.3758,154.3534 309.4637,152.1611 312.3608,152.1611 C313.3265,152.1611 314.3444,152.422 315.1274,152.8396 C315.9365,153.3094 316.2236,153.6748 316.3802,154.3534 C316.4845,155.032 316.5367,155.2408 316.7716,155.4496 C317.0065,155.6845 317.398,155.8672 317.7634,155.8672 C318.2071,155.8672 318.6508,155.6323 318.9379,155.2669 C319.1206,155.0059 319.1728,154.6927 319.1728,153.988 L319.1728,151.613 C319.1728,150.8822 319.1467,150.6734 318.9901,150.4124 C318.7291,149.9687 318.2593,149.7338 317.7634,149.7338 C317.2675,149.7338 316.9282,149.8904 316.5628,150.4124 L316.2758,150.2819 Z " fill="#000000"/><text fill="#000000" font-family="sans-serif" font-size="23.3853" font-weight="bold" lengthAdjust="spacing" textLength="86.8597" x="335.7461" y="165.6073">TForm</text></g><!--MD5=[343d14e8d0173ae9ab4a696e3f0b29c1]
reverse link <b>TForm</b> to <b>TAbiturLogDlg</b>--><g id="link_&lt;b&gt;TForm&lt;/b&gt;_&lt;b&gt;TAbiturLogDlg&lt;/b&gt;"><path codeLine="5" d="M357.461,218.4185 C357.461,237.6111 357.461,260.0928 357.461,283.732 " fill="none" id="&lt;b&gt;TForm&lt;/b&gt;-backto-&lt;b&gt;TAbiturLogDlg&lt;/b&gt;" style="stroke:#181818;stroke-width:1.6703786191536747;"/><polygon fill="none" points="345.7684,217.7353,357.461,184.3277,369.1537,217.7353,345.7684,217.7353" style="stroke:#181818;stroke-width:1.6703786191536747;"/></g><!--MD5=[9755c37711a2b9d946ab793a97c3fdaa]
@startuml
title Исходный файл: "AbituraLogDlg.cpp"

scale 750 width

"<b>TAbiturLogDlg</b>" -up-|> "<b>TForm</b>"

hide "<b>TForm</b>" members

class "<b>TAbiturLogDlg</b>"
{
    + Bevel1 \t\t\t\t: <i>TBevel *</i>
    + CancelBtn \t\t\t: <i>TButton *</i>
    + OKBtn \t\t\t\t: <i>TButton *</i>
    + DateTimePicker1 \t: <i>TDateTimePicker *</i>
    + Label1 \t\t\t\t: <i>TLabel *</i>
    + Label2 \t\t\t\t: <i>TLabel *</i>
    - -
    
    + <b>{abstract} TAbiturLogDlg (AOwner \t: <i>TComponent *</i>) virtual</b>

    + CancelBtnClick \t(Sender \t: <i>TObject *</i>) : <i>void</i>
    + FormActivate \t(Sender \t: <i>TObject *</i>) : <i>void</i>
    + OKBtnClick \t\t(Sender \t: <i>TObject *</i>) : <i>void</i>
}


package TAbiturLogDlg <<Folder>> {
    class TAbiturLogDlg

    hide TAbiturLogDlg members
}
@enduml

PlantUML version 1.2022.5(Sat Apr 30 10:55:52 UTC 2022)
(GPL source distribution)
Java Runtime: Java(TM) SE Runtime Environment
JVM: Java HotSpot(TM) 64-Bit Server VM
Default Encoding: UTF-8
Language: en
Country: US
--></g></svg>