<?xml version="1.0" encoding="UTF-8" standalone="no"?><svg xmlns="http://www.w3.org/2000/svg" xmlns:xlink="http://www.w3.org/1999/xlink" contentStyleType="text/css" height="661.3786px" preserveAspectRatio="none" style="width:751px;height:661px;background:#FFFFFF;" version="1.1" viewBox="0 0 751 661" width="751.6411px" zoomAndPan="magnify"><defs/><g><rect height="43.1568" style="stroke:#00000000;stroke-width:1.6411378555798688;fill:none;" width="523.523" x="102.5711" y="8.2057"/><text fill="#000000" font-family="sans-serif" font-size="22.9759" font-weight="bold" lengthAdjust="spacing" textLength="507.1116" x="110.7768" y="37.7382">Исходный файл: "Print_OpisUnit.cpp"</text><!--MD5=[bc97c5f6c30bedbc92d2961988ccafff]
cluster TPrint_OpisForm--><g id="cluster_TPrint_OpisForm"><path d="M442.2867,71.0561 L665.4814,71.0561 A6.1543,6.1543 0 0 1 669.5842,75.159 L681.0722,107.6484 L736.0503,107.6484 A4.1028,4.1028 0 0 1 740.1532,111.7512 L740.1532,229.4259 A4.1028,4.1028 0 0 1 736.0503,233.5288 L442.2867,233.5288 A4.1028,4.1028 0 0 1 438.1838,229.4259 L438.1838,75.159 A4.1028,4.1028 0 0 1 442.2867,71.0561 " style="stroke:#000000;stroke-width:2.461706783369803;fill:none;"/><line style="stroke:#000000;stroke-width:2.461706783369803;fill:none;" x1="438.1838" x2="681.0722" y1="107.6484" y2="107.6484"/><text fill="#000000" font-family="sans-serif" font-size="22.9759" font-weight="bold" lengthAdjust="spacing" textLength="221.5536" x="444.7484" y="95.6652">TPrint_OpisForm</text></g><!--MD5=[052ce0162f7b91988dc6a80f8471eb95]
class TPrint_OpisForm--><g id="elem_TPrint_OpisForm"><rect codeLine="28" fill="#F1F1F1" height="78.7746" id="TPrint_OpisForm" rx="4.1028" ry="4.1028" style="stroke:#181818;stroke-width:0.8205689277899344;" width="249.453" x="464.442" y="128.496"/><ellipse cx="489.0591" cy="154.7542" fill="#ADD1B2" rx="18.0525" ry="18.0525" style="stroke:#181818;stroke-width:1.6411378555798688;"/><path d="M492.9055,147.6511 C491.3669,146.9331 490.3925,146.7023 488.9565,146.7023 C484.6485,146.7023 481.3662,150.1128 481.3662,154.5747 L481.3662,156.421 C481.3662,160.652 484.828,163.7548 489.5719,163.7548 C491.5721,163.7548 493.4696,163.2676 494.7005,162.3701 C495.6493,161.7034 496.1878,160.9597 496.1878,160.3187 C496.1878,159.575 495.5467,158.9339 494.7774,158.9339 C494.4184,158.9339 494.0851,159.0622 493.7774,159.3699 C493.0337,160.1648 493.0337,160.1648 492.726,160.3187 C492.0336,160.7546 490.9054,160.9597 489.6489,160.9597 C486.2897,160.9597 484.1613,159.1647 484.1613,156.3697 L484.1613,154.5747 C484.1613,151.6514 486.2127,149.4974 489.0591,149.4974 C490.0079,149.4974 491.0079,149.7538 491.7772,150.1641 C492.5721,150.6257 492.8542,150.9847 493.0081,151.6514 C493.1106,152.3181 493.1619,152.5232 493.3927,152.7284 C493.6235,152.9592 494.0081,153.1387 494.3671,153.1387 C494.8031,153.1387 495.239,152.9079 495.5211,152.5489 C495.7006,152.2925 495.7518,151.9848 495.7518,151.2924 L495.7518,148.9589 C495.7518,148.2409 495.7262,148.0358 495.5723,147.7793 C495.3159,147.3434 494.8543,147.1126 494.3671,147.1126 C493.8799,147.1126 493.5466,147.2665 493.1876,147.7793 L492.9055,147.6511 Z " fill="#000000"/><text fill="#000000" font-family="sans-serif" font-size="22.9759" lengthAdjust="spacing" textLength="196.9365" x="512.035" y="162.7082">TPrint_OpisForm</text><line style="stroke:#181818;stroke-width:0.8205689277899344;" x1="466.0832" x2="712.2538" y1="181.0124" y2="181.0124"/><line style="stroke:#181818;stroke-width:0.8205689277899344;" x1="466.0832" x2="712.2538" y1="194.1415" y2="194.1415"/></g><!--MD5=[ff4465fa5a97e61dc62be4f0e67c1df4]
class <b>TPrint_OpisForm</b>--><g id="elem_&lt;b&gt;TPrint_OpisForm&lt;/b&gt;"><rect codeLine="9" fill="#F1F1F1" height="345.7416" id="&lt;b&gt;TPrint_OpisForm&lt;/b&gt;" rx="4.1028" ry="4.1028" style="stroke:#181818;stroke-width:0.8205689277899344;" width="653.1729" x="11.488" y="305.7389"/><ellipse cx="220.3228" cy="331.9971" fill="#ADD1B2" rx="18.0525" ry="18.0525" style="stroke:#181818;stroke-width:1.6411378555798688;"/><path d="M224.1692,324.894 C222.6306,324.176 221.6562,323.9452 220.2202,323.9452 C215.9122,323.9452 212.6299,327.3557 212.6299,331.8176 L212.6299,333.6638 C212.6299,337.8949 216.0917,340.9977 220.8356,340.9977 C222.8357,340.9977 224.7333,340.5105 225.9642,339.613 C226.913,338.9463 227.4514,338.2026 227.4514,337.5615 C227.4514,336.8179 226.8104,336.1768 226.0411,336.1768 C225.6821,336.1768 225.3487,336.305 225.041,336.6128 C224.2974,337.4077 224.2974,337.4077 223.9897,337.5615 C223.2973,337.9975 222.169,338.2026 220.9125,338.2026 C217.5533,338.2026 215.425,336.4076 215.425,333.6126 L215.425,331.8176 C215.425,328.8943 217.4764,326.7403 220.3228,326.7403 C221.2715,326.7403 222.2716,326.9967 223.0409,327.407 C223.8358,327.8686 224.1179,328.2276 224.2717,328.8943 C224.3743,329.561 224.4256,329.7661 224.6564,329.9713 C224.8872,330.2021 225.2718,330.3816 225.6308,330.3816 C226.0667,330.3816 226.5027,330.1508 226.7847,329.7918 C226.9642,329.5354 227.0155,329.2276 227.0155,328.5353 L227.0155,326.2018 C227.0155,325.4838 226.9899,325.2787 226.836,325.0222 C226.5796,324.5863 226.118,324.3555 225.6308,324.3555 C225.1436,324.3555 224.8102,324.5094 224.4512,325.0222 L224.1692,324.894 Z " fill="#000000"/><text fill="#000000" font-family="sans-serif" font-size="22.9759" font-weight="bold" lengthAdjust="spacing" textLength="221.5536" x="253.9661" y="339.9511">TPrint_OpisForm</text><line style="stroke:#181818;stroke-width:0.8205689277899344;" x1="13.1291" x2="663.0197" y1="358.2553" y2="358.2553"/><ellipse cx="29.5405" cy="376.3078" fill="none" rx="4.9234" ry="4.9234" style="stroke:#038048;stroke-width:1.6411378555798688;"/><text fill="#000000" font-family="sans-serif" font-size="22.9759" lengthAdjust="spacing" textLength="175.6018" x="44.3107" y="386.1466">frxDBDataset1</text><text fill="#000000" font-family="sans-serif" font-size="22.9759" lengthAdjust="spacing" textLength="8.2057" x="254.3764" y="386.1466">:</text><text fill="#000000" font-family="sans-serif" font-size="22.9759" font-style="italic" lengthAdjust="spacing" textLength="188.7309" x="269.1466" y="386.1466">TfrxDBDataset *</text><line style="stroke:#181818;stroke-width:1.6411378555798688;stroke-dasharray:1.0,2.0;" x1="13.1291" x2="663.0197" y1="398.1298" y2="398.1298"/><ellipse cx="29.5405" cy="416.1823" fill="none" rx="4.9234" ry="4.9234" style="stroke:#038048;stroke-width:1.6411378555798688;"/><text fill="#000000" font-family="sans-serif" font-size="22.9759" lengthAdjust="spacing" textLength="132.9322" x="44.3107" y="426.0211">frxRepOpis</text><text fill="#000000" font-family="sans-serif" font-size="22.9759" lengthAdjust="spacing" textLength="8.2057" x="254.3764" y="426.0211">:</text><text fill="#000000" font-family="sans-serif" font-size="22.9759" font-style="italic" lengthAdjust="spacing" textLength="142.779" x="269.1466" y="426.0211">TfrxReport *</text><line style="stroke:#181818;stroke-width:1.6411378555798688;" x1="13.1291" x2="663.0197" y1="438.0043" y2="438.0043"/><text fill="#000000" font-family="sans-serif" font-size="22.9759" lengthAdjust="spacing" textLength="6.5646" x="44.3107" y="465.8956"> </text><ellipse cx="29.5405" cy="482.8022" fill="#84BE84" rx="4.9234" ry="4.9234" style="stroke:#038048;stroke-width:1.6411378555798688;"/><text fill="#000000" font-family="sans-serif" font-size="22.9759" font-weight="bold" lengthAdjust="spacing" textLength="221.5536" x="44.3107" y="492.6411">TPrint_OpisForm</text><text fill="#000000" font-family="sans-serif" font-size="22.9759" font-weight="bold" lengthAdjust="spacing" textLength="93.5449" x="306.8928" y="492.6411">(Owner</text><text fill="#000000" font-family="sans-serif" font-size="22.9759" font-weight="bold" lengthAdjust="spacing" textLength="9.8468" x="438.1838" y="492.6411">:</text><text fill="#000000" font-family="sans-serif" font-size="22.9759" font-style="italic" font-weight="bold" lengthAdjust="spacing" textLength="187.0897" x="456.2363" y="492.6411">TComponent *</text><text fill="#000000" font-family="sans-serif" font-size="22.9759" font-weight="bold" lengthAdjust="spacing" textLength="11.488" x="643.326" y="492.6411">)</text><text fill="#000000" font-family="sans-serif" font-size="22.9759" lengthAdjust="spacing" textLength="6.5646" x="44.3107" y="519.3865"> </text><line style="stroke:#181818;stroke-width:1.6411378555798688;stroke-dasharray:1.0,2.0;" x1="13.1291" x2="663.0197" y1="531.3697" y2="531.3697"/><ellipse cx="29.5405" cy="549.4222" fill="#84BE84" rx="4.9234" ry="4.9234" style="stroke:#038048;stroke-width:1.6411378555798688;"/><text fill="#000000" font-family="sans-serif" font-size="22.9759" lengthAdjust="spacing" textLength="124.7265" x="44.3107" y="559.261">FormClose</text><text fill="#000000" font-family="sans-serif" font-size="22.9759" lengthAdjust="spacing" textLength="8.2057" x="201.86" y="559.261">(</text><text fill="#000000" font-family="sans-serif" font-size="22.9759" lengthAdjust="spacing" textLength="83.698" x="149.3435" y="586.0064">Sender</text><text fill="#000000" font-family="sans-serif" font-size="22.9759" lengthAdjust="spacing" textLength="8.2057" x="254.3764" y="586.0064">:</text><text fill="#000000" font-family="sans-serif" font-size="22.9759" font-style="italic" lengthAdjust="spacing" textLength="108.3151" x="269.1466" y="586.0064">TObject *</text><text fill="#000000" font-family="sans-serif" font-size="22.9759" lengthAdjust="spacing" textLength="6.5646" x="377.4617" y="586.0064">,</text><text fill="#000000" font-family="sans-serif" font-size="22.9759" lengthAdjust="spacing" textLength="77.1335" x="149.3435" y="612.7518">Action</text><text fill="#000000" font-family="sans-serif" font-size="22.9759" lengthAdjust="spacing" textLength="8.2057" x="254.3764" y="612.7518">:</text><text fill="#000000" font-family="sans-serif" font-size="22.9759" font-style="italic" lengthAdjust="spacing" textLength="177.2429" x="269.1466" y="612.7518">TCloseAction &amp;</text><text fill="#000000" font-family="sans-serif" font-size="22.9759" lengthAdjust="spacing" textLength="22.9759" x="96.8271" y="639.4973">) :</text><text fill="#000000" font-family="sans-serif" font-size="22.9759" font-style="italic" lengthAdjust="spacing" textLength="49.2341" x="126.3676" y="639.4973">void</text></g><!--MD5=[dd0bf217da5c5e97452bc452f42aff32]
class <b>TForm</b>--><g id="elem_&lt;b&gt;TForm&lt;/b&gt;"><rect fill="#F1F1F1" height="52.5164" id="&lt;b&gt;TForm&lt;/b&gt;" rx="4.1028" ry="4.1028" style="stroke:#181818;stroke-width:0.8205689277899344;" width="137.8556" x="269.1466" y="141.6251"/><ellipse cx="293.7637" cy="167.8833" fill="#ADD1B2" rx="18.0525" ry="18.0525" style="stroke:#181818;stroke-width:1.6411378555798688;"/><path d="M297.6101,160.7802 C296.0715,160.0622 295.0971,159.8314 293.6611,159.8314 C289.3531,159.8314 286.0708,163.2419 286.0708,167.7038 L286.0708,169.5501 C286.0708,173.7811 289.5326,176.8839 294.2765,176.8839 C296.2767,176.8839 298.1742,176.3967 299.4051,175.4992 C300.3539,174.8325 300.8924,174.0888 300.8924,173.4478 C300.8924,172.7041 300.2513,172.063 299.482,172.063 C299.123,172.063 298.7897,172.1913 298.4819,172.499 C297.7383,173.2939 297.7383,173.2939 297.4306,173.4478 C296.7382,173.8837 295.61,174.0888 294.3535,174.0888 C290.9943,174.0888 288.8659,172.2938 288.8659,169.4988 L288.8659,167.7038 C288.8659,164.7805 290.9173,162.6265 293.7637,162.6265 C294.7125,162.6265 295.7125,162.8829 296.4818,163.2932 C297.2767,163.7548 297.5588,164.1138 297.7127,164.7805 C297.8152,165.4472 297.8665,165.6524 298.0973,165.8575 C298.3281,166.0883 298.7127,166.2678 299.0717,166.2678 C299.5077,166.2678 299.9436,166.037 300.2257,165.678 C300.4052,165.4216 300.4564,165.1139 300.4564,164.4215 L300.4564,162.088 C300.4564,161.37 300.4308,161.1649 300.2769,160.9084 C300.0205,160.4725 299.5589,160.2417 299.0717,160.2417 C298.5845,160.2417 298.2512,160.3956 297.8922,160.9084 L297.6101,160.7802 Z " fill="#000000"/><text fill="#000000" font-family="sans-serif" font-size="22.9759" font-weight="bold" lengthAdjust="spacing" textLength="85.3392" x="316.7396" y="175.8373">TForm</text></g><!--MD5=[d7ca1d9496e91c3e9f84864ff303eaad]
reverse link <b>TForm</b> to <b>TPrint_OpisForm</b>--><g id="link_&lt;b&gt;TForm&lt;/b&gt;_&lt;b&gt;TPrint_OpisForm&lt;/b&gt;"><path codeLine="5" d="M338.0744,227.2941 C338.0744,249.9746 338.0744,277.3012 338.0744,305.4402 " fill="none" id="&lt;b&gt;TForm&lt;/b&gt;-backto-&lt;b&gt;TPrint_OpisForm&lt;/b&gt;" style="stroke:#181818;stroke-width:1.6411378555798688;"/><polygon fill="none" points="326.5864,227.0085,338.0744,194.1858,349.5624,227.0085,326.5864,227.0085" style="stroke:#181818;stroke-width:1.6411378555798688;"/></g><!--MD5=[61d0473c81ff2001a0c4e68ed73e8d10]
@startuml
title Исходный файл: "Print_OpisUnit.cpp"

scale 750 width

"<b>TPrint_OpisForm</b>" -up-|> "<b>TForm</b>"

hide "<b>TForm</b>" members

class "<b>TPrint_OpisForm</b>"
{
    + frxDBDataset1 \t: <i>TfrxDBDataset *</i>
    ..
    + frxRepOpis \t\t: <i>TfrxReport *</i>
    - -
    
    + <b>TPrint_OpisForm \t(Owner \t: <i>TComponent *</i>)</b>

    ..
    + FormClose \t(
            \t\tSender \t: <i>TObject *</i>,
            \t\tAction \t: <i>TCloseAction &</i>
        \t) : <i>void</i>
}


package TPrint_OpisForm <<Folder>>
{
    class TPrint_OpisForm
    hide  members
}


' note right of "<b>TPrint_OpisForm</b>"::Save_Priv
' сохранение привелегий (сирота, Чаэс, инвалид)
' end note
@enduml

@startuml
title Исходный файл: "Print_OpisUnit.cpp"

scale 750 width

"<b>TPrint_OpisForm</b>" -up-|> "<b>TForm</b>"

hide "<b>TForm</b>" members

class "<b>TPrint_OpisForm</b>"
{
    + frxDBDataset1 \t: <i>TfrxDBDataset *</i>
    ..
    + frxRepOpis \t\t: <i>TfrxReport *</i>
    - -
    
    + <b>TPrint_OpisForm \t(Owner \t: <i>TComponent *</i>)</b>

    ..
    + FormClose \t(
            \t\tSender \t: <i>TObject *</i>,
            \t\tAction \t: <i>TCloseAction &</i>
        \t) : <i>void</i>
}


package TPrint_OpisForm <<Folder>>
{
    class TPrint_OpisForm
    hide  members
}


@enduml

PlantUML version 1.2022.5(Sat Apr 30 10:55:52 UTC 2022)
(GPL source distribution)
Java Runtime: Java(TM) SE Runtime Environment
JVM: Java HotSpot(TM) 64-Bit Server VM
Default Encoding: UTF-8
Language: en
Country: US
--></g></svg>