<?xml version="1.0" encoding="UTF-8" standalone="no"?><svg xmlns="http://www.w3.org/2000/svg" xmlns:xlink="http://www.w3.org/1999/xlink" contentStyleType="text/css" height="651.0989px" preserveAspectRatio="none" style="width:751px;height:651px;background:#FFFFFF;" version="1.1" viewBox="0 0 751 651" width="751.6484px" zoomAndPan="magnify"><defs/><g><rect height="43.3465" style="stroke:#00000000;stroke-width:1.6483516483516485;fill:none;" width="522.5275" x="103.022" y="8.2418"/><text fill="#000000" font-family="sans-serif" font-size="23.0769" font-weight="bold" lengthAdjust="spacing" textLength="506.044" x="111.2637" y="37.904">Исходный файл: "Exam_ListUnit.cpp"</text><!--MD5=[9e7a29350d727c5d6edd22152e03cc9a]
cluster TExam_ListForm--><g id="cluster_TExam_ListForm"><path d="M444.2308,71.3685 L665.1099,71.3685 A6.1813,6.1813 0 0 1 669.2308,75.4894 L680.7692,108.1216 L735.989,108.1216 A4.1209,4.1209 0 0 1 740.1099,112.2424 L740.1099,230.4344 A4.1209,4.1209 0 0 1 735.989,234.5553 L444.2308,234.5553 A4.1209,4.1209 0 0 1 440.1099,230.4344 L440.1099,75.4894 A4.1209,4.1209 0 0 1 444.2308,71.3685 " style="stroke:#000000;stroke-width:2.4725274725274726;fill:none;"/><line style="stroke:#000000;stroke-width:2.4725274725274726;fill:none;" x1="440.1099" x2="680.7692" y1="108.1216" y2="108.1216"/><text fill="#000000" font-family="sans-serif" font-size="23.0769" font-weight="bold" lengthAdjust="spacing" textLength="219.2308" x="446.7033" y="96.0857">TExam_ListForm</text></g><!--MD5=[9ff5b7f8ffc906285ec2c9949524a2b2]
class TExam_ListForm--><g id="elem_TExam_ListForm"><rect codeLine="27" fill="#F1F1F1" height="79.1209" id="TExam_ListForm" rx="4.1209" ry="4.1209" style="stroke:#181818;stroke-width:0.8241758241758242;" width="247.2527" x="466.4835" y="129.0608"/><ellipse cx="491.2088" cy="155.4344" fill="#ADD1B2" rx="18.1319" ry="18.1319" style="stroke:#181818;stroke-width:1.6483516483516485;"/><path d="M495.0721,148.3001 C493.5268,147.579 492.5481,147.3472 491.1058,147.3472 C486.7788,147.3472 483.4821,150.7727 483.4821,155.2541 L483.4821,157.1085 C483.4821,161.3582 486.9591,164.4746 491.7239,164.4746 C493.7328,164.4746 495.6387,163.9852 496.875,163.0838 C497.828,162.4141 498.3688,161.6672 498.3688,161.0234 C498.3688,160.2764 497.7249,159.6326 496.9523,159.6326 C496.5917,159.6326 496.2569,159.7613 495.9478,160.0704 C495.2009,160.8688 495.2009,160.8688 494.8918,161.0234 C494.1964,161.4612 493.0632,161.6672 491.8012,161.6672 C488.4272,161.6672 486.2895,159.8644 486.2895,157.057 L486.2895,155.2541 C486.2895,152.318 488.3499,150.1545 491.2088,150.1545 C492.1617,150.1545 493.1662,150.4121 493.9389,150.8242 C494.7373,151.2878 495.0206,151.6484 495.1751,152.318 C495.2782,152.9876 495.3297,153.1937 495.5615,153.3997 C495.7933,153.6315 496.1796,153.8118 496.5402,153.8118 C496.978,153.8118 497.4159,153.58 497.6992,153.2194 C497.8795,152.9619 497.931,152.6528 497.931,151.9574 L497.931,149.6137 C497.931,148.8925 497.9052,148.6865 497.7507,148.4289 C497.4931,147.9911 497.0295,147.7593 496.5402,147.7593 C496.0508,147.7593 495.716,147.9138 495.3554,148.4289 L495.0721,148.3001 Z " fill="#000000"/><text fill="#000000" font-family="sans-serif" font-size="23.0769" lengthAdjust="spacing" textLength="194.5055" x="514.2857" y="163.4234">TExam_ListForm</text><line style="stroke:#181818;stroke-width:0.8241758241758242;" x1="468.1319" x2="712.0879" y1="181.808" y2="181.808"/><line style="stroke:#181818;stroke-width:0.8241758241758242;" x1="468.1319" x2="712.0879" y1="194.9948" y2="194.9948"/></g><!--MD5=[210a0d9d73f86dbc49853d0e38913696]
class <b>TExam_ListForm</b>--><g id="elem_&lt;b&gt;TExam_ListForm&lt;/b&gt;"><rect codeLine="9" fill="#F1F1F1" height="334.0745" id="&lt;b&gt;TExam_ListForm&lt;/b&gt;" rx="4.1209" ry="4.1209" style="stroke:#181818;stroke-width:0.8241758241758242;" width="656.044" x="11.5385" y="307.0828"/><ellipse cx="222.9396" cy="333.4564" fill="#ADD1B2" rx="18.1319" ry="18.1319" style="stroke:#181818;stroke-width:1.6483516483516485;"/><path d="M226.8029,326.3221 C225.2576,325.601 224.2788,325.3692 222.8365,325.3692 C218.5096,325.3692 215.2129,328.7946 215.2129,333.2761 L215.2129,335.1305 C215.2129,339.3802 218.6899,342.4966 223.4547,342.4966 C225.4636,342.4966 227.3695,342.0072 228.6058,341.1058 C229.5587,340.4361 230.0996,339.6892 230.0996,339.0453 C230.0996,338.2984 229.4557,337.6545 228.683,337.6545 C228.3225,337.6545 227.9876,337.7833 227.6786,338.0924 C226.9317,338.8908 226.9317,338.8908 226.6226,339.0453 C225.9272,339.4832 224.794,339.6892 223.5319,339.6892 C220.158,339.6892 218.0203,337.8863 218.0203,335.079 L218.0203,333.2761 C218.0203,330.34 220.0807,328.1765 222.9396,328.1765 C223.8925,328.1765 224.897,328.4341 225.6696,328.8462 C226.4681,329.3098 226.7514,329.6703 226.9059,330.34 C227.0089,331.0096 227.0604,331.2157 227.2922,331.4217 C227.524,331.6535 227.9104,331.8338 228.2709,331.8338 C228.7088,331.8338 229.1466,331.602 229.4299,331.2414 C229.6102,330.9839 229.6617,330.6748 229.6617,329.9794 L229.6617,327.6356 C229.6617,326.9145 229.636,326.7084 229.4815,326.4509 C229.2239,326.013 228.7603,325.7813 228.2709,325.7813 C227.7816,325.7813 227.4468,325.9358 227.0862,326.4509 L226.8029,326.3221 Z " fill="#000000"/><text fill="#000000" font-family="sans-serif" font-size="23.0769" font-weight="bold" lengthAdjust="spacing" textLength="219.2308" x="256.7308" y="341.4454">TExam_ListForm</text><line style="stroke:#181818;stroke-width:0.8241758241758242;" x1="13.1868" x2="665.9341" y1="359.83" y2="359.83"/><ellipse cx="29.6703" cy="377.9619" fill="none" rx="4.9451" ry="4.9451" style="stroke:#038048;stroke-width:1.6483516483516485;"/><text fill="#000000" font-family="sans-serif" font-size="23.0769" lengthAdjust="spacing" textLength="176.3736" x="44.5055" y="387.8439">frxDBDataset1</text><text fill="#000000" font-family="sans-serif" font-size="23.0769" lengthAdjust="spacing" textLength="8.2418" x="255.4945" y="387.8439">:</text><text fill="#000000" font-family="sans-serif" font-size="23.0769" font-style="italic" lengthAdjust="spacing" textLength="189.5604" x="270.3297" y="387.8439">TfrxDBDataset *</text><ellipse cx="29.6703" cy="404.8249" fill="none" rx="4.9451" ry="4.9451" style="stroke:#038048;stroke-width:1.6483516483516485;"/><text fill="#000000" font-family="sans-serif" font-size="23.0769" lengthAdjust="spacing" textLength="145.0549" x="44.5055" y="414.7069">frxRepExam</text><text fill="#000000" font-family="sans-serif" font-size="23.0769" lengthAdjust="spacing" textLength="8.2418" x="255.4945" y="414.7069">:</text><text fill="#000000" font-family="sans-serif" font-size="23.0769" font-style="italic" lengthAdjust="spacing" textLength="143.4066" x="270.3297" y="414.7069">TfrxReport *</text><line style="stroke:#181818;stroke-width:1.6483516483516485;" x1="13.1868" x2="665.9341" y1="426.7428" y2="426.7428"/><text fill="#000000" font-family="sans-serif" font-size="23.0769" lengthAdjust="spacing" textLength="6.5934" x="44.5055" y="454.7567"> </text><ellipse cx="29.6703" cy="471.7376" fill="#84BE84" rx="4.9451" ry="4.9451" style="stroke:#038048;stroke-width:1.6483516483516485;"/><text fill="#000000" font-family="sans-serif" font-size="23.0769" font-weight="bold" lengthAdjust="spacing" textLength="219.2308" x="44.5055" y="481.6197">TExam_ListForm</text><text fill="#000000" font-family="sans-serif" font-size="23.0769" font-weight="bold" lengthAdjust="spacing" textLength="93.956" x="308.2418" y="481.6197">(Owner</text><text fill="#000000" font-family="sans-serif" font-size="23.0769" font-weight="bold" lengthAdjust="spacing" textLength="9.8901" x="440.1099" y="481.6197">:</text><text fill="#000000" font-family="sans-serif" font-size="23.0769" font-style="italic" font-weight="bold" lengthAdjust="spacing" textLength="187.9121" x="458.2418" y="481.6197">TComponent *</text><text fill="#000000" font-family="sans-serif" font-size="23.0769" font-weight="bold" lengthAdjust="spacing" textLength="11.5385" x="646.1538" y="481.6197">)</text><text fill="#000000" font-family="sans-serif" font-size="23.0769" lengthAdjust="spacing" textLength="6.5934" x="44.5055" y="508.4827"> </text><line style="stroke:#181818;stroke-width:1.6483516483516485;stroke-dasharray:1.0,2.0;" x1="13.1868" x2="665.9341" y1="520.5185" y2="520.5185"/><ellipse cx="29.6703" cy="538.6504" fill="#84BE84" rx="4.9451" ry="4.9451" style="stroke:#038048;stroke-width:1.6483516483516485;"/><text fill="#000000" font-family="sans-serif" font-size="23.0769" lengthAdjust="spacing" textLength="125.2747" x="44.5055" y="548.5325">FormClose</text><text fill="#000000" font-family="sans-serif" font-size="23.0769" lengthAdjust="spacing" textLength="8.2418" x="202.7473" y="548.5325">(</text><text fill="#000000" font-family="sans-serif" font-size="23.0769" lengthAdjust="spacing" textLength="84.0659" x="150" y="575.3955">Sender</text><text fill="#000000" font-family="sans-serif" font-size="23.0769" lengthAdjust="spacing" textLength="8.2418" x="255.4945" y="575.3955">:</text><text fill="#000000" font-family="sans-serif" font-size="23.0769" font-style="italic" lengthAdjust="spacing" textLength="108.7912" x="270.3297" y="575.3955">TObject *</text><text fill="#000000" font-family="sans-serif" font-size="23.0769" lengthAdjust="spacing" textLength="6.5934" x="379.1209" y="575.3955">,</text><text fill="#000000" font-family="sans-serif" font-size="23.0769" lengthAdjust="spacing" textLength="77.4725" x="150" y="602.2584">Action</text><text fill="#000000" font-family="sans-serif" font-size="23.0769" lengthAdjust="spacing" textLength="8.2418" x="255.4945" y="602.2584">:</text><text fill="#000000" font-family="sans-serif" font-size="23.0769" font-style="italic" lengthAdjust="spacing" textLength="178.022" x="270.3297" y="602.2584">TCloseAction &amp;</text><text fill="#000000" font-family="sans-serif" font-size="23.0769" lengthAdjust="spacing" textLength="23.0769" x="97.2527" y="629.1214">) :</text><text fill="#000000" font-family="sans-serif" font-size="23.0769" font-style="italic" lengthAdjust="spacing" textLength="49.4505" x="126.9231" y="629.1214">void</text></g><!--MD5=[dd0bf217da5c5e97452bc452f42aff32]
class <b>TForm</b>--><g id="elem_&lt;b&gt;TForm&lt;/b&gt;"><rect fill="#F1F1F1" height="52.7473" id="&lt;b&gt;TForm&lt;/b&gt;" rx="4.1209" ry="4.1209" style="stroke:#181818;stroke-width:0.8241758241758242;" width="138.4615" x="270.3297" y="142.2476"/><ellipse cx="295.0549" cy="168.6212" fill="#ADD1B2" rx="18.1319" ry="18.1319" style="stroke:#181818;stroke-width:1.6483516483516485;"/><path d="M298.9183,161.487 C297.3729,160.7658 296.3942,160.534 294.9519,160.534 C290.625,160.534 287.3283,163.9595 287.3283,168.4409 L287.3283,170.2953 C287.3283,174.545 290.8053,177.6614 295.5701,177.6614 C297.579,177.6614 299.4849,177.172 300.7212,176.2706 C301.6741,175.601 302.215,174.8541 302.215,174.2102 C302.215,173.4633 301.5711,172.8194 300.7984,172.8194 C300.4378,172.8194 300.103,172.9481 299.794,173.2572 C299.047,174.0556 299.047,174.0556 298.738,174.2102 C298.0426,174.648 296.9093,174.8541 295.6473,174.8541 C292.2734,174.8541 290.1356,173.0512 290.1356,170.2438 L290.1356,168.4409 C290.1356,165.5048 292.1961,163.3413 295.0549,163.3413 C296.0079,163.3413 297.0124,163.5989 297.785,164.011 C298.5834,164.4746 298.8668,164.8352 299.0213,165.5048 C299.1243,166.1745 299.1758,166.3805 299.4076,166.5865 C299.6394,166.8183 300.0258,166.9986 300.3863,166.9986 C300.8242,166.9986 301.262,166.7668 301.5453,166.4063 C301.7256,166.1487 301.7771,165.8396 301.7771,165.1442 L301.7771,162.8005 C301.7771,162.0793 301.7514,161.8733 301.5968,161.6157 C301.3393,161.1779 300.8757,160.9461 300.3863,160.9461 C299.897,160.9461 299.5622,161.1006 299.2016,161.6157 L298.9183,161.487 Z " fill="#000000"/><text fill="#000000" font-family="sans-serif" font-size="23.0769" font-weight="bold" lengthAdjust="spacing" textLength="85.7143" x="318.1319" y="176.6103">TForm</text></g><!--MD5=[f571d1849aa20a18136e38d52431baab]
reverse link <b>TForm</b> to <b>TExam_ListForm</b>--><g id="link_&lt;b&gt;TForm&lt;/b&gt;_&lt;b&gt;TExam_ListForm&lt;/b&gt;"><path codeLine="5" d="M339.5604,228.3113 C339.5604,251.1014 339.5604,278.5168 339.5604,306.6262 " fill="none" id="&lt;b&gt;TForm&lt;/b&gt;-backto-&lt;b&gt;TExam_ListForm&lt;/b&gt;" style="stroke:#181818;stroke-width:1.6483516483516485;"/><polygon fill="none" points="328.022,227.9899,339.5604,195.0229,351.0989,227.9899,328.022,227.9899" style="stroke:#181818;stroke-width:1.6483516483516485;"/></g><!--MD5=[4a0ff7e320324f5a52a97f9ca1fca9b8]
@startuml
title Исходный файл: "Exam_ListUnit.cpp"

scale 750 width

"<b>TExam_ListForm</b>" -up-|> "<b>TForm</b>"

hide "<b>TForm</b>" members

class "<b>TExam_ListForm</b>"
{
    + frxDBDataset1 \t: <i>TfrxDBDataset *</i>
    + frxRepExam \t\t: <i>TfrxReport *</i>
    - -
    
    + <b>TExam_ListForm \t(Owner \t: <i>TComponent *</i>)</b>

    ..
    + FormClose \t(
            \t\tSender \t: <i>TObject *</i>,
            \t\tAction \t: <i>TCloseAction &</i>
        \t) : <i>void</i>
}


package TExam_ListForm <<Folder>>
{
    class TExam_ListForm
    hide  members
}
@enduml

PlantUML version 1.2022.5(Sat Apr 30 10:55:52 UTC 2022)
(GPL source distribution)
Java Runtime: Java(TM) SE Runtime Environment
JVM: Java HotSpot(TM) 64-Bit Server VM
Default Encoding: UTF-8
Language: en
Country: US
--></g></svg>